<svg width="144" height="144" viewBox="0 0 144 144" fill="none" xmlns="http://www.w3.org/2000/svg">
<g id="Shape">
<path id="Vector" opacity="0.2" d="M72 143.979C71.7053 143.975 71.423 143.86 71.2094 143.657L0.317947 72.7709C0.113934 72.5583 0 72.275 0 71.9803C0 71.6857 0.113934 71.4024 0.317947 71.1898L71.2094 0.304105C71.4205 0.108609 71.6976 0 71.9854 0C72.2731 0 72.5502 0.108609 72.7613 0.304105L143.682 71.1898C143.886 71.4024 144 71.6857 144 71.9803C144 72.275 143.886 72.5583 143.682 72.7709L84.8255 131.593C84.7245 131.697 84.6039 131.779 84.4706 131.836C84.3373 131.892 84.1941 131.921 84.0495 131.921C83.9048 131.921 83.7617 131.892 83.6284 131.836C83.4951 131.779 83.3745 131.697 83.2735 131.593L24.4462 72.7709C24.3417 72.6674 24.2588 72.5443 24.2022 72.4086C24.1456 72.2729 24.1165 72.1273 24.1165 71.9803C24.1165 71.8333 24.1456 71.6878 24.2022 71.5521C24.2588 71.4164 24.3417 71.2932 24.4462 71.1898L71.2972 24.3426C71.5083 24.1471 71.7855 24.0385 72.0732 24.0385C72.3609 24.0385 72.6381 24.1471 72.8492 24.3426L119.7 71.1898C119.898 71.4057 120.007 71.6877 120.007 71.9803C120.007 72.273 119.898 72.555 119.7 72.7709L84.5619 107.906C84.3508 108.102 84.0737 108.21 83.786 108.21C83.4982 108.21 83.2211 108.102 83.01 107.906L71.2972 96.1945L47.9889 72.7709C47.8844 72.6674 47.8015 72.5443 47.7449 72.4086C47.6883 72.2729 47.6591 72.1273 47.6591 71.9803C47.6591 71.8333 47.6883 71.6878 47.7449 71.5521C47.8015 71.4164 47.8844 71.2932 47.9889 71.1898L71.2094 47.9711C71.4205 47.7756 71.6976 47.667 71.9854 47.667C72.2731 47.667 72.5502 47.7756 72.7613 47.9711L96.0112 71.1898C96.2087 71.4057 96.3182 71.6877 96.3182 71.9803C96.3182 72.273 96.2087 72.555 96.0112 72.7709L73.5519 95.2283L83.7713 105.418L117.211 71.9803L72 26.7728L26.7595 71.9803L84.0641 129.251L141.34 71.9803L72 2.64646L2.57264 71.9803L72.8492 142.251C72.9528 142.352 73.0351 142.473 73.0913 142.606C73.1475 142.739 73.1765 142.882 73.1765 143.027C73.1765 143.172 73.1475 143.315 73.0913 143.448C73.0351 143.581 72.9528 143.702 72.8492 143.803C72.7266 143.888 72.5883 143.947 72.4424 143.977C72.2965 144.007 72.1461 144.008 72 143.979ZM50.3021 71.9803L72 93.6764L93.6686 71.9803L72 50.2842L50.3021 71.9803Z" fill="#0B6755"/>
</g>
</svg>
