<svg width="114" height="208" viewBox="0 0 114 208" fill="none" xmlns="http://www.w3.org/2000/svg">
<g id="Group 1000005064">
<path id="Vector" d="M91.4414 53.4073C79.8214 45.5786 65.9857 42.8213 56.926 42.8213C48.4572 42.8213 35.9509 44.1507 24.6755 50.5516C17.6346 54.4905 12.0707 59.9067 8.03329 66.6522C3.25726 74.5794 0.696915 84.4269 0.352254 95.8992C0.303016 97.6225 0.943105 99.2473 2.1248 100.478C3.3065 101.709 4.93133 102.398 6.65464 102.398H28.9099C32.0611 102.398 34.7692 100.035 35.1631 96.9332C36.1478 89.9415 40.2838 78.223 56.926 77.9275C69.6292 77.7306 74.8484 86.8887 76.5225 90.8277C79.2305 97.2778 78.5412 104.91 74.7007 111.261C68.8414 121.01 57.96 122.487 51.953 122.487C45.109 122.537 39.496 128.1 39.496 134.895V158.825C39.496 162.32 42.3517 165.176 45.8476 165.176H67.512C71.0079 165.176 73.8636 162.32 73.8636 158.825V153.802C73.8636 153.704 73.9621 153.556 74.0606 153.556C78.9843 151.833 88.4871 147.648 97.0544 139.13C107.985 128.248 113.549 114.215 113.549 97.3763C113.598 73.3485 101.535 60.2021 91.4414 53.4073Z" fill="white"/>
<path id="Vector_2" d="M56.1873 176.354H57.9599C66.5764 176.354 73.5681 183.345 73.5681 191.962C73.5681 200.578 66.5764 207.57 57.9599 207.57H56.1873C47.5708 207.57 40.5791 200.578 40.5791 191.962C40.5791 183.345 47.5708 176.354 56.1873 176.354Z" fill="#263238"/>
<path id="Vector_3" d="M45.7991 169.805H67.4635C70.9594 169.805 73.8152 167.047 73.8152 163.65V153.852C73.8152 153.753 73.9136 153.655 74.0121 153.606C76.5725 152.719 80.1668 151.144 84.2042 148.633C70.3685 148.534 45.1098 148.386 39.4967 148.583V163.601C39.4475 167.097 42.3033 169.805 45.7991 169.805Z" fill="#263238"/>
<path id="Vector_4" d="M63.6224 61.3834L49.7374 21.0088C46.7832 10.9151 38.4621 4.1696 28.4669 7.41927L27.5806 7.76393C18.4225 11.309 13.548 21.255 16.3053 30.6593C18.9148 39.4236 21.8691 49.0248 23.6909 53.5547C27.4329 62.9098 37.2804 60.3002 37.2804 60.3002C37.2804 60.3002 39.4468 66.5533 40.4316 69.3599L45.503 74.3821L47.6202 72.0679L63.6224 61.3834Z" fill="#FFC09D"/>
<path id="Vector_5" d="M37.2314 60.3009C37.2314 60.3009 43.2876 58.3314 48.1129 51.9305C48.1129 51.9305 47.916 60.1532 38.167 62.9597L37.2314 60.3009Z" fill="#FF9B6C"/>
<path id="Vector_6" d="M23.0508 37.0114C23.297 37.75 24.134 38.0946 24.8726 37.8484C25.6111 37.6022 26.0543 36.8144 25.8081 36.0759C25.5619 35.3373 24.7249 34.9927 23.9863 35.2388C23.2477 35.5343 22.8046 36.3221 23.0508 37.0114Z" fill="#263238"/>
<path id="Vector_7" d="M19.7028 33.5649C19.949 33.6634 20.6876 32.5309 22.1155 31.9893C23.5433 31.3985 24.922 31.7431 24.9712 31.4969C25.0205 31.3985 24.725 31.1523 24.1342 30.9553C23.5433 30.8076 22.6571 30.7584 21.7216 31.103C20.8353 31.4477 20.1952 32.0878 19.8998 32.5802C19.6536 33.171 19.6044 33.5157 19.7028 33.5649Z" fill="#263238"/>
<path id="Vector_8" d="M35.1638 32.2355C35.4099 32.334 36.1485 31.2015 37.5764 30.6599C39.0043 30.0691 40.3829 30.4137 40.4322 30.1675C40.4814 30.0691 40.186 29.8229 39.5951 29.6752C39.0043 29.5275 38.118 29.4782 37.1825 29.8229C36.2962 30.1675 35.6561 30.8076 35.3607 31.3C35.1145 31.7924 35.0653 32.1863 35.1638 32.2355Z" fill="#263238"/>
<path id="Vector_9" d="M33.1444 41.5408C33.0952 41.4423 32.1597 41.6393 30.6333 42.0332C30.2394 42.1316 29.8455 42.1809 29.6978 41.9839C29.5008 41.7377 29.5008 41.2946 29.5008 40.8022C29.5008 39.7682 29.5008 38.685 29.5008 37.5526C29.4516 32.9735 29.3039 29.2314 29.1069 29.2314C28.91 29.2314 28.8115 32.9735 28.8115 37.5526C28.8115 38.685 28.8608 39.7682 28.8608 40.8022C28.8608 41.2946 28.8115 41.8362 29.2054 42.3286C29.4024 42.5748 29.747 42.6732 30.0425 42.624C30.2886 42.624 30.5348 42.5255 30.6825 42.4763C32.2581 41.9839 33.1937 41.6393 33.1444 41.5408Z" fill="#263238"/>
<path id="Vector_10" d="M31.815 24.062C32.1596 24.3574 33.3906 23.4219 35.1139 22.7326C36.788 21.994 38.3143 21.7478 38.3635 21.3047C38.3635 21.1077 37.9696 20.8615 37.2311 20.8123C36.5418 20.7631 35.5078 20.8615 34.4738 21.3047C33.4398 21.7478 32.652 22.3879 32.2089 22.9295C31.815 23.4711 31.6673 23.9635 31.815 24.062Z" fill="#263238"/>
<path id="Vector_11" d="M18.0285 29.3301C18.4717 29.527 19.5057 28.7885 20.9335 28.2469C22.3614 27.656 23.6416 27.5083 23.7893 27.0652C23.8386 26.8682 23.5431 26.5728 22.903 26.4743C22.263 26.3758 21.3274 26.4251 20.3427 26.819C19.358 27.2129 18.6194 27.8037 18.2747 28.3453C17.8808 28.8377 17.8316 29.2316 18.0285 29.3301Z" fill="#263238"/>
<path id="Vector_12" d="M51.5107 27.8039C51.6585 27.6562 57.2223 23.3725 59.5364 29.9211C61.8014 36.4204 54.8096 37.4052 54.7112 37.2082C54.6127 37.0113 51.5107 27.8039 51.5107 27.8039Z" fill="#FFC09D"/>
<path id="Vector_13" d="M55.8428 34.0574C55.8428 34.0082 55.9905 34.1066 56.1875 34.1066C56.3844 34.1066 56.7291 34.0574 57.0245 33.8112C57.6154 33.3189 57.8123 32.0387 57.4184 30.857C57.2215 30.2661 56.9261 29.7245 56.5322 29.3306C56.1875 28.9367 55.7444 28.6905 55.3505 28.7398C54.9566 28.789 54.8088 29.0844 54.8088 29.2814C54.8088 29.4783 54.8581 29.626 54.8581 29.626C54.8581 29.626 54.6611 29.5768 54.6611 29.2814C54.6611 29.1337 54.6611 28.986 54.7596 28.789C54.8581 28.5921 55.055 28.4444 55.3505 28.3951C55.8428 28.2474 56.4829 28.5428 56.8768 28.986C57.3199 29.4291 57.7138 29.9707 57.9108 30.66C58.3539 31.9894 58.1077 33.4666 57.2215 34.0574C56.8276 34.3528 56.3844 34.3528 56.1383 34.2544C55.8921 34.2051 55.8428 34.0574 55.8428 34.0574Z" fill="#FF9B6C"/>
<path id="Vector_14" d="M38.0684 40.9011C37.8223 40.9504 38.3146 42.4767 37.4284 43.9539C36.4928 45.431 34.8188 45.8249 34.9172 46.0218C34.9172 46.1203 35.3604 46.2188 36.0497 45.9726C36.739 45.7757 37.6253 45.234 38.1669 44.2985C38.7085 43.363 38.7578 42.3783 38.61 41.7382C38.4623 41.1966 38.1669 40.8519 38.0684 40.9011Z" fill="#263238"/>
<path id="Vector_15" d="M0.00759537 26.0808C-0.041642 25.6377 0.155309 25.2438 0.401496 24.9483C0.992344 24.259 1.87862 24.0128 2.71565 23.7174C4.78362 22.9788 6.65464 21.6987 8.13176 20.1231C7.3932 20.0246 6.65463 19.8276 5.96531 19.5322C4.53743 18.8429 3.35574 17.4643 3.35574 15.8887C3.35574 15.5932 3.40497 15.2486 3.65116 15.1009C4.04506 14.8054 4.53743 15.1009 4.98056 15.347C6.30997 16.0856 7.3932 16.2333 8.77185 15.5932C9.65812 15.1993 10.4459 14.6577 10.9875 13.9684C10.9875 13.9192 11.0368 13.8699 11.0368 13.8699C11.2337 13.3776 11.4799 12.9344 11.6768 12.4913C13.2524 9.19237 14.7788 6.77974 16.6498 5.10567C19.3579 2.69304 24.5278 0.329647 28.1221 0.0342231C31.7657 -0.261201 35.6554 1.36363 37.3295 4.6133C38.6589 2.39762 41.4162 1.41287 44.0258 1.51134L44.075 1.46211C46.9308 1.46211 49.2942 3.62855 50.919 5.94271C51.0175 6.09042 51.116 6.18889 51.1652 6.33661C52.4946 7.37059 54.0702 8.15839 55.7443 8.45381C56.0397 8.50305 56.3844 8.60153 56.4829 8.84771C56.6306 9.0939 56.4336 9.43856 56.2859 9.68475C55.8428 10.3248 55.2519 10.8664 54.5626 11.2603C55.0057 11.802 55.4981 12.2943 56.0397 12.7375C56.4829 13.1314 57.0245 13.5745 56.9752 14.1653C56.926 14.6085 56.4829 14.9531 56.0397 15.0516C55.5966 15.1501 55.1042 15.0516 54.6611 14.9531C55.2027 15.544 55.6951 16.0856 56.2367 16.6765C55.3996 17.1688 54.4149 17.415 53.4301 17.4643C53.7256 20.0738 54.9073 24.6529 54.858 26.5239C53.1347 27.164 52.6423 27.1148 51.9038 27.7056C50.919 28.4934 52.0515 30.3152 50.3774 30.266C49.5404 30.2167 47.3739 27.8041 46.8816 27.1148C43.4349 22.6342 40.9731 17.415 39.7421 11.9497C38.3143 11.2111 36.7387 10.7187 35.1138 10.571L35.2615 10.6203C32.2581 10.6203 28.9592 10.768 26.842 12.9344C25.2171 14.6085 24.774 17.0211 23.8877 19.1876C22.2136 23.225 19.6041 25.9823 15.5666 27.6564C16.2067 30.6599 17.733 35.3867 18.5701 38.1439L14.3849 33.5649C14.0895 33.3187 13.8433 33.0725 13.5479 32.7771L13.4494 32.6786C13.0555 32.2355 12.6124 31.8416 12.1692 31.3984C12.1692 31.3984 12.1692 31.3984 12.1692 31.4477C11.1845 33.2202 8.32871 32.0385 8.91955 30.069C9.01803 29.6751 9.21498 29.3305 9.46117 28.9858C9.01803 29.8228 8.13176 30.5122 7.14701 30.5122C6.16227 30.5614 5.17752 29.9213 4.93133 28.9858C4.78362 28.3457 5.0298 27.6564 5.47294 27.2132C4.34048 27.7056 3.06031 27.9026 1.82938 27.6564C0.943104 27.4102 0.0568327 27.0163 0.00759537 26.0808Z" fill="#263238"/>
<path id="Vector_16" d="M34.7197 6.63184C34.7197 6.68107 35.2121 6.73031 35.9999 7.17345C36.7877 7.61658 37.7724 8.45362 38.5602 9.83226C38.9541 10.5216 39.348 11.3094 39.6435 12.1464C39.9389 13.0327 40.2343 13.9682 40.4805 15.0022C40.7759 16.0362 41.0713 17.0702 41.5145 18.1534C41.7607 18.695 42.0069 19.2366 42.3023 19.729C42.5977 20.2213 42.9424 20.763 43.5332 21.1076C43.9763 21.3538 44.6164 21.3538 45.0596 21.1076C45.5027 20.8614 45.8474 20.4675 46.0443 19.9752C46.389 19.0397 46.2413 18.1041 46.0936 17.2179L45.8966 17.3163C46.4875 17.9072 47.0783 18.498 47.7676 18.8919C48.457 19.2858 49.2447 19.4336 49.9833 19.2366C50.328 19.1381 50.6726 18.9904 50.9188 18.695C51.165 18.4488 51.3127 18.1041 51.362 17.8087C51.4112 17.5133 51.362 17.1686 51.2635 16.8732C51.165 16.5778 50.9188 16.3808 50.6726 16.2331L50.6234 16.3808C51.6574 16.9717 52.5929 17.1194 53.233 17.2179C53.5284 17.2671 53.7746 17.2671 53.9715 17.2179C53.8238 17.2179 53.5776 17.2179 53.2822 17.1686C52.6914 17.0702 51.7558 16.8732 50.7711 16.2824L50.7219 16.4301C51.165 16.6763 51.4112 17.2671 51.2635 17.8087C51.2142 18.1041 51.0665 18.3996 50.8696 18.5965C50.6726 18.8427 50.3772 18.9904 50.0325 19.0397C49.3925 19.1874 48.6047 19.0889 47.9646 18.695C47.3245 18.3011 46.7336 17.7595 46.1428 17.1194L45.8966 16.8732L45.9458 17.2179C46.0936 18.0549 46.2413 18.9904 45.8966 19.8274C45.7489 20.2213 45.4042 20.6152 45.0103 20.8122C44.6164 21.0584 44.1241 21.0584 43.7302 20.8122C43.2378 20.5168 42.8931 20.0244 42.5977 19.532C42.3023 19.0397 42.0561 18.498 41.8099 18.0057C41.3668 16.9717 41.0713 15.8885 40.7759 14.9037C40.4805 13.8697 40.2343 12.9342 39.8896 12.0479C39.545 11.1617 39.1511 10.3739 38.7572 9.68455C37.9202 8.30591 36.8862 7.46887 36.0984 7.02573C35.2121 6.68107 34.7197 6.63184 34.7197 6.63184Z" fill="#455A64"/>
<path id="Vector_17" d="M8.47656 26.3269C8.47656 26.3269 8.5258 26.3269 8.57504 26.3762C8.67351 26.3762 8.77199 26.4254 8.87046 26.4746C9.01818 26.5239 9.16589 26.5731 9.36284 26.5731C9.55979 26.6223 9.80597 26.6716 10.0522 26.6716C11.0861 26.7701 12.6617 26.7208 14.385 25.9823C16.1084 25.2437 17.9794 23.9143 19.4073 21.8463C20.8351 19.8276 21.7706 17.218 22.3615 14.4115C22.6569 13.0328 22.8046 11.6049 23.0508 10.3248C23.297 8.99536 23.5924 7.76443 24.1833 6.68121C24.7249 5.59798 25.4635 4.66247 26.3497 4.02239C26.7929 3.72696 27.2852 3.48078 27.7284 3.33307C28.2207 3.18535 28.6639 3.13612 29.1563 3.13612C30.0918 3.13612 30.8796 3.33306 31.5689 3.62849C32.2582 3.92391 32.7506 4.31781 33.1445 4.66247C33.883 5.40103 34.1292 5.94265 34.1292 5.94265C34.1292 5.94265 34.1292 5.89341 34.08 5.84417C34.0308 5.7457 33.9815 5.69646 33.9323 5.54875C33.7846 5.30256 33.5384 4.9579 33.1937 4.61324C32.7998 4.26857 32.3074 3.87468 31.6181 3.53002C30.9288 3.23459 30.0918 2.9884 29.1563 2.9884C28.6639 2.9884 28.1715 3.03764 27.6791 3.18535C27.1868 3.33307 26.6944 3.53001 26.2513 3.87468C25.3157 4.51476 24.5772 5.45027 23.9863 6.58273C23.4447 7.71519 23.1001 8.99536 22.8539 10.2755C22.6077 11.6049 22.46 12.9836 22.1646 14.3622C21.6229 17.1195 20.6874 19.7291 19.2595 21.7478C17.8809 23.7666 16.0591 25.1452 14.385 25.8838C12.6617 26.6223 11.1354 26.7208 10.1014 26.6716C9.01818 26.4746 8.47656 26.2777 8.47656 26.3269Z" fill="#455A64"/>
<path id="Vector_18" d="M6.11328 22.4371C6.11328 22.4371 6.261 22.4863 6.55642 22.5355C6.85185 22.5848 7.24574 22.634 7.73812 22.6833C8.23049 22.7325 8.87058 22.7325 9.51066 22.634C10.2 22.5355 10.8893 22.4371 11.6771 22.1909C12.4157 21.9447 13.105 21.6493 13.6958 21.3046C14.2867 20.9599 14.7791 20.6153 15.173 20.3199C15.5669 19.9752 15.8623 19.729 16.0592 19.4828C16.2562 19.2859 16.3547 19.1382 16.3547 19.1382C16.3054 19.0889 15.9115 19.5813 15.0745 20.1721C14.6806 20.4676 14.1882 20.8122 13.5974 21.1077C13.0065 21.4031 12.3172 21.6985 11.6279 21.9447C10.8893 22.1909 10.2 22.3386 9.51066 22.3878C8.87058 22.4863 8.27973 22.4863 7.73812 22.4863C6.75337 22.5355 6.11328 22.3878 6.11328 22.4371Z" fill="#455A64"/>
<path id="Vector_19" d="M23.9865 90.6807C23.888 90.7299 25.0204 96.2937 26.1037 102.104H26.4483C25.3651 96.2937 24.0849 90.6807 23.9865 90.6807Z" fill="#263238"/>
<path id="Vector_20" d="M28.713 102.399C31.8642 102.399 34.7692 100.134 35.2124 97.0318C36.1971 90.0893 40.1853 78.2724 56.926 77.9769C69.6785 77.78 75.0454 86.7904 76.5717 90.8279C78.9844 97.2287 78.689 104.959 74.7992 111.311C68.8415 121.06 57.8616 122.537 51.8546 122.586C44.9614 122.635 39.3483 128.15 39.3483 134.994V161.04L73.9129 160.4V153.901C73.9129 153.802 74.0114 153.655 74.1099 153.655C78.3443 152.178 84.9913 149.42 92.5247 143.364L90.2597 113.379C90.2597 113.379 96.8575 100.725 96.5129 97.8688C93.5094 71.8715 84.6959 57.1495 81.1016 55.7709C77.0641 54.2445 61.5051 54.9831 61.5051 54.9831C61.5051 54.9831 54.7596 67.4401 45.3553 68.8188C40.0869 69.6066 38.1666 63.0088 38.1666 63.0088L25.9557 70.099C17.29 74.4811 15.5667 91.5172 15.4189 102.399H28.713Z" fill="#455A64"/>
<g id="Group" opacity="0.3">
<g id="Group_2">
<g id="Clip path group">
<mask id="mask0_1958_2379" style="mask-type:luminance" maskUnits="userSpaceOnUse" x="63" y="117" width="29" height="19">
<g id="SVGID_6_">
<path id="Vector_21" d="M91.3907 117.71H63.7686V135.189H91.3907V117.71Z" fill="white"/>
</g>
</mask>
<g mask="url(#mask0_1958_2379)">
<path id="Vector_22" d="M68.7908 117.71C75.7825 119.483 82.6265 121.747 89.6182 123.52C90.1105 123.668 90.7014 123.815 91.0461 124.209C91.5384 124.8 91.44 125.686 91.1938 126.474C90.4552 128.887 88.8796 130.955 87.0086 132.58C85.4822 133.909 83.6605 135.042 81.6417 135.189C79.3768 135.386 77.2596 134.303 75.3393 133.121C70.5141 130.019 66.3781 125.489 63.7686 120.369C63.7686 120.369 65.3934 119.679 66.6736 119.039C67.806 118.399 68.7908 117.71 68.7908 117.71Z" fill="black"/>
</g>
</g>
</g>
</g>
<path id="Vector_23" d="M76.4245 90.9756C79.231 97.4257 78.4924 105.057 74.5535 111.36C72.3378 114.905 69.5312 117.416 66.4785 119.09C69.7774 122.684 73.1256 125.836 76.4245 128.199C79.9696 130.71 88.1922 130.021 91.2942 124.457C95.1347 117.613 95.4301 100.183 95.4301 100.183L96.1687 89.6954L74.7012 86.3965L74.5042 86.9873C75.489 88.366 76.0306 89.9908 76.4245 90.9756Z" fill="#FFC09D"/>
<path id="Vector_24" d="M39.0526 86.5441L37.8217 88.4644C36.8862 89.1045 35.9999 88.7598 35.4583 87.5781L22.2627 67.44L25.4631 65.3721L40.0374 84.6731C40.0374 84.7224 40.2343 85.7563 39.0526 86.5441Z" fill="#455A64"/>
<path id="Vector_25" d="M8.52588 67.1446C5.9163 65.6675 3.74985 63.4518 2.42044 60.5468C0.746373 57.0017 0.598661 52.9643 1.92807 49.3207C3.25748 45.6279 5.96553 42.6737 9.55986 41.0488C16.8962 37.6514 25.6605 40.8519 29.1071 48.1882C30.7812 51.7333 30.9289 55.7708 29.5995 59.4144C28.2701 63.1072 25.562 66.0614 21.9677 67.6862C17.4871 69.7542 12.5141 69.3603 8.52588 67.1446ZM22.5585 42.3782C18.8165 40.261 14.1882 39.9164 10.003 41.8859C6.65486 43.4122 4.14375 46.1695 2.91282 49.6161C1.63265 53.0627 1.8296 56.8048 3.35596 60.1037C4.88232 63.4518 7.63961 65.9629 11.0862 67.1939C14.5328 68.474 18.2749 68.2771 21.5738 66.7507C24.9219 65.2244 27.433 62.4671 28.664 59.0205C29.9441 55.5739 29.7472 51.8318 28.2208 48.5329C26.9899 45.8741 24.9712 43.7569 22.5585 42.3782Z" fill="#263238"/>
<path id="Vector_26" d="M9.16552 66.505C6.55594 65.0279 4.3895 62.8122 3.06009 59.9072C1.38602 56.3621 1.23831 52.3246 2.56772 48.6811C3.89713 44.9883 6.60518 42.034 10.1995 40.4092C17.5359 37.0118 26.3001 40.2122 29.7467 47.5486C31.4208 51.0937 31.5685 55.1311 30.2391 58.7747C28.9097 62.4675 26.2017 65.4218 22.6073 67.0466C18.1267 69.1146 13.1537 68.7699 9.16552 66.505ZM23.1489 41.7878C19.4069 39.6706 14.7786 39.326 10.5934 41.2954C7.24527 42.8218 4.73416 45.5791 3.50323 49.0257C2.22305 52.4723 2.42001 56.2144 3.94637 59.5133C5.47272 62.8614 8.23002 65.3725 11.6766 66.6035C15.1232 67.8836 18.8653 67.6867 22.1642 66.1603C25.5123 64.634 28.0234 61.8767 29.2544 58.43C30.5345 54.9834 30.3376 51.2414 28.8112 47.9425C27.5803 45.2344 25.5616 43.1172 23.1489 41.7878Z" fill="#455A64"/>
<path id="Vector_27" d="M28.6639 53.9003C28.6639 53.9003 28.6639 53.8018 28.6639 53.6541C28.6639 53.5064 28.6639 53.2602 28.6146 52.9648C28.5654 52.374 28.4669 51.4877 28.1223 50.5029C27.9745 50.0106 27.7284 49.469 27.4822 48.8781C27.1868 48.3365 26.8913 47.7456 26.4974 47.1548C26.1035 46.5639 25.6604 45.9731 25.1188 45.4315C24.5772 44.8899 23.9863 44.299 23.3462 43.8559C22.7062 43.3635 22.0168 42.9696 21.3275 42.625C20.6382 42.2803 19.9489 42.0833 19.2595 41.8864C17.8809 41.5417 16.6007 41.4433 15.5175 41.4925C14.4343 41.5417 13.5972 41.7387 13.0064 41.8864C12.711 41.9356 12.514 42.0341 12.3663 42.0833C12.2186 42.1326 12.1201 42.1326 12.1201 42.1326C12.1201 42.1326 12.2186 42.0834 12.3663 42.0341C12.514 41.9849 12.711 41.8864 13.0064 41.7879C13.5972 41.591 14.4343 41.4433 15.5175 41.3448C16.6007 41.2463 17.8809 41.3448 19.3088 41.6894C19.9981 41.8864 20.7367 42.1326 21.426 42.428C22.1153 42.7727 22.8539 43.1666 23.494 43.6589C24.1833 44.1513 24.7249 44.6929 25.2665 45.2838C25.8081 45.8254 26.2512 46.4655 26.6451 47.0563C27.039 47.6472 27.3837 48.238 27.6299 48.8289C27.8761 49.4197 28.1223 49.9613 28.27 50.4537C28.5654 51.4877 28.7131 52.374 28.7131 52.9648C28.7624 53.2602 28.7131 53.5064 28.7131 53.6541C28.6639 53.8511 28.6639 53.9003 28.6639 53.9003Z" fill="white"/>
<path id="Vector_28" d="M13.3018 65.9134C13.3018 65.8642 13.9911 66.1104 15.1235 66.2581C15.2713 66.2581 15.419 66.3073 15.5667 66.3073C15.7144 66.3073 15.8621 66.3073 16.059 66.3566C16.4037 66.4058 16.7484 66.3566 17.1423 66.3566C17.8808 66.3073 18.7179 66.2088 19.5549 65.9627C20.3919 65.7165 21.1797 65.421 21.8198 65.0764C22.1645 64.8794 22.4599 64.7317 22.7553 64.5348C22.903 64.4363 23.0508 64.3378 23.1492 64.2886C23.2969 64.1901 23.3954 64.0916 23.4939 64.0424C24.3802 63.3531 24.8725 62.7622 24.8725 62.8115C24.8725 62.8115 24.7741 62.9592 24.5279 63.2054C24.4294 63.3038 24.2817 63.4516 24.134 63.6485C23.9863 63.7962 23.7893 63.9932 23.5431 64.1409C23.4447 64.2393 23.2969 64.3378 23.1985 64.4363C23.0508 64.5348 22.9523 64.6332 22.8046 64.7317C22.5091 64.9287 22.2137 65.1256 21.8691 65.2733C21.1797 65.618 20.3919 65.9627 19.5549 66.2088C18.7179 66.455 17.8808 66.5535 17.093 66.6027C16.6991 66.6027 16.3545 66.6027 16.0098 66.6027C15.8621 66.6027 15.6652 66.6027 15.5174 66.5535C15.3697 66.5535 15.222 66.5043 15.0743 66.5043C14.7789 66.455 14.5327 66.4058 14.2865 66.3566C14.0403 66.3073 13.8926 66.2581 13.7449 66.2088C13.4495 65.9627 13.3018 65.9134 13.3018 65.9134Z" fill="white"/>
<path id="Vector_29" d="M23.3956 56.4597C23.3463 56.5089 21.4261 54.5886 19.1119 52.176C16.7978 49.7634 14.9268 47.7939 14.9268 47.7939C14.976 47.7447 16.8963 49.6649 19.2104 52.0775C21.5738 54.4902 23.4448 56.4597 23.3956 56.4597Z" fill="white"/>
<path id="Vector_30" d="M21.1309 60.3499C21.1309 60.3499 21.0817 60.3007 20.9832 60.2022C20.8847 60.1037 20.737 59.956 20.5893 59.8083C20.2446 59.4144 19.8015 58.922 19.2107 58.2819C18.0782 57.0018 16.4534 55.2292 14.6808 53.2597C12.9083 51.3395 11.2342 49.5669 10.0525 48.336C11.2834 49.5669 12.9083 51.2902 14.7301 53.2597C16.5026 55.18 18.1274 57.0018 19.2599 58.2819C19.8507 58.922 20.2939 59.4636 20.5893 59.8575C20.737 60.0545 20.8355 60.153 20.934 60.3007C21.1309 60.2514 21.1309 60.3499 21.1309 60.3499Z" fill="white"/>
<g id="Group_3" opacity="0.3">
<g id="Group_4">
<g id="Clip path group_2">
<mask id="mask1_1958_2379" style="mask-type:luminance" maskUnits="userSpaceOnUse" x="5" y="42" width="23" height="23">
<g id="SVGID_8_">
<path id="Vector_31" d="M27.1871 42.3292H5.96582V64.8799H27.1871V42.3292Z" fill="white"/>
</g>
</mask>
<g mask="url(#mask1_1958_2379)">
<path id="Vector_32" d="M9.16625 42.3293L27.2364 61.9258C27.2364 61.9258 25.7592 63.9938 24.4298 64.8801L5.96582 44.7912C5.96582 44.7912 7.29523 43.1664 9.16625 42.3293Z" fill="white"/>
</g>
</g>
</g>
</g>
<g id="Group_5" opacity="0.3">
<g id="Group_6">
<g id="Clip path group_3">
<mask id="mask2_1958_2379" style="mask-type:luminance" maskUnits="userSpaceOnUse" x="3" y="47" width="20" height="20">
<g id="SVGID_10_">
<path id="Vector_33" d="M22.1655 47.0564H3.89844V66.5544H22.1655V47.0564Z" fill="white"/>
</g>
</mask>
<g mask="url(#mask2_1958_2379)">
<path id="Vector_34" d="M4.43944 47.0563L22.2141 66.1604C22.2141 66.1604 22.3618 66.2588 21.1309 66.5543L3.94707 47.9918C3.89783 48.041 3.99631 47.5486 4.43944 47.0563Z" fill="white"/>
</g>
</g>
</g>
</g>
<path id="Vector_35" d="M51.1649 78.5676C47.3736 75.5149 38.0678 68.08 37.6246 67.8831C37.083 67.6369 28.9096 64.7319 27.334 65.6674C25.7584 66.6029 21.5732 71.8713 21.5732 71.8713C21.5732 71.8713 21.9671 75.1702 25.6599 72.8068C28.4665 71.0343 28.9096 70.7388 28.9588 70.6896L32.8486 71.6251C32.8486 71.6251 28.0726 73.5946 27.0878 74.6778C26.1031 75.7118 24.4782 79.7 25.463 80.6355C26.4477 81.5711 27.6294 81.6203 27.6294 81.6203C27.6294 81.6203 25.6599 84.4268 29.1558 86.1009C29.1558 86.1009 29.6482 88.4643 31.3715 89.3506C33.0948 90.2861 36.2952 89.9414 36.2952 89.9414C36.2952 89.9414 37.7723 89.0551 36.6891 87.6272C35.6059 86.1501 33.5379 85.9532 33.5379 85.9532L36.049 84.4761C36.049 84.4761 37.3784 84.87 39.2987 86.3963C39.2987 86.3963 41.6128 83.4421 43.8778 81.768C46.4873 79.897 51.1649 78.5676 51.1649 78.5676Z" fill="#FFC09D"/>
<path id="Vector_36" d="M35.0647 79.8486C35.0647 79.8486 34.917 79.8486 34.6708 79.8486C34.4246 79.8979 34.08 79.9471 33.6861 80.0948C32.8491 80.341 31.7658 80.9319 30.8796 81.9166C29.9933 82.9014 29.5009 84.0338 29.304 84.8708C29.2055 85.314 29.1562 85.6586 29.1562 85.9048C29.1562 86.151 29.1562 86.2987 29.1562 86.2987C29.2055 86.2987 29.2055 85.7571 29.4024 84.9693C29.5994 84.1323 30.0918 83.0491 30.978 82.1136C31.8643 81.178 32.8983 80.5872 33.6861 80.2918C34.5231 79.8979 35.0647 79.8486 35.0647 79.8486Z" fill="#FF9B6C"/>
<path id="Vector_37" d="M35.2128 75.5645C35.2128 75.5645 35.0651 75.5645 34.8189 75.6137C34.6712 75.6137 34.5235 75.6629 34.3758 75.7122C34.1789 75.7614 33.9819 75.7614 33.785 75.8599C33.3418 75.9584 32.8002 76.1553 32.2586 76.4507C31.717 76.6969 31.1261 77.0908 30.5845 77.4847C30.0429 77.9279 29.5505 78.371 29.1566 78.8634C28.7627 79.3557 28.4673 79.7989 28.2211 80.1928C28.0734 80.3897 28.0242 80.5867 27.9257 80.7344C27.8272 80.8821 27.778 81.0298 27.7288 81.1775C27.6303 81.4237 27.5811 81.5714 27.5811 81.5714C27.6303 81.5714 27.8272 81.0298 28.3196 80.2912C28.5658 79.8973 28.8612 79.4542 29.2551 79.0111C29.649 78.5679 30.1414 78.1248 30.683 77.6817C31.2246 77.2385 31.8647 76.7954 32.4063 76.5C32.9479 76.2538 33.3911 76.1553 33.8342 76.0076C34.6712 75.7122 35.2128 75.6137 35.2128 75.5645Z" fill="#FF9B6C"/>
<path id="Vector_38" d="M35.9514 70.7391C35.9514 70.7391 35.7545 70.6406 35.4098 70.6406C35.0651 70.6406 34.5728 70.6899 34.1296 70.8868C33.4895 71.1822 33.2433 71.4284 33.0464 71.6746C32.8494 71.9208 32.751 72.1177 32.751 72.1177C32.8002 72.167 33.2433 71.4284 34.1789 71.0345C35.1144 70.5914 35.9514 70.7883 35.9514 70.7391Z" fill="#FF9B6C"/>
<path id="Vector_39" d="M79.6246 55.2786C79.6246 55.2786 91.6385 56.411 95.4298 66.8493C98.4333 75.1212 100.107 99.9369 99.3196 100.429L78.0983 99.7399C77.8028 93.6837 76.178 89.0062 73.9131 86.0027L79.6246 55.2786Z" fill="#455A64"/>
<path id="Vector_40" d="M78.4424 99.7891C78.4424 99.7891 78.5901 99.8383 78.8363 100.035C79.0825 100.183 79.4764 100.429 79.9195 100.774C80.8058 101.414 81.9875 102.399 83.1692 103.58C84.3509 104.762 85.3356 105.944 85.9757 106.781C86.3204 107.224 86.5665 107.569 86.7143 107.815C86.862 108.061 86.9604 108.209 86.9604 108.209C86.9112 108.209 86.5173 107.716 85.828 106.879C85.1387 106.042 84.1539 104.91 82.9722 103.728C81.7905 102.546 80.6581 101.562 79.821 100.872C78.984 100.232 78.4424 99.8383 78.4424 99.7891Z" fill="#FF9B6C"/>
<path id="Vector_41" d="M75.9316 74.2839C75.9808 74.2839 75.6362 76.9427 75.0453 80.1924C74.5037 83.442 74.0113 86.1008 73.9129 86.0516C73.8636 86.0516 74.2083 83.3928 74.7991 80.1431C75.39 76.8935 75.8824 74.2346 75.9316 74.2839Z" fill="#263238"/>
<path id="Vector_42" d="M49.2451 148.682C49.2451 148.682 49.3436 148.633 49.5898 148.633C49.836 148.583 50.1806 148.583 50.6238 148.534C51.51 148.436 52.7902 148.337 54.3658 148.189C57.517 147.894 61.8499 147.451 66.6259 146.811C71.4019 146.22 75.7348 145.58 78.8368 145.087C80.3631 144.841 81.6433 144.644 82.5296 144.497C82.9235 144.447 83.2681 144.398 83.5143 144.349C83.7605 144.3 83.859 144.3 83.859 144.3C83.859 144.3 83.7605 144.349 83.5143 144.398C83.2681 144.447 82.9235 144.497 82.5296 144.595C81.6433 144.743 80.4124 144.989 78.8368 145.284C75.7348 145.826 71.4019 146.515 66.6259 147.106C61.8499 147.697 57.4678 148.14 54.3166 148.386C52.741 148.534 51.4608 148.583 50.5745 148.682C50.1314 148.682 49.836 148.731 49.5405 148.731C49.3928 148.682 49.2451 148.682 49.2451 148.682Z" fill="#263238"/>
<path id="Vector_43" d="M47.374 145.482C47.374 145.482 47.6694 145.432 48.2603 145.383C48.8511 145.334 49.6882 145.285 50.6237 145.236C52.6917 145.137 55.449 144.989 58.5017 144.842C61.5544 144.645 64.3117 144.497 66.3796 144.399C67.3644 144.349 68.1522 144.3 68.743 144.251C69.2846 144.202 69.6293 144.202 69.6293 144.251C69.6293 144.251 69.3339 144.3 68.743 144.349C68.2014 144.398 67.3644 144.497 66.3796 144.546C64.3609 144.694 61.6036 144.891 58.5017 145.088C55.449 145.236 52.6424 145.383 50.6237 145.432C49.6389 145.482 48.8019 145.482 48.2111 145.482C47.6694 145.531 47.374 145.531 47.374 145.482Z" fill="#263238"/>
<path id="Vector_44" d="M13.5969 100.626C13.6954 100.331 13.7939 100.036 13.9908 99.7893C14.3355 99.2969 14.8771 98.9031 15.4679 98.7553C16.5019 98.5092 17.6344 99.0015 18.176 99.8878C18.1268 99.1985 18.6684 98.6076 19.3085 98.4107C19.9485 98.2137 20.4409 98.4599 20.9825 98.9031C21.5241 99.3462 21.6226 99.6908 21.8196 100.331C22.3119 99.1492 24.9708 99.2969 25.3154 100.183C25.3154 100.183 27.5803 97.6721 28.762 98.9031C29.2544 99.3954 29.0575 100.183 28.7128 100.971C28.2697 102.005 28.0235 102.448 27.4326 103.63L25.2662 103.728C25.0692 104.418 24.7246 107.175 24.6261 107.864C24.5276 108.554 24.4292 109.292 24.0353 109.883C23.6414 110.474 23.0013 110.966 22.3119 110.917C21.6226 110.917 20.9333 110.326 20.9825 109.588C20.8348 110.178 20.5886 110.72 20.1455 111.163C19.7024 111.557 19.1115 111.803 18.5207 111.656C17.9298 111.508 17.4867 110.917 17.5852 110.326C16.7974 110.868 15.6649 110.375 15.1725 109.588C14.6802 108.8 14.6802 107.815 14.6802 106.879C14.7294 106.042 14.7786 105.107 14.434 104.319C14.3847 104.171 14.2863 104.073 14.2863 103.974C14.237 103.778 14.2862 103.581 14.237 103.334C14.1878 102.891 14.1385 102.448 13.9908 102.054C13.9416 101.956 13.9416 101.857 13.8924 101.808C13.7939 101.562 13.6462 101.365 13.4985 101.168C13.4492 101.119 13.4492 101.069 13.4492 101.02C13.5477 100.823 13.5969 100.725 13.5969 100.626Z" fill="#FFC09D"/>
<path id="Vector_45" d="M11.185 99.3955C10.5941 99.3955 9.95403 99.494 9.60936 99.9371C9.16623 100.429 9.06775 101.66 9.11699 102.35C9.90479 102.497 10.3479 102.301 11.1357 102.497C11.2834 102.547 11.4311 102.497 11.5789 102.596C11.9728 102.842 11.8743 103.728 12.022 104.172C12.2682 104.91 13.2529 105.255 13.9915 105.009C14.73 104.713 15.2224 103.975 15.2224 103.187C15.2717 102.399 14.927 101.611 14.3854 101.02C13.5976 100.036 12.4159 99.4447 11.185 99.3955Z" fill="#FFC09D"/>
<path id="Vector_46" d="M24.824 106.682C24.7255 106.682 25.0702 105.205 25.2671 103.383C25.3656 102.448 25.4148 101.66 25.3656 101.02C25.3163 100.429 25.2671 100.035 25.3163 100.035C25.3656 100.035 25.4641 100.38 25.5625 100.971C25.661 101.562 25.661 102.448 25.5625 103.334C25.4641 104.27 25.2671 105.107 25.1686 105.697C24.9717 106.338 24.8732 106.682 24.824 106.682Z" fill="#FF9B6C"/>
<path id="Vector_47" d="M20.9337 109.833C20.8845 109.833 20.9829 109.292 21.1307 108.455C21.2784 107.618 21.5246 106.436 21.6723 105.107C21.82 103.777 21.9185 102.595 21.8692 101.709C21.8692 100.823 21.7707 100.281 21.82 100.281C21.8692 100.281 21.9677 100.823 22.0169 101.709C22.0662 102.595 22.0662 103.826 21.8692 105.156C21.7215 106.485 21.4753 107.667 21.2291 108.504C21.1307 109.341 20.9337 109.833 20.9337 109.833Z" fill="#FF9B6C"/>
<path id="Vector_48" d="M17.6347 110.424C17.5854 110.424 17.7331 109.833 17.8808 108.849C18.0778 107.913 18.2255 106.584 18.324 105.057C18.4225 103.58 18.3732 102.251 18.2747 101.266C18.2255 100.281 18.127 99.6904 18.1763 99.6904C18.1763 99.6904 18.2255 99.8381 18.2747 100.084C18.324 100.331 18.3732 100.724 18.4225 101.217C18.5209 102.202 18.6194 103.531 18.5209 105.057C18.4224 106.534 18.2255 107.913 17.9793 108.849C17.8808 109.341 17.7824 109.686 17.6839 109.981C17.6839 110.276 17.6347 110.424 17.6347 110.424Z" fill="#FF9B6C"/>
<path id="Vector_49" d="M13.2529 100.774C13.2529 100.724 13.5484 100.823 13.9423 101.118C14.3362 101.414 14.7793 101.906 15.0255 102.595C15.2717 103.285 15.3209 103.974 15.1732 104.417C15.0255 104.91 14.7301 105.057 14.7301 105.008C14.6808 104.959 14.927 104.762 15.0255 104.368C15.124 103.925 15.0747 103.285 14.8285 102.694C14.5823 102.054 14.1884 101.561 13.8438 101.266C13.4991 100.921 13.2529 100.823 13.2529 100.774Z" fill="#FF9B6C"/>
</g>
</svg>
