<svg width="98" height="95" viewBox="0 0 98 95" fill="none" xmlns="http://www.w3.org/2000/svg">
<g id="Group">
<g id="Group_2">
<path id="Vector" d="M22.623 4.34957C32.3194 7.17264 41.2092 12.7661 48.1089 20.0341C54.7719 27.0829 57.8754 36.5514 61.6364 45.3098C68.9481 57.3559 80.2577 66.5088 93.873 70.3226" stroke="#FFAF01" stroke-width="4.83902" stroke-miterlimit="10" stroke-linecap="round"/>
</g>
<g id="Group_3">
<path id="Vector_2" d="M13.4173 14.2913C22.4387 17.3686 31.0567 21.8311 37.7197 28.8799C44.146 35.7096 47.8895 44.0121 50.9579 52.5688C57.8663 66.0001 70.3594 76.2489 84.6673 80.2643" stroke="#FFAF01" stroke-width="4.83902" stroke-miterlimit="10" stroke-linecap="round"/>
</g>
<g id="Group_4">
<path id="Vector_3" d="M3.99246 24.4699C14.8374 27.4771 24.4373 33.7282 31.6263 42.583C36.9041 49.2285 39.2449 56.6718 42.4974 64.0801C48.9324 77.073 61.6096 86.1733 75.2425 90.443" stroke="#FFAF01" stroke-width="4.83902" stroke-miterlimit="10" stroke-linecap="round"/>
</g>
</g>
</svg>
