<svg width="184" height="302" viewBox="0 0 184 302" fill="none" xmlns="http://www.w3.org/2000/svg">
<g opacity="0.5">
<path d="M81.8627 3.40841C76.0107 -0.359448 67.9975 4.28296 66.9661 11.1409C65.8504 18.5673 73.4706 23.5668 79.8699 22.8016C86.9639 21.9489 91.5178 13.801 89.097 6.86289C86.6762 -0.0752192 78.0666 -2.0794 72.6637 2.35895C71.2112 3.54688 73.2601 5.64581 74.6915 4.46516C78.7613 1.12729 85.2939 3.34282 86.6201 8.56827C87.9462 13.7937 84.3396 19.5439 79.0349 19.8937C74.888 20.1707 69.7517 17.3211 69.7447 12.4892C69.7447 7.19814 76.0598 3.18249 80.4313 5.98105C82.01 6.99407 83.4485 4.41415 81.8767 3.40841H81.8627Z" fill="#10100E"/>
<path d="M10.7493 141.545C6.5574 138.846 0.817379 142.171 0.0785145 147.084C-0.720666 152.403 4.73789 155.985 9.32187 155.436C14.4034 154.826 17.6655 148.989 15.9314 144.019C14.1974 139.049 8.03011 137.614 4.15986 140.793C3.11942 141.644 4.5871 143.147 5.61246 142.302C8.52771 139.911 13.2072 141.498 14.1572 145.241C15.1071 148.984 12.5236 153.103 8.72374 153.353C5.7532 153.552 2.07395 151.511 2.06893 148.049C2.06893 144.259 6.59259 141.383 9.72397 143.387C10.8549 144.113 11.8853 142.265 10.7594 141.545H10.7493Z" fill="#10100E"/>
<path d="M156.999 94.684C153.275 92.2864 148.176 95.2405 147.52 99.6044C146.81 104.33 151.659 107.511 155.731 107.024C160.245 106.482 163.143 101.297 161.602 96.8822C160.062 92.4673 154.583 91.192 151.145 94.0162C150.221 94.7721 151.525 96.1077 152.436 95.3564C155.026 93.2325 159.182 94.6423 160.026 97.9673C160.87 101.292 158.575 104.951 155.2 105.174C152.561 105.35 149.293 103.537 149.288 100.462C149.288 97.0955 153.307 94.5402 156.088 96.321C157.093 96.9656 158.008 95.324 157.008 94.684H156.999Z" fill="#10100E"/>
<path d="M84.3878 288.76C80.4085 286.198 74.9595 289.355 74.2581 294.018C73.4995 299.068 78.6812 302.468 83.0328 301.947C87.8567 301.368 90.9533 295.827 89.3072 291.109C87.661 286.391 81.8065 285.028 78.1325 288.046C77.1448 288.854 78.5381 290.282 79.5115 289.479C82.2789 287.209 86.7211 288.716 87.6229 292.269C88.5246 295.822 86.0721 299.732 82.465 299.97C79.6451 300.158 76.1524 298.221 76.1476 294.935C76.1476 291.337 80.4419 288.606 83.4145 290.509C84.488 291.198 85.4662 289.444 84.3974 288.76H84.3878Z" fill="#10100E"/>
<path d="M104.159 169.83C98.541 166.213 90.8484 170.669 89.8582 177.253C88.7871 184.382 96.1025 189.182 102.246 188.447C109.056 187.629 113.428 179.807 111.104 173.146C108.78 166.485 100.515 164.561 95.3279 168.822C93.9335 169.963 95.9004 171.978 97.2746 170.844C101.182 167.64 107.453 169.767 108.726 174.783C109.999 179.8 106.537 185.32 101.444 185.656C97.4632 185.921 92.5324 183.186 92.5257 178.547C92.5257 173.468 98.5882 169.613 102.785 172.299C104.3 173.272 105.681 170.795 104.172 169.83H104.159Z" fill="#10100E"/>
<path d="M177.173 213.651L160.77 223.121C159.557 223.822 160.468 225.411 161.686 224.707L178.089 215.237C179.307 214.534 178.391 212.947 177.173 213.651Z" fill="#10100E"/>
<path d="M165.965 211.378L174.975 226.983C175.683 228.21 177.268 227.295 176.56 226.068L167.55 210.463C166.839 209.231 165.254 210.146 165.965 211.378Z" fill="#10100E"/>
<path d="M106.237 169.303C106.237 169.303 136.46 143.679 152.945 105.242" stroke="#747681" stroke-width="3"/>
</g>
</svg>
