<svg width="722" height="648" viewBox="0 0 722 648" fill="none" xmlns="http://www.w3.org/2000/svg">
<path d="M453.191 5.59444C382.456 23.76 325.102 80.6467 261.535 114.588C200.836 147.094 126.277 139.924 67.9677 177.211C12.5261 212.586 -10.4153 276.643 4.40104 340.222C15.8717 389.46 45.5043 432.962 78.0046 471.205C152.086 557.73 250.543 628.958 363.338 644.734C510.067 665.289 643.891 572.072 696.943 437.742C733.745 344.047 728.488 236.01 686.907 146.138C650.583 66.7835 575.545 -3.96635 487.603 0.814045C475.655 0.814045 464.184 2.7262 453.191 5.59444Z" fill="#0B6755"/>
<path d="M86.412 175.838C105.417 175.838 120.824 160.428 120.824 141.419C120.824 122.41 105.417 107 86.412 107C67.4068 107 52 122.41 52 141.419C52 160.428 67.4068 175.838 86.412 175.838Z" fill="#FFAF01"/>
<path d="M704.607 551.038C704.607 565.379 692.659 577.33 678.32 577.33C663.982 577.33 652.033 565.379 652.033 551.038C652.033 536.697 663.982 524.746 678.32 524.746C693.136 525.224 704.607 536.697 704.607 551.038Z" fill="#FFAF01"/>
</svg>
