<svg width="46" height="43" viewBox="0 0 46 43" fill="none" xmlns="http://www.w3.org/2000/svg">
<g filter="url(#filter0_d_114_22539)">
<path d="M5.88308 19.2827C5.58427 19.2652 5.39093 19.2476 5.18001 19.2476C4.56482 19.2476 4.12541 19.0191 4.10783 18.3688C4.09025 17.6481 4.59998 17.4548 5.23274 17.4548C6.41038 17.4548 7.57044 17.4548 8.74808 17.4548C10.2948 17.4548 11.8592 17.4548 13.4059 17.4548C14.0211 17.4548 14.5484 17.5954 14.5484 18.3336C14.5484 19.0542 14.0387 19.2476 13.4235 19.2476C11.7537 19.2476 10.0839 19.2652 8.41412 19.23C7.95713 19.23 7.74621 19.3706 7.60559 19.81C7.06071 21.5326 6.48068 23.2551 5.90065 24.9776C5.74246 25.4522 5.72489 25.7861 6.37522 25.7685C9.82026 25.7685 13.2829 25.7685 16.7982 25.7685C17.1497 21.058 19.2062 17.3845 23.3543 15.0995C27.4673 12.8321 31.6505 13.0254 35.8689 15.2577C36.7302 12.6212 37.5914 10.0374 38.4879 7.34816C38.0836 7.34816 37.7848 7.34816 37.5036 7.34816C29.2074 7.34816 20.9287 7.34816 12.6325 7.33058C11.9822 7.33058 11.5955 7.43604 11.4549 8.13911C11.3319 8.73672 10.9627 9.19371 10.2597 8.96522C9.53903 8.71914 9.53903 8.15669 9.76753 7.52393C10.2948 5.97718 10.787 4.41285 11.3143 2.8661C11.9822 0.84478 13.1247 0.00109863 15.2339 0.00109863C21.4385 0.00109863 27.643 0.0186753 33.8652 0.0186753C35.7459 0.0186753 37.609 0.0186753 39.4897 0.0186753C41.4759 0.036252 42.3899 1.2842 41.7747 3.16491C40.4389 7.27785 39.0855 11.3908 37.6969 15.4862C37.486 16.1014 37.5387 16.4705 38.0484 16.9802C41.6692 20.5658 42.759 24.8546 41.4232 29.776C41.2122 30.5846 40.7728 30.9009 39.9116 30.8834C32.9336 30.8482 25.9732 30.8482 18.9953 30.8834C18.0637 30.8834 17.5716 30.5494 17.3782 29.6706C17.3431 29.53 17.3079 29.3893 17.2728 29.2487C16.8158 27.5789 16.8158 27.5789 15.023 27.5789C12.2458 27.5789 9.45115 27.5789 6.67403 27.5789C4.42421 27.5789 3.54537 26.3486 4.24844 24.2042C4.79332 22.5872 5.32062 20.9701 5.88308 19.2827ZM39.7534 24.9424C39.8588 24.9776 39.9643 24.9952 40.0698 25.0303C39.8588 22.8332 39.0679 20.8998 37.5914 19.3706C37.029 19.5112 36.2029 19.687 36.0623 19.4585C35.8162 19.0367 35.9568 18.3863 35.9392 17.5602C34.4979 16.365 32.5821 15.5741 30.4905 15.5213C30.1565 16.0135 29.7698 16.6814 29.3831 16.6638C28.9789 16.6638 28.5922 15.9959 28.2055 15.6268C28.2582 15.5389 28.2934 15.451 28.3461 15.3631C26.1666 15.6092 24.2156 16.3826 22.6864 17.859C22.8094 18.4215 23.0204 19.0718 22.7743 19.4234C22.2821 20.144 21.667 19.5464 21.1572 19.23C19.6456 20.8998 18.5735 23.6945 18.9426 25.0303C19.382 25.294 19.9444 25.6104 20.0147 25.997C20.1554 26.8407 19.4171 26.9638 18.6613 27.0165C18.802 27.7371 18.925 28.3875 19.0656 29.073C19.4699 29.073 19.7862 29.073 20.1026 29.073C26.0963 29.073 32.1075 29.073 38.1012 29.073C40.017 29.073 40.017 29.073 40.0346 26.9989C39.4194 26.9638 38.6636 26.8759 38.7867 26.0673C38.857 25.6631 39.4194 25.3291 39.7534 24.9424ZM12.3337 5.48503C12.615 5.50261 12.7907 5.53776 12.9665 5.53776C21.456 5.53776 29.928 5.53776 38.4175 5.55534C38.9624 5.55534 39.1909 5.34442 39.314 4.86985C39.5073 4.20193 39.7534 3.53402 39.9643 2.8661C40.2807 1.88181 40.2455 1.82908 39.2085 1.82908C33.8828 1.82908 28.557 1.82908 23.2313 1.8115C20.5069 1.8115 17.7825 1.8115 15.0757 1.79392C14.3023 1.79392 13.6344 2.00484 13.318 2.70791C12.9313 3.60432 12.6677 4.51831 12.3337 5.48503Z" fill="white"/>
<path d="M8.07824 12.5859C7.00606 12.5859 6.07449 12.5859 5.12535 12.5859C4.49259 12.5859 3.98286 12.3926 4.00044 11.6719C4.01802 10.9689 4.52774 10.7931 5.1605 10.7931C10.5741 10.7931 15.9702 10.7931 21.3838 10.7931C22.0341 10.7931 22.5263 11.004 22.5263 11.6895C22.5263 12.375 22.0166 12.5859 21.3838 12.5859C17.8509 12.5683 14.3004 12.6035 10.7675 12.5683C10.1523 12.5683 9.87106 12.7441 9.73045 13.3241C9.60741 13.8866 9.37891 14.4315 9.18557 14.9763C8.99222 15.4861 8.60554 15.7146 8.06066 15.5564C7.4982 15.3982 7.35759 14.9588 7.48063 14.449C7.63882 13.869 7.84974 13.3066 8.07824 12.5859Z" fill="white"/>
<path d="M19.836 34.2754C18.7287 34.2754 17.6038 34.2754 16.4964 34.2754C15.8812 34.2754 15.3539 34.0996 15.3715 33.3614C15.3891 32.6407 15.8988 32.465 16.5316 32.465C18.7287 32.465 20.9258 32.465 23.1228 32.465C23.7556 32.465 24.2829 32.6407 24.3005 33.3438C24.3181 34.1172 23.7556 34.2929 23.1053 34.2929C21.9979 34.2754 20.9082 34.2754 19.836 34.2754Z" fill="white"/>
<path d="M10.1344 30.8838C9.07982 30.8838 8.02522 30.8838 6.97062 30.8838C6.37301 30.8838 5.89844 30.6904 5.89844 30.0225C5.89844 29.3019 6.37301 29.0909 7.00577 29.0909C9.15013 29.0909 11.2769 29.0909 13.4213 29.0909C14.054 29.0909 14.5462 29.2843 14.5462 30.0049C14.5462 30.7432 14.0013 30.8838 13.3861 30.8838C12.3139 30.8838 11.2242 30.8838 10.1344 30.8838Z" fill="white"/>
<path d="M27.236 34.2577C27.0075 34.2577 26.7087 34.3456 26.5505 34.2401C26.2341 34.0116 25.7244 33.6601 25.7595 33.414C25.8123 33.0625 26.2165 32.6582 26.5681 32.5C26.9372 32.3418 27.4293 32.4473 27.8687 32.4649C28.4488 32.4825 28.8355 32.7813 28.8355 33.3789C28.8355 33.9765 28.4312 34.2401 27.8512 34.2753C27.6578 34.2753 27.4469 34.2753 27.236 34.2577C27.236 34.2753 27.236 34.2577 27.236 34.2577Z" fill="white"/>
<path d="M29.2226 28.4053C28.4493 28.3877 27.711 27.9307 27.2892 27.0343C26.8674 26.1203 27.0255 25.259 27.6759 24.5033C28.3438 23.7475 29.2402 23.519 30.1542 23.8705C30.6991 24.0814 31.0506 23.9935 31.5076 23.6947C32.6852 22.9213 33.8805 22.2007 35.0581 21.4625C35.603 21.1109 36.1654 20.9176 36.5697 21.5679C36.974 22.2007 36.5697 22.6401 36.0072 22.9917C34.7944 23.7299 33.5817 24.5208 32.3689 25.259C31.9822 25.5051 31.7537 25.7512 31.7185 26.2785C31.6131 27.5264 30.6288 28.3877 29.2226 28.4053ZM29.3457 25.3645C29.1347 25.6985 28.9062 25.9094 28.9414 26.0852C28.959 26.2785 29.2402 26.4367 29.3984 26.5949C29.5742 26.4015 29.8378 26.2258 29.8905 26.0148C29.9081 25.8918 29.6093 25.6809 29.3457 25.3645Z" fill="white"/>
<path d="M32.3515 2.83105C32.4394 2.95409 32.7382 3.18259 32.791 3.44624C32.8788 3.97354 32.1758 4.67661 31.5957 4.57115C31.3321 4.51842 30.9806 4.21961 30.9278 3.95596C30.8048 3.46382 31.5254 2.83105 32.3515 2.83105Z" fill="white"/>
<path d="M34.4602 4.93965C34.0736 4.4475 33.7747 4.23658 33.722 3.97293C33.6166 3.48079 34.2845 2.81287 34.8469 2.88318C35.1282 2.91833 35.6027 3.41048 35.5676 3.46321C35.3039 3.9202 34.9348 4.32447 34.4602 4.93965Z" fill="white"/>
<path d="M37.8866 2.8136C38.0096 2.97179 38.3084 3.20029 38.3612 3.46394C38.4666 3.97366 37.7108 4.67673 37.1484 4.57127C36.9023 4.51854 36.5156 4.14943 36.5156 3.93851C36.5508 3.27059 37.0429 2.93664 37.8866 2.8136Z" fill="white"/>
</g>
<defs>
<filter id="filter0_d_114_22539" x="0" y="0.00109863" width="45.9727" height="42.2919" filterUnits="userSpaceOnUse" color-interpolation-filters="sRGB">
<feFlood flood-opacity="0" result="BackgroundImageFix"/>
<feColorMatrix in="SourceAlpha" type="matrix" values="0 0 0 0 0 0 0 0 0 0 0 0 0 0 0 0 0 0 127 0" result="hardAlpha"/>
<feOffset dy="4"/>
<feGaussianBlur stdDeviation="2"/>
<feComposite in2="hardAlpha" operator="out"/>
<feColorMatrix type="matrix" values="0 0 0 0 0 0 0 0 0 0 0 0 0 0 0 0 0 0 0.25 0"/>
<feBlend mode="normal" in2="BackgroundImageFix" result="effect1_dropShadow_114_22539"/>
<feBlend mode="normal" in="SourceGraphic" in2="effect1_dropShadow_114_22539" result="shape"/>
</filter>
</defs>
</svg>
