<svg width="38" height="37" viewBox="0 0 38 37" fill="none" xmlns="http://www.w3.org/2000/svg">
<mask id="path-1-outside-1_114_22556" maskUnits="userSpaceOnUse" x="0" y="-0.764648" width="38" height="38" fill="black">
<rect fill="#fff" y="-0.764648" width="38" height="38"/>
<path d="M18.9996 28.567C18.0857 29.4949 17.2421 30.3385 16.3985 31.1821C15.7095 31.8711 15.3721 31.843 14.7956 31.0134C13.8677 29.6636 12.9397 28.2998 12.0258 26.95C11.8149 26.6267 11.6321 26.2752 11.4353 25.9237C6.80948 26.0502 2.84454 29.9167 2.43679 34.7956C2.67582 34.8096 2.9289 34.8237 3.16792 34.8237C7.21723 34.8237 11.2806 34.8237 15.3299 34.8237C15.5408 34.8237 15.7939 34.7675 15.9485 34.8659C16.1735 35.0205 16.4828 35.2877 16.4688 35.4986C16.4547 35.7517 16.1735 36.0188 15.9485 36.2016C15.8361 36.3 15.583 36.2297 15.4002 36.2297C10.9713 36.2297 6.54234 36.2297 2.11341 36.2297C1.15733 36.2297 0.974544 36.0329 1.00266 35.0627C1.14327 29.3684 5.96588 24.6161 11.7868 24.4473C12.5179 24.4192 13.2349 24.4614 13.9661 24.4333C15.0206 24.3911 15.4143 23.9974 15.344 22.9992C15.3299 22.7883 15.1893 22.5071 15.0065 22.3946C13.713 21.551 12.7147 20.4683 12.1101 19.0483C11.8992 18.5562 11.5477 18.6546 11.1962 18.6546C9.39654 18.6405 8.03271 17.8953 7.21723 16.2644C6.37362 14.5631 6.80948 12.5666 8.31391 11.3152C8.63729 11.0481 8.74978 10.7809 8.76384 10.3732C8.86226 5.07254 12.8553 0.77015 18.1419 0.278047C23.302 -0.199997 28.0402 3.38533 29.0807 8.5735C29.1088 8.68598 29.1229 8.79846 29.1369 8.925C29.1791 10.1201 29.4322 11.1184 30.3461 12.0745C31.4709 13.2274 31.499 14.8162 30.7819 16.2784C30.0368 17.7969 28.7573 18.6124 27.0701 18.6265C26.339 18.6265 26.0437 18.9077 25.65 19.4982C25.0032 20.4683 24.2159 21.4244 23.302 22.1415C22.6411 22.6617 22.4724 23.2382 22.7255 23.7865C22.8802 24.138 23.5832 24.377 24.0612 24.4333C25.1298 24.5598 26.2124 24.4614 27.281 24.5739C32.5676 25.1222 36.87 29.8042 36.9965 35.1049C37.0246 36.061 36.8278 36.2578 35.8717 36.2578C31.4428 36.2578 27.0138 36.2578 22.5849 36.2578C22.4021 36.2578 22.1631 36.3141 22.0366 36.2156C21.8116 36.0469 21.5163 35.7798 21.5304 35.5829C21.5445 35.3299 21.8257 35.0627 22.0647 34.8799C22.2053 34.7815 22.4724 34.8378 22.6833 34.8378C26.7186 34.8378 30.7398 34.8378 34.775 34.8378C35.0281 34.8378 35.2812 34.8378 35.5343 34.8378C35.4358 30.212 31.2037 26.0643 26.6623 25.9377C25.3969 27.7936 24.2018 29.5933 22.9505 31.3649C22.599 31.857 22.149 31.7445 21.7554 31.3509C20.8415 30.4369 19.9557 29.5371 18.9996 28.567ZM24.1596 19.2873C23.3442 19.2873 22.6693 19.2451 22.0084 19.3014C21.7554 19.3154 21.446 19.4982 21.3054 19.695C20.4337 20.8901 18.1279 21.1573 17.1155 20.0747C16.7781 19.7091 16.5531 19.1467 16.4828 18.6546C16.3703 17.7688 16.9187 16.9955 17.7201 16.644C18.7465 16.2081 20.49 16.3628 20.9961 17.1361C21.4742 17.8532 22.0506 17.9235 22.7677 17.8813C23.2739 17.8532 23.7941 17.8391 24.3143 17.8813C24.7642 17.9094 24.9892 17.7126 25.0032 17.3048C25.0876 15.7442 25.1579 14.1975 25.2282 12.8337C23.5832 12.201 22.135 11.6386 20.7993 11.1184C19.5339 11.5683 18.2966 12.201 16.989 12.4119C15.6673 12.6369 14.2613 12.4681 12.8413 12.4681C12.8413 13.6211 12.8413 14.7178 12.8413 15.8145C12.8694 19.7653 16.1173 22.5914 20.0119 22.0149C21.7132 21.7619 23.063 20.8761 24.1596 19.2873ZM25.0314 11.1465C25.0876 11.0621 25.1157 11.034 25.1157 11.02C25.425 7.74396 22.7114 4.65074 19.3792 4.46795C15.8782 4.28517 12.8694 7.05501 12.8413 10.4576C12.8413 10.8934 13.01 11.02 13.4037 11.0762C15.7939 11.5121 18.0154 11.1043 20.0119 9.69831C20.5603 9.31869 20.968 9.29057 21.5163 9.69831C22.5427 10.4997 23.7238 10.9637 25.0314 11.1465ZM11.4212 10.317C11.5759 8.34854 12.2648 6.66133 13.6146 5.2975C14.9784 3.93367 16.6234 3.17443 18.5497 3.06194C20.2369 2.96352 21.7975 3.38533 23.2036 4.34141C25.2844 5.76148 26.339 7.81426 26.5639 10.3029C27.0138 10.3029 27.4075 10.3029 27.7871 10.3029C27.8012 5.83178 23.9487 1.37473 18.5356 1.65594C12.9959 1.93714 10.0011 6.80193 10.212 10.317C10.5916 10.317 10.9572 10.317 11.4212 10.317ZM11.379 11.7792C10.1698 11.6386 9.25594 12.0463 8.63729 13.0306C8.03271 13.9866 8.03271 14.999 8.65136 15.941C9.27 16.9111 10.198 17.2908 11.379 17.2064C11.379 15.3926 11.379 13.6211 11.379 11.7792ZM26.6061 11.7792C26.6061 13.6211 26.6061 15.3926 26.6061 17.2205C27.745 17.2767 28.6729 16.9393 29.2916 16.0113C29.9383 15.0411 29.9524 14.0148 29.3478 13.0306C28.7432 12.0463 27.8153 11.6386 26.6061 11.7792ZM17.9451 27.4984C17.3264 26.8938 16.6515 26.233 15.9767 25.6003C15.8642 25.5019 15.6252 25.4034 15.4986 25.4597C14.7956 25.7409 14.1067 26.0783 13.3615 26.4017C14.177 27.5827 14.9362 28.6935 15.6673 29.7761C16.4406 29.0028 17.1577 28.2717 17.9451 27.4984ZM22.2896 29.8042C23.063 28.6654 23.8222 27.5546 24.6236 26.3736C23.8925 26.0361 23.2176 25.7268 22.5287 25.4456C22.4021 25.3894 22.149 25.4456 22.0366 25.5581C21.3336 26.2049 20.6446 26.8657 20.0541 27.4421C20.8415 28.2717 21.5445 29.0169 22.2896 29.8042ZM21.2211 23.3928C19.7026 23.3928 18.2544 23.3928 16.7218 23.3928C16.7781 23.7022 16.7078 24.2083 16.9187 24.4755C17.5092 25.2347 18.2263 25.9096 19.0277 26.7532C19.6745 25.4034 21.4882 25.0941 21.2211 23.3928ZM19.0277 19.3014V19.2873C19.1683 19.2873 19.3511 19.3435 19.4354 19.2732C19.7026 19.0764 20.0963 18.8655 20.1525 18.5983C20.2509 18.1484 19.8713 17.8953 19.4073 17.8813C19.098 17.8672 18.7606 17.7969 18.5075 17.9235C18.2403 18.05 17.931 18.3453 17.9029 18.6124C17.8748 18.8092 18.2263 19.0905 18.4653 19.2592C18.6059 19.3435 18.8309 19.2873 19.0277 19.3014Z"/>
</mask>
<path d="M18.9996 28.567C18.0857 29.4949 17.2421 30.3385 16.3985 31.1821C15.7095 31.8711 15.3721 31.843 14.7956 31.0134C13.8677 29.6636 12.9397 28.2998 12.0258 26.95C11.8149 26.6267 11.6321 26.2752 11.4353 25.9237C6.80948 26.0502 2.84454 29.9167 2.43679 34.7956C2.67582 34.8096 2.9289 34.8237 3.16792 34.8237C7.21723 34.8237 11.2806 34.8237 15.3299 34.8237C15.5408 34.8237 15.7939 34.7675 15.9485 34.8659C16.1735 35.0205 16.4828 35.2877 16.4688 35.4986C16.4547 35.7517 16.1735 36.0188 15.9485 36.2016C15.8361 36.3 15.583 36.2297 15.4002 36.2297C10.9713 36.2297 6.54234 36.2297 2.11341 36.2297C1.15733 36.2297 0.974544 36.0329 1.00266 35.0627C1.14327 29.3684 5.96588 24.6161 11.7868 24.4473C12.5179 24.4192 13.2349 24.4614 13.9661 24.4333C15.0206 24.3911 15.4143 23.9974 15.344 22.9992C15.3299 22.7883 15.1893 22.5071 15.0065 22.3946C13.713 21.551 12.7147 20.4683 12.1101 19.0483C11.8992 18.5562 11.5477 18.6546 11.1962 18.6546C9.39654 18.6405 8.03271 17.8953 7.21723 16.2644C6.37362 14.5631 6.80948 12.5666 8.31391 11.3152C8.63729 11.0481 8.74978 10.7809 8.76384 10.3732C8.86226 5.07254 12.8553 0.77015 18.1419 0.278047C23.302 -0.199997 28.0402 3.38533 29.0807 8.5735C29.1088 8.68598 29.1229 8.79846 29.1369 8.925C29.1791 10.1201 29.4322 11.1184 30.3461 12.0745C31.4709 13.2274 31.499 14.8162 30.7819 16.2784C30.0368 17.7969 28.7573 18.6124 27.0701 18.6265C26.339 18.6265 26.0437 18.9077 25.65 19.4982C25.0032 20.4683 24.2159 21.4244 23.302 22.1415C22.6411 22.6617 22.4724 23.2382 22.7255 23.7865C22.8802 24.138 23.5832 24.377 24.0612 24.4333C25.1298 24.5598 26.2124 24.4614 27.281 24.5739C32.5676 25.1222 36.87 29.8042 36.9965 35.1049C37.0246 36.061 36.8278 36.2578 35.8717 36.2578C31.4428 36.2578 27.0138 36.2578 22.5849 36.2578C22.4021 36.2578 22.1631 36.3141 22.0366 36.2156C21.8116 36.0469 21.5163 35.7798 21.5304 35.5829C21.5445 35.3299 21.8257 35.0627 22.0647 34.8799C22.2053 34.7815 22.4724 34.8378 22.6833 34.8378C26.7186 34.8378 30.7398 34.8378 34.775 34.8378C35.0281 34.8378 35.2812 34.8378 35.5343 34.8378C35.4358 30.212 31.2037 26.0643 26.6623 25.9377C25.3969 27.7936 24.2018 29.5933 22.9505 31.3649C22.599 31.857 22.149 31.7445 21.7554 31.3509C20.8415 30.4369 19.9557 29.5371 18.9996 28.567ZM24.1596 19.2873C23.3442 19.2873 22.6693 19.2451 22.0084 19.3014C21.7554 19.3154 21.446 19.4982 21.3054 19.695C20.4337 20.8901 18.1279 21.1573 17.1155 20.0747C16.7781 19.7091 16.5531 19.1467 16.4828 18.6546C16.3703 17.7688 16.9187 16.9955 17.7201 16.644C18.7465 16.2081 20.49 16.3628 20.9961 17.1361C21.4742 17.8532 22.0506 17.9235 22.7677 17.8813C23.2739 17.8532 23.7941 17.8391 24.3143 17.8813C24.7642 17.9094 24.9892 17.7126 25.0032 17.3048C25.0876 15.7442 25.1579 14.1975 25.2282 12.8337C23.5832 12.201 22.135 11.6386 20.7993 11.1184C19.5339 11.5683 18.2966 12.201 16.989 12.4119C15.6673 12.6369 14.2613 12.4681 12.8413 12.4681C12.8413 13.6211 12.8413 14.7178 12.8413 15.8145C12.8694 19.7653 16.1173 22.5914 20.0119 22.0149C21.7132 21.7619 23.063 20.8761 24.1596 19.2873ZM25.0314 11.1465C25.0876 11.0621 25.1157 11.034 25.1157 11.02C25.425 7.74396 22.7114 4.65074 19.3792 4.46795C15.8782 4.28517 12.8694 7.05501 12.8413 10.4576C12.8413 10.8934 13.01 11.02 13.4037 11.0762C15.7939 11.5121 18.0154 11.1043 20.0119 9.69831C20.5603 9.31869 20.968 9.29057 21.5163 9.69831C22.5427 10.4997 23.7238 10.9637 25.0314 11.1465ZM11.4212 10.317C11.5759 8.34854 12.2648 6.66133 13.6146 5.2975C14.9784 3.93367 16.6234 3.17443 18.5497 3.06194C20.2369 2.96352 21.7975 3.38533 23.2036 4.34141C25.2844 5.76148 26.339 7.81426 26.5639 10.3029C27.0138 10.3029 27.4075 10.3029 27.7871 10.3029C27.8012 5.83178 23.9487 1.37473 18.5356 1.65594C12.9959 1.93714 10.0011 6.80193 10.212 10.317C10.5916 10.317 10.9572 10.317 11.4212 10.317ZM11.379 11.7792C10.1698 11.6386 9.25594 12.0463 8.63729 13.0306C8.03271 13.9866 8.03271 14.999 8.65136 15.941C9.27 16.9111 10.198 17.2908 11.379 17.2064C11.379 15.3926 11.379 13.6211 11.379 11.7792ZM26.6061 11.7792C26.6061 13.6211 26.6061 15.3926 26.6061 17.2205C27.745 17.2767 28.6729 16.9393 29.2916 16.0113C29.9383 15.0411 29.9524 14.0148 29.3478 13.0306C28.7432 12.0463 27.8153 11.6386 26.6061 11.7792ZM17.9451 27.4984C17.3264 26.8938 16.6515 26.233 15.9767 25.6003C15.8642 25.5019 15.6252 25.4034 15.4986 25.4597C14.7956 25.7409 14.1067 26.0783 13.3615 26.4017C14.177 27.5827 14.9362 28.6935 15.6673 29.7761C16.4406 29.0028 17.1577 28.2717 17.9451 27.4984ZM22.2896 29.8042C23.063 28.6654 23.8222 27.5546 24.6236 26.3736C23.8925 26.0361 23.2176 25.7268 22.5287 25.4456C22.4021 25.3894 22.149 25.4456 22.0366 25.5581C21.3336 26.2049 20.6446 26.8657 20.0541 27.4421C20.8415 28.2717 21.5445 29.0169 22.2896 29.8042ZM21.2211 23.3928C19.7026 23.3928 18.2544 23.3928 16.7218 23.3928C16.7781 23.7022 16.7078 24.2083 16.9187 24.4755C17.5092 25.2347 18.2263 25.9096 19.0277 26.7532C19.6745 25.4034 21.4882 25.0941 21.2211 23.3928ZM19.0277 19.3014V19.2873C19.1683 19.2873 19.3511 19.3435 19.4354 19.2732C19.7026 19.0764 20.0963 18.8655 20.1525 18.5983C20.2509 18.1484 19.8713 17.8953 19.4073 17.8813C19.098 17.8672 18.7606 17.7969 18.5075 17.9235C18.2403 18.05 17.931 18.3453 17.9029 18.6124C17.8748 18.8092 18.2263 19.0905 18.4653 19.2592C18.6059 19.3435 18.8309 19.2873 19.0277 19.3014Z" fill="#fff"/>
<path d="M18.9996 28.567C18.0857 29.4949 17.2421 30.3385 16.3985 31.1821C15.7095 31.8711 15.3721 31.843 14.7956 31.0134C13.8677 29.6636 12.9397 28.2998 12.0258 26.95C11.8149 26.6267 11.6321 26.2752 11.4353 25.9237C6.80948 26.0502 2.84454 29.9167 2.43679 34.7956C2.67582 34.8096 2.9289 34.8237 3.16792 34.8237C7.21723 34.8237 11.2806 34.8237 15.3299 34.8237C15.5408 34.8237 15.7939 34.7675 15.9485 34.8659C16.1735 35.0205 16.4828 35.2877 16.4688 35.4986C16.4547 35.7517 16.1735 36.0188 15.9485 36.2016C15.8361 36.3 15.583 36.2297 15.4002 36.2297C10.9713 36.2297 6.54234 36.2297 2.11341 36.2297C1.15733 36.2297 0.974544 36.0329 1.00266 35.0627C1.14327 29.3684 5.96588 24.6161 11.7868 24.4473C12.5179 24.4192 13.2349 24.4614 13.9661 24.4333C15.0206 24.3911 15.4143 23.9974 15.344 22.9992C15.3299 22.7883 15.1893 22.5071 15.0065 22.3946C13.713 21.551 12.7147 20.4683 12.1101 19.0483C11.8992 18.5562 11.5477 18.6546 11.1962 18.6546C9.39654 18.6405 8.03271 17.8953 7.21723 16.2644C6.37362 14.5631 6.80948 12.5666 8.31391 11.3152C8.63729 11.0481 8.74978 10.7809 8.76384 10.3732C8.86226 5.07254 12.8553 0.77015 18.1419 0.278047C23.302 -0.199997 28.0402 3.38533 29.0807 8.5735C29.1088 8.68598 29.1229 8.79846 29.1369 8.925C29.1791 10.1201 29.4322 11.1184 30.3461 12.0745C31.4709 13.2274 31.499 14.8162 30.7819 16.2784C30.0368 17.7969 28.7573 18.6124 27.0701 18.6265C26.339 18.6265 26.0437 18.9077 25.65 19.4982C25.0032 20.4683 24.2159 21.4244 23.302 22.1415C22.6411 22.6617 22.4724 23.2382 22.7255 23.7865C22.8802 24.138 23.5832 24.377 24.0612 24.4333C25.1298 24.5598 26.2124 24.4614 27.281 24.5739C32.5676 25.1222 36.87 29.8042 36.9965 35.1049C37.0246 36.061 36.8278 36.2578 35.8717 36.2578C31.4428 36.2578 27.0138 36.2578 22.5849 36.2578C22.4021 36.2578 22.1631 36.3141 22.0366 36.2156C21.8116 36.0469 21.5163 35.7798 21.5304 35.5829C21.5445 35.3299 21.8257 35.0627 22.0647 34.8799C22.2053 34.7815 22.4724 34.8378 22.6833 34.8378C26.7186 34.8378 30.7398 34.8378 34.775 34.8378C35.0281 34.8378 35.2812 34.8378 35.5343 34.8378C35.4358 30.212 31.2037 26.0643 26.6623 25.9377C25.3969 27.7936 24.2018 29.5933 22.9505 31.3649C22.599 31.857 22.149 31.7445 21.7554 31.3509C20.8415 30.4369 19.9557 29.5371 18.9996 28.567ZM24.1596 19.2873C23.3442 19.2873 22.6693 19.2451 22.0084 19.3014C21.7554 19.3154 21.446 19.4982 21.3054 19.695C20.4337 20.8901 18.1279 21.1573 17.1155 20.0747C16.7781 19.7091 16.5531 19.1467 16.4828 18.6546C16.3703 17.7688 16.9187 16.9955 17.7201 16.644C18.7465 16.2081 20.49 16.3628 20.9961 17.1361C21.4742 17.8532 22.0506 17.9235 22.7677 17.8813C23.2739 17.8532 23.7941 17.8391 24.3143 17.8813C24.7642 17.9094 24.9892 17.7126 25.0032 17.3048C25.0876 15.7442 25.1579 14.1975 25.2282 12.8337C23.5832 12.201 22.135 11.6386 20.7993 11.1184C19.5339 11.5683 18.2966 12.201 16.989 12.4119C15.6673 12.6369 14.2613 12.4681 12.8413 12.4681C12.8413 13.6211 12.8413 14.7178 12.8413 15.8145C12.8694 19.7653 16.1173 22.5914 20.0119 22.0149C21.7132 21.7619 23.063 20.8761 24.1596 19.2873ZM25.0314 11.1465C25.0876 11.0621 25.1157 11.034 25.1157 11.02C25.425 7.74396 22.7114 4.65074 19.3792 4.46795C15.8782 4.28517 12.8694 7.05501 12.8413 10.4576C12.8413 10.8934 13.01 11.02 13.4037 11.0762C15.7939 11.5121 18.0154 11.1043 20.0119 9.69831C20.5603 9.31869 20.968 9.29057 21.5163 9.69831C22.5427 10.4997 23.7238 10.9637 25.0314 11.1465ZM11.4212 10.317C11.5759 8.34854 12.2648 6.66133 13.6146 5.2975C14.9784 3.93367 16.6234 3.17443 18.5497 3.06194C20.2369 2.96352 21.7975 3.38533 23.2036 4.34141C25.2844 5.76148 26.339 7.81426 26.5639 10.3029C27.0138 10.3029 27.4075 10.3029 27.7871 10.3029C27.8012 5.83178 23.9487 1.37473 18.5356 1.65594C12.9959 1.93714 10.0011 6.80193 10.212 10.317C10.5916 10.317 10.9572 10.317 11.4212 10.317ZM11.379 11.7792C10.1698 11.6386 9.25594 12.0463 8.63729 13.0306C8.03271 13.9866 8.03271 14.999 8.65136 15.941C9.27 16.9111 10.198 17.2908 11.379 17.2064C11.379 15.3926 11.379 13.6211 11.379 11.7792ZM26.6061 11.7792C26.6061 13.6211 26.6061 15.3926 26.6061 17.2205C27.745 17.2767 28.6729 16.9393 29.2916 16.0113C29.9383 15.0411 29.9524 14.0148 29.3478 13.0306C28.7432 12.0463 27.8153 11.6386 26.6061 11.7792ZM17.9451 27.4984C17.3264 26.8938 16.6515 26.233 15.9767 25.6003C15.8642 25.5019 15.6252 25.4034 15.4986 25.4597C14.7956 25.7409 14.1067 26.0783 13.3615 26.4017C14.177 27.5827 14.9362 28.6935 15.6673 29.7761C16.4406 29.0028 17.1577 28.2717 17.9451 27.4984ZM22.2896 29.8042C23.063 28.6654 23.8222 27.5546 24.6236 26.3736C23.8925 26.0361 23.2176 25.7268 22.5287 25.4456C22.4021 25.3894 22.149 25.4456 22.0366 25.5581C21.3336 26.2049 20.6446 26.8657 20.0541 27.4421C20.8415 28.2717 21.5445 29.0169 22.2896 29.8042ZM21.2211 23.3928C19.7026 23.3928 18.2544 23.3928 16.7218 23.3928C16.7781 23.7022 16.7078 24.2083 16.9187 24.4755C17.5092 25.2347 18.2263 25.9096 19.0277 26.7532C19.6745 25.4034 21.4882 25.0941 21.2211 23.3928ZM19.0277 19.3014V19.2873C19.1683 19.2873 19.3511 19.3435 19.4354 19.2732C19.7026 19.0764 20.0963 18.8655 20.1525 18.5983C20.2509 18.1484 19.8713 17.8953 19.4073 17.8813C19.098 17.8672 18.7606 17.7969 18.5075 17.9235C18.2403 18.05 17.931 18.3453 17.9029 18.6124C17.8748 18.8092 18.2263 19.0905 18.4653 19.2592C18.6059 19.3435 18.8309 19.2873 19.0277 19.3014Z" stroke="white" stroke-width="0.2" mask="url(#path-1-outside-1_114_22556)"/>
<path d="M19.1798 34.6756L19.1947 34.6974C19.2391 34.7623 19.2933 34.8302 19.3503 34.9006C19.3572 34.9092 19.3642 34.9179 19.3713 34.9266C19.4213 34.9883 19.4726 35.0516 19.5188 35.1142C19.5715 35.1856 19.619 35.2582 19.6517 35.3296C19.6842 35.4007 19.7037 35.4745 19.6952 35.5469L19.6949 35.5493L19.6949 35.5493C19.671 35.6922 19.5558 35.8528 19.4193 35.9786C19.2828 36.1042 19.1119 36.2073 18.9629 36.2234M19.1798 34.6756L18.9566 36.1738M19.1798 34.6756H19.1534H19.1529H19.1523H19.1517H19.1511H19.1505H19.15H19.1494H19.1488H19.1482H19.1476H19.1471H19.1465H19.1459H19.1453H19.1447H19.1442H19.1436H19.143H19.1424H19.1418H19.1413H19.1407H19.1401H19.1395H19.1389H19.1383H19.1377H19.1372H19.1366H19.136H19.1354H19.1348H19.1342H19.1336H19.1331H19.1325H19.1319H19.1313H19.1307H19.1301H19.1295H19.1289H19.1284H19.1278H19.1272H19.1266H19.126H19.1254H19.1248H19.1242H19.1236H19.123H19.1224H19.1219H19.1213H19.1207H19.1201H19.1195H19.1189H19.1183H19.1177H19.1171H19.1165H19.1159H19.1153H19.1147H19.1141H19.1135H19.1129H19.1123H19.1118H19.1112H19.1106H19.11H19.1094H19.1088H19.1082H19.1076H19.107H19.1064H19.1058H19.1052H19.1046H19.104H19.1034H19.1028H19.1022H19.1016H19.101H19.1004H19.0998H19.0992H19.0986H19.098H19.0974H19.0968H19.0962H19.0956H19.095H19.0944H19.0938H19.0932H19.0926H19.092H19.0913H19.0907H19.0901H19.0895H19.0889H19.0883H19.0877H19.0871H19.0865H19.0859H19.0853H19.0847H19.0841H19.0835H19.0829H19.0823H19.0817H19.0811H19.0805H19.0798H19.0792H19.0786H19.078H19.0774H19.0768H19.0762H19.0756H19.075H19.0744H19.0738H19.0732H19.0726H19.0719H19.0713H19.0707H19.0701H19.0695H19.0689H19.0683H19.0677H19.0671H19.0665H19.0658H19.0652H19.0646H19.064H19.0634H19.0628H19.0622H19.0616H19.061H19.0603H19.0597H19.0591H19.0585H19.0579H19.0573H19.0567H19.0561H19.0555H19.0548H19.0542H19.0536H19.053H19.0524H19.0518H19.0512H19.0505H19.0499H19.0493H19.0487H19.0481H19.0475H19.0469H19.0463H19.0456H19.045H19.0444H19.0438H19.0432H19.0426H19.042H19.0413H19.0407H19.0401H19.0395H19.0389H19.0383H19.0376H19.037H19.0364H19.0358H19.0352H19.0346H19.034H19.0333H19.0327H19.0321H19.0315H19.0309H19.0303H19.0296H19.029H19.0284H19.0278H19.0272H19.0266H19.0259H19.0253H19.0247H19.0241H19.0235H19.0229H19.0222H19.0216H19.021H19.0204H19.0198H19.0192H19.0185H19.0179H19.0173H19.0167H19.0161H19.0154H19.0148H19.0142H19.0136H19.013H19.0124H19.0117H19.0111H19.0105H19.0099H19.0093H19.0087H19.008H19.0074H19.0068H19.0062H19.0056H19.0049H19.0043H19.0037H19.0031H19.0025H19.0019H19.0012H19.0006H19H18.9994H18.9988H18.9982H18.9975H18.9969H18.9963H18.9957H18.9951H18.9944H18.9938H18.9932H18.9926H18.992H18.9914H18.9907H18.9901H18.9895H18.9889H18.9883H18.9877H18.987H18.9864H18.9858H18.9852H18.9846H18.9839H18.9833H18.9827H18.9821H18.9815H18.9809H18.9802H18.9796H18.979H18.9784H18.9778H18.9772H18.9765H18.9759H18.9753H18.9747H18.9741H18.9735H18.9728H18.9722H18.9716H18.971H18.9704H18.9698H18.9691H18.9685H18.9679H18.9673H18.9667H18.9661H18.9654H18.9648H18.9642H18.9636H18.963H18.9624H18.9617H18.9611H18.9605H18.9599H18.9593H18.9587H18.9581H18.9574H18.9568H18.9562H18.9556H18.955H18.9544H18.9537H18.9531H18.9525H18.9519H18.9513H18.9507H18.9501H18.9494H18.9488H18.9482H18.9476H18.947H18.9464H18.9458H18.9452H18.9445H18.9439H18.9433H18.9427H18.9421H18.9415H18.9409H18.9403H18.9396H18.939H18.9384H18.9378H18.9372H18.9366H18.936H18.9354H18.9347H18.9341H18.9335H18.9329H18.9323H18.9317H18.9311H18.9305H18.9299H18.9293H18.9286H18.928H18.9274H18.9268H18.9262H18.9256H18.925H18.9244H18.9238H18.9232H18.9226H18.9219H18.9213H18.9207H18.9201H18.9195H18.9189H18.9183H18.9177H18.9171H18.9165H18.9159H18.9153H18.9147H18.9141H18.9134H18.9128H18.9122H18.9116H18.911H18.9104H18.9098H18.9092H18.9086H18.908H18.9074H18.9068H18.9062H18.9056H18.905H18.9044H18.9038H18.9032H18.9026H18.902H18.9014H18.9008H18.9002H18.8996H18.899H18.8984H18.8978H18.8972H18.8966H18.896H18.8954H18.8948H18.8942H18.8936H18.893H18.8924H18.8918H18.8912H18.8906H18.89H18.8894H18.8888H18.8882H18.8876H18.887H18.8864H18.8858H18.8852H18.8846H18.884H18.8834H18.8828H18.8822H18.8816H18.881H18.8804H18.8798H18.8792H18.8787H18.8781H18.8775H18.8769H18.8763H18.8757H18.8751H18.8745H18.8739H18.8733H18.8727H18.8721H18.8715H18.871H18.8704H18.8698H18.8692H18.8686H18.868H18.8674H18.8668H18.8662H18.8657H18.8651H18.8645H18.8639H18.8633H18.8627H18.8621H18.8615H18.861H18.8604H18.8598H18.8592H18.8586H18.858H18.8575H18.8569H18.8563H18.8557H18.8551H18.8545H18.854H18.8534H18.8528H18.8522H18.8516H18.8511H18.8505H18.8499H18.8493H18.8487H18.8482H18.8476H18.847H18.8464H18.8458H18.8453H18.8447H18.8441H18.8177L18.8028 34.6974C18.7585 34.7621 18.7053 34.8283 18.6495 34.8965C18.642 34.9055 18.6345 34.9147 18.627 34.9238C18.5786 34.9828 18.529 35.0431 18.4841 35.1035C18.3823 35.2404 18.2945 35.3899 18.302 35.5424M19.1798 34.6756L18.352 35.5411M18.9629 36.2234C18.9626 36.2234 18.9622 36.2235 18.9618 36.2235L18.9566 36.1738M18.9629 36.2234C18.9634 36.2233 18.9638 36.2233 18.9642 36.2232L18.9566 36.1738M18.9629 36.2234C18.8992 36.2327 18.8259 36.2034 18.7592 36.1632C18.6895 36.1212 18.6163 36.0607 18.5499 35.9925C18.4835 35.9242 18.4224 35.8468 18.3776 35.7699C18.3337 35.6947 18.3024 35.6148 18.302 35.5424M18.9566 36.1738C18.7738 36.2019 18.352 35.7801 18.352 35.5411M18.302 35.5424C18.302 35.5428 18.3021 35.5433 18.3021 35.5437L18.352 35.5411M18.302 35.5424C18.302 35.542 18.302 35.5415 18.302 35.5411H18.352" fill="#fff" stroke="white" stroke-width="0.1"/>
</svg>
