<svg width="38" height="38" viewBox="0 0 38 38" fill="none" xmlns="http://www.w3.org/2000/svg">
<path d="M18.8445 37.6951C10.8672 38.0042 1.74193 32.058 0.181793 21.6228C0.064047 20.828 0.0346106 20.0185 0.00517406 19.209C-0.0242624 18.3112 0.46144 17.7519 1.19735 17.7666C1.90383 17.7813 2.31594 18.3112 2.36009 19.1796C2.65446 25.7439 5.65698 30.6598 11.4854 33.6623C21.5821 38.8726 33.9896 32.1169 35.1965 20.8574C36.1532 11.9382 30.1923 4.1228 21.3466 2.65097C20.8904 2.57738 20.3752 2.2683 20.1103 1.90034C19.9337 1.66485 20.0073 1.00253 20.228 0.767036C20.493 0.472671 21.0375 0.266615 21.4349 0.31077C25.718 0.870063 29.427 2.68041 32.3559 5.84483C37.4484 11.3053 39.038 17.7372 36.6978 24.8314C34.3428 31.955 29.2062 36.1203 21.8618 37.5479C21.4497 37.6215 21.0375 37.6804 20.6254 37.7098C20.022 37.7098 19.4333 37.6951 18.8445 37.6951Z" fill="white"/>
<path d="M3.74169 11.3934C5.15464 11.3934 6.56759 11.3787 7.98054 11.4081C8.33378 11.4081 8.80476 11.4375 9.01082 11.6583C9.29046 11.9527 9.51124 12.4678 9.4818 12.8505C9.43765 13.4392 8.93723 13.7483 8.31906 13.7483C6.87667 13.7483 5.41957 13.7483 3.97718 13.7483C3.12352 13.7483 2.25514 13.763 1.40148 13.7483C0.17987 13.7336 -0.394142 12.8358 0.297616 11.8349C1.04825 10.731 1.94606 9.71549 2.88803 8.77352C3.71225 7.9493 4.72781 7.3017 5.6109 6.52163C6.0083 6.16839 6.40569 5.75628 6.61174 5.2853C7.03857 4.31389 6.74421 3.31305 5.99358 2.78319C5.1252 2.17975 3.63866 2.13559 2.99105 2.84207C2.66725 3.19531 2.47592 3.76932 2.41704 4.26974C2.31402 5.16755 1.9755 5.66797 1.2543 5.68269C0.518389 5.69741 0.0621237 5.16755 0.0326872 4.2403C-0.0556223 1.92954 1.75472 0.0308821 4.09492 0.0308821C4.65422 0.0308821 5.22823 0.0161638 5.7728 0.148628C9.11385 0.987568 10.3355 4.91734 8.00998 7.4636C7.27407 8.2731 6.36153 8.9207 5.52259 9.62718C4.90443 10.1423 4.28626 10.6575 3.68281 11.1873C3.68281 11.2609 3.71225 11.3345 3.74169 11.3934Z" fill="white"/>
<path d="M15.1786 10.5843C13.3388 10.5843 11.6315 10.5843 9.90947 10.5843C9.29131 10.5843 8.7173 10.5254 8.40821 9.89252C8.09913 9.25963 8.42293 8.77393 8.82032 8.30295C10.9692 5.75669 13.1181 3.21043 15.2228 0.634738C15.679 0.0901633 16.1942 -0.145329 16.8271 0.0901633C17.4452 0.310937 17.5335 0.884949 17.5335 1.4884C17.5188 3.69613 17.5335 5.88915 17.5335 8.15576C18.4019 8.21464 19.2408 8.33238 19.2556 9.43625C19.2703 10.128 18.7993 10.4518 17.5335 10.6579C17.5335 11.2466 17.5482 11.85 17.5335 12.4535C17.5188 13.2336 17.092 13.7045 16.4149 13.734C15.7085 13.7634 15.208 13.2777 15.1786 12.4829C15.1639 11.8648 15.1786 11.2319 15.1786 10.5843ZM15.1492 4.43205C14.0453 5.74197 13.0739 6.91943 12.0289 8.15576C13.1916 8.15576 14.163 8.15576 15.1492 8.15576C15.1492 6.94887 15.1492 5.80084 15.1492 4.43205Z" fill="white"/>
<path d="M27.8193 8.52415C27.5397 8.96569 27.4072 9.31893 27.157 9.55442C21.461 15.2651 15.7651 20.9611 10.0544 26.657C9.48037 27.231 8.78862 27.2605 8.28819 26.7895C7.77306 26.2891 7.80249 25.5826 8.40594 24.9791C14.1313 19.2685 19.8273 13.5725 25.5233 7.87654C25.9207 7.47915 26.3916 7.22894 26.9068 7.53802C27.26 7.7588 27.4955 8.15619 27.8193 8.52415Z" fill="white"/>
<path d="M27.2924 19.7535C25.7764 19.7535 24.4076 19.7535 23.0388 19.7535C22.141 19.7535 21.6406 19.3414 21.6259 18.6202C21.6112 17.8548 22.1263 17.3986 23.0388 17.3986C25.0994 17.3986 27.1599 17.3986 29.2058 17.3986C29.7504 17.3986 30.3244 17.5016 30.4716 18.0462C30.5893 18.4583 30.5304 19.047 30.3097 19.4002C27.9842 23.1092 25.6145 26.8035 23.2449 30.4831C22.7739 31.219 22.1116 31.4103 21.5081 31.0129C20.9194 30.6303 20.8164 29.9238 21.2727 29.2026C23.1124 26.3178 24.9669 23.433 26.8214 20.5335C26.9539 20.3275 27.0716 20.1067 27.2924 19.7535Z" fill="white"/>
</svg>
