<svg width="69" height="104" viewBox="0 0 69 104" fill="none" xmlns="http://www.w3.org/2000/svg">
<g id="Group">
<g id="Group_2">
<path id="Vector" d="M15.8396 3.03995C16.0977 4.23358 16.3235 5.42719 16.5171 6.62082C16.6139 7.2015 16.7106 7.81444 16.8074 8.42738C16.8397 8.62094 17.0009 9.52425 16.8718 8.81453C16.9363 9.16939 16.9687 9.52423 17.001 9.84684C17.2913 12.2986 17.5171 14.7826 17.6462 17.2667C17.9043 22.267 17.8719 27.2996 17.517 32.2677C17.4202 33.4935 17.3235 34.7194 17.2267 35.9776C17.1622 36.526 17.1299 37.1067 17.0654 37.6551C17.0331 37.9132 17.001 38.1712 16.9687 38.4616C16.9687 38.5906 16.9364 38.7197 16.9364 38.8165C16.9041 39.01 16.9364 38.9132 16.9687 38.5261C16.9687 38.6229 16.9364 38.7197 16.9364 38.8165C16.6461 40.8811 16.1944 42.9135 15.646 44.9136C15.3557 45.9137 15.0331 46.9138 14.6782 47.8816C14.4846 48.3655 14.3233 48.8494 14.1297 49.3333C14.0974 49.4623 14.033 49.5591 14.0007 49.6881C14.1943 49.0752 14.0975 49.43 14.033 49.5913C13.9039 49.8494 13.8071 50.1398 13.6781 50.3978C12.8071 52.3012 11.807 54.1078 10.6134 55.8498C10.2908 56.3337 9.93601 56.8176 9.58115 57.2693C9.48437 57.3983 9.29074 57.5596 9.67787 57.1402C9.58109 57.2693 9.45204 57.3983 9.35526 57.5274C9.1617 57.7532 9.00034 57.979 8.80678 58.2048C8.06479 59.0759 7.29061 59.8823 6.45185 60.6888C6.03247 61.076 5.61309 61.4631 5.16144 61.8502C4.93562 62.0438 4.67751 62.2051 4.48395 62.3986C4.90333 61.9793 4.74212 62.2051 4.58082 62.3341C4.45178 62.4309 4.32265 62.5277 4.16135 62.6245C3.2258 63.3019 2.22583 63.9471 1.19351 64.4956C0.290223 64.9795 -0.226066 66.2376 0.0965356 67.2377C0.225576 67.6248 0.419263 68.0119 0.709605 68.3022C1.06447 68.6894 1.87091 69.0765 2.41933 69.012C4.58076 68.7539 6.74222 68.6249 8.90365 68.6894C9.96824 68.7216 11.0005 68.7861 12.0651 68.8829C12.3232 68.9152 12.6135 68.9475 12.8716 68.9797C13.0652 69.012 14.033 69.141 13.1942 69.012C13.7426 69.1088 14.2911 69.1733 14.8395 69.27C16.9364 69.6249 19.0332 70.1411 21.0656 70.7863C22.098 71.1089 23.1303 71.4638 24.1304 71.8831C24.3562 71.9799 24.5497 72.0444 24.7756 72.1412C24.9046 72.2057 25.0337 72.238 25.1627 72.3025C24.4853 72.0444 24.9369 72.2057 25.0982 72.2702C25.6143 72.4961 26.0983 72.7219 26.6144 72.9477C28.5823 73.8832 30.4857 74.9156 32.2923 76.077C33.1956 76.6576 34.0666 77.2383 34.9054 77.8835C35.1312 78.0448 35.3569 78.2061 35.5827 78.3674C35.6795 78.4642 35.8085 78.5287 35.9053 78.6255C35.3891 78.2384 35.615 78.3997 35.744 78.4965C36.2279 78.8836 36.6796 79.2385 37.1313 79.6256C38.7443 80.9805 40.2927 82.4645 41.7121 84.013C42.4541 84.8195 43.1639 85.6582 43.8736 86.5292C44.0027 86.7228 44.1639 86.8841 44.293 87.0777C43.7768 86.4647 44.3898 87.2067 44.4865 87.368C44.8091 87.8197 45.1317 88.2713 45.4543 88.7229C46.8093 90.6908 48.0352 92.7554 49.0676 94.8846C49.3256 95.433 49.5836 95.9815 49.8095 96.4976C50.003 96.9493 49.5836 95.9492 49.7772 96.4331C49.8417 96.5944 49.9062 96.788 49.9708 96.9493C50.0676 97.2074 50.1643 97.4654 50.2611 97.7235C50.7127 98.8849 51.0999 100.079 51.4225 101.272C51.7773 102.498 53.1646 103.369 54.3905 102.95C54.9712 102.756 55.5518 102.401 55.8422 101.853C56.1648 101.24 56.197 100.659 56.1002 99.9817C56.1002 99.9495 56.0034 99.3365 56.0679 99.7236C56.1324 100.111 56.0358 99.5301 56.0358 99.4978C56.0035 99.272 55.9712 99.0462 55.9389 98.8204C55.8744 98.3042 55.8099 97.788 55.7776 97.2719C55.7131 96.4654 55.6486 95.6589 55.6163 94.8524C55.584 93.5942 55.6163 92.3038 55.584 91.0456C55.584 89.4649 55.4873 87.9164 55.326 86.3357C55.1969 85.142 55.0357 83.9484 54.8744 82.7548C54.7776 82.0451 54.6809 81.3354 54.5841 80.5934C54.5518 80.4643 54.5517 80.3353 54.5195 80.2062C54.4227 79.5933 54.584 80.5934 54.5195 80.2062C54.4872 79.8514 54.4227 79.5288 54.3905 79.1739C54.1001 76.8835 53.8421 74.5607 53.7776 72.238C53.7453 71.0444 53.7452 69.883 53.842 68.6894C53.8743 68.141 53.9065 67.5602 54.0033 67.0118C53.8743 67.6893 54.0679 66.6893 54.0679 66.5602C54.1324 66.2376 54.1647 65.9473 54.2292 65.6247C54.4227 64.6246 54.7131 63.6568 55.0357 62.7212C55.1647 62.3019 55.326 61.8825 55.4873 61.4631C55.5518 61.2695 55.6164 61.076 55.7132 60.9147C55.7454 60.7856 55.8099 60.6888 55.8422 60.5598C56.068 60.0436 55.7454 60.8179 55.8422 60.5921C56.6164 58.8823 57.4874 57.237 58.5197 55.6885C58.8101 55.2691 59.2294 54.8175 59.4875 54.3659C59.4553 54.3981 59.1327 54.8175 59.3908 54.4949C59.4876 54.3659 59.5843 54.2691 59.6811 54.1401C59.8424 53.9465 60.0037 53.7529 60.165 53.5594C60.8425 52.7851 61.5523 52.0431 62.3265 51.3334C62.7136 50.9785 63.1329 50.6237 63.5523 50.2688C63.8749 50.0108 63.4556 50.3656 63.4233 50.3656C63.5524 50.3011 63.6492 50.1721 63.7782 50.1075C64.004 49.9462 64.2299 49.7849 64.4234 49.6236C65.2944 49.0107 66.1977 48.4945 67.1655 48.0106C68.0688 47.559 68.5849 46.2363 68.2623 45.2685C67.9075 44.2039 67.0364 43.5587 65.9396 43.4942C64.8104 43.4297 63.6813 43.3329 62.5522 43.2038C62.2942 43.1716 62.0361 43.1393 61.778 43.1071C61.649 43.1071 61.5199 43.0425 61.3908 43.0425C62.036 43.0103 61.6167 43.0748 61.4231 43.0425C60.8424 42.9458 60.2618 42.8812 59.7134 42.7845C57.5197 42.3973 55.3583 41.9134 53.2614 41.3005C52.1968 40.9779 51.1644 40.6553 50.1321 40.2682C49.6482 40.0746 49.1642 39.9133 48.6481 39.7197C48.5836 39.6875 47.9062 39.4294 47.9062 39.4294C48.0029 39.4617 48.0997 39.5262 48.1965 39.5584C48.0997 39.5262 48.0029 39.4617 47.9062 39.4294C47.7771 39.3649 47.6159 39.3004 47.4868 39.2358C45.4544 38.3326 43.5188 37.3002 41.6477 36.1066C40.7122 35.4937 39.7766 34.8807 38.9056 34.2033C38.8088 34.1387 38.7442 34.0742 38.6474 34.0097C38.7442 34.1065 39.1958 34.3968 38.6474 34.0097C38.4539 33.8484 38.2281 33.6871 38.0345 33.5258C37.5829 33.1709 37.1635 32.7838 36.7441 32.3967C35.9376 31.6547 35.1312 30.8804 34.3892 30.0739C33.6149 29.2352 32.9374 28.3319 32.1954 27.4931C32.647 28.0093 32.0987 27.3641 32.002 27.2028C31.8407 26.977 31.6794 26.7834 31.5181 26.5576C31.1632 26.0737 30.8406 25.5898 30.518 25.1059C29.8728 24.1381 29.292 23.138 28.7114 22.138C27.5823 20.1378 26.5822 18.0732 25.6466 15.944C25.6144 15.8472 25.5499 15.7504 25.5176 15.6537C25.4854 15.5569 25.4209 15.4601 25.3886 15.3633C25.5177 15.6859 25.5498 15.7182 25.4531 15.4924C25.324 15.202 25.1951 14.8794 25.066 14.5891C24.8402 14.0084 24.6144 13.4277 24.3885 12.847C23.9369 11.6534 23.4852 10.4275 23.0658 9.23388C22.1948 6.74985 21.3882 4.26583 20.5817 1.7818C20.1946 0.58817 18.872 -0.315099 17.6139 0.104283C16.3235 0.459145 15.4202 1.74954 15.8396 3.03995C18.743 12.1051 21.7754 21.4605 27.421 29.2352C30.2921 33.2032 33.744 36.6228 37.8088 39.4294C41.6477 42.0747 45.9383 44.0749 50.358 45.5266C55.3905 47.1718 60.6489 48.0751 65.9396 48.3655C65.5202 46.8493 65.1331 45.3653 64.7137 43.8491C57.3907 47.4945 52.2936 54.753 50.0676 62.5277C48.7127 67.2699 48.7771 72.2057 49.3256 77.0448C49.4869 78.3997 49.6482 79.7224 49.8418 81.0773C49.874 81.3999 49.9385 81.6902 49.9708 82.0128C50.003 82.1418 50.0031 82.2709 50.0354 82.3999C50.1321 83.0129 49.9708 82.0128 50.0354 82.4322C50.1321 83.0451 50.1966 83.6904 50.2934 84.3033C50.5192 86.2066 50.745 88.11 50.7773 90.0133C50.8095 91.465 50.7773 92.9167 50.8096 94.3685C50.8741 96.6589 51.1322 98.9494 51.4548 101.24C53.0033 100.821 54.5517 100.369 56.1325 99.9495C53.6485 91.1747 48.4868 83.2387 41.7121 77.2061C34.9375 71.1412 26.55 66.7215 17.6462 64.8827C12.6781 63.8503 7.5165 63.5278 2.48391 64.173C2.9033 65.6892 3.29035 67.1731 3.70974 68.6894C11.6457 64.3343 17.0009 56.495 19.8075 48.0429C21.2592 43.6555 21.9045 39.1068 22.2593 34.4936C22.6787 29.3965 22.8078 24.2994 22.6142 19.2023C22.3884 13.3632 21.7754 7.5241 20.5817 1.81405C20.3237 0.588162 18.8075 -0.250587 17.6139 0.136535C16.2267 0.491397 15.5815 1.71728 15.8396 3.03995Z" fill="#FFAF01"/>
</g>
</g>
</svg>
