<svg width="61" height="102" viewBox="0 0 61 102" fill="none" xmlns="http://www.w3.org/2000/svg">
<g id="Group">
<g id="Group_2">
<path id="Vector" d="M27.1179 2.48624C27.4082 6.90588 27.3437 11.3578 26.9243 15.7452C26.8598 16.2936 26.8275 16.842 26.7307 17.3582C26.6984 17.6162 26.6663 17.8743 26.634 18.1324C26.6017 18.5195 26.7308 17.5195 26.634 18.1002C26.6017 18.2615 26.6017 18.455 26.5694 18.6163C26.4081 19.7132 26.2146 20.81 26.0211 21.9068C25.6017 24.1005 25.0533 26.2942 24.4081 28.4234C24.0855 29.4235 23.7628 30.4235 23.408 31.4236C23.2144 31.9075 23.053 32.3914 22.8272 32.8753C22.7949 32.9721 22.6659 33.1334 22.6659 33.2624C22.6659 32.9398 22.8595 32.8431 22.7305 33.0689C22.6014 33.327 22.5046 33.585 22.3756 33.8431C21.6013 35.5529 20.6658 37.1982 19.6335 38.7467C19.4077 39.1015 19.1496 39.4564 18.8916 39.8112C18.7625 40.0048 18.6011 40.1984 18.4721 40.3919C18.4076 40.4564 18.343 40.5532 18.3108 40.6177C18.6334 40.0371 18.4398 40.4564 18.3431 40.5855C17.7624 41.3275 17.1172 42.0695 16.472 42.7792C15.8268 43.4566 15.1816 44.1018 14.4718 44.747C14.1492 45.0374 13.7945 45.3277 13.4396 45.6181C13.2783 45.7471 13.117 45.8762 12.9557 46.0052C12.6976 46.1988 13.4396 45.6181 13.0524 45.9407C12.9234 46.0374 12.8266 46.102 12.6975 46.1988C11.8588 46.8117 10.9877 47.3924 10.0844 47.9086C9.18115 48.4247 8.24573 48.8118 7.31019 49.2957C7.34245 49.2635 7.85848 49.0699 7.50362 49.199C7.37458 49.2635 7.24564 49.2957 7.11659 49.3603C6.85851 49.457 6.60043 49.5538 6.31009 49.6506C5.82619 49.8119 5.34225 49.9732 4.82609 50.1022C3.82603 50.3926 2.7937 50.5861 1.76138 50.7152C1.21295 50.7797 0.567751 51.3604 0.309669 51.812C0.051588 52.2959 -0.0451609 52.8121 0.0193594 53.3605C0.18066 54.5219 1.18069 55.4574 2.40658 55.4574C4.76157 55.4251 7.11653 55.4252 9.47152 55.5865C10.0199 55.6187 10.5361 55.6832 11.0845 55.7478C11.1168 55.7478 11.6975 55.8445 11.3104 55.78C10.891 55.7155 11.4716 55.8123 11.5361 55.8123C11.8265 55.8446 12.1169 55.9091 12.4072 55.9736C13.5686 56.1994 14.6977 56.4897 15.7945 56.8446C15.9881 56.9091 16.2139 57.0059 16.4075 57.0704C16.5042 57.1027 16.6333 57.1672 16.7301 57.1995C16.9236 57.264 17.1172 57.4576 16.601 57.135C16.9882 57.393 17.4721 57.5221 17.8915 57.7479C18.698 58.1673 19.4722 58.6189 20.182 59.1351C20.3755 59.2641 20.569 59.3932 20.7626 59.5545C20.8271 59.619 20.9239 59.6835 20.9885 59.7158C21.3111 59.9416 20.8594 59.619 20.8272 59.5867C21.1498 59.9093 21.5691 60.1997 21.924 60.49C22.6337 61.1352 23.3111 61.7804 23.9563 62.4901C24.2466 62.8127 24.537 63.1353 24.7951 63.4579C24.9241 63.6192 25.0533 63.7805 25.2146 63.9741C25.4081 64.2322 24.8597 63.4902 25.15 63.8773C25.2468 64.0064 25.3112 64.1031 25.408 64.2322C25.9564 64.9742 26.4404 65.7484 26.9243 66.5227C27.4082 67.3292 27.8599 68.1679 28.2793 69.0067C28.4729 69.4261 28.6663 69.8454 28.8599 70.2648C28.8922 70.3616 28.9244 70.4584 28.9889 70.5229C28.7308 69.91 28.8921 70.2648 28.9566 70.4261C29.0534 70.6842 29.1503 70.91 29.2471 71.1681C29.9891 73.1037 30.5374 75.0716 30.9568 77.0717C31.0859 77.6524 31.1826 78.2008 31.2794 78.7815C31.3117 79.0073 31.3439 79.2654 31.4084 79.4912C31.4407 79.6848 31.473 79.8461 31.473 80.0397C31.473 79.9429 31.4407 79.8461 31.4407 79.7493C31.4407 79.8784 31.473 79.9751 31.473 80.1042C31.6021 81.2655 31.7311 82.3947 31.7956 83.556C32.1505 88.879 31.8279 94.2341 31.473 99.5248C31.4085 100.718 32.4408 101.751 33.5699 101.912C34.7635 102.073 35.8603 101.331 36.2152 100.17C38.7637 92.0727 39.0864 83.5237 40.9898 75.2974C41.4091 73.4586 41.893 71.6197 42.5382 69.8132C42.6672 69.4261 42.8286 69.0389 42.9577 68.6841C43.0222 68.4905 43.1512 68.297 43.2157 68.0712C43.2157 68.1034 42.9898 68.6196 43.1511 68.2647C43.1834 68.1679 43.248 68.0389 43.2803 67.9421C43.6351 67.1679 43.99 66.4259 44.3771 65.6839C45.1513 64.1999 46.0545 62.7805 47.0546 61.4578C47.1191 61.3933 47.1837 61.2965 47.2159 61.232C46.8933 61.7159 46.9901 61.5223 47.0869 61.3933C47.2159 61.232 47.345 61.0707 47.4741 60.9094C47.7322 60.5868 48.0224 60.2642 48.3127 59.9416C48.8611 59.3286 49.4419 58.748 50.0226 58.2318C50.3775 57.9092 50.7 57.6189 51.0871 57.3285C51.1516 57.264 51.2162 57.2317 51.313 57.1672C50.7323 57.6189 51.1516 57.2962 51.2484 57.1995C51.442 57.0704 51.6034 56.9414 51.7969 56.8124C52.5066 56.3285 53.2486 55.8768 54.0228 55.4897C54.2164 55.3929 54.4422 55.2961 54.6357 55.1993C54.7325 55.1671 54.7971 55.1348 54.8939 55.1026C55.3456 54.909 54.41 55.2961 54.8293 55.1348C55.2487 54.9735 55.6681 54.8122 56.1197 54.6832C56.5714 54.5542 56.9908 54.4251 57.4424 54.3283C57.636 54.296 57.8618 54.2316 58.0554 54.1993C58.2489 54.167 59.1521 54.038 58.3134 54.1347C58.9586 54.038 59.5716 53.9412 60.0233 53.425C60.3781 53.0379 60.604 52.5863 60.7007 52.0378C60.862 50.941 60.1522 49.6183 58.9586 49.3925C58.023 49.199 57.0876 48.9731 56.152 48.6828C55.7327 48.5537 55.3454 48.3925 54.9261 48.2634C54.7002 48.1666 54.4745 48.0698 54.2487 48.0053C54.9907 48.2957 54.1518 47.9408 53.9583 47.8763C52.2485 47.0698 50.6033 46.102 49.0871 44.9729C49.0226 44.9083 48.9257 44.8438 48.8612 44.8116C48.5386 44.5535 48.9902 44.9083 49.0225 44.9406C48.8612 44.7793 48.6355 44.6503 48.4419 44.489C48.0548 44.1664 47.6998 43.876 47.3449 43.5534C46.6352 42.9082 45.9255 42.2308 45.2803 41.4888C44.6351 40.7791 44.0222 40.0693 43.4093 39.3273C43.3448 39.2305 43.2802 39.1338 43.1834 39.037C43.2156 39.0693 43.5383 39.4886 43.2803 39.166C43.119 38.9725 42.9898 38.7789 42.8285 38.5854C42.5382 38.1982 42.2479 37.7788 41.9899 37.3917C40.9253 35.811 39.9896 34.1335 39.1509 32.4237C38.9573 32.0043 38.7638 31.6172 38.5703 31.1978C38.5057 31.101 38.4735 30.972 38.4412 30.8752C38.2799 30.5203 38.5057 31.0042 38.5057 31.0365C38.4089 30.7461 38.2798 30.4881 38.1831 30.23C37.8282 29.359 37.5056 28.4557 37.183 27.5524C35.828 23.5844 34.828 19.4874 34.0215 15.3581C33.5699 13.0676 33.1506 10.7448 32.7957 8.42212C32.6344 7.32527 32.4731 6.26069 32.3118 5.16385C32.2473 4.61543 32.1504 4.09926 32.0859 3.55084C32.0537 3.35728 31.9246 2.45399 32.0536 3.26049C32.0214 2.97015 31.9892 2.71208 31.9569 2.42174C31.8601 1.74427 31.731 1.19583 31.2471 0.711932C30.8277 0.29255 30.1503 -0.0300356 29.5374 0.00222451C28.9245 0.0344847 28.2469 0.22803 27.8275 0.711932C27.4081 1.22809 27.0211 1.8733 27.1179 2.48624C28.247 10.9707 29.5374 19.5518 32.1505 27.7137C34.6668 35.4884 38.7638 42.9082 45.1836 48.1021C48.829 51.0378 53.0228 53.296 57.636 54.167C57.8619 52.5863 58.0554 51.0055 58.2812 49.4248C56.2811 49.6829 54.4422 50.199 52.5711 51.0055C50.9259 51.7153 49.4096 52.683 47.9901 53.8121C45.2157 55.9736 42.9253 58.7802 41.1188 61.7804C39.2154 64.9097 37.8282 68.3615 36.8927 71.9101C35.7636 76.1039 35.1184 80.4268 34.4731 84.7174C33.7634 89.5564 33.0214 94.3954 31.5374 99.0732C33.1182 99.299 34.699 99.4925 36.2797 99.7184C36.8927 90.1694 37.4411 80.1687 34.2151 70.9746C31.5375 63.2967 26.279 56.1026 18.6334 52.8766C13.504 50.7152 7.89081 50.6507 2.40658 50.7152C2.6324 52.2959 2.82596 53.8767 3.05178 55.4574C11.1813 54.3283 18.1172 49.0699 22.8595 42.6179C28.1179 35.4561 30.4085 26.4556 31.5053 17.7453C32.1505 12.6805 32.2795 7.58334 31.9246 2.51849C31.8278 1.26035 30.86 0.034461 29.5051 0.0989814C28.2792 0.131242 27.0211 1.13131 27.1179 2.48624Z" fill="#FFAF01"/>
</g>
</g>
</svg>
