<svg width="124" height="124" viewBox="0 0 124 124" fill="none" xmlns="http://www.w3.org/2000/svg">
<g id="Icon">
<circle id="Ellipse 117" cx="62" cy="62" r="61.5" fill="white" stroke="#E0DEF7"/>
<circle id="Ellipse 118" cx="62" cy="62" r="54.25" fill="#0B6755"/>
<g id="icon">
<g id="Group">
<path id="Vector" d="M85.6147 38.7379C85.4916 36.8025 83.9403 35.2512 82.0058 35.129C78.3825 34.9004 75.0609 34.976 72.037 35.3438C65.8586 36.0731 60.8019 38.1437 57.2181 41.4269C47.2574 39.3535 39.3366 48.5512 42.639 58.209C42.8908 58.9379 43.5569 59.4419 44.3309 59.4869C45.0771 59.549 45.7749 59.1404 46.1039 58.461C46.9601 56.6671 48.8474 55.7308 50.7488 56.1162C50.7037 57.4183 50.7772 58.4052 50.8295 58.9046L48.9217 60.8124C47.5181 62.216 47.5181 64.5004 48.9217 65.9041L54.8396 71.8219C56.2439 73.2249 58.5269 73.2245 59.9313 71.8219L61.8386 69.9139C62.3213 69.9781 63.7668 70.0399 64.6319 69.9935C64.9986 71.8979 64.0771 73.7899 62.2775 74.6435C61.6025 74.9765 61.2065 75.6515 61.2515 76.4165C61.3055 77.1906 61.8095 77.8566 62.5385 78.1086C63.9696 78.6036 65.4726 78.8376 66.9577 78.8376C75.1334 79.018 81.039 71.4032 79.3202 63.5208C84.8447 57.7065 86.274 47.4717 85.6147 38.7379ZM76.9326 63.3824C71.1852 68.6841 63.5842 68.271 62.032 68.1225L52.6203 58.7108C51.7419 48.8226 57.5588 38.8562 71.6861 37.2032L83.5406 49.0585C82.6887 55.3039 80.484 60.1064 76.9326 63.3824Z" fill="white"/>
<path id="Vector_2" d="M32.9008 75.4985C33.3982 75.4985 33.8008 75.0959 33.8008 74.5985C33.7726 72.8314 36.1986 72.1217 37.117 73.6396C37.3737 74.0456 37.9037 74.1783 38.3221 73.941C38.606 73.7802 38.9013 73.6984 39.201 73.6984C40.1933 73.6984 41.001 74.5062 41.001 75.4985C41.001 75.996 41.4036 76.3985 41.9011 76.3985C43.0566 76.3643 42.8697 74.9457 42.5518 74.2075C45.2562 73.9724 47.899 72.708 49.7166 70.703C50.0506 70.3339 50.0224 69.7652 49.6542 69.4312C49.2859 69.0981 48.7155 69.1245 48.3823 69.4936C46.5685 71.4971 43.7734 72.6129 41.0698 72.4363C40.2418 71.9111 39.1108 71.7406 38.1489 72.0619C35.9903 69.7838 31.9354 71.4498 32.0008 74.5986C32.0007 75.0959 32.4033 75.4985 32.9008 75.4985Z" fill="white"/>
<path id="Vector_3" d="M40.101 77.2986C38.9496 77.2986 37.872 77.7319 37.0458 78.5071C34.7481 77.4313 31.9463 79.2589 32.0008 81.7988C31.946 84.3403 34.7526 86.1686 37.0502 85.0886C37.1619 85.1915 37.2788 85.289 37.4009 85.3804C37.4009 87.3844 39.0155 88.999 41.001 88.999C43.6517 89.0631 45.4847 86.0105 44.1705 83.7087C45.6057 80.8276 43.3227 77.2285 40.101 77.2986Z" fill="white"/>
<path id="Vector_4" d="M49.8302 71.2471C48.0844 72.9134 46.9961 75.5354 46.8729 78.2463C45.4268 77.8061 44.9005 79.83 46.4014 79.9987C47.3938 79.9986 48.2015 80.8064 48.2015 81.7987C48.2015 82.0984 48.1198 82.3937 47.9589 82.6776C47.7216 83.0951 47.8543 83.626 48.2604 83.8827C49.778 84.7997 49.0683 87.2287 47.3014 87.1989C46.804 87.1989 46.4014 87.6014 46.4014 88.0989C46.4014 88.5964 46.804 88.999 47.3015 88.999C50.4503 89.0638 52.1162 85.009 49.8381 82.8508C50.3022 81.4727 49.751 79.8656 48.6568 79.0153C48.5888 76.5527 49.5326 74.0194 51.073 72.5497C51.9207 71.7329 50.6848 70.4378 49.8302 71.2471Z" fill="white"/>
<path id="Vector_5" d="M77.0023 48.4976C76.8186 54.446 68.1847 54.4446 68.002 48.4975C68.1856 42.5493 76.8195 42.5507 77.0023 48.4976Z" fill="white"/>
</g>
<path id="Vector_6" d="M72.6267 48.117C69.2076 44.698 63.6457 44.698 60.2266 48.117C54.7003 53.5669 58.7538 63.1698 66.4268 63.0808C74.0993 63.1695 78.1536 53.5657 72.6267 48.117Z" fill="#F2BE22"/>
</g>
</g>
</svg>
