<svg width="124" height="124" viewBox="0 0 124 124" fill="none" xmlns="http://www.w3.org/2000/svg">
<g id="Icon">
<circle id="Ellipse 117" cx="61.999" cy="61.9998" r="61.5" fill="white" stroke="#E0DEF7"/>
<circle id="Ellipse 118" opacity="0.1" cx="62.249" cy="62.2498" r="54.25" fill="#0B6755"/>
<g id="icon">
<path id="Vector" d="M93.3877 44.326C93.3715 43.7646 92.9105 43.3168 92.3481 43.3168H79.7772C79.3782 42.5757 78.9292 41.8596 78.4315 41.1708C82.0349 40.375 81.535 35.0583 77.793 34.9998H46.604C42.8761 35.054 42.3485 40.3744 45.9684 41.1717C45.4727 41.86 45.0297 42.5773 44.6329 43.3169H32.0511C31.4886 43.3169 31.0277 43.7646 31.0115 44.326C30.7997 48.9169 33.2208 60.0419 43.7299 59.1074C45.5438 63.6306 49.066 67.3316 53.5279 69.443C51.8861 71.3572 53.4133 74.5852 55.9607 74.506V79.7042H54.131C52.9355 79.7042 51.8646 80.3696 51.3344 81.4299L49.2551 85.5885C48.1834 87.5662 49.7963 90.1769 52.0518 90.1005C52.0517 90.1006 72.3454 90.1006 72.3454 90.1006C74.5978 90.1759 76.2169 87.567 75.1419 85.5885C75.142 85.5885 73.0627 81.4299 73.0627 81.4299C72.5325 80.3696 71.4616 79.7042 70.2662 79.7042H68.4364V74.506C70.9843 74.5852 72.5107 71.3568 70.8692 69.443C75.2836 67.369 78.8046 63.7163 80.6453 59.106C91.1809 60.0629 93.6037 48.8933 93.3877 44.326ZM43.0445 57.0768C35.7242 57.4383 33.2868 50.187 33.1182 45.3961H43.6496C42.2111 49.0924 42.0085 53.2489 43.0445 57.0768ZM58.04 74.506H66.3571V79.7042H58.04V74.506ZM66.3571 85.942C66.2707 85.94 58.011 85.9434 58.0399 85.942C56.6768 85.9166 56.6723 83.889 58.0401 83.8627C58.04 83.8627 66.3571 83.8627 66.3571 83.8627C67.7203 83.8881 67.7248 85.9157 66.3571 85.942ZM68.3012 68.2681C51.7067 74.0606 37.0235 55.2 48.5377 41.2376H75.8594C83.7568 50.2563 79.4995 64.5027 68.3012 68.2681ZM87.5743 54.9376C85.9854 56.4027 83.9061 57.1123 81.3547 57.0768C82.3846 53.2433 82.2004 49.0966 80.7486 45.3961H91.281C91.1622 47.4581 90.5581 52.1873 87.5743 54.9376Z" fill="#0E5952"/>
<path id="Vector_2" d="M71.7637 54.9504C71.9528 59.8677 66.9638 64.5474 62.2926 64.3382C57.739 64.3176 53.5908 60.7932 52.8423 56.3019C51.8821 51.7076 55.6921 46.0722 60.5774 45.4378C66.2285 44.25 72.0542 49.169 71.7637 54.9504Z" fill="#F2BE22"/>
<g id="Group">
<path id="Vector_3" d="M71.763 54.9505C70.8067 55.0336 69.8501 54.9921 68.9144 54.8049C68.6858 56.1149 66.8872 55.6158 67.2927 54.3475C66.4402 54.0252 65.6189 53.5886 64.8495 53.0375C64.0906 54.1188 62.6454 52.892 63.5812 51.9563C62.9157 51.291 62.344 50.5528 61.8969 49.7523C60.7014 50.3657 59.9321 48.671 61.19 48.2344C60.8572 47.3299 60.6494 46.3839 60.5765 45.4378C61.1276 45.3443 61.6786 45.2922 62.2296 45.2922C62.2921 46.1136 62.4687 46.9141 62.7599 47.6835C63.6227 47.4443 64.184 48.6295 63.4772 49.1597C63.8099 49.7004 64.2153 50.2202 64.6623 50.6775C65.3902 49.7523 66.7416 50.8855 65.9411 51.7588C66.4713 52.1331 67.0328 52.4345 67.6357 52.6841C68.0412 51.9044 69.2784 52.2682 69.1951 53.1415C70.0061 53.3079 70.8379 53.3598 71.6488 53.287C71.7422 53.8381 71.7839 54.3891 71.763 54.9505Z" fill="#0E5952"/>
<path id="Vector_4" d="M63.3425 61.3547C63.6855 62.2592 63.8831 63.2157 63.9559 64.1826C63.3945 64.2969 62.8435 64.3489 62.2926 64.3385C62.2302 63.4963 62.0534 62.6855 61.7624 61.9057C60.8994 62.1344 60.3379 60.97 61.045 60.4294C60.7123 59.8888 60.3171 59.369 59.8598 58.9116C59.1321 59.8369 57.7909 58.6932 58.5914 57.8303C58.0612 57.4561 57.4894 57.1442 56.8968 56.9051C56.4914 57.6952 55.2334 57.3209 55.327 56.4372C54.516 56.2709 53.6844 56.2293 52.8526 56.3021C52.7486 55.7615 52.7071 55.2001 52.7279 54.6387C53.7156 54.5555 54.6824 54.6075 55.618 54.7946C55.8364 53.4742 57.6453 53.9629 57.2295 55.2416C58.0924 55.5639 58.9138 56.0006 59.6727 56.5516C60.442 55.4704 61.887 56.6971 60.9514 57.6328C61.6167 58.2982 62.1781 59.0363 62.6355 59.8369C63.794 59.1896 64.6067 60.9396 63.3425 61.3547Z" fill="#0E5952"/>
<path id="Vector_5" d="M71.0194 63.5779C58.8253 74.8034 42.1398 58.1147 53.3647 45.9231C58.0132 41.0759 66.3807 41.0889 71.0194 45.9233C75.853 50.5618 75.8673 58.9296 71.0194 63.5779ZM54.5416 47.1002C50.3231 51.3187 50.3234 58.1826 54.5416 62.4009C65.1416 72.1273 79.5701 57.6638 69.8424 47.1001C65.8227 42.9123 58.5709 42.8979 54.5416 47.1002Z" fill="#0E5952"/>
</g>
</g>
</g>
</svg>
