<svg width="1919" height="309" viewBox="0 0 1919 309" fill="none" xmlns="http://www.w3.org/2000/svg">
<path d="M1891.49 229.244C1891.49 198.181 1866.31 173 1835.24 173C1804.18 173 1779 198.181 1779 229.244C1779 260.307 1804.18 285.488 1835.24 285.488C1866.31 285.488 1891.49 260.307 1891.49 229.244Z" fill="#004B94"/>
<path d="M162.343 71.6717C162.343 42.582 138.762 19 109.672 19C80.5819 19 57 42.582 57 71.6718C57 100.762 80.5819 124.343 109.672 124.343C138.762 124.343 162.343 100.762 162.343 71.6717Z" stroke="url(#paint0_linear_2003_1058)" stroke-opacity="0.13" stroke-width="12" stroke-miterlimit="10"/>
<path d="M1679.43 204.725C1679.15 204.723 1678.87 204.804 1678.64 204.959C1678.4 205.114 1678.22 205.334 1678.11 205.594C1678 205.853 1677.97 206.139 1678.03 206.415C1678.08 206.691 1678.21 206.945 1678.41 207.145C1678.61 207.345 1678.86 207.481 1679.14 207.537C1679.41 207.592 1679.7 207.565 1679.96 207.458C1680.22 207.351 1680.44 207.169 1680.6 206.935C1680.76 206.701 1680.84 206.426 1680.84 206.145C1680.84 205.77 1680.69 205.411 1680.43 205.145C1680.16 204.879 1679.81 204.728 1679.43 204.725Z" fill="#203F79"/>
<path d="M1679.43 181.55C1679.15 181.55 1678.88 181.632 1678.65 181.787C1678.42 181.942 1678.24 182.162 1678.13 182.419C1678.02 182.676 1678 182.96 1678.05 183.233C1678.1 183.506 1678.24 183.757 1678.44 183.954C1678.63 184.151 1678.88 184.285 1679.16 184.339C1679.43 184.394 1679.71 184.366 1679.97 184.259C1680.23 184.153 1680.45 183.972 1680.6 183.74C1680.76 183.509 1680.84 183.237 1680.84 182.958C1680.84 182.584 1680.69 182.226 1680.43 181.962C1680.16 181.698 1679.8 181.55 1679.43 181.55Z" fill="#203F79"/>
<path d="M1679.43 158.363C1679.15 158.36 1678.87 158.442 1678.64 158.597C1678.4 158.752 1678.22 158.974 1678.11 159.234C1678 159.494 1677.97 159.78 1678.03 160.057C1678.08 160.333 1678.22 160.587 1678.42 160.786C1678.62 160.986 1678.87 161.121 1679.15 161.175C1679.42 161.23 1679.71 161.201 1679.97 161.092C1680.23 160.983 1680.45 160.799 1680.61 160.564C1680.76 160.329 1680.84 160.053 1680.84 159.771C1680.84 159.397 1680.69 159.039 1680.43 158.775C1680.16 158.511 1679.8 158.363 1679.43 158.363Z" fill="#203F79"/>
<path d="M1679.43 135.187C1679.15 135.187 1678.88 135.27 1678.65 135.424C1678.42 135.579 1678.24 135.799 1678.13 136.056C1678.02 136.314 1678 136.597 1678.05 136.87C1678.1 137.143 1678.24 137.394 1678.44 137.591C1678.63 137.788 1678.88 137.922 1679.16 137.977C1679.43 138.031 1679.71 138.003 1679.97 137.897C1680.23 137.79 1680.45 137.609 1680.6 137.378C1680.76 137.146 1680.84 136.874 1680.84 136.595C1680.84 136.222 1680.69 135.864 1680.43 135.6C1680.16 135.335 1679.8 135.187 1679.43 135.187Z" fill="#203F79"/>
<path d="M1679.43 112C1679.15 112 1678.88 112.083 1678.65 112.237C1678.42 112.392 1678.24 112.612 1678.13 112.869C1678.02 113.127 1678 113.41 1678.05 113.683C1678.1 113.956 1678.24 114.207 1678.44 114.404C1678.63 114.601 1678.88 114.735 1679.16 114.79C1679.43 114.844 1679.71 114.816 1679.97 114.71C1680.23 114.603 1680.45 114.422 1680.6 114.191C1680.76 113.959 1680.84 113.687 1680.84 113.408C1680.84 113.035 1680.69 112.677 1680.43 112.413C1680.16 112.148 1679.8 112 1679.43 112Z" fill="#203F79"/>
<path d="M1700.84 204.725C1700.65 204.707 1700.45 204.731 1700.26 204.794C1700.08 204.857 1699.9 204.958 1699.76 205.091C1699.61 205.224 1699.5 205.386 1699.42 205.567C1699.34 205.747 1699.3 205.942 1699.3 206.139C1699.3 206.336 1699.34 206.532 1699.42 206.712C1699.5 206.892 1699.61 207.054 1699.76 207.187C1699.9 207.32 1700.08 207.422 1700.26 207.485C1700.45 207.548 1700.65 207.571 1700.84 207.553C1701.2 207.522 1701.53 207.359 1701.76 207.097C1702 206.835 1702.14 206.494 1702.14 206.139C1702.14 205.785 1702 205.443 1701.76 205.181C1701.53 204.92 1701.2 204.757 1700.84 204.725Z" fill="#203F79"/>
<path d="M1700.84 181.55C1700.56 181.55 1700.29 181.632 1700.06 181.787C1699.83 181.942 1699.65 182.162 1699.54 182.419C1699.44 182.676 1699.41 182.96 1699.46 183.233C1699.52 183.506 1699.65 183.757 1699.85 183.954C1700.04 184.151 1700.3 184.285 1700.57 184.339C1700.84 184.394 1701.13 184.366 1701.38 184.259C1701.64 184.153 1701.86 183.972 1702.01 183.74C1702.17 183.509 1702.25 183.237 1702.25 182.958C1702.25 182.585 1702.1 182.229 1701.84 181.965C1701.57 181.702 1701.22 181.553 1700.84 181.55Z" fill="#203F79"/>
<path d="M1700.84 158.363C1700.56 158.36 1700.29 158.442 1700.05 158.597C1699.82 158.752 1699.63 158.974 1699.52 159.234C1699.41 159.494 1699.38 159.78 1699.44 160.057C1699.49 160.333 1699.63 160.587 1699.83 160.786C1700.03 160.986 1700.28 161.121 1700.56 161.175C1700.83 161.23 1701.12 161.201 1701.38 161.092C1701.64 160.983 1701.86 160.799 1702.02 160.564C1702.17 160.329 1702.25 160.053 1702.25 159.771C1702.25 159.398 1702.1 159.042 1701.84 158.778C1701.57 158.515 1701.22 158.366 1700.84 158.363Z" fill="#203F79"/>
<path d="M1700.84 135.187C1700.56 135.187 1700.29 135.27 1700.06 135.424C1699.83 135.579 1699.65 135.799 1699.54 136.056C1699.44 136.314 1699.41 136.597 1699.46 136.87C1699.52 137.143 1699.65 137.394 1699.85 137.591C1700.04 137.788 1700.3 137.922 1700.57 137.977C1700.84 138.031 1701.13 138.003 1701.38 137.897C1701.64 137.79 1701.86 137.609 1702.01 137.378C1702.17 137.146 1702.25 136.874 1702.25 136.595C1702.25 136.223 1702.1 135.866 1701.84 135.603C1701.57 135.339 1701.22 135.19 1700.84 135.187Z" fill="#203F79"/>
<path d="M1700.84 112C1700.56 112 1700.29 112.083 1700.06 112.237C1699.83 112.392 1699.65 112.612 1699.54 112.869C1699.44 113.127 1699.41 113.41 1699.46 113.683C1699.52 113.956 1699.65 114.207 1699.85 114.404C1700.04 114.601 1700.3 114.735 1700.57 114.79C1700.84 114.844 1701.13 114.816 1701.38 114.71C1701.64 114.603 1701.86 114.422 1702.01 114.191C1702.17 113.959 1702.25 113.687 1702.25 113.408C1702.25 113.036 1702.1 112.679 1701.84 112.416C1701.57 112.152 1701.22 112.003 1700.84 112Z" fill="#203F79"/>
<path d="M1722.2 204.725C1721.92 204.723 1721.64 204.804 1721.41 204.959C1721.17 205.114 1720.99 205.334 1720.88 205.594C1720.77 205.853 1720.74 206.139 1720.79 206.415C1720.85 206.691 1720.98 206.945 1721.18 207.145C1721.38 207.345 1721.63 207.481 1721.91 207.537C1722.18 207.592 1722.47 207.565 1722.73 207.458C1722.99 207.351 1723.21 207.169 1723.37 206.935C1723.52 206.701 1723.61 206.426 1723.61 206.145C1723.61 205.77 1723.46 205.411 1723.2 205.145C1722.93 204.879 1722.57 204.728 1722.2 204.725Z" fill="#203F79"/>
<path d="M1722.2 181.55C1721.92 181.55 1721.65 181.632 1721.42 181.787C1721.18 181.942 1721 182.162 1720.9 182.419C1720.79 182.676 1720.76 182.96 1720.82 183.233C1720.87 183.506 1721.01 183.757 1721.2 183.954C1721.4 184.151 1721.65 184.285 1721.92 184.339C1722.2 184.394 1722.48 184.366 1722.74 184.259C1722.99 184.153 1723.21 183.972 1723.37 183.74C1723.52 183.509 1723.61 183.237 1723.61 182.958C1723.61 182.584 1723.46 182.226 1723.19 181.962C1722.93 181.698 1722.57 181.55 1722.2 181.55Z" fill="#203F79"/>
<path d="M1722.2 158.363C1721.92 158.36 1721.64 158.442 1721.41 158.597C1721.17 158.752 1720.99 158.974 1720.88 159.234C1720.77 159.494 1720.74 159.78 1720.79 160.057C1720.85 160.333 1720.98 160.587 1721.18 160.786C1721.38 160.986 1721.64 161.121 1721.91 161.175C1722.19 161.23 1722.48 161.201 1722.74 161.092C1723 160.983 1723.22 160.799 1723.37 160.564C1723.53 160.329 1723.61 160.053 1723.61 159.771C1723.61 159.397 1723.46 159.039 1723.19 158.775C1722.93 158.511 1722.57 158.363 1722.2 158.363Z" fill="#203F79"/>
<path d="M1722.2 135.187C1721.92 135.187 1721.65 135.27 1721.42 135.424C1721.18 135.579 1721 135.799 1720.9 136.056C1720.79 136.314 1720.76 136.597 1720.82 136.87C1720.87 137.143 1721.01 137.394 1721.2 137.591C1721.4 137.788 1721.65 137.922 1721.92 137.977C1722.2 138.031 1722.48 138.003 1722.74 137.897C1722.99 137.79 1723.21 137.609 1723.37 137.378C1723.52 137.146 1723.61 136.874 1723.61 136.595C1723.61 136.222 1723.46 135.864 1723.19 135.6C1722.93 135.335 1722.57 135.187 1722.2 135.187Z" fill="#203F79"/>
<path d="M1722.2 112C1721.92 112 1721.65 112.083 1721.42 112.237C1721.18 112.392 1721 112.612 1720.9 112.869C1720.79 113.127 1720.76 113.41 1720.82 113.683C1720.87 113.956 1721.01 114.207 1721.2 114.404C1721.4 114.601 1721.65 114.735 1721.92 114.79C1722.2 114.844 1722.48 114.816 1722.74 114.71C1722.99 114.603 1723.21 114.422 1723.37 114.191C1723.52 113.959 1723.61 113.687 1723.61 113.408C1723.61 113.035 1723.46 112.677 1723.19 112.413C1722.93 112.148 1722.57 112 1722.2 112Z" fill="#203F79"/>
<path d="M1743.59 204.725C1743.31 204.723 1743.03 204.804 1742.8 204.959C1742.56 205.114 1742.38 205.334 1742.27 205.594C1742.16 205.853 1742.13 206.139 1742.18 206.415C1742.24 206.691 1742.37 206.945 1742.57 207.145C1742.77 207.345 1743.02 207.481 1743.3 207.537C1743.57 207.592 1743.86 207.565 1744.12 207.458C1744.38 207.351 1744.6 207.169 1744.76 206.935C1744.91 206.701 1745 206.426 1745 206.145C1745 205.77 1744.85 205.411 1744.58 205.145C1744.32 204.879 1743.96 204.728 1743.59 204.725Z" fill="#203F79"/>
<path d="M1743.59 181.55C1743.31 181.55 1743.04 181.632 1742.81 181.787C1742.57 181.942 1742.39 182.162 1742.29 182.419C1742.18 182.676 1742.15 182.96 1742.21 183.233C1742.26 183.506 1742.39 183.757 1742.59 183.954C1742.79 184.151 1743.04 184.285 1743.31 184.339C1743.59 184.394 1743.87 184.366 1744.13 184.259C1744.38 184.153 1744.6 183.972 1744.76 183.74C1744.91 183.509 1745 183.237 1745 182.958C1745 182.584 1744.85 182.226 1744.58 181.962C1744.32 181.698 1743.96 181.55 1743.59 181.55Z" fill="#203F79"/>
<path d="M1743.59 158.363C1743.31 158.36 1743.03 158.442 1742.79 158.597C1742.56 158.752 1742.38 158.974 1742.27 159.234C1742.16 159.494 1742.13 159.78 1742.18 160.057C1742.24 160.333 1742.37 160.587 1742.57 160.786C1742.77 160.986 1743.03 161.121 1743.3 161.175C1743.58 161.23 1743.87 161.201 1744.12 161.092C1744.38 160.983 1744.61 160.799 1744.76 160.564C1744.92 160.329 1745 160.053 1745 159.771C1745 159.397 1744.85 159.039 1744.58 158.775C1744.32 158.511 1743.96 158.363 1743.59 158.363Z" fill="#203F79"/>
<path d="M1743.59 135.187C1743.31 135.187 1743.04 135.27 1742.81 135.424C1742.57 135.579 1742.39 135.799 1742.29 136.056C1742.18 136.314 1742.15 136.597 1742.21 136.87C1742.26 137.143 1742.39 137.394 1742.59 137.591C1742.79 137.788 1743.04 137.922 1743.31 137.977C1743.59 138.031 1743.87 138.003 1744.13 137.897C1744.38 137.79 1744.6 137.609 1744.76 137.378C1744.91 137.146 1745 136.874 1745 136.595C1745 136.222 1744.85 135.864 1744.58 135.6C1744.32 135.335 1743.96 135.187 1743.59 135.187Z" fill="#203F79"/>
<path d="M1743.59 112C1743.31 112 1743.04 112.083 1742.81 112.237C1742.57 112.392 1742.39 112.612 1742.29 112.869C1742.18 113.127 1742.15 113.41 1742.21 113.683C1742.26 113.956 1742.39 114.207 1742.59 114.404C1742.79 114.601 1743.04 114.735 1743.31 114.79C1743.59 114.844 1743.87 114.816 1744.13 114.71C1744.38 114.603 1744.6 114.422 1744.76 114.191C1744.91 113.959 1745 113.687 1745 113.408C1745 113.035 1744.85 112.677 1744.58 112.413C1744.32 112.148 1743.96 112 1743.59 112Z" fill="#203F79"/>
<path d="M1764.97 204.725C1764.68 204.725 1764.41 204.808 1764.18 204.964C1763.94 205.12 1763.76 205.342 1763.65 205.602C1763.55 205.861 1763.52 206.147 1763.57 206.422C1763.63 206.697 1763.76 206.95 1763.96 207.149C1764.16 207.348 1764.41 207.483 1764.69 207.538C1764.96 207.592 1765.25 207.564 1765.51 207.457C1765.77 207.349 1765.99 207.167 1766.15 206.934C1766.3 206.7 1766.39 206.426 1766.39 206.145C1766.39 205.768 1766.24 205.407 1765.97 205.141C1765.7 204.875 1765.34 204.725 1764.97 204.725Z" fill="#203F79"/>
<path d="M1764.97 181.55C1764.69 181.552 1764.42 181.636 1764.19 181.793C1763.96 181.949 1763.78 182.169 1763.67 182.427C1763.57 182.684 1763.54 182.967 1763.6 183.24C1763.65 183.512 1763.79 183.762 1763.99 183.958C1764.18 184.154 1764.43 184.287 1764.71 184.34C1764.98 184.394 1765.26 184.365 1765.52 184.258C1765.78 184.151 1765.99 183.971 1766.15 183.739C1766.3 183.508 1766.39 183.236 1766.39 182.958C1766.39 182.772 1766.35 182.588 1766.28 182.416C1766.21 182.245 1766.1 182.089 1765.97 181.958C1765.84 181.827 1765.68 181.724 1765.51 181.654C1765.34 181.583 1765.15 181.548 1764.97 181.55Z" fill="#203F79"/>
<path d="M1764.97 158.363C1764.61 158.394 1764.28 158.557 1764.05 158.819C1763.81 159.08 1763.67 159.422 1763.67 159.777C1763.67 160.131 1763.81 160.473 1764.05 160.735C1764.28 160.996 1764.61 161.159 1764.97 161.191C1765.16 161.209 1765.36 161.185 1765.55 161.122C1765.73 161.059 1765.91 160.958 1766.05 160.825C1766.2 160.692 1766.31 160.53 1766.39 160.349C1766.47 160.169 1766.51 159.974 1766.51 159.777C1766.51 159.58 1766.47 159.384 1766.39 159.204C1766.31 159.024 1766.2 158.862 1766.05 158.729C1765.91 158.596 1765.73 158.494 1765.55 158.431C1765.36 158.368 1765.16 158.345 1764.97 158.363Z" fill="#203F79"/>
<path d="M1764.97 135.187C1764.69 135.189 1764.42 135.274 1764.19 135.43C1763.96 135.586 1763.78 135.807 1763.67 136.064C1763.57 136.322 1763.54 136.605 1763.6 136.877C1763.65 137.15 1763.79 137.4 1763.99 137.595C1764.18 137.791 1764.43 137.924 1764.71 137.978C1764.98 138.031 1765.26 138.002 1765.52 137.896C1765.78 137.789 1765.99 137.608 1766.15 137.377C1766.3 137.145 1766.39 136.874 1766.39 136.595C1766.39 136.41 1766.35 136.225 1766.28 136.054C1766.21 135.882 1766.1 135.726 1765.97 135.596C1765.84 135.465 1765.68 135.361 1765.51 135.291C1765.34 135.221 1765.15 135.186 1764.97 135.187Z" fill="#203F79"/>
<path d="M1764.97 112C1764.69 112.002 1764.42 112.087 1764.19 112.243C1763.96 112.399 1763.78 112.62 1763.67 112.877C1763.57 113.135 1763.54 113.418 1763.6 113.69C1763.65 113.963 1763.79 114.212 1763.99 114.408C1764.18 114.604 1764.43 114.737 1764.71 114.791C1764.98 114.844 1765.26 114.815 1765.52 114.709C1765.78 114.602 1765.99 114.421 1766.15 114.19C1766.3 113.958 1766.39 113.687 1766.39 113.408C1766.39 113.223 1766.35 113.038 1766.28 112.867C1766.21 112.695 1766.1 112.539 1765.97 112.408C1765.84 112.278 1765.68 112.174 1765.51 112.104C1765.34 112.034 1765.15 111.999 1764.97 112Z" fill="#203F79"/>
<mask id="mask0_2003_1058" style="mask-type:alpha" maskUnits="userSpaceOnUse" x="0" y="0" width="1920" height="301">
<rect y="0.996582" width="1920" height="300" fill="#0D1312" fill-opacity="0.7"/>
</mask>
<g mask="url(#mask0_2003_1058)">
<g opacity="0.3">
<rect x="713" y="-26.7075" width="113" height="532.796" transform="rotate(-28.8885 713 -26.7075)" fill="#FFAF01"/>
<rect x="832.076" y="-92.4102" width="113" height="532.796" transform="rotate(-28.8885 832.076 -92.4102)" fill="#FFAF01"/>
</g>
</g>
<path d="M408 168L408 284.588L503.118 226.294L408 168Z" fill="#94DCFE" fill-opacity="0.07"/>
<path d="M202.866 301C204.271 292.621 205 284.034 205 275.288C205 184.002 125.574 110 27.5961 110C18.2093 110 8.99275 110.679 -8.26198e-06 111.988L-8.13193e-06 114.963C8.98817 113.631 18.2054 112.938 27.5961 112.938C123.832 112.938 201.846 185.625 201.846 275.288C201.846 284.038 201.103 292.626 199.673 301L202.866 301Z" fill="#0B6755" fill-opacity="0.47"/>
<path d="M173.834 301C175.511 292.668 176.388 284.074 176.388 275.289C176.388 198.725 109.772 136.658 27.5964 136.658C18.167 136.658 8.9425 137.475 -7.07959e-06 139.038L-6.94883e-06 142.029C8.93545 140.432 18.1611 139.597 27.5964 139.597C108.03 139.597 173.235 200.348 173.235 275.289C173.235 284.079 172.337 292.675 170.624 301L173.834 301Z" fill="#0B6755" fill-opacity="0.47"/>
<path d="M144.618 301C146.699 292.744 147.801 284.136 147.801 275.288C147.801 213.435 93.9833 163.293 27.5963 163.293C18.1001 163.293 8.86109 164.319 -5.88973e-06 166.259L-5.75766e-06 169.28C8.84896 167.287 18.0903 166.232 27.5963 166.232C92.2415 166.232 144.647 215.058 144.647 275.288C144.647 284.145 143.514 292.755 141.375 301L144.618 301Z" fill="#0B6755" fill-opacity="0.47"/>
<path d="M114.984 301C117.731 292.886 119.213 284.248 119.213 275.289C119.213 228.146 78.1946 189.929 27.5962 189.929C17.9795 189.929 8.70878 191.309 -4.68283e-06 193.869L-4.54787e-06 196.957C8.68361 194.303 17.96 192.867 27.5962 192.867C76.4528 192.867 116.059 229.769 116.059 275.289C116.059 284.267 114.518 292.909 111.67 301L114.984 301Z" fill="#0B6755" fill-opacity="0.47"/>
<path d="M84.2812 301C96.2473 278.106 91.1601 249.707 69.8756 231.763C50.2307 215.201 22.4497 212.319 -3.43181e-06 222.489L-3.28804e-06 225.778C21.5583 215.358 48.6929 217.868 67.7595 233.942C88.3794 251.325 92.9969 279.038 80.75 301L84.2812 301Z" fill="#0B6755" fill-opacity="0.47"/>
<g opacity="0.16">
<path d="M1532 95.7793H1587.17L1614.76 48H1559.59L1532 95.7793Z" stroke="white" stroke-linejoin="round"/>
<path d="M1532 95.7793H1587.17L1614.76 143.559H1559.59L1532 95.7793Z" stroke="white" stroke-linejoin="round"/>
<path d="M1603.5 67.4917H1570.84L1554.51 95.7789L1570.84 124.058H1603.5L1619.83 95.7789L1603.5 67.4917Z" fill="#FFAF01"/>
<path d="M1614.76 48H1559.59L1532 95.7793L1559.59 143.559H1614.76L1642.33 95.7793L1614.76 48Z" stroke="white" stroke-linejoin="round"/>
<path d="M1559.59 48L1587.17 95.7793L1559.59 143.559L1532 95.7793L1559.59 48Z" stroke="white" stroke-linejoin="round"/>
<path d="M1587.17 95.7793H1642.33L1614.75 143.559H1559.59L1587.17 95.7793Z" stroke="white" stroke-linecap="round" stroke-linejoin="round"/>
</g>
<defs>
<linearGradient id="paint0_linear_2003_1058" x1="181.5" y1="71.9999" x2="57" y2="46.4999" gradientUnits="userSpaceOnUse">
<stop stop-color="#EEF6FA"/>
<stop offset="1" stop-color="#EEF6FA" stop-opacity="0"/>
</linearGradient>
</defs>
</svg>
