<svg width="112" height="112" viewBox="0 0 112 112" fill="none" xmlns="http://www.w3.org/2000/svg">
<circle cx="56" cy="56" r="56" fill="#0B6755"/>
<path d="M30.5709 79.142L26.4176 85.3511L25.781 84.5036L29.0833 79.6591L23.4807 81.4413L23.0062 80.8097L26.3385 75.9052L20.6939 77.7314L20.0872 76.9239L27.2196 74.6805L27.7421 75.3761L24.5077 80.1945L30.0484 78.4464L30.5709 79.142Z" fill="white"/>
<path d="M24.9054 70.0394L18.3571 72.6512L17.9718 71.6852L24.5201 69.0734L24.9054 70.0394Z" fill="white"/>
<path d="M22.9391 64.7152L15.9593 65.7076L15.8481 64.9255L20.5563 60.1754L15.2794 60.9257L15.1443 59.9752L22.1241 58.9828L22.2325 59.7452L17.5073 64.5179L22.804 63.7647L22.9391 64.7152Z" fill="white"/>
<path d="M21.985 54.457L15.0237 53.342L15.1486 52.562L21.0505 49.4157L15.7875 48.5728L15.9393 47.6249L22.9006 48.7398L22.7789 49.5001L16.8541 52.663L22.1368 53.509L21.985 54.457Z" fill="white"/>
<path d="M24.2037 44.2981L17.8288 41.2875L19.7761 37.1642L20.5356 37.5229L19.0154 40.742L21.0138 41.6857L22.4443 38.6565L23.2039 39.0152L21.7733 42.0444L23.8712 43.0351L25.3914 39.816L26.151 40.1748L24.2037 44.2981Z" fill="white"/>
<path d="M28.4999 36.2991L23.1349 31.7254L25.0292 29.5033C25.5223 28.9249 26.0424 28.5974 26.5896 28.5207C27.1317 28.4398 27.6514 28.6112 28.1485 29.035C28.5493 29.3767 28.7883 29.7644 28.8654 30.198C28.9374 30.6274 28.85 31.0741 28.6032 31.5383C28.892 31.364 29.2625 31.325 29.7147 31.4214L32.2108 31.9463L31.4712 32.8138L28.9675 32.2825C28.6788 32.2203 28.4409 32.2322 28.2538 32.318C28.066 32.3944 27.8792 32.5417 27.6932 32.7599L26.9601 33.6198L29.1746 35.5077L28.4999 36.2991ZM26.3665 33.1138L27.4759 31.8125C28.1419 31.0312 28.1528 30.3659 27.5085 29.8166C26.8693 29.2717 26.2166 29.3898 25.5506 30.1711L24.4412 31.4724L26.3665 33.1138Z" fill="white"/>
<path d="M39.3272 26.6698L38.7721 25.6172L39.8246 25.062L40.3798 26.1146L39.3272 26.6698Z" fill="white"/>
<path d="M53.1028 22.3941C52.3928 22.4633 51.7714 22.3764 51.2387 22.1336C50.706 21.8907 50.2775 21.5138 49.9531 21.0028C49.6347 20.4846 49.4396 19.8572 49.3679 19.1207C49.2962 18.3842 49.3669 17.7343 49.5799 17.171C49.7996 16.607 50.1474 16.1545 50.6233 15.8135C51.0991 15.4724 51.692 15.2673 52.402 15.1982C52.8798 15.1516 53.3318 15.1847 53.758 15.2972C54.1902 15.4025 54.5593 15.5809 54.8651 15.8324L54.5872 16.6934C54.2555 16.4511 53.9213 16.286 53.5845 16.1983C53.2537 16.1032 52.8993 16.0741 52.521 16.1109C51.7646 16.1846 51.21 16.473 50.8571 16.9763C50.5042 17.4795 50.3694 18.1591 50.4528 19.0151C50.5361 19.871 50.7998 20.5152 51.2438 20.9475C51.6871 21.3732 52.287 21.5492 53.0435 21.4755C53.4217 21.4387 53.7642 21.3451 54.0711 21.1946C54.3839 21.0369 54.6797 20.8071 54.9584 20.5054L55.3972 21.2966C55.145 21.5958 54.8173 21.842 54.4142 22.0353C54.0176 22.228 53.5805 22.3476 53.1028 22.3941Z" fill="white"/>
<path d="M59.6786 22.1913L60.9165 15.2508L63.7911 15.7635C64.5393 15.897 65.0846 16.1805 65.4272 16.614C65.7709 17.041 65.8854 17.5761 65.7707 18.2193C65.6782 18.7378 65.4643 19.1398 65.1289 19.4253C64.7947 19.7043 64.365 19.8545 63.8398 19.876C64.1361 20.0372 64.3568 20.3373 64.502 20.7762L65.3097 23.1956L64.1874 22.9955L63.3815 20.5662C63.2893 20.2857 63.1589 20.0864 62.9904 19.9683C62.8296 19.8448 62.608 19.7579 62.3258 19.7075L61.2134 19.5091L60.7024 22.3739L59.6786 22.1913ZM61.3503 18.7412L63.0338 19.0415C64.0445 19.2218 64.6242 18.8951 64.7728 18.0616C64.9203 17.2347 64.4887 16.7311 63.478 16.5508L61.7946 16.2505L61.3503 18.7412Z" fill="white"/>
<path d="M68.5246 24.2455L71.5354 17.8707L75.6587 19.8181L75.2999 20.5777L72.0809 19.0573L71.1371 21.0556L74.1662 22.4863L73.8075 23.2459L70.7784 21.8152L69.7876 23.913L73.0066 25.4333L72.6479 26.1929L68.5246 24.2455Z" fill="white"/>
<path d="M75.9616 28.0188L82.9541 24.7527L83.6036 25.3165L81.3614 32.7055L80.5609 32.0107L81.1294 30.2266L78.4333 27.8866L76.7546 28.707L75.9616 28.0188ZM82.5175 25.8965L79.2633 27.4947L81.4157 29.3628L82.5326 25.9097L82.5175 25.8965Z" fill="white"/>
<path d="M84.443 36.6933L89.6042 33.2941L88.2291 31.2062L88.9557 30.7277L92.2724 35.7636L91.5458 36.2421L90.1707 34.1543L85.0096 37.5535L84.443 36.6933Z" fill="white"/>
<path d="M88.1121 43.3831L94.7057 40.8878L95.0738 41.8605L88.4802 44.3558L88.1121 43.3831Z" fill="white"/>
<path d="M90.2582 51.0115L96.8362 46.9984L96.9826 48.0987L91.6187 51.3045L97.6345 52.9955L97.7743 54.0463L90.3756 51.8937L90.2582 51.0115Z" fill="white"/>
<path d="M90.7246 58.5107L97.7044 59.5031L97.0625 64.0177L96.2308 63.8995L96.7319 60.3749L94.544 60.0638L94.0724 63.3805L93.2407 63.2622L93.7123 59.9456L91.4154 59.619L90.9143 63.1436L90.0827 63.0253L90.7246 58.5107Z" fill="white"/>
<path d="M91.73 69.6457L92.8466 70.0571L92.4352 71.1737L91.3186 70.7623L91.73 69.6457Z" fill="white"/>
<path d="M87.274 71.8095L91.4914 78.2729L91.0246 78.9952L83.3937 77.8149L83.9689 76.9246L85.8152 77.2365L87.7527 74.238L86.7042 72.6914L87.274 71.8095ZM90.2975 78.0016L88.2574 75.0046L86.7107 77.3984L90.2867 78.0184L90.2975 78.0016Z" fill="white"/>
<path d="M78.6785 82.3656C79.2575 81.8631 79.8399 81.5475 80.4255 81.4188C81.0156 81.2952 81.5908 81.3477 82.1511 81.5764C82.7065 81.8094 83.2288 82.2079 83.7182 82.7719C84.2032 83.3308 84.5195 83.9037 84.667 84.4907C84.8188 85.0827 84.7945 85.6599 84.594 86.2223C84.3936 86.7846 84.0189 87.304 83.4701 87.7802C83.0924 88.1079 82.6944 88.3562 82.2761 88.5251C81.8577 88.694 81.4507 88.7691 81.055 88.7506L80.8036 87.8963C81.22 87.888 81.5913 87.8174 81.9173 87.6845C82.2477 87.5567 82.5665 87.3595 82.8736 87.0929C83.4627 86.5817 83.7558 86.0141 83.7527 85.39C83.7539 84.7711 83.4706 84.1343 82.9025 83.4797C82.3214 82.81 81.724 82.437 81.1103 82.3604C80.4916 82.2883 79.8676 82.5253 79.2382 83.0715C78.8555 83.4036 78.53 83.7964 78.2616 84.25L79.5003 85.6775L80.7994 84.5501L81.3106 85.1392L79.3545 86.8368L77.1785 84.3293C77.3089 84.0219 77.5122 83.6866 77.7884 83.3233C78.0596 82.9645 78.3563 82.6452 78.6785 82.3656Z" fill="white"/>
<path d="M73.3108 85.2501L76.2998 91.5799L72.3708 93.4352L71.9267 92.4948L74.9153 91.0835L74.1936 89.5554L71.7883 90.6912L71.3443 89.7507L73.7496 88.6149L72.8144 86.6346L69.8259 88.0458L69.3818 87.1054L73.3108 85.2501Z" fill="white"/>
<path d="M65.2592 89.7323L66.3739 96.6936L65.5938 96.8185L60.7619 92.1943L61.6046 97.4572L60.6567 97.609L59.5421 90.6477L60.3024 90.526L65.1572 95.1668L64.3113 89.884L65.2592 89.7323Z" fill="white"/>
<path d="M51.8487 90.3232C52.5558 90.4174 53.1411 90.6433 53.6045 91.001C54.068 91.3587 54.3996 91.8232 54.5992 92.3946C54.7914 92.9716 54.8386 93.627 54.7408 94.3605C54.6431 95.094 54.4264 95.7108 54.0908 96.2108C53.7485 96.71 53.3069 97.0715 52.766 97.2954C52.225 97.5192 51.601 97.5841 50.8939 97.4898C50.4181 97.4265 49.9854 97.2915 49.596 97.0849C49.199 96.884 48.8803 96.6264 48.6397 96.3118L49.1062 95.5366C49.374 95.8481 49.662 96.0849 49.9699 96.2469C50.2704 96.4148 50.609 96.5238 50.9856 96.5739C51.739 96.6743 52.3447 96.5196 52.8028 96.1099C53.261 95.7001 53.5468 95.069 53.6604 94.2165C53.774 93.3641 53.6638 92.6768 53.3298 92.1548C52.9949 91.6394 52.4508 91.3315 51.6974 91.2312C51.3208 91.181 50.9659 91.1942 50.6329 91.2709C50.2923 91.3533 49.952 91.5098 49.612 91.7402L49.3647 90.8699C49.6784 90.636 50.0535 90.4707 50.49 90.3742C50.92 90.2768 51.3729 90.2598 51.8487 90.3232Z" fill="white"/>
<path d="M43.8454 88.3563L42.546 91.3789L43.5414 95.8996L42.439 95.4256L41.6905 92.0016L38.6907 93.8142L37.6342 93.36L41.6037 90.9629L42.8991 87.9495L43.8454 88.3563Z" fill="white"/>
<path d="M35.1554 87.276L34.3139 88.1174L33.4725 87.2758L34.3141 86.4344L35.1554 87.276Z" fill="white"/>
<path d="M44.3805 62.8555L66.736 49.9486" stroke="white" stroke-width="2"/>
<path d="M58.0322 47.166L66.7353 49.9479L64.793 58.876" stroke="white" stroke-width="2"/>
</svg>
