<svg width="215" height="129" viewBox="0 0 215 129" fill="none" xmlns="http://www.w3.org/2000/svg">
<g id="Group">
<path id="Vector" d="M88.2105 108.398C124.309 114.141 156.39 94.1071 142.968 72.5983C142.366 71.5029 141.342 70.3707 140.499 69.3847C117.711 75.6208 87.9972 75.6481 73.4798 66.0413C60.4684 57.3478 72.712 47.4574 89.5877 48.0103C109.658 48.7102 129.724 53.974 142.553 63.4339C156.36 58.7649 166.13 51.1373 163.668 40.6215C159.464 22.913 123.309 12.8611 96.9066 17.0881C94.1939 17.6349 92.629 15.1517 95.3417 14.6049C129.282 6.7295 173.025 23.83 171.318 46.5021C170.527 55.3011 160.636 62.5268 147.01 67.3419C157.609 78.0427 154.584 91.7331 143.184 101.697C129.915 113.193 107.432 115.414 86.7611 111.792C83.4462 111.244 85.077 107.995 88.2105 108.398ZM105.735 54.3681C97.9011 52.9052 88.319 51.5514 80.1809 53.1918C72.2844 54.7226 76.6182 60.9674 79.2685 63.4142C82.6412 66.4456 89.2702 67.543 94.9352 68.1654C107.048 69.7391 122.78 68.7585 136.042 65.4764C128.272 60.107 116.823 56.6352 105.735 54.3681Z" fill="#FFB711"/>
<path id="Vector_2" d="M68.0193 109.122C74.7724 106.057 82.1281 103.175 89.9048 101.242C93.0995 100.477 94.6043 103.216 91.5896 104.128C85.5608 105.951 80.1943 108.615 75.069 111.169C77.6589 112.958 80.4298 114.894 83.2611 116.575C85.5504 117.817 89.9491 119.242 90.3089 121.36C90.4891 122.419 89.2832 122.966 87.7156 123.221C83.918 123.804 80.1235 120.736 77.6535 119.348C73.6772 117.046 70.3649 114.672 67.1122 112.042C66.0286 111.166 66.5723 109.779 68.0193 109.122Z" fill="#FFB711"/>
</g>
</svg>
