<svg width="1807" height="687" viewBox="0 0 1807 687" fill="none" xmlns="http://www.w3.org/2000/svg">
<g opacity="0.3">
<path d="M236.122 220.115C247.846 208.391 247.846 189.383 236.122 177.659C224.398 165.935 205.39 165.935 193.666 177.659C181.943 189.383 181.943 208.391 193.666 220.115C205.39 231.838 224.398 231.838 236.122 220.115Z" fill="url(#paint0_linear_130_266)"/>
<path d="M234.769 218.329C246.492 206.606 246.492 187.598 234.769 175.874C223.045 164.15 204.037 164.15 192.313 175.874C180.589 187.598 180.589 206.606 192.313 218.329C204.037 230.053 223.045 230.053 234.769 218.329Z" fill="url(#paint1_linear_130_266)"/>
<path d="M233.672 216.377C245.396 204.654 245.396 185.645 233.672 173.922C221.948 162.198 202.94 162.198 191.216 173.922C179.492 185.646 179.492 204.654 191.216 216.377C202.94 228.101 221.948 228.101 233.672 216.377Z" fill="url(#paint2_linear_130_266)"/>
<path d="M232.814 214.264C244.538 202.54 244.538 183.532 232.814 171.809C221.091 160.085 202.083 160.085 190.359 171.809C178.635 183.532 178.635 202.54 190.359 214.264C202.083 225.988 221.091 225.988 232.814 214.264Z" fill="url(#paint3_linear_130_266)"/>
<path d="M210.976 220.795C227.556 220.795 240.997 207.355 240.997 190.775C240.997 174.195 227.556 160.754 210.976 160.754C194.396 160.754 180.955 174.195 180.955 190.775C180.955 207.355 194.396 220.795 210.976 220.795Z" fill="url(#paint4_linear_130_266)"/>
<path d="M231.827 209.605C243.551 197.881 243.551 178.873 231.827 167.149C220.103 155.425 201.095 155.425 189.371 167.149C177.648 178.873 177.648 197.881 189.371 209.605C201.095 221.329 220.103 221.329 231.827 209.605Z" fill="url(#paint5_linear_130_266)"/>
<path d="M231.684 207.075C243.407 195.351 243.407 176.343 231.684 164.619C219.96 152.895 200.952 152.895 189.228 164.619C177.504 176.343 177.504 195.351 189.228 207.075C200.952 218.798 219.96 218.798 231.684 207.075Z" fill="url(#paint6_linear_130_266)"/>
<path d="M231.772 204.419C243.496 192.696 243.496 173.687 231.772 161.964C220.049 150.24 201.041 150.24 189.317 161.964C177.593 173.687 177.593 192.696 189.317 204.419C201.041 216.143 220.049 216.143 231.772 204.419Z" fill="url(#paint7_linear_130_266)"/>
<path d="M210.858 210.449C227.438 210.449 240.878 197.008 240.878 180.428C240.878 163.848 227.438 150.407 210.858 150.407C194.278 150.407 180.837 163.848 180.837 180.428C180.837 197.008 194.278 210.449 210.858 210.449Z" fill="url(#paint8_linear_130_266)"/>
<path d="M232.617 198.793C244.341 187.069 244.341 168.061 232.617 156.338C220.893 144.614 201.885 144.614 190.161 156.338C178.438 168.061 178.438 187.069 190.161 198.793C201.885 210.517 220.893 210.517 232.617 198.793Z" fill="url(#paint9_linear_130_266)"/>
<path d="M233.368 195.831C245.092 184.107 245.092 165.099 233.368 153.376C221.644 141.652 202.636 141.652 190.912 153.376C179.189 165.099 179.189 184.107 190.912 195.831C202.636 207.555 221.644 207.555 233.368 195.831Z" fill="url(#paint10_linear_130_266)"/>
<path d="M234.333 192.786C246.057 181.063 246.057 162.055 234.333 150.331C222.609 138.607 203.601 138.607 191.877 150.331C180.153 162.055 180.153 181.063 191.877 192.786C203.601 204.51 222.609 204.51 234.333 192.786Z" fill="url(#paint11_linear_130_266)"/>
<path d="M244.247 170.585C245.421 154.047 232.965 139.688 216.427 138.514C199.888 137.34 185.53 149.796 184.356 166.334C183.182 182.872 195.637 197.231 212.176 198.405C228.714 199.579 243.073 187.123 244.247 170.585Z" fill="url(#paint12_linear_130_266)"/>
<path d="M245.596 167.362C246.758 150.823 234.293 136.473 217.754 135.31C201.215 134.148 186.865 146.614 185.702 163.153C184.54 179.692 197.005 194.042 213.545 195.204C230.084 196.367 244.434 183.901 245.596 167.362Z" fill="url(#paint13_linear_130_266)"/>
<path d="M238.461 183.251C250.185 171.527 250.185 152.519 238.461 140.796C226.737 129.072 207.729 129.072 196.005 140.796C184.281 152.519 184.281 171.527 196.005 183.251C207.729 194.975 226.737 194.975 238.461 183.251Z" fill="url(#paint14_linear_130_266)"/>
<path d="M240.233 179.968C251.957 168.244 251.957 149.236 240.233 137.512C228.51 125.789 209.501 125.789 197.778 137.512C186.054 149.236 186.054 168.244 197.778 179.968C209.501 191.692 228.51 191.692 240.233 179.968Z" fill="url(#paint15_linear_130_266)"/>
<path d="M220.971 185.44C237.551 185.44 250.992 171.999 250.992 155.419C250.992 138.839 237.551 125.399 220.971 125.399C204.391 125.399 190.95 138.839 190.95 155.419C190.95 171.999 204.391 185.44 220.971 185.44Z" fill="url(#paint16_linear_130_266)"/>
<path d="M253.076 154.181C254.241 137.642 241.778 123.29 225.239 122.125C208.7 120.96 194.348 133.423 193.183 149.962C192.018 166.501 204.481 180.853 221.02 182.018C237.559 183.183 251.911 170.72 253.076 154.181Z" fill="url(#paint17_linear_130_266)"/>
<path d="M246.688 169.929C258.412 158.205 258.412 139.197 246.688 127.473C234.965 115.75 215.957 115.749 204.233 127.473C192.509 139.197 192.509 158.205 204.233 169.929C215.957 181.653 234.965 181.653 246.688 169.929Z" fill="url(#paint18_linear_130_266)"/>
<path d="M238.427 173.436C253.971 167.668 261.896 150.391 256.128 134.847C250.359 119.302 233.082 111.378 217.538 117.146C201.994 122.915 194.069 140.192 199.837 155.736C205.606 171.28 222.883 179.205 238.427 173.436Z" fill="url(#paint19_linear_130_266)"/>
<path d="M230.667 171.967C247.247 171.967 260.688 158.526 260.688 141.947C260.688 125.367 247.247 111.926 230.667 111.926C214.087 111.926 200.646 125.367 200.646 141.947C200.646 158.526 214.087 171.967 230.667 171.967Z" fill="url(#paint20_linear_130_266)"/>
<path d="M254.758 159.808C266.482 148.084 266.482 129.076 254.758 117.352C243.034 105.628 224.026 105.628 212.302 117.352C200.578 129.076 200.578 148.084 212.302 159.808C224.026 171.532 243.034 171.532 254.758 159.808Z" fill="url(#paint21_linear_130_266)"/>
<path d="M266.507 137.299C267.649 120.758 255.166 106.424 238.625 105.281C222.085 104.139 207.75 116.622 206.608 133.163C205.466 149.703 217.949 164.038 234.489 165.18C251.03 166.322 265.365 153.839 266.507 137.299Z" fill="url(#paint22_linear_130_266)"/>
<path d="M260.981 153.143C272.705 141.419 272.705 122.411 260.981 110.687C249.258 98.9634 230.25 98.9634 218.526 110.687C206.802 122.411 206.802 141.419 218.526 153.143C230.25 164.867 249.258 164.867 260.981 153.143Z" fill="url(#paint23_linear_130_266)"/>
<path d="M243.106 158.653C259.686 158.653 273.126 145.212 273.126 128.632C273.126 112.052 259.686 98.6113 243.106 98.6113C226.526 98.6113 213.085 112.052 213.085 128.632C213.085 145.212 226.526 158.653 243.106 158.653Z" fill="url(#paint24_linear_130_266)"/>
<path d="M267.836 146.624C279.56 134.901 279.56 115.892 267.836 104.169C256.112 92.4448 237.104 92.4448 225.38 104.169C213.656 115.892 213.656 134.901 225.38 146.624C237.104 158.348 256.112 158.348 267.836 146.624Z" fill="url(#paint25_linear_130_266)"/>
<path d="M271.481 143.454C283.205 131.73 283.205 112.722 271.481 100.998C259.758 89.274 240.75 89.274 229.026 100.998C217.302 112.722 217.302 131.73 229.026 143.454C240.75 155.177 259.758 155.177 271.481 143.454Z" fill="url(#paint26_linear_130_266)"/>
<path d="M253.943 149.225C270.523 149.225 283.963 135.784 283.963 119.204C283.963 102.624 270.523 89.1836 253.943 89.1836C237.363 89.1836 223.922 102.624 223.922 119.204C223.922 135.784 237.363 149.225 253.943 149.225Z" fill="url(#paint27_linear_130_266)"/>
<path d="M257.659 146.361C274.239 146.361 287.68 132.92 287.68 116.34C287.68 99.7601 274.239 86.3193 257.659 86.3193C241.079 86.3193 227.639 99.7601 227.639 116.34C227.639 132.92 241.079 146.361 257.659 146.361Z" fill="url(#paint28_linear_130_266)"/>
<path d="M282.617 134.869C294.341 123.146 294.341 104.138 282.617 92.4138C270.893 80.6899 251.885 80.6899 240.161 92.4138C228.438 104.138 228.438 123.146 240.161 134.869C251.885 146.593 270.893 146.593 282.617 134.869Z" fill="url(#paint29_linear_130_266)"/>
<path d="M265.123 141.123C281.703 141.123 295.144 127.683 295.144 111.103C295.144 94.5228 281.703 81.082 265.123 81.082C248.543 81.082 235.103 94.5228 235.103 111.103C235.103 127.683 248.543 141.123 265.123 141.123Z" fill="url(#paint30_linear_130_266)"/>
<path d="M290.086 129.961C301.81 118.237 301.81 99.2294 290.086 87.5056C278.362 75.7817 259.354 75.7817 247.63 87.5055C235.906 99.2294 235.906 118.237 247.63 129.961C259.354 141.685 278.362 141.685 290.086 129.961Z" fill="url(#paint31_linear_130_266)"/>
<path d="M293.803 127.766C305.527 116.042 305.527 97.0341 293.803 85.3102C282.079 73.5864 263.071 73.5864 251.347 85.3102C239.623 97.0341 239.623 116.042 251.347 127.766C263.071 139.49 282.079 139.49 293.803 127.766Z" fill="url(#paint32_linear_130_266)"/>
<path d="M297.492 125.745C309.216 114.021 309.216 95.0127 297.492 83.2889C285.768 71.565 266.76 71.5651 255.036 83.2889C243.313 95.0127 243.313 114.021 255.036 125.745C266.76 137.468 285.768 137.468 297.492 125.745Z" fill="url(#paint33_linear_130_266)"/>
<path d="M279.924 132.688C296.504 132.688 309.945 119.247 309.945 102.667C309.945 86.0872 296.504 72.6465 279.924 72.6465C263.344 72.6465 249.903 86.0872 249.903 102.667C249.903 119.247 263.344 132.688 279.924 132.688Z" fill="url(#paint34_linear_130_266)"/>
<path d="M304.768 122.228C316.491 110.504 316.491 91.496 304.768 79.7722C293.044 68.0483 274.036 68.0483 262.312 79.7722C250.588 91.496 250.588 110.504 262.312 122.228C274.036 133.952 293.044 133.952 304.768 122.228Z" fill="url(#paint35_linear_130_266)"/>
<path d="M317.083 101.575C318.213 85.0337 305.72 70.7078 289.179 69.5772C272.637 68.4466 258.311 80.9395 257.181 97.4809C256.05 114.022 268.543 128.348 285.085 129.479C301.626 130.609 315.952 118.117 317.083 101.575Z" fill="url(#paint36_linear_130_266)"/>
<path d="M290.602 128.234C307.182 128.234 320.623 114.793 320.623 98.2131C320.623 81.6331 307.182 68.1924 290.602 68.1924C274.022 68.1924 260.581 81.6331 260.581 98.2131C260.581 114.793 274.022 128.234 290.602 128.234Z" fill="url(#paint37_linear_130_266)"/>
<path d="M315.253 118.328C326.977 106.605 326.977 87.5965 315.253 75.8727C303.529 64.1489 284.521 64.1489 272.797 75.8727C261.073 87.5966 261.073 106.605 272.797 118.328C284.521 130.052 303.529 130.052 315.253 118.328Z" fill="url(#paint38_linear_130_266)"/>
<path d="M297.368 126.201C313.948 126.201 327.389 112.76 327.389 96.1799C327.389 79.5999 313.948 66.1592 297.368 66.1592C280.788 66.1592 267.348 79.5999 267.348 96.1799C267.348 112.76 280.788 126.201 297.368 126.201Z" fill="url(#paint39_linear_130_266)"/>
<path d="M308.774 124.301C324.731 119.798 334.016 103.212 329.512 87.2553C325.009 71.2986 308.423 62.0138 292.466 66.517C276.51 71.0203 267.225 87.6064 271.728 103.563C276.231 119.52 292.817 128.805 308.774 124.301Z" fill="url(#paint40_linear_130_266)"/>
<path d="M331.692 105.875C337.752 90.442 330.155 73.0184 314.722 66.958C299.289 60.8976 281.866 68.4952 275.805 83.9279C269.745 99.3606 277.343 116.784 292.775 122.845C308.208 128.905 325.632 121.307 331.692 105.875Z" fill="url(#paint41_linear_130_266)"/>
<path d="M328.029 115.812C339.753 104.088 339.753 85.08 328.029 73.3561C316.305 61.6323 297.297 61.6323 285.574 73.3561C273.85 85.08 273.85 104.088 285.574 115.812C297.297 127.536 316.305 127.536 328.029 115.812Z" fill="url(#paint42_linear_130_266)"/>
<path d="M330.942 115.681C342.666 103.957 342.666 84.9491 330.942 73.2253C319.219 61.5015 300.21 61.5015 288.487 73.2253C276.763 84.9491 276.763 103.957 288.487 115.681C300.21 127.405 319.219 127.405 330.942 115.681Z" fill="url(#paint43_linear_130_266)"/>
<path d="M333.722 115.752C345.445 104.028 345.445 85.0204 333.722 73.2966C321.998 61.5728 302.99 61.5727 291.266 73.2966C279.542 85.0204 279.542 104.028 291.266 115.752C302.99 127.476 321.998 127.476 333.722 115.752Z" fill="url(#paint44_linear_130_266)"/>
<path d="M315.13 124.83C331.71 124.83 345.151 111.389 345.151 94.8088C345.151 78.2288 331.71 64.7881 315.13 64.7881C298.55 64.7881 285.109 78.2288 285.109 94.8088C285.109 111.389 298.55 124.83 315.13 124.83Z" fill="url(#paint45_linear_130_266)"/>
<path d="M338.844 116.529C350.568 104.805 350.568 85.7967 338.844 74.0729C327.12 62.3491 308.112 62.3491 296.388 74.0729C284.664 85.7968 284.664 104.805 296.388 116.529C308.112 128.252 327.12 128.252 338.844 116.529Z" fill="url(#paint46_linear_130_266)"/>
<path d="M341.175 117.229C352.899 105.505 352.899 86.4969 341.175 74.7731C329.451 63.0493 310.443 63.0493 298.719 74.7731C286.995 86.4969 286.995 105.505 298.719 117.229C310.443 128.953 329.451 128.953 341.175 117.229Z" fill="url(#paint47_linear_130_266)"/>
<path d="M352.054 99.018C353.208 82.4782 340.735 68.1348 324.195 66.9811C307.655 65.8274 293.312 78.3003 292.158 94.8401C291.005 111.38 303.477 125.723 320.017 126.877C336.557 128.031 350.9 115.558 352.054 99.018Z" fill="url(#paint48_linear_130_266)"/>
<path d="M345.296 119.291C357.02 107.568 357.02 88.5595 345.296 76.8356C333.572 65.1118 314.564 65.1118 302.84 76.8356C291.116 88.5594 291.116 107.568 302.84 119.291C314.564 131.015 333.572 131.015 345.296 119.291Z" fill="url(#paint49_linear_130_266)"/>
<path d="M347.079 120.651C358.803 108.927 358.803 89.9188 347.079 78.195C335.355 66.4712 316.347 66.4712 304.623 78.195C292.9 89.9188 292.9 108.927 304.623 120.651C316.347 132.375 335.355 132.375 347.079 120.651Z" fill="url(#paint50_linear_130_266)"/>
<path d="M348.66 122.236C360.384 110.512 360.384 91.5038 348.66 79.78C336.936 68.0562 317.928 68.0561 306.204 79.78C294.481 91.5038 294.481 110.512 306.204 122.236C317.928 133.959 336.936 133.96 348.66 122.236Z" fill="url(#paint51_linear_130_266)"/>
<path d="M348.66 122.236C360.384 110.512 360.384 91.5038 348.66 79.78C336.936 68.0562 317.928 68.0561 306.204 79.78C294.481 91.5038 294.481 110.512 306.204 122.236C317.928 133.959 336.936 133.96 348.66 122.236Z" fill="url(#paint52_linear_130_266)"/>
<path d="M1705.54 574.88C1704.84 574.322 1704.13 573.794 1703.41 573.294L1688.85 562.885L1680.87 565.308L1685.7 566.947C1666.24 564.933 1642.9 575.759 1626.15 596.586C1605.87 621.807 1601.94 653.246 1615.34 671.841L1612.92 672.162L1621.58 678.509L1621.9 678.776C1642.65 695.476 1678.19 685.754 1701.29 657.063C1724.39 628.372 1726.29 591.58 1705.54 574.88ZM1685.71 644.529C1672.2 661.32 1651.39 667.01 1639.25 657.235C1627.11 647.46 1628.22 625.923 1641.73 609.131C1655.25 592.34 1676.05 586.646 1688.2 596.421C1700.34 606.197 1699.23 627.749 1685.71 644.529Z" fill="url(#paint53_linear_130_266)"/>
<path d="M1692.03 565.166C1671.28 548.466 1635.74 558.188 1612.64 586.879C1589.55 615.57 1587.65 652.366 1608.4 669.066C1629.15 685.765 1664.69 676.048 1687.78 647.353C1710.87 618.658 1712.78 581.865 1692.03 565.166ZM1672.2 634.815C1658.68 651.61 1637.88 657.3 1625.74 647.525C1613.59 637.749 1614.71 616.212 1628.22 599.417C1641.74 582.622 1662.54 576.924 1674.68 586.707C1686.81 596.49 1685.72 618.02 1672.2 634.815Z" fill="url(#paint54_linear_130_266)"/>
<path d="M1628.22 599.417C1641.74 582.603 1662.54 576.932 1674.69 586.707C1676.99 588.571 1678.88 590.897 1680.23 593.536C1678.86 590.658 1676.87 588.123 1674.39 586.119C1662.25 576.343 1641.45 582.034 1627.93 598.829C1617.01 612.395 1614.17 629.052 1619.91 640.1C1614.59 629.056 1617.5 612.742 1628.22 599.417Z" fill="url(#paint55_linear_130_266)"/>
<path d="M1701.65 577.146C1710.82 596.031 1705.86 623.958 1687.49 646.764C1664.39 675.455 1628.85 685.177 1608.1 668.477C1604.08 665.218 1600.79 661.133 1598.48 656.497C1600.81 661.375 1604.21 665.669 1608.41 669.066C1629.16 685.765 1664.7 676.047 1687.8 647.352C1706.33 624.309 1711.2 596.031 1701.65 577.146Z" fill="url(#paint56_linear_130_266)"/>
<path d="M1806.45 497.018L1802.19 524.036L1776.82 510.7L1780.59 482.997L1806.45 497.018Z" fill="#FDC5F5"/>
<path d="M1776.82 510.7L1756 525.661L1781.37 538.997L1802.19 524.036L1776.82 510.7Z" fill="#C989EB"/>
<path d="M1780.59 482.997L1759.77 497.958L1756 525.661L1776.82 510.7L1780.59 482.997Z" fill="#F9BEF9"/>
<path d="M10.4339 497.727C10.4339 498.662 10.1565 499.577 9.63676 500.354C9.11706 501.132 8.3784 501.738 7.51417 502.096C6.64995 502.454 5.69897 502.548 4.78151 502.365C3.86405 502.183 3.02133 501.733 2.35988 501.071C1.69843 500.41 1.24799 499.567 1.06549 498.649C0.882999 497.732 0.97665 496.781 1.33462 495.917C1.6926 495.053 2.2988 494.314 3.07659 493.794C3.85437 493.274 4.76879 492.997 5.70422 492.997C6.9586 492.997 8.16159 493.495 9.04856 494.382C9.93554 495.269 10.4339 496.472 10.4339 497.727Z" fill="url(#paint57_linear_130_266)"/>
<path d="M10.4339 524.12C10.4327 525.056 10.1543 525.969 9.63382 526.746C9.11339 527.523 8.3743 528.129 7.50997 528.486C6.64564 528.843 5.69485 528.936 4.77779 528.752C3.86073 528.569 3.01857 528.118 2.35772 527.457C1.69688 526.795 1.24705 525.952 1.06504 525.035C0.883044 524.118 0.977064 523.167 1.33522 522.303C1.69337 521.439 2.29956 520.701 3.07722 520.181C3.85487 519.662 4.76905 519.385 5.70422 519.385C6.32584 519.385 6.94136 519.507 7.51558 519.745C8.0898 519.983 8.61145 520.332 9.05072 520.772C9.48998 521.212 9.83824 521.734 10.0756 522.309C10.3129 522.883 10.4347 523.499 10.4339 524.12Z" fill="url(#paint58_linear_130_266)"/>
<path d="M10.4339 550.507C10.4339 551.442 10.1565 552.357 9.63676 553.135C9.11706 553.912 8.3784 554.519 7.51417 554.877C6.64995 555.235 5.69897 555.328 4.78151 555.146C3.86405 554.963 3.02133 554.513 2.35988 553.851C1.69843 553.19 1.24799 552.347 1.06549 551.43C0.882999 550.512 0.97665 549.561 1.33462 548.697C1.6926 547.833 2.2988 547.094 3.07659 546.574C3.85437 546.055 4.76879 545.777 5.70422 545.777C6.9586 545.777 8.16159 546.276 9.04856 547.163C9.93554 548.05 10.4339 549.253 10.4339 550.507Z" fill="url(#paint59_linear_130_266)"/>
<path d="M10.4339 576.895C10.4339 577.83 10.1565 578.745 9.63676 579.522C9.11706 580.3 8.3784 580.906 7.51417 581.264C6.64995 581.622 5.69897 581.716 4.78151 581.533C3.86405 581.351 3.02133 580.9 2.35988 580.239C1.69843 579.578 1.24799 578.735 1.06549 577.817C0.882999 576.9 0.97665 575.949 1.33462 575.085C1.6926 574.221 2.2988 573.482 3.07659 572.962C3.85437 572.442 4.76879 572.165 5.70422 572.165C6.9586 572.165 8.16159 572.663 9.04856 573.55C9.93554 574.437 10.4339 575.64 10.4339 576.895Z" fill="url(#paint60_linear_130_266)"/>
<path d="M10.2928 604.343C10.8928 601.801 9.31831 599.254 6.77606 598.654C4.23381 598.054 1.68647 599.628 1.08645 602.17C0.48642 604.713 2.06091 607.26 4.60317 607.86C7.14542 608.46 9.69275 606.886 10.2928 604.343Z" fill="url(#paint61_linear_130_266)"/>
<path d="M36.0007 550.507C36.0019 551.444 35.7251 552.361 35.2052 553.14C34.6853 553.92 33.9457 554.528 33.0801 554.887C32.2145 555.246 31.2618 555.341 30.3426 555.158C29.4234 554.976 28.579 554.524 27.9164 553.862C27.2537 553.199 26.8025 552.355 26.62 551.435C26.4375 550.516 26.5318 549.564 26.8909 548.698C27.2501 547.832 27.8581 547.093 28.6378 546.573C29.4175 546.053 30.3339 545.776 31.2711 545.777C32.5255 545.777 33.7285 546.276 34.6154 547.163C35.5024 548.05 36.0007 549.253 36.0007 550.507Z" fill="url(#paint62_linear_130_266)"/>
<path d="M36.0007 576.895C36.0019 577.832 35.7251 578.748 35.2052 579.528C34.6853 580.308 33.9457 580.916 33.0801 581.275C32.2145 581.634 31.2618 581.728 30.3426 581.546C29.4234 581.363 28.579 580.912 27.9164 580.249C27.2537 579.587 26.8025 578.742 26.62 577.823C26.4375 576.904 26.5318 575.951 26.8909 575.086C27.2501 574.22 27.8581 573.481 28.6378 572.961C29.4175 572.441 30.3339 572.164 31.2711 572.165C32.5255 572.165 33.7285 572.663 34.6154 573.55C35.5024 574.437 36.0007 575.64 36.0007 576.895Z" fill="url(#paint63_linear_130_266)"/>
<path d="M31.2648 608.018C33.8769 608.018 35.9944 605.9 35.9944 603.288C35.9944 600.676 33.8769 598.559 31.2648 598.559C28.6527 598.559 26.5352 600.676 26.5352 603.288C26.5352 605.9 28.6527 608.018 31.2648 608.018Z" fill="url(#paint64_linear_130_266)"/>
<path d="M31.2648 634.405C33.8769 634.405 35.9944 632.287 35.9944 629.675C35.9944 627.063 33.8769 624.945 31.2648 624.945C28.6527 624.945 26.5352 627.063 26.5352 629.675C26.5352 632.287 28.6527 634.405 31.2648 634.405Z" fill="url(#paint65_linear_130_266)"/>
<path d="M31.2648 660.792C33.8769 660.792 35.9944 658.675 35.9944 656.063C35.9944 653.451 33.8769 651.333 31.2648 651.333C28.6527 651.333 26.5352 653.451 26.5352 656.063C26.5352 658.675 28.6527 660.792 31.2648 660.792Z" fill="url(#paint66_linear_130_266)"/>
<g opacity="0.6">
<path d="M1617.67 236.969C1618.97 236.971 1620.25 236.585 1621.33 235.862C1622.42 235.139 1623.27 234.11 1623.77 232.905C1624.27 231.7 1624.4 230.374 1624.15 229.095C1623.89 227.815 1623.27 226.64 1622.34 225.717C1621.42 224.794 1620.25 224.165 1618.97 223.91C1617.69 223.654 1616.36 223.784 1615.16 224.283C1613.95 224.782 1612.92 225.627 1612.2 226.712C1611.47 227.796 1611.08 229.071 1611.08 230.376C1611.08 232.123 1611.78 233.798 1613.01 235.035C1614.25 236.271 1615.92 236.967 1617.67 236.969Z" fill="#FDC5F5"/>
<path d="M1620.99 51.3522C1621 50.0475 1620.61 48.7715 1619.89 47.6858C1619.16 46.6002 1618.13 45.7538 1616.93 45.2536C1615.72 44.7535 1614.4 44.6221 1613.12 44.8762C1611.84 45.1304 1610.66 45.7586 1609.74 46.6812C1608.82 47.6038 1608.19 48.7794 1607.93 50.0592C1607.68 51.339 1607.81 52.6655 1608.31 53.8706C1608.81 55.0757 1609.66 56.1053 1610.74 56.8291C1611.83 57.5529 1613.1 57.9384 1614.41 57.9366C1616.15 57.9343 1617.83 57.2398 1619.06 56.0055C1620.3 54.7712 1620.99 53.0978 1620.99 51.3522Z" fill="#FDC5F5"/>
<path d="M1619.3 326.477C1620.61 326.477 1621.88 326.09 1622.97 325.365C1624.05 324.64 1624.9 323.61 1625.4 322.404C1625.9 321.199 1626.03 319.873 1625.77 318.594C1625.52 317.315 1624.89 316.14 1623.96 315.218C1623.04 314.296 1621.86 313.669 1620.59 313.416C1619.31 313.162 1617.98 313.294 1616.77 313.795C1615.57 314.295 1614.54 315.141 1613.82 316.227C1613.09 317.312 1612.71 318.588 1612.71 319.892C1612.71 320.758 1612.88 321.615 1613.21 322.414C1613.54 323.214 1614.03 323.94 1614.64 324.551C1615.25 325.163 1615.98 325.648 1616.78 325.978C1617.58 326.308 1618.44 326.478 1619.3 326.477Z" fill="#FDC5F5"/>
<path d="M1584.41 100.768C1586.98 98.1928 1586.98 94.0182 1584.41 91.4433C1581.83 88.8685 1577.66 88.8685 1575.08 91.4433C1572.51 94.0182 1572.51 98.1928 1575.09 100.768C1577.66 103.343 1581.83 103.343 1584.41 100.768Z" fill="#FDC5F5"/>
<path d="M1583.01 281.718C1584.31 281.72 1585.59 281.335 1586.67 280.611C1587.76 279.887 1588.6 278.857 1589.1 277.652C1589.6 276.447 1589.74 275.121 1589.48 273.841C1589.23 272.561 1588.6 271.385 1587.68 270.463C1586.75 269.54 1585.58 268.912 1584.3 268.658C1583.02 268.404 1581.69 268.535 1580.49 269.035C1579.28 269.535 1578.25 270.382 1577.53 271.467C1576.8 272.553 1576.42 273.829 1576.42 275.134C1576.42 276.879 1577.12 278.553 1578.35 279.787C1579.59 281.021 1581.26 281.716 1583.01 281.718Z" fill="#FDC5F5"/>
<path d="M1640.18 6.59337C1640.18 7.89778 1640.56 9.17282 1641.29 10.2573C1642.01 11.3417 1643.04 12.1868 1644.25 12.6856C1645.46 13.1844 1646.78 13.3144 1648.06 13.0593C1649.34 12.8042 1650.51 12.1754 1651.44 11.2524C1652.36 10.3294 1652.99 9.15375 1653.24 7.87418C1653.49 6.59462 1653.36 5.26868 1652.86 4.06406C1652.36 2.85944 1651.51 1.83025 1650.43 1.10684C1649.34 0.383422 1648.07 -0.00175198 1646.76 5.99089e-06C1645.9 5.20282e-06 1645.04 0.17066 1644.24 0.502115C1643.44 0.833569 1642.71 1.31928 1642.1 1.93164C1641.49 2.54401 1641.01 3.27101 1640.68 4.07089C1640.35 4.87078 1640.18 5.72794 1640.18 6.59337Z" fill="#FDC5F5"/>
<path d="M1581.37 192.211C1582.68 192.213 1583.95 191.828 1585.04 191.104C1586.12 190.381 1586.97 189.352 1587.47 188.147C1587.97 186.942 1588.1 185.617 1587.85 184.337C1587.59 183.057 1586.97 181.882 1586.04 180.959C1585.12 180.036 1583.95 179.407 1582.67 179.152C1581.39 178.897 1580.06 179.027 1578.86 179.525C1577.65 180.024 1576.62 180.869 1575.9 181.954C1575.17 183.038 1574.79 184.313 1574.79 185.618C1574.79 187.365 1575.48 189.041 1576.71 190.277C1577.95 191.513 1579.62 192.209 1581.37 192.211Z" fill="#FDC5F5"/>
<path d="M1616.03 147.452C1619.68 147.452 1622.63 144.501 1622.63 140.859C1622.63 137.218 1619.68 134.266 1616.03 134.266C1612.39 134.266 1609.44 137.218 1609.44 140.859C1609.44 144.501 1612.39 147.452 1616.03 147.452Z" fill="#FDC5F5"/>
<path d="M1684.69 147.452C1688.33 147.452 1691.28 144.501 1691.28 140.859C1691.28 137.218 1688.33 134.266 1684.69 134.266C1681.05 134.266 1678.09 137.218 1678.09 140.859C1678.09 144.501 1681.05 147.452 1684.69 147.452Z" fill="#FDC5F5"/>
<path d="M1654.98 96.0742C1654.98 94.7694 1654.6 93.4934 1653.87 92.4078C1653.15 91.3221 1652.12 90.4757 1650.92 89.9755C1649.71 89.4754 1648.38 89.3441 1647.1 89.5982C1645.82 89.8523 1644.65 90.4805 1643.73 91.4031C1642.8 92.3257 1642.18 93.5014 1641.92 94.7812C1641.67 96.061 1641.8 97.3874 1642.3 98.5925C1642.8 99.7977 1643.65 100.827 1644.73 101.551C1645.82 102.275 1647.09 102.66 1648.4 102.659C1650.14 102.656 1651.82 101.962 1653.05 100.727C1654.28 99.4931 1654.98 97.8197 1654.98 96.0742Z" fill="#FDC5F5"/>
<path d="M1793.47 188.218C1794.87 184.856 1793.28 180.996 1789.91 179.596C1786.55 178.196 1782.69 179.786 1781.29 183.148C1779.89 186.509 1781.48 190.369 1784.84 191.769C1788.21 193.169 1792.07 191.579 1793.47 188.218Z" fill="#FDC5F5"/>
<path d="M1785.7 102.694C1787.01 102.694 1788.28 102.308 1789.36 101.583C1790.45 100.858 1791.29 99.8275 1791.79 98.6222C1792.29 97.4169 1792.42 96.0908 1792.17 94.8116C1791.91 93.5323 1791.28 92.3576 1790.36 91.4359C1789.44 90.5141 1788.26 89.8868 1786.98 89.6334C1785.7 89.38 1784.38 89.5119 1783.17 90.0123C1781.97 90.5127 1780.94 91.3591 1780.21 92.4445C1779.49 93.53 1779.11 94.8056 1779.11 96.1101C1779.11 96.9755 1779.28 97.8324 1779.61 98.6319C1779.94 99.4313 1780.43 100.158 1781.04 100.769C1781.65 101.381 1782.38 101.865 1783.18 102.196C1783.98 102.526 1784.84 102.696 1785.7 102.694Z" fill="#FDC5F5"/>
<path d="M1650.87 192.096C1654.49 191.647 1657.05 188.353 1656.6 184.739C1656.15 181.126 1652.86 178.561 1649.25 179.01C1645.63 179.46 1643.07 182.753 1643.52 186.367C1643.97 189.981 1647.26 192.546 1650.87 192.096Z" fill="#FDC5F5"/>
<path d="M1686.32 236.969C1687.63 236.971 1688.9 236.585 1689.99 235.862C1691.07 235.139 1691.92 234.11 1692.42 232.905C1692.92 231.7 1693.05 230.374 1692.8 229.095C1692.54 227.815 1691.92 226.64 1691 225.717C1690.07 224.794 1688.9 224.165 1687.62 223.91C1686.34 223.654 1685.01 223.784 1683.81 224.283C1682.6 224.782 1681.57 225.627 1680.85 226.712C1680.12 227.796 1679.74 229.071 1679.74 230.376C1679.74 232.123 1680.43 233.798 1681.67 235.035C1682.9 236.271 1684.57 236.967 1686.32 236.969Z" fill="#FDC5F5"/>
<path d="M1689.65 51.3522C1689.65 50.0475 1689.26 48.7715 1688.54 47.6858C1687.81 46.6002 1686.78 45.7538 1685.58 45.2536C1684.37 44.7535 1683.05 44.6221 1681.77 44.8762C1680.49 45.1304 1679.31 45.7586 1678.39 46.6812C1677.47 47.6038 1676.84 48.7794 1676.59 50.0592C1676.33 51.339 1676.46 52.6655 1676.96 53.8706C1677.46 55.0757 1678.31 56.1053 1679.39 56.8291C1680.48 57.5529 1681.76 57.9384 1683.06 57.9366C1684.81 57.9343 1686.48 57.2398 1687.71 56.0055C1688.95 54.7712 1689.64 53.0978 1689.65 51.3522Z" fill="#FDC5F5"/>
<path d="M1578.29 13.8801C1580.04 13.8778 1581.71 13.1821 1582.94 11.9459C1584.18 10.7096 1584.87 9.03388 1584.87 7.28676C1584.87 6.72178 1584.79 6.16009 1584.63 5.61621C1580.63 7.25714 1576.73 9.08768 1572.93 11.1077C1573.54 11.9634 1574.34 12.6615 1575.27 13.1437C1576.2 13.626 1577.24 13.8784 1578.29 13.8801Z" fill="#FDC5F5"/>
<path d="M1754.96 223.791C1753.65 223.791 1752.38 224.178 1751.29 224.903C1750.21 225.628 1749.36 226.658 1748.86 227.863C1748.37 229.069 1748.24 230.395 1748.49 231.674C1748.75 232.953 1749.37 234.128 1750.3 235.05C1751.22 235.971 1752.4 236.599 1753.68 236.852C1754.96 237.105 1756.28 236.974 1757.49 236.473C1758.69 235.973 1759.72 235.126 1760.44 234.041C1761.17 232.955 1761.55 231.68 1761.55 230.375C1761.55 229.51 1761.38 228.653 1761.05 227.854C1760.72 227.054 1760.23 226.328 1759.62 225.716C1759.01 225.105 1758.28 224.62 1757.48 224.29C1756.68 223.959 1755.82 223.79 1754.96 223.791Z" fill="#FDC5F5"/>
<path d="M1708.81 6.99396C1708.82 8.63109 1709.44 10.2069 1710.54 11.414C1711.65 12.6211 1713.16 13.3728 1714.79 13.5227C1716.42 13.6725 1718.05 13.2097 1719.36 12.2244C1720.67 11.2391 1721.56 9.80197 1721.87 8.19353C1718.01 6.35119 1714.05 4.70142 1709.99 3.24414C1709.22 4.34225 1708.81 5.65202 1708.81 6.99396Z" fill="#FDC5F5"/>
<path d="M1746.75 140.859C1746.75 142.163 1747.14 143.439 1747.86 144.524C1748.58 145.61 1749.61 146.456 1750.82 146.957C1752.02 147.457 1753.35 147.589 1754.63 147.335C1755.91 147.082 1757.08 146.455 1758.01 145.533C1758.93 144.611 1759.56 143.436 1759.81 142.157C1760.07 140.878 1759.94 139.552 1759.44 138.347C1758.94 137.141 1758.1 136.111 1757.01 135.386C1755.93 134.661 1754.65 134.274 1753.35 134.274C1751.6 134.274 1749.92 134.968 1748.69 136.202C1747.45 137.437 1746.76 139.112 1746.75 140.859Z" fill="#FDC5F5"/>
<path d="M1518.84 188.215C1520.24 184.854 1518.65 180.994 1515.29 179.594C1511.93 178.194 1508.07 179.784 1506.67 183.146C1505.27 186.507 1506.86 190.367 1510.22 191.767C1513.58 193.167 1517.44 191.577 1518.84 188.215Z" fill="#FDC5F5"/>
<path d="M1549.02 236.969C1550.32 236.971 1551.6 236.585 1552.68 235.862C1553.77 235.139 1554.61 234.11 1555.11 232.905C1555.62 231.7 1555.75 230.374 1555.49 229.095C1555.24 227.815 1554.61 226.64 1553.69 225.717C1552.77 224.794 1551.59 224.165 1550.32 223.91C1549.04 223.654 1547.71 223.784 1546.5 224.283C1545.3 224.782 1544.27 225.627 1543.54 226.712C1542.82 227.796 1542.43 229.071 1542.43 230.376C1542.43 232.123 1543.13 233.798 1544.36 235.035C1545.6 236.271 1547.27 236.967 1549.02 236.969Z" fill="#FDC5F5"/>
<path d="M1751.71 44.7578C1750.41 44.7578 1749.13 45.1445 1748.05 45.869C1746.97 46.5935 1746.12 47.6232 1745.62 48.8279C1745.12 50.0327 1744.99 51.3584 1745.25 52.6374C1745.5 53.9164 1746.13 55.0912 1747.05 56.0133C1747.97 56.9354 1749.15 57.5633 1750.43 57.8177C1751.71 58.0721 1753.03 57.9416 1754.24 57.4425C1755.44 56.9435 1756.47 56.0985 1757.19 55.0142C1757.92 53.9299 1758.31 52.6552 1758.31 51.3512C1758.31 49.6025 1757.61 47.9254 1756.37 46.6889C1755.14 45.4524 1753.46 44.7578 1751.71 44.7578Z" fill="#FDC5F5"/>
<path d="M1511.09 102.694C1512.4 102.694 1513.67 102.308 1514.76 101.583C1515.84 100.858 1516.69 99.8275 1517.19 98.6222C1517.68 97.4169 1517.81 96.0908 1517.56 94.8116C1517.3 93.5323 1516.68 92.3576 1515.75 91.4359C1514.83 90.5141 1513.65 89.8868 1512.37 89.6334C1511.09 89.38 1509.77 89.5119 1508.56 90.0123C1507.36 90.5127 1506.33 91.3591 1505.61 92.4445C1504.88 93.53 1504.5 94.8056 1504.5 96.1101C1504.5 96.9755 1504.67 97.8324 1505 98.6319C1505.33 99.4313 1505.82 100.158 1506.43 100.769C1507.04 101.381 1507.77 101.865 1508.57 102.196C1509.37 102.526 1510.23 102.696 1511.09 102.694Z" fill="#FDC5F5"/>
<path d="M1486.54 140.957C1486.54 139.835 1486.25 138.732 1485.7 137.754C1485.15 136.775 1484.36 135.954 1483.4 135.368C1482.76 139.248 1482.3 143.188 1482 147.186C1483.32 146.759 1484.47 145.927 1485.28 144.808C1486.1 143.69 1486.54 142.342 1486.54 140.957Z" fill="#FDC5F5"/>
<path d="M1717.05 89.5166C1715.75 89.5148 1714.47 89.9 1713.38 90.6234C1712.3 91.3469 1711.45 92.376 1710.95 93.5807C1710.45 94.7853 1710.32 96.1112 1710.57 97.3908C1710.83 98.6703 1711.45 99.846 1712.38 100.769C1713.3 101.692 1714.47 102.321 1715.75 102.576C1717.03 102.831 1718.36 102.701 1719.56 102.202C1720.77 101.703 1721.8 100.858 1722.52 99.7739C1723.25 98.6894 1723.63 97.4144 1723.63 96.11C1723.63 94.3628 1722.94 92.6871 1721.71 91.4508C1720.47 90.2146 1718.8 89.519 1717.05 89.5166Z" fill="#FDC5F5"/>
<path d="M1545.76 57.9366C1547.06 57.9366 1548.34 57.5498 1549.42 56.8249C1550.5 56.1 1551.35 55.0697 1551.85 53.8644C1552.35 52.6591 1552.48 51.333 1552.22 50.0537C1551.97 48.7745 1551.34 47.5998 1550.42 46.678C1549.49 45.7563 1548.32 45.129 1547.04 44.8756C1545.76 44.6222 1544.43 44.7541 1543.23 45.2545C1542.02 45.7549 1540.99 46.6013 1540.27 47.6867C1539.55 48.7721 1539.16 50.0478 1539.16 51.3522C1539.16 52.2177 1539.33 53.0746 1539.67 53.8741C1540 54.6735 1540.48 55.3997 1541.09 56.0113C1541.71 56.6228 1542.43 57.1076 1543.23 57.438C1544.03 57.7683 1544.89 57.9378 1545.76 57.9366Z" fill="#FDC5F5"/>
<path d="M1553.32 143.473C1554.83 140.158 1553.36 136.249 1550.05 134.742C1546.73 133.234 1542.82 134.698 1541.31 138.013C1539.81 141.328 1541.27 145.237 1544.59 146.745C1547.9 148.252 1551.81 146.788 1553.32 143.473Z" fill="#FDC5F5"/>
<path d="M1658.25 275.134C1658.25 273.829 1657.87 272.554 1657.14 271.468C1656.42 270.383 1655.39 269.536 1654.19 269.036C1652.98 268.536 1651.66 268.404 1650.38 268.657C1649.1 268.91 1647.92 269.538 1647 270.46C1646.08 271.381 1645.45 272.556 1645.19 273.835C1644.94 275.114 1645.07 276.441 1645.57 277.646C1646.06 278.851 1646.91 279.882 1647.99 280.606C1649.08 281.331 1650.35 281.718 1651.66 281.718C1653.4 281.718 1655.08 281.025 1656.32 279.79C1657.55 278.556 1658.25 276.881 1658.25 275.134Z" fill="#FDC5F5"/>
<path d="M1694.53 319.856C1694.54 318.622 1694.19 317.411 1693.54 316.362C1692.89 315.313 1691.96 314.467 1690.86 313.921C1689.75 313.375 1688.51 313.15 1687.28 313.273C1686.05 313.396 1684.89 313.861 1683.91 314.616C1682.93 315.37 1682.19 316.384 1681.76 317.541C1681.33 318.698 1681.23 319.953 1681.48 321.162C1681.73 322.371 1682.31 323.486 1683.16 324.38C1684.01 325.274 1685.1 325.911 1686.3 326.219C1688.28 325.801 1690.25 325.33 1692.2 324.85C1692.92 324.237 1693.51 323.473 1693.91 322.611C1694.32 321.748 1694.53 320.808 1694.53 319.856Z" fill="#FDC5F5"/>
<path d="M1713.73 275.134C1713.73 276.439 1714.11 277.714 1714.84 278.798C1715.56 279.883 1716.59 280.728 1717.8 281.227C1719 281.725 1720.33 281.856 1721.61 281.6C1722.89 281.345 1724.06 280.716 1724.98 279.793C1725.91 278.87 1726.53 277.695 1726.79 276.415C1727.04 275.136 1726.91 273.81 1726.41 272.605C1725.91 271.4 1725.06 270.371 1723.98 269.648C1722.89 268.924 1721.61 268.539 1720.31 268.541C1719.44 268.541 1718.59 268.712 1717.79 269.043C1716.99 269.375 1716.26 269.86 1715.65 270.473C1715.04 271.085 1714.55 271.812 1714.22 272.612C1713.89 273.412 1713.72 274.269 1713.73 275.134Z" fill="#FDC5F5"/>
<path d="M1718.68 179.032C1717.38 179.03 1716.1 179.416 1715.02 180.14C1713.93 180.864 1713.09 181.893 1712.59 183.098C1712.09 184.303 1711.95 185.63 1712.21 186.91C1712.46 188.189 1713.09 189.365 1714.01 190.288C1714.94 191.21 1716.11 191.838 1717.39 192.093C1718.67 192.347 1720 192.215 1721.2 191.715C1722.41 191.215 1723.44 190.369 1724.16 189.283C1724.88 188.197 1725.27 186.921 1725.27 185.617C1725.27 183.871 1724.57 182.198 1723.34 180.963C1722.1 179.729 1720.43 179.035 1718.68 179.032Z" fill="#FDC5F5"/>
</g>
</g>
<defs>
<linearGradient id="paint0_linear_130_266" x1="195.367" y1="176.195" x2="236.88" y2="222.07" gradientUnits="userSpaceOnUse">
<stop stop-color="#F7AEF8"/>
<stop offset="0.03" stop-color="#EEA8F3"/>
<stop offset="0.25" stop-color="#B981D7"/>
<stop offset="0.42" stop-color="#9868C6"/>
<stop offset="0.51" stop-color="#8B5FBF"/>
<stop offset="0.62" stop-color="#9063C3"/>
<stop offset="0.76" stop-color="#9F6DCD"/>
<stop offset="0.92" stop-color="#B87EDF"/>
<stop offset="1" stop-color="#C989EB"/>
</linearGradient>
<linearGradient id="paint1_linear_130_266" x1="194.024" y1="174.391" x2="235.519" y2="220.295" gradientUnits="userSpaceOnUse">
<stop stop-color="#F7AEF8"/>
<stop offset="0.03" stop-color="#EEA8F3"/>
<stop offset="0.25" stop-color="#B981D7"/>
<stop offset="0.42" stop-color="#9868C6"/>
<stop offset="0.51" stop-color="#8B5FBF"/>
<stop offset="0.62" stop-color="#9063C3"/>
<stop offset="0.76" stop-color="#9F6DCD"/>
<stop offset="0.92" stop-color="#B87EDF"/>
<stop offset="1" stop-color="#C989EB"/>
</linearGradient>
<linearGradient id="paint2_linear_130_266" x1="192.932" y1="172.419" x2="234.406" y2="218.352" gradientUnits="userSpaceOnUse">
<stop stop-color="#F7AEF8"/>
<stop offset="0.03" stop-color="#EEA8F3"/>
<stop offset="0.25" stop-color="#B981D7"/>
<stop offset="0.42" stop-color="#9868C6"/>
<stop offset="0.51" stop-color="#8B5FBF"/>
<stop offset="0.62" stop-color="#9063C3"/>
<stop offset="0.76" stop-color="#9F6DCD"/>
<stop offset="0.92" stop-color="#B87EDF"/>
<stop offset="1" stop-color="#C989EB"/>
</linearGradient>
<linearGradient id="paint3_linear_130_266" x1="192.085" y1="170.29" x2="233.541" y2="216.247" gradientUnits="userSpaceOnUse">
<stop stop-color="#F7AEF8"/>
<stop offset="0.03" stop-color="#EEA8F3"/>
<stop offset="0.25" stop-color="#B981D7"/>
<stop offset="0.42" stop-color="#9868C6"/>
<stop offset="0.51" stop-color="#8B5FBF"/>
<stop offset="0.62" stop-color="#9063C3"/>
<stop offset="0.76" stop-color="#9F6DCD"/>
<stop offset="0.92" stop-color="#B87EDF"/>
<stop offset="1" stop-color="#C989EB"/>
</linearGradient>
<linearGradient id="paint4_linear_130_266" x1="190.533" y1="168.089" x2="231.88" y2="213.95" gradientUnits="userSpaceOnUse">
<stop stop-color="#F7AEF8"/>
<stop offset="0.03" stop-color="#EEA8F3"/>
<stop offset="0.25" stop-color="#B981D7"/>
<stop offset="0.42" stop-color="#9868C6"/>
<stop offset="0.51" stop-color="#8B5FBF"/>
<stop offset="0.62" stop-color="#9063C3"/>
<stop offset="0.76" stop-color="#9F6DCD"/>
<stop offset="0.92" stop-color="#B87EDF"/>
<stop offset="1" stop-color="#C989EB"/>
</linearGradient>
<linearGradient id="paint5_linear_130_266" x1="191.119" y1="165.593" x2="232.538" y2="211.606" gradientUnits="userSpaceOnUse">
<stop stop-color="#F7AEF8"/>
<stop offset="0.03" stop-color="#EEA8F3"/>
<stop offset="0.25" stop-color="#B981D7"/>
<stop offset="0.42" stop-color="#9868C6"/>
<stop offset="0.51" stop-color="#8B5FBF"/>
<stop offset="0.62" stop-color="#9063C3"/>
<stop offset="0.76" stop-color="#9F6DCD"/>
<stop offset="0.92" stop-color="#B87EDF"/>
<stop offset="1" stop-color="#C989EB"/>
</linearGradient>
<linearGradient id="paint6_linear_130_266" x1="190.99" y1="163.046" x2="232.387" y2="209.089" gradientUnits="userSpaceOnUse">
<stop stop-color="#F7AEF8"/>
<stop offset="0.03" stop-color="#EEA8F3"/>
<stop offset="0.25" stop-color="#B981D7"/>
<stop offset="0.42" stop-color="#9868C6"/>
<stop offset="0.51" stop-color="#8B5FBF"/>
<stop offset="0.62" stop-color="#9063C3"/>
<stop offset="0.76" stop-color="#9F6DCD"/>
<stop offset="0.92" stop-color="#B87EDF"/>
<stop offset="1" stop-color="#C989EB"/>
</linearGradient>
<linearGradient id="paint7_linear_130_266" x1="191.091" y1="160.372" x2="232.473" y2="206.442" gradientUnits="userSpaceOnUse">
<stop stop-color="#F7AEF8"/>
<stop offset="0.03" stop-color="#EEA8F3"/>
<stop offset="0.25" stop-color="#B981D7"/>
<stop offset="0.42" stop-color="#9868C6"/>
<stop offset="0.51" stop-color="#8B5FBF"/>
<stop offset="0.62" stop-color="#9063C3"/>
<stop offset="0.76" stop-color="#9F6DCD"/>
<stop offset="0.92" stop-color="#B87EDF"/>
<stop offset="1" stop-color="#C989EB"/>
</linearGradient>
<linearGradient id="paint8_linear_130_266" x1="190.461" y1="157.694" x2="231.734" y2="203.667" gradientUnits="userSpaceOnUse">
<stop stop-color="#F7AEF8"/>
<stop offset="0.03" stop-color="#EEA8F3"/>
<stop offset="0.25" stop-color="#B981D7"/>
<stop offset="0.42" stop-color="#9868C6"/>
<stop offset="0.51" stop-color="#8B5FBF"/>
<stop offset="0.62" stop-color="#9063C3"/>
<stop offset="0.76" stop-color="#9F6DCD"/>
<stop offset="0.92" stop-color="#B87EDF"/>
<stop offset="1" stop-color="#C989EB"/>
</linearGradient>
<linearGradient id="paint9_linear_130_266" x1="191.96" y1="154.709" x2="233.305" y2="200.834" gradientUnits="userSpaceOnUse">
<stop stop-color="#F7AEF8"/>
<stop offset="0.03" stop-color="#EEA8F3"/>
<stop offset="0.25" stop-color="#B981D7"/>
<stop offset="0.42" stop-color="#9868C6"/>
<stop offset="0.51" stop-color="#8B5FBF"/>
<stop offset="0.62" stop-color="#9063C3"/>
<stop offset="0.76" stop-color="#9F6DCD"/>
<stop offset="0.92" stop-color="#B87EDF"/>
<stop offset="1" stop-color="#C989EB"/>
</linearGradient>
<linearGradient id="paint10_linear_130_266" x1="192.727" y1="151.732" x2="234.05" y2="197.881" gradientUnits="userSpaceOnUse">
<stop stop-color="#F7AEF8"/>
<stop offset="0.03" stop-color="#EEA8F3"/>
<stop offset="0.25" stop-color="#B981D7"/>
<stop offset="0.42" stop-color="#9868C6"/>
<stop offset="0.51" stop-color="#8B5FBF"/>
<stop offset="0.62" stop-color="#9063C3"/>
<stop offset="0.76" stop-color="#9F6DCD"/>
<stop offset="0.92" stop-color="#B87EDF"/>
<stop offset="1" stop-color="#C989EB"/>
</linearGradient>
<linearGradient id="paint11_linear_130_266" x1="193.705" y1="148.667" x2="235.014" y2="194.843" gradientUnits="userSpaceOnUse">
<stop stop-color="#F7AEF8"/>
<stop offset="0.03" stop-color="#EEA8F3"/>
<stop offset="0.25" stop-color="#B981D7"/>
<stop offset="0.42" stop-color="#9868C6"/>
<stop offset="0.51" stop-color="#8B5FBF"/>
<stop offset="0.62" stop-color="#9063C3"/>
<stop offset="0.76" stop-color="#9F6DCD"/>
<stop offset="0.92" stop-color="#B87EDF"/>
<stop offset="1" stop-color="#C989EB"/>
</linearGradient>
<linearGradient id="paint12_linear_130_266" x1="193.939" y1="145.657" x2="235.139" y2="191.741" gradientUnits="userSpaceOnUse">
<stop stop-color="#F7AEF8"/>
<stop offset="0.03" stop-color="#EEA8F3"/>
<stop offset="0.25" stop-color="#B981D7"/>
<stop offset="0.42" stop-color="#9868C6"/>
<stop offset="0.51" stop-color="#8B5FBF"/>
<stop offset="0.62" stop-color="#9063C3"/>
<stop offset="0.76" stop-color="#9F6DCD"/>
<stop offset="0.92" stop-color="#B87EDF"/>
<stop offset="1" stop-color="#C989EB"/>
</linearGradient>
<linearGradient id="paint13_linear_130_266" x1="196.946" y1="142.288" x2="238.267" y2="188.607" gradientUnits="userSpaceOnUse">
<stop stop-color="#F7AEF8"/>
<stop offset="0.03" stop-color="#EEA8F3"/>
<stop offset="0.25" stop-color="#B981D7"/>
<stop offset="0.42" stop-color="#9868C6"/>
<stop offset="0.51" stop-color="#8B5FBF"/>
<stop offset="0.62" stop-color="#9063C3"/>
<stop offset="0.76" stop-color="#9F6DCD"/>
<stop offset="0.92" stop-color="#B87EDF"/>
<stop offset="1" stop-color="#C989EB"/>
</linearGradient>
<linearGradient id="paint14_linear_130_266" x1="197.878" y1="139.072" x2="239.128" y2="185.333" gradientUnits="userSpaceOnUse">
<stop stop-color="#F7AEF8"/>
<stop offset="0.03" stop-color="#EEA8F3"/>
<stop offset="0.25" stop-color="#B981D7"/>
<stop offset="0.42" stop-color="#9868C6"/>
<stop offset="0.51" stop-color="#8B5FBF"/>
<stop offset="0.62" stop-color="#9063C3"/>
<stop offset="0.76" stop-color="#9F6DCD"/>
<stop offset="0.92" stop-color="#B87EDF"/>
<stop offset="1" stop-color="#C989EB"/>
</linearGradient>
<linearGradient id="paint15_linear_130_266" x1="199.667" y1="135.771" x2="240.899" y2="182.061" gradientUnits="userSpaceOnUse">
<stop stop-color="#F7AEF8"/>
<stop offset="0.03" stop-color="#EEA8F3"/>
<stop offset="0.25" stop-color="#B981D7"/>
<stop offset="0.42" stop-color="#9868C6"/>
<stop offset="0.51" stop-color="#8B5FBF"/>
<stop offset="0.62" stop-color="#9063C3"/>
<stop offset="0.76" stop-color="#9F6DCD"/>
<stop offset="0.92" stop-color="#B87EDF"/>
<stop offset="1" stop-color="#C989EB"/>
</linearGradient>
<linearGradient id="paint16_linear_130_266" x1="200.662" y1="132.591" x2="241.788" y2="178.782" gradientUnits="userSpaceOnUse">
<stop stop-color="#F7AEF8"/>
<stop offset="0.03" stop-color="#EEA8F3"/>
<stop offset="0.25" stop-color="#B981D7"/>
<stop offset="0.42" stop-color="#9868C6"/>
<stop offset="0.51" stop-color="#8B5FBF"/>
<stop offset="0.62" stop-color="#9063C3"/>
<stop offset="0.76" stop-color="#9F6DCD"/>
<stop offset="0.92" stop-color="#B87EDF"/>
<stop offset="1" stop-color="#C989EB"/>
</linearGradient>
<linearGradient id="paint17_linear_130_266" x1="204.528" y1="129.062" x2="245.765" y2="175.498" gradientUnits="userSpaceOnUse">
<stop stop-color="#F7AEF8"/>
<stop offset="0.03" stop-color="#EEA8F3"/>
<stop offset="0.25" stop-color="#B981D7"/>
<stop offset="0.42" stop-color="#9868C6"/>
<stop offset="0.51" stop-color="#8B5FBF"/>
<stop offset="0.62" stop-color="#9063C3"/>
<stop offset="0.76" stop-color="#9F6DCD"/>
<stop offset="0.92" stop-color="#B87EDF"/>
<stop offset="1" stop-color="#C989EB"/>
</linearGradient>
<linearGradient id="paint18_linear_130_266" x1="206.176" y1="125.673" x2="247.349" y2="172.043" gradientUnits="userSpaceOnUse">
<stop stop-color="#F7AEF8"/>
<stop offset="0.03" stop-color="#EEA8F3"/>
<stop offset="0.25" stop-color="#B981D7"/>
<stop offset="0.42" stop-color="#9868C6"/>
<stop offset="0.51" stop-color="#8B5FBF"/>
<stop offset="0.62" stop-color="#9063C3"/>
<stop offset="0.76" stop-color="#9F6DCD"/>
<stop offset="0.92" stop-color="#B87EDF"/>
<stop offset="1" stop-color="#C989EB"/>
</linearGradient>
<linearGradient id="paint19_linear_130_266" x1="209.396" y1="123.703" x2="250.401" y2="170.281" gradientUnits="userSpaceOnUse">
<stop stop-color="#F7AEF8"/>
<stop offset="0.03" stop-color="#EEA8F3"/>
<stop offset="0.25" stop-color="#B981D7"/>
<stop offset="0.42" stop-color="#9868C6"/>
<stop offset="0.51" stop-color="#8B5FBF"/>
<stop offset="0.62" stop-color="#9063C3"/>
<stop offset="0.76" stop-color="#9F6DCD"/>
<stop offset="0.92" stop-color="#B87EDF"/>
<stop offset="1" stop-color="#C989EB"/>
</linearGradient>
<linearGradient id="paint20_linear_130_266" x1="210.407" y1="119.074" x2="251.454" y2="165.377" gradientUnits="userSpaceOnUse">
<stop stop-color="#F7AEF8"/>
<stop offset="0.03" stop-color="#EEA8F3"/>
<stop offset="0.25" stop-color="#B981D7"/>
<stop offset="0.42" stop-color="#9868C6"/>
<stop offset="0.51" stop-color="#8B5FBF"/>
<stop offset="0.62" stop-color="#9063C3"/>
<stop offset="0.76" stop-color="#9F6DCD"/>
<stop offset="0.92" stop-color="#B87EDF"/>
<stop offset="1" stop-color="#C989EB"/>
</linearGradient>
<linearGradient id="paint21_linear_130_266" x1="214.305" y1="115.496" x2="255.422" y2="161.949" gradientUnits="userSpaceOnUse">
<stop stop-color="#F7AEF8"/>
<stop offset="0.03" stop-color="#EEA8F3"/>
<stop offset="0.25" stop-color="#B981D7"/>
<stop offset="0.42" stop-color="#9868C6"/>
<stop offset="0.51" stop-color="#8B5FBF"/>
<stop offset="0.62" stop-color="#9063C3"/>
<stop offset="0.76" stop-color="#9F6DCD"/>
<stop offset="0.92" stop-color="#B87EDF"/>
<stop offset="1" stop-color="#C989EB"/>
</linearGradient>
<linearGradient id="paint22_linear_130_266" x1="216.319" y1="112.339" x2="257.327" y2="158.695" gradientUnits="userSpaceOnUse">
<stop stop-color="#F7AEF8"/>
<stop offset="0.03" stop-color="#EEA8F3"/>
<stop offset="0.25" stop-color="#B981D7"/>
<stop offset="0.42" stop-color="#9868C6"/>
<stop offset="0.51" stop-color="#8B5FBF"/>
<stop offset="0.62" stop-color="#9063C3"/>
<stop offset="0.76" stop-color="#9F6DCD"/>
<stop offset="0.92" stop-color="#B87EDF"/>
<stop offset="1" stop-color="#C989EB"/>
</linearGradient>
<linearGradient id="paint23_linear_130_266" x1="220.566" y1="108.789" x2="261.646" y2="155.297" gradientUnits="userSpaceOnUse">
<stop stop-color="#F7AEF8"/>
<stop offset="0.03" stop-color="#EEA8F3"/>
<stop offset="0.25" stop-color="#B981D7"/>
<stop offset="0.42" stop-color="#9868C6"/>
<stop offset="0.51" stop-color="#8B5FBF"/>
<stop offset="0.62" stop-color="#9063C3"/>
<stop offset="0.76" stop-color="#9F6DCD"/>
<stop offset="0.92" stop-color="#B87EDF"/>
<stop offset="1" stop-color="#C989EB"/>
</linearGradient>
<linearGradient id="paint24_linear_130_266" x1="222.889" y1="105.711" x2="263.86" y2="152.122" gradientUnits="userSpaceOnUse">
<stop stop-color="#F7AEF8"/>
<stop offset="0.03" stop-color="#EEA8F3"/>
<stop offset="0.25" stop-color="#B981D7"/>
<stop offset="0.42" stop-color="#9868C6"/>
<stop offset="0.51" stop-color="#8B5FBF"/>
<stop offset="0.62" stop-color="#9063C3"/>
<stop offset="0.76" stop-color="#9F6DCD"/>
<stop offset="0.92" stop-color="#B87EDF"/>
<stop offset="1" stop-color="#C989EB"/>
</linearGradient>
<linearGradient id="paint25_linear_130_266" x1="227.465" y1="102.238" x2="268.505" y2="148.8" gradientUnits="userSpaceOnUse">
<stop stop-color="#F7AEF8"/>
<stop offset="0.03" stop-color="#EEA8F3"/>
<stop offset="0.25" stop-color="#B981D7"/>
<stop offset="0.42" stop-color="#9868C6"/>
<stop offset="0.51" stop-color="#8B5FBF"/>
<stop offset="0.62" stop-color="#9063C3"/>
<stop offset="0.76" stop-color="#9F6DCD"/>
<stop offset="0.92" stop-color="#B87EDF"/>
<stop offset="1" stop-color="#C989EB"/>
</linearGradient>
<linearGradient id="paint26_linear_130_266" x1="231.128" y1="99.0484" x2="272.153" y2="145.637" gradientUnits="userSpaceOnUse">
<stop stop-color="#F7AEF8"/>
<stop offset="0.03" stop-color="#EEA8F3"/>
<stop offset="0.25" stop-color="#B981D7"/>
<stop offset="0.42" stop-color="#9868C6"/>
<stop offset="0.51" stop-color="#8B5FBF"/>
<stop offset="0.62" stop-color="#9063C3"/>
<stop offset="0.76" stop-color="#9F6DCD"/>
<stop offset="0.92" stop-color="#B87EDF"/>
<stop offset="1" stop-color="#C989EB"/>
</linearGradient>
<linearGradient id="paint27_linear_130_266" x1="233.763" y1="96.2488" x2="274.677" y2="142.743" gradientUnits="userSpaceOnUse">
<stop stop-color="#F7AEF8"/>
<stop offset="0.03" stop-color="#EEA8F3"/>
<stop offset="0.25" stop-color="#B981D7"/>
<stop offset="0.42" stop-color="#9868C6"/>
<stop offset="0.51" stop-color="#8B5FBF"/>
<stop offset="0.62" stop-color="#9063C3"/>
<stop offset="0.76" stop-color="#9F6DCD"/>
<stop offset="0.92" stop-color="#B87EDF"/>
<stop offset="1" stop-color="#C989EB"/>
</linearGradient>
<linearGradient id="paint28_linear_130_266" x1="237.489" y1="93.3745" x2="278.384" y2="139.895" gradientUnits="userSpaceOnUse">
<stop stop-color="#F7AEF8"/>
<stop offset="0.03" stop-color="#EEA8F3"/>
<stop offset="0.25" stop-color="#B981D7"/>
<stop offset="0.42" stop-color="#9868C6"/>
<stop offset="0.51" stop-color="#8B5FBF"/>
<stop offset="0.62" stop-color="#9063C3"/>
<stop offset="0.76" stop-color="#9F6DCD"/>
<stop offset="0.92" stop-color="#B87EDF"/>
<stop offset="1" stop-color="#C989EB"/>
</linearGradient>
<linearGradient id="paint29_linear_130_266" x1="242.33" y1="90.4102" x2="283.294" y2="137.081" gradientUnits="userSpaceOnUse">
<stop stop-color="#F7AEF8"/>
<stop offset="0.03" stop-color="#EEA8F3"/>
<stop offset="0.25" stop-color="#B981D7"/>
<stop offset="0.42" stop-color="#9868C6"/>
<stop offset="0.51" stop-color="#8B5FBF"/>
<stop offset="0.62" stop-color="#9063C3"/>
<stop offset="0.76" stop-color="#9F6DCD"/>
<stop offset="0.92" stop-color="#B87EDF"/>
<stop offset="1" stop-color="#C989EB"/>
</linearGradient>
<linearGradient id="paint30_linear_130_266" x1="244.981" y1="88.1167" x2="285.836" y2="134.69" gradientUnits="userSpaceOnUse">
<stop stop-color="#F7AEF8"/>
<stop offset="0.03" stop-color="#EEA8F3"/>
<stop offset="0.25" stop-color="#B981D7"/>
<stop offset="0.42" stop-color="#9868C6"/>
<stop offset="0.51" stop-color="#8B5FBF"/>
<stop offset="0.62" stop-color="#9063C3"/>
<stop offset="0.76" stop-color="#9F6DCD"/>
<stop offset="0.92" stop-color="#B87EDF"/>
<stop offset="1" stop-color="#C989EB"/>
</linearGradient>
<linearGradient id="paint31_linear_130_266" x1="249.84" y1="85.4694" x2="290.767" y2="132.196" gradientUnits="userSpaceOnUse">
<stop stop-color="#F7AEF8"/>
<stop offset="0.03" stop-color="#EEA8F3"/>
<stop offset="0.25" stop-color="#B981D7"/>
<stop offset="0.42" stop-color="#9868C6"/>
<stop offset="0.51" stop-color="#8B5FBF"/>
<stop offset="0.62" stop-color="#9063C3"/>
<stop offset="0.76" stop-color="#9F6DCD"/>
<stop offset="0.92" stop-color="#B87EDF"/>
<stop offset="1" stop-color="#C989EB"/>
</linearGradient>
<linearGradient id="paint32_linear_130_266" x1="253.58" y1="83.2628" x2="294.487" y2="130.016" gradientUnits="userSpaceOnUse">
<stop stop-color="#F7AEF8"/>
<stop offset="0.03" stop-color="#EEA8F3"/>
<stop offset="0.25" stop-color="#B981D7"/>
<stop offset="0.42" stop-color="#9868C6"/>
<stop offset="0.51" stop-color="#8B5FBF"/>
<stop offset="0.62" stop-color="#9063C3"/>
<stop offset="0.76" stop-color="#9F6DCD"/>
<stop offset="0.92" stop-color="#B87EDF"/>
<stop offset="1" stop-color="#C989EB"/>
</linearGradient>
<linearGradient id="paint33_linear_130_266" x1="257.293" y1="81.2219" x2="298.18" y2="128.002" gradientUnits="userSpaceOnUse">
<stop stop-color="#F7AEF8"/>
<stop offset="0.03" stop-color="#EEA8F3"/>
<stop offset="0.25" stop-color="#B981D7"/>
<stop offset="0.42" stop-color="#9868C6"/>
<stop offset="0.51" stop-color="#8B5FBF"/>
<stop offset="0.62" stop-color="#9063C3"/>
<stop offset="0.76" stop-color="#9F6DCD"/>
<stop offset="0.92" stop-color="#B87EDF"/>
<stop offset="1" stop-color="#C989EB"/>
</linearGradient>
<linearGradient id="paint34_linear_130_266" x1="259.824" y1="79.6349" x2="300.604" y2="126.317" gradientUnits="userSpaceOnUse">
<stop stop-color="#F7AEF8"/>
<stop offset="0.03" stop-color="#EEA8F3"/>
<stop offset="0.25" stop-color="#B981D7"/>
<stop offset="0.42" stop-color="#9868C6"/>
<stop offset="0.51" stop-color="#8B5FBF"/>
<stop offset="0.62" stop-color="#9063C3"/>
<stop offset="0.76" stop-color="#9F6DCD"/>
<stop offset="0.92" stop-color="#B87EDF"/>
<stop offset="1" stop-color="#C989EB"/>
</linearGradient>
<linearGradient id="paint35_linear_130_266" x1="264.608" y1="77.6762" x2="305.453" y2="124.512" gradientUnits="userSpaceOnUse">
<stop stop-color="#F7AEF8"/>
<stop offset="0.03" stop-color="#EEA8F3"/>
<stop offset="0.25" stop-color="#B981D7"/>
<stop offset="0.42" stop-color="#9868C6"/>
<stop offset="0.51" stop-color="#8B5FBF"/>
<stop offset="0.62" stop-color="#9063C3"/>
<stop offset="0.76" stop-color="#9F6DCD"/>
<stop offset="0.92" stop-color="#B87EDF"/>
<stop offset="1" stop-color="#C989EB"/>
</linearGradient>
<linearGradient id="paint36_linear_130_266" x1="268.698" y1="75.134" x2="309.673" y2="122.006" gradientUnits="userSpaceOnUse">
<stop stop-color="#F7AEF8"/>
<stop offset="0.03" stop-color="#EEA8F3"/>
<stop offset="0.25" stop-color="#B981D7"/>
<stop offset="0.42" stop-color="#9868C6"/>
<stop offset="0.51" stop-color="#8B5FBF"/>
<stop offset="0.62" stop-color="#9063C3"/>
<stop offset="0.76" stop-color="#9F6DCD"/>
<stop offset="0.92" stop-color="#B87EDF"/>
<stop offset="1" stop-color="#C989EB"/>
</linearGradient>
<linearGradient id="paint37_linear_130_266" x1="270.536" y1="75.1463" x2="311.259" y2="121.911" gradientUnits="userSpaceOnUse">
<stop stop-color="#F7AEF8"/>
<stop offset="0.03" stop-color="#EEA8F3"/>
<stop offset="0.25" stop-color="#B981D7"/>
<stop offset="0.42" stop-color="#9868C6"/>
<stop offset="0.51" stop-color="#8B5FBF"/>
<stop offset="0.62" stop-color="#9063C3"/>
<stop offset="0.76" stop-color="#9F6DCD"/>
<stop offset="0.92" stop-color="#B87EDF"/>
<stop offset="1" stop-color="#C989EB"/>
</linearGradient>
<linearGradient id="paint38_linear_130_266" x1="275.156" y1="73.7377" x2="315.944" y2="120.656" gradientUnits="userSpaceOnUse">
<stop stop-color="#F7AEF8"/>
<stop offset="0.03" stop-color="#EEA8F3"/>
<stop offset="0.25" stop-color="#B981D7"/>
<stop offset="0.42" stop-color="#9868C6"/>
<stop offset="0.51" stop-color="#8B5FBF"/>
<stop offset="0.62" stop-color="#9063C3"/>
<stop offset="0.76" stop-color="#9F6DCD"/>
<stop offset="0.92" stop-color="#B87EDF"/>
<stop offset="1" stop-color="#C989EB"/>
</linearGradient>
<linearGradient id="paint39_linear_130_266" x1="277.328" y1="73.0878" x2="318.01" y2="119.908" gradientUnits="userSpaceOnUse">
<stop stop-color="#F7AEF8"/>
<stop offset="0.03" stop-color="#EEA8F3"/>
<stop offset="0.25" stop-color="#B981D7"/>
<stop offset="0.42" stop-color="#9868C6"/>
<stop offset="0.51" stop-color="#8B5FBF"/>
<stop offset="0.62" stop-color="#9063C3"/>
<stop offset="0.76" stop-color="#9F6DCD"/>
<stop offset="0.92" stop-color="#B87EDF"/>
<stop offset="1" stop-color="#C989EB"/>
</linearGradient>
<linearGradient id="paint40_linear_130_266" x1="280.573" y1="72.2691" x2="321.243" y2="119.109" gradientUnits="userSpaceOnUse">
<stop stop-color="#F7AEF8"/>
<stop offset="0.03" stop-color="#EEA8F3"/>
<stop offset="0.25" stop-color="#B981D7"/>
<stop offset="0.42" stop-color="#9868C6"/>
<stop offset="0.51" stop-color="#8B5FBF"/>
<stop offset="0.62" stop-color="#9063C3"/>
<stop offset="0.76" stop-color="#9F6DCD"/>
<stop offset="0.92" stop-color="#B87EDF"/>
<stop offset="1" stop-color="#C989EB"/>
</linearGradient>
<linearGradient id="paint41_linear_130_266" x1="283.977" y1="69.6924" x2="324.878" y2="116.498" gradientUnits="userSpaceOnUse">
<stop stop-color="#F7AEF8"/>
<stop offset="0.03" stop-color="#EEA8F3"/>
<stop offset="0.25" stop-color="#B981D7"/>
<stop offset="0.42" stop-color="#9868C6"/>
<stop offset="0.51" stop-color="#8B5FBF"/>
<stop offset="0.62" stop-color="#9063C3"/>
<stop offset="0.76" stop-color="#9F6DCD"/>
<stop offset="0.92" stop-color="#B87EDF"/>
<stop offset="1" stop-color="#C989EB"/>
</linearGradient>
<linearGradient id="paint42_linear_130_266" x1="288.009" y1="71.1747" x2="328.721" y2="118.197" gradientUnits="userSpaceOnUse">
<stop stop-color="#F7AEF8"/>
<stop offset="0.03" stop-color="#EEA8F3"/>
<stop offset="0.25" stop-color="#B981D7"/>
<stop offset="0.42" stop-color="#9868C6"/>
<stop offset="0.51" stop-color="#8B5FBF"/>
<stop offset="0.62" stop-color="#9063C3"/>
<stop offset="0.76" stop-color="#9F6DCD"/>
<stop offset="0.92" stop-color="#B87EDF"/>
<stop offset="1" stop-color="#C989EB"/>
</linearGradient>
<linearGradient id="paint43_linear_130_266" x1="290.938" y1="71.0321" x2="331.631" y2="118.081" gradientUnits="userSpaceOnUse">
<stop stop-color="#F7AEF8"/>
<stop offset="0.03" stop-color="#EEA8F3"/>
<stop offset="0.25" stop-color="#B981D7"/>
<stop offset="0.42" stop-color="#9868C6"/>
<stop offset="0.51" stop-color="#8B5FBF"/>
<stop offset="0.62" stop-color="#9063C3"/>
<stop offset="0.76" stop-color="#9F6DCD"/>
<stop offset="0.92" stop-color="#B87EDF"/>
<stop offset="1" stop-color="#C989EB"/>
</linearGradient>
<linearGradient id="paint44_linear_130_266" x1="293.734" y1="71.0935" x2="334.41" y2="118.172" gradientUnits="userSpaceOnUse">
<stop stop-color="#F7AEF8"/>
<stop offset="0.03" stop-color="#EEA8F3"/>
<stop offset="0.25" stop-color="#B981D7"/>
<stop offset="0.42" stop-color="#9868C6"/>
<stop offset="0.51" stop-color="#8B5FBF"/>
<stop offset="0.62" stop-color="#9063C3"/>
<stop offset="0.76" stop-color="#9F6DCD"/>
<stop offset="0.92" stop-color="#B87EDF"/>
<stop offset="1" stop-color="#C989EB"/>
</linearGradient>
<linearGradient id="paint45_linear_130_266" x1="295.16" y1="71.6493" x2="335.726" y2="118.631" gradientUnits="userSpaceOnUse">
<stop stop-color="#F7AEF8"/>
<stop offset="0.03" stop-color="#EEA8F3"/>
<stop offset="0.25" stop-color="#B981D7"/>
<stop offset="0.42" stop-color="#9868C6"/>
<stop offset="0.51" stop-color="#8B5FBF"/>
<stop offset="0.62" stop-color="#9063C3"/>
<stop offset="0.76" stop-color="#9F6DCD"/>
<stop offset="0.92" stop-color="#B87EDF"/>
<stop offset="1" stop-color="#C989EB"/>
</linearGradient>
<linearGradient id="paint46_linear_130_266" x1="298.895" y1="71.8483" x2="339.529" y2="118.982" gradientUnits="userSpaceOnUse">
<stop stop-color="#F7AEF8"/>
<stop offset="0.03" stop-color="#EEA8F3"/>
<stop offset="0.25" stop-color="#B981D7"/>
<stop offset="0.42" stop-color="#9868C6"/>
<stop offset="0.51" stop-color="#8B5FBF"/>
<stop offset="0.62" stop-color="#9063C3"/>
<stop offset="0.76" stop-color="#9F6DCD"/>
<stop offset="0.92" stop-color="#B87EDF"/>
<stop offset="1" stop-color="#C989EB"/>
</linearGradient>
<linearGradient id="paint47_linear_130_266" x1="301.237" y1="72.5402" x2="341.856" y2="119.701" gradientUnits="userSpaceOnUse">
<stop stop-color="#F7AEF8"/>
<stop offset="0.03" stop-color="#EEA8F3"/>
<stop offset="0.25" stop-color="#B981D7"/>
<stop offset="0.42" stop-color="#9868C6"/>
<stop offset="0.51" stop-color="#8B5FBF"/>
<stop offset="0.62" stop-color="#9063C3"/>
<stop offset="0.76" stop-color="#9F6DCD"/>
<stop offset="0.92" stop-color="#B87EDF"/>
<stop offset="1" stop-color="#C989EB"/>
</linearGradient>
<linearGradient id="paint48_linear_130_266" x1="302.163" y1="73.7275" x2="342.673" y2="120.792" gradientUnits="userSpaceOnUse">
<stop stop-color="#F7AEF8"/>
<stop offset="0.03" stop-color="#EEA8F3"/>
<stop offset="0.25" stop-color="#B981D7"/>
<stop offset="0.42" stop-color="#9868C6"/>
<stop offset="0.51" stop-color="#8B5FBF"/>
<stop offset="0.62" stop-color="#9063C3"/>
<stop offset="0.76" stop-color="#9F6DCD"/>
<stop offset="0.92" stop-color="#B87EDF"/>
<stop offset="1" stop-color="#C989EB"/>
</linearGradient>
<linearGradient id="paint49_linear_130_266" x1="305.398" y1="74.5836" x2="345.976" y2="121.8" gradientUnits="userSpaceOnUse">
<stop stop-color="#F7AEF8"/>
<stop offset="0.03" stop-color="#EEA8F3"/>
<stop offset="0.25" stop-color="#B981D7"/>
<stop offset="0.42" stop-color="#9868C6"/>
<stop offset="0.51" stop-color="#8B5FBF"/>
<stop offset="0.62" stop-color="#9063C3"/>
<stop offset="0.76" stop-color="#9F6DCD"/>
<stop offset="0.92" stop-color="#B87EDF"/>
<stop offset="1" stop-color="#C989EB"/>
</linearGradient>
<linearGradient id="paint50_linear_130_266" x1="307.197" y1="75.9381" x2="347.755" y2="123.181" gradientUnits="userSpaceOnUse">
<stop stop-color="#F7AEF8"/>
<stop offset="0.03" stop-color="#EEA8F3"/>
<stop offset="0.25" stop-color="#B981D7"/>
<stop offset="0.42" stop-color="#9868C6"/>
<stop offset="0.51" stop-color="#8B5FBF"/>
<stop offset="0.62" stop-color="#9063C3"/>
<stop offset="0.76" stop-color="#9F6DCD"/>
<stop offset="0.92" stop-color="#B87EDF"/>
<stop offset="1" stop-color="#C989EB"/>
</linearGradient>
<linearGradient id="paint51_linear_130_266" x1="308.79" y1="77.5179" x2="349.328" y2="124.787" gradientUnits="userSpaceOnUse">
<stop stop-color="#F7AEF8"/>
<stop offset="0.03" stop-color="#EEA8F3"/>
<stop offset="0.25" stop-color="#B981D7"/>
<stop offset="0.42" stop-color="#9868C6"/>
<stop offset="0.51" stop-color="#8B5FBF"/>
<stop offset="0.62" stop-color="#9063C3"/>
<stop offset="0.76" stop-color="#9F6DCD"/>
<stop offset="0.92" stop-color="#B87EDF"/>
<stop offset="1" stop-color="#C989EB"/>
</linearGradient>
<linearGradient id="paint52_linear_130_266" x1="332.804" y1="134.746" x2="325.207" y2="70.6814" gradientUnits="userSpaceOnUse">
<stop stop-color="#C989EB"/>
<stop offset="0.17" stop-color="#B87EDF"/>
<stop offset="0.48" stop-color="#9F6DCD"/>
<stop offset="0.77" stop-color="#9063C3"/>
<stop offset="1" stop-color="#8B5FBF"/>
</linearGradient>
<linearGradient id="paint53_linear_130_266" x1="1626.04" y1="684.145" x2="1679.73" y2="602.482" gradientUnits="userSpaceOnUse">
<stop stop-color="#8E96FF"/>
<stop offset="0.11" stop-color="#8D99FE"/>
<stop offset="0.19" stop-color="#8BA3FC"/>
<stop offset="0.26" stop-color="#87B3F8"/>
<stop offset="0.28" stop-color="#86B9F6"/>
<stop offset="0.3" stop-color="#86B8F6"/>
<stop offset="0.59" stop-color="#8AA8FB"/>
<stop offset="0.84" stop-color="#8E96FF"/>
</linearGradient>
<linearGradient id="paint54_linear_130_266" x1="1594" y1="617.118" x2="1706.43" y2="617.118" gradientUnits="userSpaceOnUse">
<stop stop-color="#8E96FF"/>
<stop offset="0.15" stop-color="#8C9DFD"/>
<stop offset="0.66" stop-color="#88B2F8"/>
<stop offset="1" stop-color="#86B9F6"/>
</linearGradient>
<linearGradient id="paint55_linear_130_266" x1="1587.26" y1="647.364" x2="1693.18" y2="564.799" gradientUnits="userSpaceOnUse">
<stop offset="0.01" stop-color="#8E96FF"/>
<stop offset="0.02" stop-color="#8D9AFE"/>
<stop offset="0.07" stop-color="#8BA5FC"/>
<stop offset="0.13" stop-color="#8AA8FB"/>
<stop offset="0.22" stop-color="#82CBF2"/>
<stop offset="0.3" stop-color="#87B5F8"/>
<stop offset="0.37" stop-color="#8AA8FB"/>
<stop offset="0.44" stop-color="#8BA2FC"/>
<stop offset="0.52" stop-color="#8E96FF"/>
<stop offset="0.53" stop-color="#8BA5FB"/>
<stop offset="0.55" stop-color="#87B6F7"/>
<stop offset="0.57" stop-color="#84C2F4"/>
<stop offset="0.59" stop-color="#82C9F2"/>
<stop offset="0.66" stop-color="#82CBF2"/>
<stop offset="0.69" stop-color="#83C8F3"/>
<stop offset="0.72" stop-color="#85C0F5"/>
<stop offset="0.74" stop-color="#88B1F8"/>
<stop offset="0.75" stop-color="#8D9CFD"/>
<stop offset="0.76" stop-color="#8E96FF"/>
<stop offset="0.87" stop-color="#8AA8FB"/>
<stop offset="0.92" stop-color="#88B1F9"/>
<stop offset="0.99" stop-color="#83C8F3"/>
<stop offset="1" stop-color="#82CBF2"/>
</linearGradient>
<linearGradient id="paint56_linear_130_266" x1="1611.34" y1="678.252" x2="1717.26" y2="595.683" gradientUnits="userSpaceOnUse">
<stop offset="0.01" stop-color="#8E96FF"/>
<stop offset="0.02" stop-color="#8D9AFE"/>
<stop offset="0.07" stop-color="#8BA5FC"/>
<stop offset="0.13" stop-color="#8AA8FB"/>
<stop offset="0.22" stop-color="#82CBF2"/>
<stop offset="0.3" stop-color="#87B5F8"/>
<stop offset="0.37" stop-color="#8AA8FB"/>
<stop offset="0.44" stop-color="#8BA2FC"/>
<stop offset="0.52" stop-color="#8E96FF"/>
<stop offset="0.53" stop-color="#8BA5FB"/>
<stop offset="0.55" stop-color="#87B6F7"/>
<stop offset="0.57" stop-color="#84C2F4"/>
<stop offset="0.59" stop-color="#82C9F2"/>
<stop offset="0.66" stop-color="#82CBF2"/>
<stop offset="0.69" stop-color="#83C8F3"/>
<stop offset="0.72" stop-color="#85C0F5"/>
<stop offset="0.74" stop-color="#88B1F8"/>
<stop offset="0.75" stop-color="#8D9CFD"/>
<stop offset="0.76" stop-color="#8E96FF"/>
<stop offset="0.87" stop-color="#8AA8FB"/>
<stop offset="0.92" stop-color="#88B1F9"/>
<stop offset="0.99" stop-color="#83C8F3"/>
<stop offset="1" stop-color="#82CBF2"/>
</linearGradient>
<linearGradient id="paint57_linear_130_266" x1="-2.84851" y1="492.997" x2="11.0725" y2="494.335" gradientUnits="userSpaceOnUse">
<stop stop-color="#FCAD02"/>
<stop offset="1" stop-color="#FF0041"/>
</linearGradient>
<linearGradient id="paint58_linear_130_266" x1="-2.84851" y1="519.385" x2="11.0725" y2="520.723" gradientUnits="userSpaceOnUse">
<stop stop-color="#FCAD02"/>
<stop offset="1" stop-color="#FF0041"/>
</linearGradient>
<linearGradient id="paint59_linear_130_266" x1="-2.84851" y1="545.777" x2="11.0725" y2="547.116" gradientUnits="userSpaceOnUse">
<stop stop-color="#FCAD02"/>
<stop offset="1" stop-color="#FF0041"/>
</linearGradient>
<linearGradient id="paint60_linear_130_266" x1="-2.84851" y1="572.165" x2="11.0725" y2="573.503" gradientUnits="userSpaceOnUse">
<stop stop-color="#FCAD02"/>
<stop offset="1" stop-color="#FF0041"/>
</linearGradient>
<linearGradient id="paint61_linear_130_266" x1="-0.87821" y1="610.494" x2="3.62222" y2="597.253" gradientUnits="userSpaceOnUse">
<stop stop-color="#FCAD02"/>
<stop offset="1" stop-color="#FF0041"/>
</linearGradient>
<linearGradient id="paint62_linear_130_266" x1="22.7013" y1="545.777" x2="36.6402" y2="547.117" gradientUnits="userSpaceOnUse">
<stop stop-color="#FCAD02"/>
<stop offset="1" stop-color="#FF0041"/>
</linearGradient>
<linearGradient id="paint63_linear_130_266" x1="22.7013" y1="572.165" x2="36.6402" y2="573.505" gradientUnits="userSpaceOnUse">
<stop stop-color="#FCAD02"/>
<stop offset="1" stop-color="#FF0041"/>
</linearGradient>
<linearGradient id="paint64_linear_130_266" x1="22.712" y1="598.559" x2="36.6331" y2="599.897" gradientUnits="userSpaceOnUse">
<stop stop-color="#FCAD02"/>
<stop offset="1" stop-color="#FF0041"/>
</linearGradient>
<linearGradient id="paint65_linear_130_266" x1="22.712" y1="624.945" x2="36.6331" y2="626.284" gradientUnits="userSpaceOnUse">
<stop stop-color="#FCAD02"/>
<stop offset="1" stop-color="#FF0041"/>
</linearGradient>
<linearGradient id="paint66_linear_130_266" x1="22.712" y1="651.333" x2="36.6331" y2="652.671" gradientUnits="userSpaceOnUse">
<stop stop-color="#FCAD02"/>
<stop offset="1" stop-color="#FF0041"/>
</linearGradient>
</defs>
</svg>
