<svg width="214" height="60" viewBox="0 0 214 60" fill="none" xmlns="http://www.w3.org/2000/svg">
<path d="M0.998047 10.8139C0.998047 4.84154 5.8294 -4.43057e-08 11.7892 -9.89595e-08L50.2069 -4.51268e-07C56.1667 -5.05922e-07 60.998 4.84153 60.998 10.8139L60.998 49.1861C60.998 55.1585 56.1667 60 50.2069 60L11.7892 60C5.82941 60 0.998047 55.1585 0.998047 49.1861L0.998047 10.8139Z" fill="#0B6755"/>
<path d="M45.9971 13.9999V21.9999H13.9971L23.9971 13.9999H45.9971Z" fill="white"/>
<path d="M45.9971 38L35.9971 46H13.9971V38H45.9971Z" fill="white"/>
<path d="M45.9971 25H27.3425L13.9971 35H32.6516L45.9971 25Z" fill="#FFAF01"/>
<path d="M81.4523 39.3441H96.5782V44.6547H73.9971V39.7327L88.5628 19.5266H73.9971V14.216H96.1473V19.0517L81.4523 39.3441Z" fill="white"/>
<path d="M109.618 22.9374C112.778 22.9374 115.105 23.6858 116.599 25.1826C118.122 26.6793 118.883 28.9964 118.883 32.1338V44.6547H112.721V41.5029C112.29 42.5967 111.571 43.4602 110.566 44.0934C109.56 44.6979 108.382 45.0001 107.032 45.0001C105.596 45.0001 104.289 44.7123 103.111 44.1366C101.961 43.5609 101.042 42.755 100.353 41.7188C99.6919 40.6826 99.3615 39.5312 99.3615 38.2647C99.3615 36.7104 99.7493 35.4871 100.525 34.5948C101.329 33.7025 102.608 33.0549 104.36 32.6519C106.113 32.249 108.512 32.0475 111.557 32.0475H112.677V31.2703C112.677 30.0038 112.405 29.1115 111.859 28.5934C111.313 28.0753 110.365 27.8163 109.014 27.8163C107.98 27.8163 106.831 28.0034 105.567 28.3776C104.303 28.7517 103.096 29.2699 101.947 29.9319L100.223 25.5712C101.43 24.8228 102.91 24.2039 104.662 23.7146C106.443 23.1965 108.095 22.9374 109.618 22.9374ZM108.454 40.5099C109.718 40.5099 110.738 40.0925 111.514 39.2578C112.29 38.3943 112.677 37.2861 112.677 35.9333V35.1993H111.945C109.618 35.1993 107.98 35.3864 107.032 35.7606C106.113 36.1348 105.653 36.8112 105.653 37.7898C105.653 38.567 105.912 39.2146 106.429 39.7327C106.975 40.2508 107.65 40.5099 108.454 40.5099Z" fill="white"/>
<path d="M131.936 23.4556H137.237V28.3344H131.936V44.6547H125.429V28.3344H121.421V23.4556H125.429C125.486 20.4621 126.348 18.2169 128.014 16.7202C129.71 15.1946 132.281 14.3311 135.728 14.1296L138.098 14.0001L138.486 18.7926L136.461 18.879C134.795 18.9365 133.617 19.2531 132.927 19.8288C132.266 20.3757 131.936 21.2968 131.936 22.592V23.4556Z" fill="white"/>
<path d="M155.076 28.2912L151.413 28.6798C149.603 28.8525 148.325 29.3706 147.578 30.2341C146.831 31.0688 146.458 32.1914 146.458 33.6018V44.6547H139.95V23.4556H146.199V27.0391C147.262 24.5925 149.46 23.2541 152.792 23.0238L154.689 22.8943L155.076 28.2912Z" fill="white"/>
<path d="M166.641 22.9374C169.802 22.9374 172.129 23.6858 173.623 25.1826C175.145 26.6793 175.907 28.9964 175.907 32.1338V44.6547H169.744V41.5029C169.313 42.5967 168.595 43.4602 167.589 44.0934C166.584 44.6979 165.406 45.0001 164.056 45.0001C162.619 45.0001 161.312 44.7123 160.134 44.1366C158.985 43.5609 158.066 42.755 157.376 41.7188C156.715 40.6826 156.385 39.5312 156.385 38.2647C156.385 36.7104 156.773 35.4871 157.549 34.5948C158.353 33.7025 159.631 33.0549 161.384 32.6519C163.136 32.249 165.535 32.0475 168.581 32.0475H169.701V31.2703C169.701 30.0038 169.428 29.1115 168.882 28.5934C168.336 28.0753 167.388 27.8163 166.038 27.8163C165.004 27.8163 163.855 28.0034 162.591 28.3776C161.326 28.7517 160.12 29.2699 158.971 29.9319L157.247 25.5712C158.454 24.8228 159.933 24.2039 161.686 23.7146C163.467 23.1965 165.119 22.9374 166.641 22.9374ZM165.478 40.5099C166.742 40.5099 167.762 40.0925 168.537 39.2578C169.313 38.3943 169.701 37.2861 169.701 35.9333V35.1993H168.968C166.641 35.1993 165.004 35.3864 164.056 35.7606C163.136 36.1348 162.677 36.8112 162.677 37.7898C162.677 38.567 162.935 39.2146 163.452 39.7327C163.998 40.2508 164.673 40.5099 165.478 40.5099Z" fill="white"/>
<path d="M206.844 22.9374C209.257 22.9374 211.052 23.6714 212.23 25.1394C213.408 26.6074 213.997 28.8525 213.997 31.8748V44.6547H207.49V32.0907C207.49 30.6515 207.26 29.6153 206.8 28.982C206.369 28.3488 205.623 28.0322 204.56 28.0322C203.324 28.0322 202.362 28.4639 201.672 29.3274C200.983 30.1909 200.638 31.3998 200.638 32.9542V44.6547H194.131V32.0907C194.131 30.6515 193.901 29.6153 193.441 28.982C193.01 28.3488 192.263 28.0322 191.2 28.0322C189.965 28.0322 189.003 28.4639 188.313 29.3274C187.624 30.1909 187.279 31.3998 187.279 32.9542V44.6547H180.772V23.4556H187.107V26.3051C187.767 25.2114 188.644 24.3766 189.735 23.801C190.856 23.2253 192.134 22.9374 193.571 22.9374C196.702 22.9374 198.799 24.2471 199.862 26.8664C200.552 25.6575 201.514 24.7076 202.75 24.0168C203.985 23.2972 205.35 22.9374 206.844 22.9374Z" fill="white"/>
</svg>
