<svg width="163" height="45" viewBox="0 0 163 45" fill="none" xmlns="http://www.w3.org/2000/svg">
<rect width="44.481" height="44.3875" rx="8" fill="#0B6755"/>
<path d="M34 10V16H10L17.5 10H34Z" fill="white"/>
<path d="M34 28L26.5 34H10V28H34Z" fill="white"/>
<path d="M34 17.9907H20.0091L10 26.0089H23.9909L34 17.9907Z" fill="#FFAF01"/>
<path d="M60.136 29.064H71.368V33H54.6V29.352L65.416 14.376H54.6V10.44H71.048V14.024L60.136 29.064ZM81.0508 16.904C83.3974 16.904 85.1254 17.4587 86.2348 18.568C87.3654 19.6773 87.9308 21.3947 87.9308 23.72V33H83.3548V30.664C83.0348 31.4747 82.5014 32.1147 81.7548 32.584C81.0081 33.032 80.1334 33.256 79.1308 33.256C78.0641 33.256 77.0934 33.0427 76.2188 32.616C75.3654 32.1893 74.6828 31.592 74.1708 30.824C73.6801 30.056 73.4348 29.2027 73.4348 28.264C73.4348 27.112 73.7228 26.2053 74.2988 25.544C74.8961 24.8827 75.8454 24.4027 77.1468 24.104C78.4481 23.8053 80.2294 23.656 82.4908 23.656H83.3228V23.08C83.3228 22.1413 83.1201 21.48 82.7148 21.096C82.3094 20.712 81.6054 20.52 80.6028 20.52C79.8348 20.52 78.9814 20.6587 78.0428 20.936C77.1041 21.2133 76.2081 21.5973 75.3548 22.088L74.0748 18.856C74.9708 18.3013 76.0694 17.8427 77.3708 17.48C78.6934 17.096 79.9201 16.904 81.0508 16.904ZM80.1868 29.928C81.1254 29.928 81.8828 29.6187 82.4588 29C83.0348 28.36 83.3228 27.5387 83.3228 26.536V25.992H82.7788C81.0508 25.992 79.8348 26.1307 79.1308 26.408C78.4481 26.6853 78.1068 27.1867 78.1068 27.912C78.1068 28.488 78.2988 28.968 78.6828 29.352C79.0881 29.736 79.5894 29.928 80.1868 29.928ZM97.6235 17.288H101.56V20.904H97.6235V33H92.7915V20.904H89.8155V17.288H92.7915C92.8342 15.0693 93.4742 13.4053 94.7115 12.296C95.9702 11.1653 97.8795 10.5253 100.44 10.376L102.2 10.28L102.488 13.832L100.984 13.896C99.7462 13.9387 98.8715 14.1733 98.3595 14.6C97.8688 15.0053 97.6235 15.688 97.6235 16.648V17.288ZM114.807 20.872L112.087 21.16C110.743 21.288 109.793 21.672 109.239 22.312C108.684 22.9307 108.407 23.7627 108.407 24.808V33H103.575V17.288H108.215V19.944C109.004 18.1307 110.636 17.1387 113.111 16.968L114.519 16.872L114.807 20.872ZM123.395 16.904C125.741 16.904 127.469 17.4587 128.579 18.568C129.709 19.6773 130.275 21.3947 130.275 23.72V33H125.699V30.664C125.379 31.4747 124.845 32.1147 124.099 32.584C123.352 33.032 122.477 33.256 121.475 33.256C120.408 33.256 119.437 33.0427 118.562 32.616C117.709 32.1893 117.027 31.592 116.515 30.824C116.024 30.056 115.779 29.2027 115.779 28.264C115.779 27.112 116.067 26.2053 116.643 25.544C117.24 24.8827 118.189 24.4027 119.491 24.104C120.792 23.8053 122.573 23.656 124.835 23.656H125.667V23.08C125.667 22.1413 125.464 21.48 125.059 21.096C124.653 20.712 123.949 20.52 122.947 20.52C122.179 20.52 121.325 20.6587 120.387 20.936C119.448 21.2133 118.552 21.5973 117.699 22.088L116.419 18.856C117.315 18.3013 118.413 17.8427 119.715 17.48C121.037 17.096 122.264 16.904 123.395 16.904ZM122.531 29.928C123.469 29.928 124.227 29.6187 124.803 29C125.379 28.36 125.667 27.5387 125.667 26.536V25.992H125.123C123.395 25.992 122.179 26.1307 121.475 26.408C120.792 26.6853 120.451 27.1867 120.451 27.912C120.451 28.488 120.643 28.968 121.027 29.352C121.432 29.736 121.933 29.928 122.531 29.928ZM153.247 16.904C155.039 16.904 156.373 17.448 157.247 18.536C158.122 19.624 158.559 21.288 158.559 23.528V33H153.727V23.688C153.727 22.6213 153.557 21.8533 153.215 21.384C152.895 20.9147 152.341 20.68 151.551 20.68C150.634 20.68 149.919 21 149.407 21.64C148.895 22.28 148.639 23.176 148.639 24.328V33H143.807V23.688C143.807 22.6213 143.637 21.8533 143.295 21.384C142.975 20.9147 142.421 20.68 141.631 20.68C140.714 20.68 139.999 21 139.487 21.64C138.975 22.28 138.719 23.176 138.719 24.328V33H133.887V17.288H138.591V19.4C139.082 18.5893 139.733 17.9707 140.543 17.544C141.375 17.1173 142.325 16.904 143.391 16.904C145.717 16.904 147.274 17.8747 148.063 19.816C148.575 18.92 149.29 18.216 150.207 17.704C151.125 17.1707 152.138 16.904 153.247 16.904Z" fill="#04091E"/>
</svg>
