<svg width="164" height="45" viewBox="0 0 164 45" fill="none" xmlns="http://www.w3.org/2000/svg">
<rect width="44.481" height="44.3875" rx="8" fill="#FFAF01"/>
<path d="M34 10V16H10L17.5 10H34Z" fill="white"/>
<path d="M34 28L26.5 34H10V28H34Z" fill="white"/>
<path d="M34 17.9907H20.0091L10 26.0089H23.9909L34 17.9907Z" fill="#0B6755"/>
<path d="M54.9534 33V29.352L66.2174 14.568H54.9534V10.44H72.0094V14.088L60.7134 28.872H72.4894V33H54.9534ZM80.0244 33.352C78.8511 33.352 77.8164 33.128 76.9204 32.68C76.0244 32.232 75.3098 31.624 74.7764 30.856C74.2644 30.088 74.0084 29.224 74.0084 28.264C74.0084 27.1333 74.3071 26.2267 74.9044 25.544C75.5018 24.8613 76.4724 24.3813 77.8164 24.104C79.1604 23.8053 80.9418 23.656 83.1604 23.656H84.3124V23.112C84.3124 22.1733 84.0991 21.512 83.6724 21.128C83.2458 20.7227 82.5204 20.52 81.4964 20.52C80.6431 20.52 79.7364 20.6587 78.7764 20.936C77.8378 21.192 76.8991 21.5867 75.9604 22.12L74.6484 18.888C75.2031 18.5253 75.8751 18.1947 76.6644 17.896C77.4751 17.5973 78.3178 17.3733 79.1924 17.224C80.0671 17.0533 80.8991 16.968 81.6884 16.968C84.1204 16.968 85.9338 17.5227 87.1284 18.632C88.3231 19.72 88.9204 21.416 88.9204 23.72V33H84.4084V30.632C84.0884 31.464 83.5444 32.1253 82.7764 32.616C82.0298 33.1067 81.1124 33.352 80.0244 33.352ZM81.1124 30.12C82.0084 30.12 82.7658 29.8107 83.3844 29.192C84.0031 28.5733 84.3124 27.7733 84.3124 26.792V26.152H83.1924C81.5498 26.152 80.3871 26.3013 79.7044 26.6C79.0218 26.8773 78.6804 27.368 78.6804 28.072C78.6804 28.6693 78.8831 29.16 79.2884 29.544C79.7151 29.928 80.3231 30.12 81.1124 30.12ZM93.7409 33V20.904H90.7649V17.288H93.7409C93.7836 15.0693 94.4236 13.4053 95.6609 12.296C96.9196 11.1653 98.8289 10.5253 101.389 10.376L103.149 10.248L103.437 13.768L101.933 13.864C100.696 13.928 99.8209 14.1947 99.3089 14.664C98.8183 15.112 98.5729 15.8053 98.5729 16.744V17.288H102.669V20.904H98.5729V33H93.7409ZM104.744 33V17.288H109.48V20.008C110.226 18.1733 111.826 17.16 114.28 16.968L115.688 16.872L115.976 20.936L113.256 21.224C110.866 21.4587 109.672 22.6747 109.672 24.872V33H104.744ZM123.087 33.352C121.914 33.352 120.879 33.128 119.983 32.68C119.087 32.232 118.372 31.624 117.839 30.856C117.327 30.088 117.071 29.224 117.071 28.264C117.071 27.1333 117.37 26.2267 117.967 25.544C118.564 24.8613 119.535 24.3813 120.879 24.104C122.223 23.8053 124.004 23.656 126.223 23.656H127.375V23.112C127.375 22.1733 127.162 21.512 126.735 21.128C126.308 20.7227 125.583 20.52 124.559 20.52C123.706 20.52 122.799 20.6587 121.839 20.936C120.9 21.192 119.962 21.5867 119.023 22.12L117.711 18.888C118.266 18.5253 118.938 18.1947 119.727 17.896C120.538 17.5973 121.38 17.3733 122.255 17.224C123.13 17.0533 123.962 16.968 124.751 16.968C127.183 16.968 128.996 17.5227 130.191 18.632C131.386 19.72 131.983 21.416 131.983 23.72V33H127.471V30.632C127.151 31.464 126.607 32.1253 125.839 32.616C125.092 33.1067 124.175 33.352 123.087 33.352ZM124.175 30.12C125.071 30.12 125.828 29.8107 126.447 29.192C127.066 28.5733 127.375 27.7733 127.375 26.792V26.152H126.255C124.612 26.152 123.45 26.3013 122.767 26.6C122.084 26.8773 121.743 27.368 121.743 28.072C121.743 28.6693 121.946 29.16 122.351 29.544C122.778 29.928 123.386 30.12 124.175 30.12ZM135.651 33V17.288H140.387V19.56C140.857 18.7493 141.497 18.12 142.307 17.672C143.139 17.2027 144.099 16.968 145.187 16.968C146.297 16.968 147.235 17.2133 148.003 17.704C148.793 18.1947 149.39 18.9413 149.795 19.944C150.286 19.0053 150.99 18.28 151.907 17.768C152.846 17.2347 153.881 16.968 155.011 16.968C156.803 16.968 158.137 17.512 159.011 18.6C159.886 19.6667 160.323 21.32 160.323 23.56V33H155.491V23.72C155.491 22.6747 155.321 21.9173 154.979 21.448C154.659 20.9573 154.105 20.712 153.315 20.712C152.398 20.712 151.683 21.032 151.171 21.672C150.659 22.312 150.403 23.2187 150.403 24.392V33H145.571V23.72C145.571 22.6747 145.401 21.9173 145.059 21.448C144.718 20.9573 144.163 20.712 143.395 20.712C142.478 20.712 141.763 21.032 141.251 21.672C140.739 22.312 140.483 23.2187 140.483 24.392V33H135.651Z" fill="#E7F0EE"/>
</svg>
