<svg width="44" height="43" viewBox="0 0 44 43" fill="none" xmlns="http://www.w3.org/2000/svg">
<path d="M19.1559 40.2925C16.9721 40.2925 15.1998 40.3143 13.4443 40.2807C12.7841 40.269 12.4868 40.4336 12.4935 41.1644C12.5069 42.6494 12.3104 42.8106 10.8623 42.8123C7.72654 42.8123 4.59075 42.8123 1.45495 42.8123C1.14821 42.8302 0.84055 42.8007 0.542775 42.725C0.121123 42.5855 -0.0519061 42.221 0.0152895 41.7876C0.0357101 41.5744 0.136826 41.377 0.297955 41.2358C0.459083 41.0947 0.66805 41.0205 0.882112 41.0283C1.77581 41.0014 2.67287 40.9896 3.56994 41.0199C4.1411 41.0384 4.36788 40.8519 4.36284 40.2522C4.34268 37.2564 4.34268 34.2611 4.36284 31.2664C4.36284 30.7373 4.14278 30.5155 3.67073 30.3996C2.74679 30.1745 1.82285 29.9259 0.91067 29.6739C0.30591 29.5059 -0.14598 29.1599 0.0438476 28.4745C0.233675 27.7891 0.76788 27.6429 1.38776 27.8781C4.49891 29.0708 7.74614 28.9885 10.9934 28.923C11.5712 28.9129 12.1139 28.9398 12.4129 29.5714C12.6145 29.9931 12.8194 29.6722 12.9824 29.5143C13.525 28.9902 14.0541 28.4493 14.595 27.9218C15.1395 27.3751 15.789 26.9445 16.5045 26.6557C17.2199 26.367 17.9865 26.2262 18.7578 26.2419C21.3062 26.252 23.8529 26.2419 26.4013 26.2419C28.6288 26.2419 29.9543 27.3422 30.3222 29.563C30.4364 30.2585 30.7673 29.9578 31.0731 29.8318C33.351 28.8978 35.6088 27.9285 37.9052 27.0214C39.4171 26.4216 40.8416 26.6585 42.0142 27.8176C43.1616 28.9532 43.39 30.3375 42.876 31.8494C42.7257 32.2897 42.4863 32.6943 42.1727 33.038C41.8591 33.3816 41.4781 33.657 41.0533 33.8468C40.0941 34.3003 39.1013 34.6867 38.1219 35.0983C37.5759 35.3301 37.0921 35.236 36.8452 34.6867C36.5814 34.1055 36.825 33.6502 37.4063 33.3982C38.2462 33.0287 39.108 32.6792 39.953 32.3063C41.0802 31.8023 41.527 30.8381 41.1289 29.7965C40.7442 28.7886 39.659 28.3132 38.5553 28.7718C35.1468 30.1896 31.6678 31.4596 28.3332 33.0371C27.8288 33.2825 27.2747 33.409 26.7138 33.4066C24.8105 33.3949 22.9071 33.4066 21.0021 33.4066C20.3503 33.4066 19.7187 33.3697 19.6582 32.5146C19.6112 31.8746 20.0648 31.5319 21.0206 31.5201C22.9508 31.4983 24.8844 31.5369 26.8146 31.4949C27.1103 31.4942 27.4005 31.4144 27.6551 31.2637C27.9096 31.113 28.1192 30.897 28.2621 30.6381C28.405 30.3791 28.4761 30.0867 28.4679 29.791C28.4597 29.4953 28.3726 29.2073 28.2156 28.9566C28.0687 28.6996 27.853 28.4887 27.5927 28.3477C27.3324 28.2067 27.0378 28.1412 26.7423 28.1587H18.3429C17.3601 28.1587 16.5672 28.5904 15.8802 29.2607C14.8605 30.2585 13.8425 31.2597 12.8093 32.2441C12.7078 32.3389 12.6283 32.4548 12.5767 32.5837C12.525 32.7127 12.5023 32.8514 12.5103 32.99C12.5103 34.5859 12.5187 36.1818 12.5103 37.7777C12.5103 38.2531 12.6514 38.5101 13.1823 38.4967C16.957 38.411 20.7418 38.6647 24.5098 38.3438C26.1896 38.196 27.6915 37.5039 29.2134 36.8588C29.625 36.6908 30.0349 36.5027 30.4532 36.3431C30.9958 36.1381 31.4611 36.2423 31.7266 36.7933C32.0004 37.3728 31.6963 37.8012 31.1924 38.0213C29.2706 38.8612 27.3824 39.7936 25.2808 40.1279C23.0936 40.4672 20.9064 40.1917 19.1559 40.2925ZM6.14688 35.955C6.14688 37.3796 6.16368 38.8108 6.14688 40.227C6.13681 40.7864 6.29976 41.0468 6.90452 41.0249C7.87885 40.9896 8.85823 40.9913 9.83424 41.0249C10.4323 41.0451 10.6053 40.7914 10.602 40.2303C10.5852 37.3824 10.5852 34.5344 10.602 31.6864C10.602 31.0951 10.434 30.8078 9.79392 30.8297C8.84647 30.8599 7.89565 30.8616 6.94651 30.8297C6.30815 30.8078 6.13177 31.0901 6.14353 31.6847C6.16704 33.0992 6.14688 34.5221 6.14688 35.955Z" fill="#0B6755"/>
<path d="M21.5276 0.00533086C22.9857 -0.0601848 24.2154 0.480739 25.2233 1.48699C25.3945 1.66621 25.6022 1.80663 25.8323 1.89878C26.0624 1.99094 26.3096 2.03268 26.5572 2.0212C27.9161 2.03622 29.2144 2.58617 30.1706 3.55184C31.1268 4.51752 31.664 5.82112 31.6657 7.18014C31.6616 7.41366 31.7052 7.64557 31.7939 7.86164C31.8826 8.07771 32.0144 8.2734 32.1814 8.43669C34.2343 10.5903 34.2175 13.6897 32.1428 15.8282C31.9855 15.9824 31.862 16.1676 31.7802 16.372C31.6983 16.5765 31.6599 16.7958 31.6674 17.0159C31.6203 19.9473 29.3911 22.1933 26.4396 22.2706C26.2063 22.2668 25.9748 22.3106 25.759 22.3992C25.5433 22.4879 25.3479 22.6196 25.1847 22.7863C24.2201 23.7447 22.9167 24.2843 21.5569 24.2881C20.1972 24.2918 18.8907 23.7595 17.9208 22.8065C17.7602 22.6373 17.5669 22.5025 17.3526 22.4101C17.1384 22.3177 16.9077 22.2697 16.6744 22.2689C13.6758 22.1967 11.4667 19.9658 11.418 16.9605C11.4219 16.7541 11.3836 16.5491 11.3053 16.3581C11.227 16.1672 11.1104 15.9943 10.9627 15.85C8.85281 13.6662 8.83937 10.5987 10.9376 8.39806C11.0941 8.24343 11.2174 8.0585 11.3 7.85458C11.3826 7.65066 11.4228 7.43202 11.418 7.21206C11.4701 4.28065 13.6674 2.07159 16.5769 2.03632C16.8104 2.043 17.0426 2.00021 17.2583 1.91074C17.474 1.82128 17.6683 1.68717 17.8285 1.51723C18.8985 0.450502 20.0476 0.00533086 21.5276 0.00533086ZM29.759 7.67067C29.8766 5.12731 28.1178 3.55326 25.6937 3.93459C25.1141 4.02531 24.7412 3.81196 24.3985 3.38023C22.7186 1.27701 20.3668 1.28205 18.6869 3.38863C18.366 3.79012 18.0149 4.01859 17.4706 3.94803C14.7963 3.59861 13.1735 5.10883 13.3616 7.81178C13.412 8.54253 13.1684 8.99778 12.5973 9.43791C10.82 10.8053 10.7746 13.352 12.5318 14.738C13.1836 15.252 13.4154 15.7644 13.3532 16.5858C13.1668 19.0267 14.7778 20.5857 17.217 20.3253C17.9662 20.2446 18.3929 20.4781 18.8414 21.051C20.2593 22.8888 22.8328 22.8854 24.2473 21.0392C24.6925 20.4597 25.1343 20.2497 25.8751 20.327C28.3177 20.5823 29.922 19.0234 29.7389 16.5758C29.675 15.7526 29.9237 15.247 30.5704 14.7363C32.2503 13.4125 32.2705 10.8423 30.6141 9.54542C29.9102 8.99274 29.539 8.43501 29.7573 7.6757L29.759 7.67067Z" fill="#0B6755"/>
<path d="M21.5144 4.88871C22.4684 4.87714 23.4151 5.05521 24.2996 5.41257C25.1841 5.76994 25.9888 6.29948 26.667 6.97044C27.3451 7.64141 27.8832 8.44042 28.25 9.32108C28.6167 10.2017 28.8049 11.1465 28.8035 12.1005C28.8001 14.0257 28.0399 15.8725 26.6869 17.2421C25.3339 18.6118 23.4966 19.3945 21.5716 19.4214C17.6188 19.45 14.3027 16.1456 14.2825 12.1593C14.2738 11.2053 14.4547 10.2592 14.8146 9.37566C15.1745 8.49216 15.7062 7.68893 16.379 7.01256C17.0517 6.3362 17.8521 5.80017 18.7337 5.43559C19.6153 5.071 20.5605 4.88512 21.5144 4.88871ZM26.8901 12.166C26.9035 9.07668 24.6558 6.80379 21.5783 6.79035C18.5007 6.77691 16.2026 9.02628 16.1926 12.0938C16.1825 15.1612 18.4738 17.4845 21.4976 17.4963C24.5584 17.5064 26.8817 15.2083 26.8918 12.166H26.8901Z" fill="#0B6755"/>
<path d="M18.9946 11.2825C19.4986 11.296 19.8027 11.7748 20.1504 12.1527C20.4981 12.5307 20.735 12.5374 21.0911 12.1527C21.8152 11.3766 22.5846 10.6408 23.3355 9.89496C23.7991 9.42963 24.3283 9.17261 24.8608 9.72697C25.3648 10.2427 25.1044 10.7534 24.666 11.1918C23.6009 12.2591 22.537 13.3231 21.4742 14.3836C20.9164 14.9413 20.3587 14.9548 19.7943 14.3836C19.2651 13.8494 18.7242 13.3219 18.2118 12.7709C18.0827 12.6407 17.999 12.4722 17.9733 12.2906C17.9475 12.109 17.9811 11.924 18.069 11.763C18.232 11.4421 18.5092 11.2809 18.9946 11.2825Z" fill="#0B6755"/>
</svg>
