<svg width="16" height="15" viewBox="0 0 16 15" fill="none" xmlns="http://www.w3.org/2000/svg">
<g id="Icon">
<path id="Vector" d="M0.998047 3.2511C1.07868 2.99795 1.12266 2.72646 1.24361 2.49166C1.65778 1.66619 2.34317 1.22594 3.27046 1.17458C3.53068 1.1599 3.79458 1.17091 4.07313 1.17091C4.07313 0.983801 4.07313 0.807701 4.07313 0.635269C4.07313 0.264724 4.31503 0.00424146 4.65589 0.000572699C4.99675 0.000572699 5.23866 0.261055 5.24232 0.6316C5.24232 0.807701 5.24232 0.980132 5.24232 1.16357C6.12196 1.16357 6.98694 1.16357 7.87758 1.16357C7.87758 0.969126 7.87025 0.771013 7.87758 0.5729C7.89224 0.169336 8.27342 -0.0948151 8.65093 0.0335916C8.88184 0.110636 9.03944 0.323424 9.04677 0.576568C9.0541 0.767344 9.04677 0.95812 9.04677 1.1599C9.93375 1.1599 10.8134 1.1599 11.7114 1.1599C11.7114 0.965457 11.704 0.767344 11.7114 0.569231C11.7333 0.110636 12.2208 -0.149847 12.6057 0.0922918C12.7853 0.206023 12.8732 0.371118 12.8805 0.580237C12.8842 0.771013 12.8805 0.95812 12.8805 1.17091C13.0528 1.17091 13.2177 1.17458 13.379 1.17091C13.7455 1.16357 14.1084 1.18925 14.4566 1.32133C15.3289 1.64418 15.9593 2.49166 15.974 3.42353C15.9923 4.56451 15.9813 5.70917 15.9776 6.85015C15.9776 7.18768 15.7174 7.44082 15.3949 7.44082C15.065 7.44082 14.8121 7.18401 14.8121 6.83915C14.8084 5.75686 14.8121 4.67091 14.8121 3.58862C14.8121 3.086 14.6068 2.70078 14.1487 2.47332C14.0168 2.40728 13.8628 2.36693 13.7162 2.35959C13.445 2.34124 13.1701 2.35592 12.8805 2.35592C12.8805 2.53202 12.8805 2.70812 12.8805 2.88055C12.8769 3.2621 12.635 3.52625 12.2868 3.52259C11.9459 3.51892 11.7114 3.25843 11.7077 2.88422C11.7077 2.71546 11.7077 2.54303 11.7077 2.36326C10.8207 2.36326 9.94108 2.36326 9.04311 2.36326C9.04311 2.52468 9.04311 2.68244 9.04311 2.84386C9.04311 3.25477 8.81587 3.52259 8.46035 3.52259C8.10482 3.52625 7.87392 3.25843 7.87025 2.84753C7.87025 2.68611 7.87025 2.52835 7.87025 2.35959C6.99061 2.35959 6.12563 2.35959 5.23499 2.35959C5.23499 2.55403 5.24232 2.75215 5.23499 2.94659C5.22033 3.35015 4.83915 3.6143 4.4653 3.48957C4.23073 3.41252 4.07313 3.19607 4.06946 2.93191C4.0658 2.74481 4.06946 2.55403 4.06946 2.33757C3.72494 2.35592 3.38774 2.33391 3.06887 2.39628C2.54475 2.48433 2.20022 2.94292 2.1709 3.48957C2.16724 3.52992 2.1709 3.56661 2.1709 3.60697C2.1709 6.59334 2.1709 9.58338 2.1709 12.5698C2.1709 13.076 2.36882 13.4759 2.8343 13.6961C3.01389 13.7804 3.22647 13.8171 3.42806 13.8208C4.86847 13.8318 6.30522 13.8281 7.74564 13.8245C7.93623 13.8245 8.10482 13.8648 8.24044 14.0042C8.52265 14.2904 8.43469 14.7673 8.07184 14.9398C8.02785 14.9618 7.98387 14.9801 7.93989 14.9985C6.31988 14.9985 4.69987 14.9985 3.07987 14.9985C3.05788 14.9911 3.03588 14.9765 3.01389 14.9728C2.18923 14.8407 1.59181 14.3968 1.23262 13.6484C1.12266 13.4209 1.07868 13.1641 1.00171 12.9183C0.998047 9.69711 0.998047 6.47594 0.998047 3.2511Z" fill="#0B6755"/>
<path id="Vector_2" d="M12.1512 15.0002C11.8176 14.9158 11.4731 14.8644 11.1506 14.747C9.62953 14.1894 8.66925 12.5054 8.95147 10.9132C9.2007 9.50802 10.0034 8.5358 11.3558 8.09922C12.7449 7.64796 13.9984 7.97815 15.01 9.03109C15.941 10.0033 16.2195 11.1883 15.8273 12.4724C15.4095 13.8408 14.4492 14.6663 13.0381 14.9451C12.9392 14.9635 12.8366 14.9818 12.7376 15.0002C12.5397 15.0002 12.3454 15.0002 12.1512 15.0002ZM14.8121 11.4525C14.8121 10.1464 13.7382 9.07878 12.4371 9.08245C11.1359 9.08612 10.0767 10.1501 10.073 11.4488C10.0693 12.7549 11.1359 13.8262 12.4407 13.8262C13.7455 13.8298 14.8158 12.7585 14.8121 11.4525Z" fill="#0B6755"/>
<path id="Vector_3" d="M5.24302 6.15319C5.24302 6.47593 4.97556 6.73998 4.65314 6.73631C4.33072 6.73264 4.07059 6.46492 4.07426 6.14219C4.07792 5.82679 4.34172 5.56641 4.65681 5.56641C4.97922 5.56641 5.24302 5.83046 5.24302 6.15319Z" fill="#0B6755"/>
<path id="Vector_4" d="M7.20609 6.73659C6.88367 6.74026 6.61987 6.47253 6.61621 6.15347C6.61621 5.83074 6.88367 5.56668 7.20242 5.57035C7.51751 5.57402 7.77764 5.83074 7.78497 6.14613C7.7923 6.4652 7.5285 6.73659 7.20609 6.73659Z" fill="#0B6755"/>
<path id="Vector_5" d="M10.3329 6.15695C10.3329 6.47969 10.0654 6.74374 9.74299 6.74007C9.42057 6.7364 9.16044 6.46868 9.1641 6.14595C9.17143 5.83055 9.43156 5.57017 9.74665 5.57017C10.0727 5.5665 10.3365 5.83422 10.3329 6.15695Z" fill="#0B6755"/>
<path id="Vector_6" d="M12.2972 6.73635C11.9747 6.73635 11.7109 6.4723 11.7109 6.14956C11.7109 5.82683 11.9784 5.56278 12.3008 5.56644C12.6159 5.57011 12.876 5.8305 12.8797 6.1459C12.8834 6.46863 12.6196 6.73635 12.2972 6.73635Z" fill="#0B6755"/>
<path id="Vector_7" d="M4.6513 8.11723C4.97372 8.11356 5.24118 8.37761 5.24118 8.70034C5.24118 9.02308 4.97738 9.28713 4.65496 9.28713C4.33987 9.28713 4.07608 9.02674 4.07241 8.71135C4.06509 8.38861 4.32888 8.12089 4.6513 8.11723Z" fill="#0B6755"/>
<path id="Vector_8" d="M7.20633 9.28737C6.88391 9.29104 6.62012 9.02332 6.62012 8.70425C6.62012 8.38152 6.88758 8.11746 7.20999 8.12113C7.52508 8.1248 7.78522 8.38152 7.78888 8.69692C7.79254 9.01598 7.52875 9.2837 7.20633 9.28737Z" fill="#0B6755"/>
<path id="Vector_9" d="M5.24137 11.2599C5.23404 11.5827 4.96292 11.8394 4.6405 11.8321C4.31808 11.8247 4.06161 11.5497 4.07261 11.2269C4.0836 10.9115 4.35106 10.6585 4.66615 10.6621C4.9849 10.6695 5.2487 10.9409 5.24137 11.2599Z" fill="#0B6755"/>
<path id="Vector_10" d="M7.2034 11.836C6.88098 11.836 6.61719 11.5719 6.61719 11.2492C6.61719 10.9264 6.88465 10.6624 7.20706 10.6661C7.52215 10.6697 7.78229 10.9301 7.78595 11.2455C7.78961 11.5682 7.52582 11.8323 7.2034 11.836Z" fill="#0B6755"/>
<path id="Vector_11" d="M13.0269 10.8707C13.1441 10.8707 13.2357 10.867 13.3273 10.8707C13.6424 10.8927 13.8805 11.1494 13.8769 11.4611C13.8732 11.7655 13.6351 12.0222 13.3236 12.0332C13.0159 12.0442 12.7081 12.0442 12.404 12.0332C12.1072 12.0222 11.8691 11.7839 11.8618 11.4831C11.8508 11.065 11.8508 10.6433 11.8618 10.2252C11.8691 9.90614 12.1292 9.66776 12.4406 9.66776C12.7521 9.66776 13.0085 9.9098 13.0232 10.2252C13.0342 10.4342 13.0269 10.6433 13.0269 10.8707Z" fill="#0B6755"/>
</g>
</svg>
