<svg width="23" height="24" viewBox="0 0 23 24" fill="none" xmlns="http://www.w3.org/2000/svg">
<ellipse cx="11.5" cy="11.5023" rx="11.5" ry="11.5023" fill="#0B6755"/>
<path d="M9.02895 12.2402C9.39842 11.858 9.75147 11.4827 10.1209 11.1144C11.7959 9.43957 13.6227 7.89681 15.7164 6.59728C15.934 6.46177 16.1598 6.3332 16.3897 6.20811C16.4636 6.16989 16.558 6.13862 16.6442 6.13862C17.1163 6.13167 17.5884 6.13515 18.0564 6.13515C18.2042 6.13515 18.3233 6.17684 18.3766 6.29846C18.43 6.4166 18.389 6.51736 18.2781 6.60423C16.361 8.08444 14.7804 9.80789 13.2779 11.5869C11.8944 13.2235 10.6136 14.9192 9.41074 16.66C9.36968 16.7225 9.31632 16.7885 9.24653 16.8268C9.09874 16.9136 8.93042 16.865 8.81958 16.7156C8.63484 16.4654 8.46242 16.2083 8.26537 15.965C7.11179 14.5578 5.95 13.1505 4.79231 11.7468C4.74715 11.6946 4.69789 11.6425 4.65684 11.5869C4.57473 11.4757 4.57884 11.3541 4.68557 11.2638C4.99347 10.9997 5.30958 10.7356 5.62568 10.475C5.74884 10.3743 5.88021 10.3812 6.04442 10.475C6.55347 10.7739 7.06252 11.0761 7.56747 11.375C8.05189 11.6634 8.53632 11.9483 9.02895 12.2402Z" fill="white"/>
</svg>
