<svg width="17" height="15" viewBox="0 0 17 15" fill="none" xmlns="http://www.w3.org/2000/svg">
<g id="Icon">
<path id="Vector" d="M16.9987 7.81738C17.0167 9.09481 16.7211 10.0857 16.1672 10.995C16.1058 11.084 16.0667 11.1872 16.0532 11.2955C16.0398 11.4038 16.0524 11.5138 16.0901 11.6158C16.3619 12.4655 16.6164 13.3211 16.8786 14.174C16.9499 14.4055 16.9795 14.6337 16.8008 14.8273C16.59 15.0555 16.3548 15.0343 16.0984 14.8983C15.2887 14.4698 14.4713 14.056 13.6635 13.6229C13.4457 13.5055 13.26 13.5048 13.0261 13.585C10.4987 14.4546 8.21286 14.0235 6.20275 12.2048C6.05692 12.0602 5.87251 11.9639 5.67323 11.9282C5.22796 11.8603 4.79203 11.7383 4.3745 11.5648C4.19714 11.4898 4.05319 11.5217 3.88804 11.6085C3.07898 12.0383 2.26414 12.4569 1.4538 12.8853C1.21089 13.014 0.97441 13.0956 0.739855 12.8853C0.505299 12.6751 0.547069 12.4171 0.629967 12.1518C0.892798 11.2995 1.15049 10.4445 1.41717 9.59358C1.47244 9.4145 1.48144 9.26195 1.37797 9.09149C-0.407219 6.26204 0.554781 2.52128 3.6175 0.823343C4.82812 0.149776 6.21106 -0.120533 7.57647 0.0495237C8.94188 0.21958 10.2228 0.821666 11.2434 1.77313C11.4422 1.95551 11.6876 2.07501 11.9503 2.11735C14.017 2.55179 15.5811 3.68264 16.5129 5.66843C16.8259 6.3392 16.9918 7.07292 16.9987 7.81738ZM15.5477 13.3987C15.3581 12.7838 15.2264 12.2585 15.0336 11.7558C14.864 11.3094 14.9212 10.9599 15.1898 10.5619C16.2822 8.9343 16.218 6.85167 15.0773 5.26384C13.1707 2.61082 9.16522 2.31036 6.86401 4.64104C4.96828 6.55918 4.96186 9.43174 6.84987 11.3525C8.39215 12.9191 10.8502 13.3927 12.8744 12.49C13.2324 12.3302 13.5312 12.3222 13.8737 12.5212C14.3942 12.8243 14.9372 13.0836 15.5477 13.3987ZM5.02805 10.6588C4.15537 8.71343 4.16501 6.85035 5.22083 5.0569C6.26701 3.28601 7.87356 2.38 9.85668 2.02914C7.79259 0.577938 4.45612 0.717222 2.55397 3.07974C1.37669 4.5389 1.14792 6.70576 2.13562 8.27635C2.54754 8.93032 2.63236 9.48347 2.33419 10.1686C2.17289 10.54 2.09 10.9486 1.95376 11.4089C2.49549 11.1264 2.97681 10.9088 3.42536 10.6329C3.8739 10.357 4.28518 10.2694 4.74337 10.5613C4.81213 10.605 4.90016 10.6163 5.02805 10.6588Z" fill="#0B6755"/>
<path id="Vector_2" d="M9.2644 8.0131C9.26516 8.11936 9.23521 8.22344 9.17838 8.31205C9.12156 8.40067 9.04044 8.46979 8.94537 8.5106C8.85031 8.55141 8.74562 8.56205 8.64467 8.54117C8.54372 8.52028 8.4511 8.46882 8.37861 8.39335C8.30613 8.31788 8.25709 8.22183 8.23774 8.11746C8.2184 8.01309 8.22963 7.90513 8.27 7.80738C8.31037 7.70963 8.37805 7.62651 8.46441 7.56864C8.55076 7.51077 8.65186 7.48078 8.75481 7.48249C8.89037 7.48372 9.01998 7.54016 9.11542 7.63953C9.21086 7.73891 9.26441 7.87317 9.2644 8.0131Z" fill="#0B6755"/>
<path id="Vector_3" d="M11.1919 7.99587C11.1968 8.10234 11.1709 8.20792 11.1174 8.29908C11.0638 8.39024 10.9852 8.46283 10.8914 8.50755C10.7977 8.55226 10.6931 8.56706 10.5911 8.55006C10.4892 8.53306 10.3945 8.48502 10.3191 8.41211C10.2438 8.33919 10.1913 8.24472 10.1683 8.1408C10.1453 8.03688 10.1529 7.92824 10.1901 7.8288C10.2273 7.72937 10.2925 7.64366 10.3772 7.58268C10.4619 7.52169 10.5623 7.4882 10.6656 7.48649C10.8005 7.48307 10.9313 7.53457 11.0298 7.62988C11.1283 7.72519 11.1865 7.85665 11.1919 7.99587Z" fill="#0B6755"/>
<path id="Vector_4" d="M12.5766 8.52336C12.4781 8.51529 12.384 8.47742 12.3062 8.41449C12.2283 8.35155 12.1702 8.26635 12.139 8.16951C12.1078 8.07267 12.1049 7.96849 12.1308 7.86998C12.1566 7.77148 12.21 7.68301 12.2842 7.61563C12.3585 7.54824 12.4503 7.50494 12.5483 7.49111C12.6463 7.47729 12.746 7.49356 12.8351 7.5379C12.9241 7.58224 12.9985 7.65267 13.049 7.74041C13.0995 7.82815 13.1239 7.9293 13.119 8.03122C13.1094 8.17037 13.0472 8.30003 12.9456 8.39213C12.8441 8.48424 12.7116 8.53138 12.5766 8.52336Z" fill="#0B6755"/>
</g>
</svg>
