<svg width="26" height="18" viewBox="0 0 26 18" fill="none" xmlns="http://www.w3.org/2000/svg">
<path d="M12.3073 17.9912C10.4342 17.9912 8.56107 18.0152 6.68795 17.9852C4.20835 17.9451 2.26132 16.9343 1.16479 14.6793C-0.425846 11.4034 1.61231 7.53447 5.24312 6.85926C5.70381 6.77311 5.86581 6.60481 5.92251 6.12996C6.30523 2.92423 9.18477 0.259459 12.4693 0.0240376C15.1929 -0.171312 17.3749 0.825471 19.0262 2.96129C19.2129 3.21639 19.4879 3.39467 19.7988 3.46219C23.381 4.34477 25.6135 7.23694 25.654 10.603C25.6945 14.0822 23.0438 17.1727 19.5791 17.8159C18.949 17.9319 18.3094 17.9903 17.6685 17.9902C15.8831 17.9935 14.0961 17.9938 12.3073 17.9912ZM12.2061 16.4534C13.9779 16.4534 15.7495 16.4534 17.5207 16.4534C18.0094 16.4559 18.4978 16.4268 18.9827 16.3663C21.6759 16.0156 23.871 13.6684 24.0452 11.0888C24.2598 8.02435 22.1599 5.43171 19.413 4.91278C18.6952 4.77654 18.2365 4.475 17.8031 3.88494C16.3492 1.89939 14.3313 1.09796 11.9074 1.61088C9.62318 2.09975 8.13987 3.52931 7.53339 5.79135C7.39468 6.30728 7.37443 6.84324 7.36835 7.37919C7.36228 7.91515 7.09802 8.1646 6.56139 8.21068C6.29308 8.23172 6.02477 8.26077 5.75747 8.29283C5.18588 8.36294 4.63559 8.5512 4.1423 8.84538C3.64902 9.13957 3.22378 9.53311 2.89419 10.0005C2.56459 10.4678 2.33801 10.9985 2.22916 11.5581C2.1203 12.1177 2.13161 12.6937 2.26233 13.2487C2.70176 15.1521 4.34605 16.4394 6.38218 16.4544C8.32314 16.4634 10.2631 16.4524 12.204 16.4534H12.2061Z" fill="#0B6755"/>
<path d="M12.3022 10.925C12.3022 10.3409 12.3022 9.74986 12.3022 9.1578C12.3022 8.74106 12.2921 8.32231 12.3295 7.90857C12.37 7.46377 12.5978 7.15422 13.097 7.13919C13.5526 7.12517 13.8715 7.39465 13.8989 7.92159C13.9424 8.75408 13.9222 9.58958 13.9282 10.4261C13.9282 10.5904 13.9282 10.7537 13.9282 10.9861C14.313 10.8178 14.4882 10.5252 14.7241 10.3079C15.1159 9.94822 15.4743 9.90714 15.7953 10.1907C16.1335 10.4912 16.1567 10.924 15.8054 11.3016C15.1675 11.9889 14.5195 12.6701 13.8472 13.3253C13.341 13.8201 12.7963 13.8141 12.284 13.3132C11.6248 12.6691 10.988 12.0009 10.3602 11.3267C10.0068 10.948 10.021 10.5252 10.3531 10.2157C10.6852 9.90614 11.0892 9.93119 11.479 10.2848C11.7129 10.4982 11.9417 10.7186 12.1736 10.934C12.1797 10.938 12.203 10.93 12.3022 10.925Z" fill="#0B6755"/>
</svg>
