<svg width="16" height="18" viewBox="0 0 16 18" fill="none" xmlns="http://www.w3.org/2000/svg">
<path d="M0.381836 10.1276C0.381836 8.10672 0.381836 6.08606 0.381836 4.06563C0.381836 2.93861 1.05637 2.24332 2.17202 2.25734C2.53395 2.26225 2.61731 2.1431 2.61314 1.79756C2.60064 0.695761 3.29393 0.00748869 4.38527 0.00608692C6.38733 0.00398425 8.39009 0.011694 10.3921 0.000479807C10.5885 -0.00469415 10.7838 0.0320261 10.9652 0.108238C11.1465 0.18445 11.3099 0.298437 11.4446 0.442741C12.8478 1.86695 14.2546 3.28811 15.6648 4.70625C15.7767 4.81527 15.8645 4.94709 15.9221 5.09295C15.9797 5.23881 16.0059 5.39536 15.9989 5.55222C15.9913 8.36629 15.9989 11.1804 15.9933 13.9951C15.9933 15.0465 15.2987 15.7473 14.2566 15.7565C13.778 15.7565 13.778 15.7565 13.7738 16.2632C13.7641 17.2907 13.066 17.9972 12.0434 17.9979C8.73303 18.0007 5.42173 18.0007 2.1095 17.9979C1.08832 17.9965 0.386004 17.2872 0.381836 16.2611C0.381836 14.2154 0.381836 12.1709 0.381836 10.1276ZM3.767 7.87777C3.767 9.86315 3.767 11.849 3.767 13.8353C3.767 14.3757 3.96915 14.5832 4.50058 14.5839C7.6961 14.5867 10.8916 14.5867 14.0871 14.5839C14.6248 14.5839 14.8305 14.3806 14.8305 13.8458C14.8339 11.2413 14.8305 8.63753 14.8381 6.03303C14.8381 5.73445 14.7346 5.65665 14.4553 5.66016C13.3438 5.67277 12.2324 5.66646 11.1209 5.66436C10.5735 5.66436 10.388 5.47792 10.3866 4.93193C10.3866 3.81051 10.3755 2.68909 10.3921 1.56767C10.397 1.25577 10.2963 1.17096 9.99479 1.17307C8.20044 1.18498 6.40678 1.17797 4.61243 1.17937C3.94137 1.17937 3.76839 1.35319 3.7677 2.02745C3.76677 3.97779 3.76677 5.92789 3.7677 7.87777H3.767ZM1.54403 10.0926C1.54403 12.078 1.54403 14.0638 1.54403 16.0501C1.54403 16.6193 1.73924 16.8267 2.28386 16.8274C5.47938 16.8274 8.67352 16.8274 11.8663 16.8274C12.0054 16.8349 12.1445 16.8109 12.2733 16.7573C12.5297 16.6361 12.6742 16.2856 12.6033 15.9422C12.5394 15.6352 12.29 15.7614 12.1219 15.7607C9.55159 15.753 6.98128 15.7565 4.41097 15.7544C3.27517 15.7544 2.60481 15.0724 2.60481 13.9229C2.60481 10.6054 2.60481 7.28925 2.60481 3.97452C2.60481 3.8813 2.59925 3.78738 2.60481 3.69416C2.61662 3.50562 2.54367 3.42502 2.34569 3.41381C1.80245 3.38858 1.54612 3.61426 1.54542 4.16937C1.54311 6.1454 1.54287 8.12004 1.54473 10.0933L1.54403 10.0926ZM13.8586 4.48617L11.5495 2.15922C11.5495 2.82646 11.5495 3.53576 11.5495 4.24436C11.5495 4.39645 11.6016 4.48967 11.7683 4.48967C12.4797 4.48617 13.1917 4.48617 13.8586 4.48617Z" fill="#0B6755"/>
</svg>
