<svg width="72" height="72" viewBox="0 0 72 72" fill="none" xmlns="http://www.w3.org/2000/svg">
<circle cx="36" cy="36" r="35.5" fill="white" stroke="#E0DEF7"/>
<circle opacity="0.1" cx="36" cy="36" r="31.5" fill="#0B6755"/>
<path fill-rule="evenodd" clip-rule="evenodd" d="M24.0011 30.6755C24.0004 30.6135 24 30.5514 24 30.4893H24.0145C24.0076 30.5511 24.0031 30.6132 24.0011 30.6755ZM24.006 30.9189C24.1593 36.361 27.2146 40.9852 31.5 42.9236V48.0163C31.5 50.2314 33.8469 51.6721 35.8416 50.6815L38.8416 49.1916C39.858 48.6868 40.5 47.655 40.5 46.5264V42.9236C44.8977 40.9344 48 36.1167 48 30.4893H47.9854C47.9924 30.5514 47.9968 30.6139 47.9988 30.6766C47.9978 30.7572 47.9962 30.8376 47.9939 30.9178C47.7915 33.7396 42.4991 36 36 36C29.5017 36 24.2099 33.7402 24.006 30.9189Z" fill="#0B6755"/>
<ellipse opacity="0.4" cx="36" cy="30.75" rx="12" ry="5.25" fill="#0B6755"/>
<path fill-rule="evenodd" clip-rule="evenodd" d="M39 24.375C39.6213 24.375 40.125 24.8787 40.125 25.5V28.5C40.125 29.1213 39.6213 29.625 39 29.625C38.3787 29.625 37.875 29.1213 37.875 28.5V25.5C37.875 24.8787 38.3787 24.375 39 24.375Z" fill="#0B6755"/>
<path fill-rule="evenodd" clip-rule="evenodd" d="M33 27.375C33.6213 27.375 34.125 27.8787 34.125 28.5V30C34.125 30.6213 33.6213 31.125 33 31.125C32.3787 31.125 31.875 30.6213 31.875 30V28.5C31.875 27.8787 32.3787 27.375 33 27.375Z" fill="#0B6755"/>
<path fill-rule="evenodd" clip-rule="evenodd" d="M33 19.875C33.6213 19.875 34.125 20.3787 34.125 21V24C34.125 24.6213 33.6213 25.125 33 25.125C32.3787 25.125 31.875 24.6213 31.875 24V21C31.875 20.3787 32.3787 19.875 33 19.875Z" fill="#0B6755"/>
</svg>
