<svg width="43" height="43" viewBox="0 0 43 43" fill="none" xmlns="http://www.w3.org/2000/svg">
<path d="M16.4199 0C22.8824 0.269246 27.7875 3.12392 30.9192 8.85334C31.3006 9.5507 31.498 9.42193 31.9598 8.97876C32.5671 8.39512 32.9234 7.90011 32.7143 6.91677C32.3462 5.18424 33.3684 3.53866 34.9476 2.84297C35.6835 2.52951 36.4985 2.45173 37.2805 2.62034C38.0624 2.78894 38.7728 3.19565 39.314 3.78449C39.8611 4.38771 40.2017 5.14955 40.2862 5.9594C40.3708 6.76925 40.1949 7.58496 39.7841 8.28809C39.3655 9.02268 38.7128 9.59592 37.9301 9.91631C37.1475 10.2367 36.2801 10.2858 35.4663 10.0557C34.9878 9.93199 34.7134 10.0675 34.3604 10.3635C32.9753 11.5341 32.2676 12.7047 32.6373 14.7717C33.2128 17.9759 32.47 21.1534 30.864 24.0415C30.4993 24.6987 30.5294 25.0449 31.135 25.5466C34.511 28.3338 37.8608 31.1483 41.1843 33.9902C42.8573 35.4184 43.3592 37.2763 42.7519 39.3584C41.6762 43.0292 37.0087 44.2533 34.3521 41.499C32.4784 39.5574 30.8172 37.4118 29.0689 35.3515C27.8594 33.9266 26.6398 32.5085 25.4788 31.0519C25.0623 30.5285 24.7544 30.5 24.1689 30.7944C17.9238 33.925 11.9297 33.4484 6.32873 29.2893C1.1878 25.463 -1.12086 18.5495 0.523639 12.3519C2.23505 5.89498 7.59347 1.06695 13.9841 0.188974C14.7922 0.0843925 15.6052 0.0213184 16.4199 0ZM30.0125 15.0661L29.7047 14.8838C29.0472 15.5979 28.4014 16.3203 27.7289 17.0193C27.4613 17.297 27.5499 17.5645 27.6235 17.8672C28.0284 19.5513 27.4562 21.1299 26.0978 22.0598C25.4637 22.4995 24.711 22.7362 23.9393 22.7386C23.1676 22.741 22.4134 22.5089 21.7766 22.0731C20.4165 21.15 19.826 19.5646 20.2191 17.8923C20.2743 17.6548 20.4634 17.3572 20.2342 17.1832C19.1601 16.3655 18.665 14.5075 16.731 15.1898C16.5438 15.2559 16.3395 15.2559 16.1522 15.1898C14.8306 14.6329 14.1096 15.4975 13.3634 16.3287C13.1798 16.5382 12.9825 16.7354 12.7729 16.919C12.6403 17.0204 12.5459 17.1636 12.5049 17.3254C12.4639 17.4872 12.4787 17.6581 12.547 17.8104C12.7511 18.4518 12.7679 19.1381 12.5955 19.7887C12.417 20.5272 12.0227 21.1959 11.4628 21.7098C10.903 22.2237 10.2029 22.5595 9.45163 22.6745C8.70034 22.7895 7.93182 22.6785 7.24381 22.3556C6.5558 22.0328 5.97941 21.5126 5.58795 20.8614C5.1965 20.2101 5.00767 19.4572 5.04549 18.6984C5.08331 17.9395 5.34607 17.2091 5.80034 16.6C6.25461 15.9909 6.87987 15.5306 7.59657 15.2777C8.31327 15.0248 9.08903 14.9907 9.82516 15.1798C10.7787 15.4039 12.9184 13.3603 12.7043 12.4321C12.3312 10.8217 12.7143 9.43531 14.0209 8.39177C15.2689 7.38837 16.6825 7.24957 18.0978 7.95864C19.6169 8.71955 20.4801 10.0557 20.1572 11.7114C19.913 12.9723 20.4349 13.6212 21.2346 14.3001C21.4078 14.4418 21.5659 14.6009 21.7064 14.7751C22.0744 15.2517 22.4843 15.3637 23.0865 15.1681C23.6776 14.9795 24.3143 14.9907 24.8983 15.1998C25.4002 15.3821 25.7264 15.2166 26.0694 14.8654C26.9058 13.9991 27.7323 13.1362 28.6156 12.3268C29.1325 11.8518 29.1877 11.4154 28.9134 10.7849C26.4592 5.14744 20.0652 1.79943 14.0242 2.88812C7.14177 4.12899 1.97909 10.5959 2.77039 17.889C3.48808 24.4846 9.06398 30.281 16.6558 30.097C22.3655 29.9549 26.5261 27.0751 28.9468 21.8842C29.9353 19.7565 30.3046 17.3937 30.0125 15.0661ZM40.3178 37.8533C40.2948 37.4774 40.1937 37.1104 40.0209 36.7758C39.8481 36.4412 39.6073 36.1464 39.314 35.91C37.2652 34.1976 35.2215 32.479 33.1827 30.7542C32.813 30.4398 32.5503 30.403 32.2074 30.7877C31.7636 31.2865 31.291 31.7589 30.7921 32.2025C30.414 32.5369 30.4224 32.8062 30.7486 33.1774C31.4462 33.9701 32.1053 34.7979 32.7879 35.6057C33.882 36.9017 34.9627 38.2162 36.0869 39.4805C36.8531 40.3367 37.8251 40.5073 38.8155 40.0825C39.6971 39.7079 40.3378 38.758 40.3178 37.8533ZM30.4207 28.7039C30.4272 28.6268 30.4143 28.5493 30.3834 28.4784C30.3524 28.4074 30.3043 28.3453 30.2433 28.2976C29.1911 27.0717 28.9736 27.0985 27.7657 28.1638C27.1417 28.714 27.1534 29.1103 27.7423 29.6037C27.8282 29.6746 27.9017 29.7594 27.9598 29.8545C28.4081 30.597 28.8531 30.4933 29.3533 29.8913C29.7114 29.4699 30.1748 29.1471 30.4274 28.7039H30.4207ZM37.6411 6.34149C37.6277 5.76286 36.997 5.13741 36.4332 5.20263C36.1378 5.21865 35.8591 5.34426 35.6515 5.55489C35.4438 5.76552 35.3223 6.04602 35.3107 6.34149C35.2571 6.9034 35.9029 7.5255 36.47 7.5255C37.0371 7.5255 37.6561 6.90841 37.6411 6.34149ZM16.4366 10.2113C15.8678 10.1862 15.2053 10.7849 15.2371 11.3602C15.2756 12.0191 15.6704 12.4321 16.3195 12.5308C16.8833 12.6194 17.524 12.0291 17.5642 11.4354C17.6043 10.8417 17.0238 10.238 16.4366 10.2113ZM10.0376 18.884C10.0242 18.3054 9.39522 17.6799 8.82977 17.7451C8.53426 17.7608 8.25528 17.8863 8.04759 18.097C7.8399 18.3077 7.7185 18.5884 7.70723 18.884C7.65369 19.4459 8.29945 20.068 8.86657 20.068C9.4337 20.068 10.0527 19.4509 10.0376 18.884ZM25.0941 18.9342C25.1125 18.3672 24.5035 17.705 23.9347 17.7435C23.6384 17.7455 23.3536 17.8587 23.1367 18.0606C22.9198 18.2625 22.7867 18.5385 22.7637 18.8338C22.68 19.3991 23.2806 20.0362 23.8695 20.0697C24.4583 20.1031 25.0756 19.5178 25.0941 18.9342Z" fill="#0B6755"/>
</svg>
