<svg width="37" height="42" viewBox="0 0 37 42" fill="none" xmlns="http://www.w3.org/2000/svg">
<mask id="path-1-inside-1_2036_2349" fill="white">
<path d="M18.4436 41.9987H1.44613C0.151464 41.9987 -0.0234042 41.8089 0.00226457 40.4674C0.069645 35.8 3.38091 31.2406 7.87454 29.639C8.7569 29.3249 9.63927 28.9846 10.5409 28.7523C11.3109 28.5576 11.6238 28.0128 11.996 27.3863C12.6136 26.3474 12.7372 25.5131 11.8532 24.4988C11.3093 23.8771 10.9387 23.3209 10.0179 23.1998C8.73444 23.0362 8.02695 22.0547 8.03337 20.7295C8.03337 20.1422 7.8601 19.7807 7.36438 19.4731C7.08364 19.3065 6.8506 19.0678 6.68847 18.7807C6.52634 18.4937 6.44078 18.1684 6.4403 17.8371C6.45314 15.3325 6.21089 12.818 6.57185 10.3264C7.31625 5.13387 11.4457 0.944169 16.5185 0.152362C22.9694 -0.853756 28.8828 3.21489 30.3267 9.64095C30.678 11.2033 30.5657 12.7853 30.5833 14.3623C30.5946 15.3439 30.5914 16.3255 30.5833 17.3071C30.5705 18.9169 29.6593 19.9246 28.1047 20.0457C26.7972 20.1537 26.8052 20.1553 26.4844 21.4968C26.1814 22.8574 25.5649 24.1248 24.686 25.1941C24.3346 25.6112 24.3827 25.9482 24.548 26.4439C25.0517 27.9507 26.0271 28.749 27.54 29.1286C29.8518 29.7077 31.9807 30.7171 33.6363 32.5543C35.6978 34.8446 36.9091 37.5096 36.9973 40.649C37.0294 41.7582 36.7839 41.9954 35.6946 41.9971C29.9448 42.0003 24.1945 42.0009 18.4436 41.9987ZM17.7057 19.8265C17.9142 19.8265 18.187 19.8101 18.4485 19.8265C19.9806 19.9328 20.9768 20.9716 20.9576 22.444C20.9383 23.8542 19.9228 24.8734 18.4132 24.9438C16.9805 25.0125 15.5575 25.0599 14.6447 23.5646C14.3848 23.1393 13.7735 23.1851 13.4896 23.4223C13.2056 23.6595 13.6789 23.9458 13.8361 24.1961C13.9772 24.3943 14.1439 24.5721 14.3318 24.7245C17.996 28.021 23.5966 26.1168 24.6956 21.1974C25.1352 19.2342 25.318 17.222 25.4977 15.2163C25.5972 14.0711 25.5731 14.0401 24.4533 13.8716C21.7649 13.4811 19.2407 12.3197 17.1746 10.5227C16.6308 10.0549 16.111 10.0025 15.4773 10.1694C13.9292 10.5784 12.8815 11.6156 11.9735 12.8818C11.618 13.3246 11.4388 13.8876 11.4714 14.4589C11.5858 16.4672 11.8113 18.4674 12.1468 20.4498C12.211 20.8179 12.1372 21.397 12.6826 21.4101C13.3468 21.4248 14.1874 21.7896 14.6495 21.1565C15.434 20.0899 16.4286 19.7561 17.7057 19.8265ZM9.35691 40.2449C11.5757 40.2449 13.7944 40.2449 16.0147 40.2449C16.2425 40.2449 16.549 40.3693 16.6821 40.1239C16.8153 39.8785 16.557 39.674 16.4286 39.4826C14.5933 36.7538 12.8575 33.9743 11.7232 30.8529C11.5773 30.4504 11.3527 30.3866 10.9805 30.5257C10.1783 30.8152 9.35691 31.0754 8.54674 31.3551C4.75579 32.6639 2.72475 35.4974 1.89854 39.3713C1.76699 39.9897 1.93704 40.2711 2.61887 40.2613C4.86488 40.2237 7.1109 40.2449 9.35691 40.2449ZM27.6234 40.2449C29.8149 40.2449 32.0074 40.2449 34.201 40.2449C35.1877 40.2449 35.2663 40.1566 35.0401 39.1456C34.1738 35.2667 32.0416 32.5183 28.2363 31.2799C27.755 31.1163 27.2737 30.9527 26.7924 30.7891C25.2009 30.2606 25.5699 30.2377 24.9827 31.607C24.8223 31.98 24.6619 32.3547 24.5015 32.7293C23.4699 35.144 22.002 37.292 20.579 39.4695C20.4506 39.6658 20.1971 39.8703 20.3094 40.1108C20.4217 40.3513 20.7442 40.2433 20.9704 40.2449C23.1843 40.2449 25.4031 40.2449 27.6234 40.2449ZM11.5452 10.4295C12.4019 9.72439 13.1495 9.12072 14.0559 8.74445C15.6698 8.07534 17.2436 7.71706 18.5656 9.34157C18.6212 9.40266 18.683 9.45751 18.7501 9.50517C20.5241 10.883 22.6136 11.7766 24.8207 12.1014C25.2667 12.1702 25.6983 12.2061 25.6405 11.4929C25.4801 9.40538 24.7036 7.64671 23.0191 6.37393C20.956 4.8165 18.6169 4.79359 16.265 5.28111C13.8313 5.77844 11.9559 7.88229 11.5452 10.4295ZM18.4934 3.27215C19.2121 3.31141 19.9372 3.22961 20.6511 3.37685C24.3731 4.13757 26.9079 6.94489 27.3619 10.8319C27.4052 11.2049 27.471 11.4389 27.9074 11.4634C28.6678 11.5043 28.8315 11.2998 28.655 10.3919C27.2256 3.08728 19.3003 -0.490571 13.0612 3.38012C10.4286 5.01608 8.89808 7.47003 8.31572 10.5391C8.24674 10.9023 8.09273 11.4029 8.75851 11.4487C9.26386 11.4831 9.64729 11.4487 9.64569 10.7501C9.67365 10.289 9.75662 9.83299 9.89275 9.39229C10.674 6.26105 13.7703 2.94495 18.4934 3.27215ZM18.426 39.1652C18.5007 39.1653 18.5739 39.143 18.6363 39.1012C18.6988 39.0593 18.7478 38.9996 18.7773 38.9296C19.5458 37.7501 20.3062 36.5657 21.0827 35.391C21.2945 35.072 21.2046 34.8544 20.9608 34.6123C20.2356 33.8892 19.5169 33.1628 18.811 32.4136C18.5158 32.0995 18.3169 32.1126 18.0361 32.4332C17.3944 33.1661 16.7351 33.8799 16.0581 34.5747C15.7548 34.8855 15.7372 35.1358 15.973 35.4941C16.711 36.5951 17.4169 37.7157 18.1485 38.8249C18.2342 38.9418 18.3269 39.0533 18.426 39.1587V39.1652ZM23.8902 29.3494C23.8084 28.7621 23.4442 28.3057 23.2341 27.7822C23.0512 27.3241 22.8266 27.2816 22.4881 27.6578C21.6774 28.5576 20.8554 29.4465 20.0223 30.3244C19.7752 30.5862 19.7175 30.7956 20.003 31.0737C20.6191 31.6758 21.2111 32.3007 21.8175 32.9109C21.9956 33.0909 22.2073 33.2905 22.3886 32.9436C22.9943 31.7931 23.4994 30.5903 23.8982 29.3494H23.8902ZM13.0933 29.3216C13.4952 30.5838 14.0103 31.8055 14.6318 32.9714C14.826 33.3215 15.0425 33.0369 15.1982 32.87C15.75 32.2794 16.2843 31.6725 16.8393 31.0868C17.0736 30.8414 17.0848 30.6467 16.8393 30.4013C15.9843 29.5441 15.1436 28.6721 14.2901 27.8132C14.173 27.6938 14.0078 27.4337 13.8473 27.6873C13.5113 28.1871 13.2567 28.739 13.0933 29.3216ZM8.12963 15.4977H8.14727C8.14727 16.1226 8.09914 16.7509 8.16011 17.3692C8.22588 18.0335 8.7184 18.2919 9.47884 18.1758C10.1815 18.0678 9.90719 17.5557 9.88152 17.1648C9.80772 16.0572 9.68419 14.9513 9.63927 13.8421C9.61681 13.2581 9.31841 13.2024 8.86118 13.1975C8.40396 13.1926 8.09273 13.299 8.12321 13.8699C8.15209 14.4114 8.12963 14.9562 8.12963 15.4977ZM28.8716 15.5255C28.8716 14.9562 28.8539 14.3803 28.8716 13.8159C28.8908 13.2777 28.5924 13.1959 28.1609 13.2008C27.7293 13.2057 27.3876 13.2106 27.3587 13.8159C27.2977 15.0331 27.1806 16.247 27.0651 17.4609C27.0138 17.9926 27.2079 18.1954 27.7325 18.1872C28.5347 18.1758 28.8347 17.9124 28.8635 17.0715C28.8796 16.5562 28.8716 16.0408 28.8716 15.5255ZM17.6415 23.0706C17.9335 23.0706 18.2271 23.0919 18.5158 23.0706C18.9137 23.0346 19.1688 22.7859 19.1576 22.3835C19.1463 21.981 18.8832 21.7471 18.487 21.716C18.1961 21.692 17.9042 21.686 17.6126 21.698C17.0527 21.7226 16.2602 21.5344 16.273 22.408C16.2859 23.2816 17.0768 23.0444 17.6287 23.0673L17.6415 23.0706Z"/>
</mask>
<path d="M18.4436 41.9987H1.44613C0.151464 41.9987 -0.0234042 41.8089 0.00226457 40.4674C0.069645 35.8 3.38091 31.2406 7.87454 29.639C8.7569 29.3249 9.63927 28.9846 10.5409 28.7523C11.3109 28.5576 11.6238 28.0128 11.996 27.3863C12.6136 26.3474 12.7372 25.5131 11.8532 24.4988C11.3093 23.8771 10.9387 23.3209 10.0179 23.1998C8.73444 23.0362 8.02695 22.0547 8.03337 20.7295C8.03337 20.1422 7.8601 19.7807 7.36438 19.4731C7.08364 19.3065 6.8506 19.0678 6.68847 18.7807C6.52634 18.4937 6.44078 18.1684 6.4403 17.8371C6.45314 15.3325 6.21089 12.818 6.57185 10.3264C7.31625 5.13387 11.4457 0.944169 16.5185 0.152362C22.9694 -0.853756 28.8828 3.21489 30.3267 9.64095C30.678 11.2033 30.5657 12.7853 30.5833 14.3623C30.5946 15.3439 30.5914 16.3255 30.5833 17.3071C30.5705 18.9169 29.6593 19.9246 28.1047 20.0457C26.7972 20.1537 26.8052 20.1553 26.4844 21.4968C26.1814 22.8574 25.5649 24.1248 24.686 25.1941C24.3346 25.6112 24.3827 25.9482 24.548 26.4439C25.0517 27.9507 26.0271 28.749 27.54 29.1286C29.8518 29.7077 31.9807 30.7171 33.6363 32.5543C35.6978 34.8446 36.9091 37.5096 36.9973 40.649C37.0294 41.7582 36.7839 41.9954 35.6946 41.9971C29.9448 42.0003 24.1945 42.0009 18.4436 41.9987ZM17.7057 19.8265C17.9142 19.8265 18.187 19.8101 18.4485 19.8265C19.9806 19.9328 20.9768 20.9716 20.9576 22.444C20.9383 23.8542 19.9228 24.8734 18.4132 24.9438C16.9805 25.0125 15.5575 25.0599 14.6447 23.5646C14.3848 23.1393 13.7735 23.1851 13.4896 23.4223C13.2056 23.6595 13.6789 23.9458 13.8361 24.1961C13.9772 24.3943 14.1439 24.5721 14.3318 24.7245C17.996 28.021 23.5966 26.1168 24.6956 21.1974C25.1352 19.2342 25.318 17.222 25.4977 15.2163C25.5972 14.0711 25.5731 14.0401 24.4533 13.8716C21.7649 13.4811 19.2407 12.3197 17.1746 10.5227C16.6308 10.0549 16.111 10.0025 15.4773 10.1694C13.9292 10.5784 12.8815 11.6156 11.9735 12.8818C11.618 13.3246 11.4388 13.8876 11.4714 14.4589C11.5858 16.4672 11.8113 18.4674 12.1468 20.4498C12.211 20.8179 12.1372 21.397 12.6826 21.4101C13.3468 21.4248 14.1874 21.7896 14.6495 21.1565C15.434 20.0899 16.4286 19.7561 17.7057 19.8265ZM9.35691 40.2449C11.5757 40.2449 13.7944 40.2449 16.0147 40.2449C16.2425 40.2449 16.549 40.3693 16.6821 40.1239C16.8153 39.8785 16.557 39.674 16.4286 39.4826C14.5933 36.7538 12.8575 33.9743 11.7232 30.8529C11.5773 30.4504 11.3527 30.3866 10.9805 30.5257C10.1783 30.8152 9.35691 31.0754 8.54674 31.3551C4.75579 32.6639 2.72475 35.4974 1.89854 39.3713C1.76699 39.9897 1.93704 40.2711 2.61887 40.2613C4.86488 40.2237 7.1109 40.2449 9.35691 40.2449ZM27.6234 40.2449C29.8149 40.2449 32.0074 40.2449 34.201 40.2449C35.1877 40.2449 35.2663 40.1566 35.0401 39.1456C34.1738 35.2667 32.0416 32.5183 28.2363 31.2799C27.755 31.1163 27.2737 30.9527 26.7924 30.7891C25.2009 30.2606 25.5699 30.2377 24.9827 31.607C24.8223 31.98 24.6619 32.3547 24.5015 32.7293C23.4699 35.144 22.002 37.292 20.579 39.4695C20.4506 39.6658 20.1971 39.8703 20.3094 40.1108C20.4217 40.3513 20.7442 40.2433 20.9704 40.2449C23.1843 40.2449 25.4031 40.2449 27.6234 40.2449ZM11.5452 10.4295C12.4019 9.72439 13.1495 9.12072 14.0559 8.74445C15.6698 8.07534 17.2436 7.71706 18.5656 9.34157C18.6212 9.40266 18.683 9.45751 18.7501 9.50517C20.5241 10.883 22.6136 11.7766 24.8207 12.1014C25.2667 12.1702 25.6983 12.2061 25.6405 11.4929C25.4801 9.40538 24.7036 7.64671 23.0191 6.37393C20.956 4.8165 18.6169 4.79359 16.265 5.28111C13.8313 5.77844 11.9559 7.88229 11.5452 10.4295ZM18.4934 3.27215C19.2121 3.31141 19.9372 3.22961 20.6511 3.37685C24.3731 4.13757 26.9079 6.94489 27.3619 10.8319C27.4052 11.2049 27.471 11.4389 27.9074 11.4634C28.6678 11.5043 28.8315 11.2998 28.655 10.3919C27.2256 3.08728 19.3003 -0.490571 13.0612 3.38012C10.4286 5.01608 8.89808 7.47003 8.31572 10.5391C8.24674 10.9023 8.09273 11.4029 8.75851 11.4487C9.26386 11.4831 9.64729 11.4487 9.64569 10.7501C9.67365 10.289 9.75662 9.83299 9.89275 9.39229C10.674 6.26105 13.7703 2.94495 18.4934 3.27215ZM18.426 39.1652C18.5007 39.1653 18.5739 39.143 18.6363 39.1012C18.6988 39.0593 18.7478 38.9996 18.7773 38.9296C19.5458 37.7501 20.3062 36.5657 21.0827 35.391C21.2945 35.072 21.2046 34.8544 20.9608 34.6123C20.2356 33.8892 19.5169 33.1628 18.811 32.4136C18.5158 32.0995 18.3169 32.1126 18.0361 32.4332C17.3944 33.1661 16.7351 33.8799 16.0581 34.5747C15.7548 34.8855 15.7372 35.1358 15.973 35.4941C16.711 36.5951 17.4169 37.7157 18.1485 38.8249C18.2342 38.9418 18.3269 39.0533 18.426 39.1587V39.1652ZM23.8902 29.3494C23.8084 28.7621 23.4442 28.3057 23.2341 27.7822C23.0512 27.3241 22.8266 27.2816 22.4881 27.6578C21.6774 28.5576 20.8554 29.4465 20.0223 30.3244C19.7752 30.5862 19.7175 30.7956 20.003 31.0737C20.6191 31.6758 21.2111 32.3007 21.8175 32.9109C21.9956 33.0909 22.2073 33.2905 22.3886 32.9436C22.9943 31.7931 23.4994 30.5903 23.8982 29.3494H23.8902ZM13.0933 29.3216C13.4952 30.5838 14.0103 31.8055 14.6318 32.9714C14.826 33.3215 15.0425 33.0369 15.1982 32.87C15.75 32.2794 16.2843 31.6725 16.8393 31.0868C17.0736 30.8414 17.0848 30.6467 16.8393 30.4013C15.9843 29.5441 15.1436 28.6721 14.2901 27.8132C14.173 27.6938 14.0078 27.4337 13.8473 27.6873C13.5113 28.1871 13.2567 28.739 13.0933 29.3216ZM8.12963 15.4977H8.14727C8.14727 16.1226 8.09914 16.7509 8.16011 17.3692C8.22588 18.0335 8.7184 18.2919 9.47884 18.1758C10.1815 18.0678 9.90719 17.5557 9.88152 17.1648C9.80772 16.0572 9.68419 14.9513 9.63927 13.8421C9.61681 13.2581 9.31841 13.2024 8.86118 13.1975C8.40396 13.1926 8.09273 13.299 8.12321 13.8699C8.15209 14.4114 8.12963 14.9562 8.12963 15.4977ZM28.8716 15.5255C28.8716 14.9562 28.8539 14.3803 28.8716 13.8159C28.8908 13.2777 28.5924 13.1959 28.1609 13.2008C27.7293 13.2057 27.3876 13.2106 27.3587 13.8159C27.2977 15.0331 27.1806 16.247 27.0651 17.4609C27.0138 17.9926 27.2079 18.1954 27.7325 18.1872C28.5347 18.1758 28.8347 17.9124 28.8635 17.0715C28.8796 16.5562 28.8716 16.0408 28.8716 15.5255ZM17.6415 23.0706C17.9335 23.0706 18.2271 23.0919 18.5158 23.0706C18.9137 23.0346 19.1688 22.7859 19.1576 22.3835C19.1463 21.981 18.8832 21.7471 18.487 21.716C18.1961 21.692 17.9042 21.686 17.6126 21.698C17.0527 21.7226 16.2602 21.5344 16.273 22.408C16.2859 23.2816 17.0768 23.0444 17.6287 23.0673L17.6415 23.0706Z" fill="#0B6755" stroke="#0B6755" stroke-width="2" mask="url(#path-1-inside-1_2036_2349)"/>
<path d="M31.9687 37.6554L31.9686 37.6555C31.9978 37.7013 32.0276 37.7182 32.0665 37.7266C32.1163 37.7373 32.2003 37.7354 32.3108 37.6935L31.9687 37.6554ZM31.9687 37.6554L31.965 37.6498M31.9687 37.6554L31.965 37.6498M31.965 37.6498C31.3413 36.6974 30.6264 35.8102 29.8306 35.0016C29.7691 34.9358 29.7581 34.8812 29.7612 34.8347C29.765 34.7782 29.795 34.6871 29.8931 34.5815L29.8931 34.5815M31.965 37.6498L29.8931 34.5815M29.8931 34.5815L29.8942 34.5804M29.8931 34.5815L29.8942 34.5804M29.8942 34.5804C29.985 34.482 30.0601 34.4483 30.1048 34.4393C30.1393 34.4324 30.19 34.4319 30.2704 34.4841L30.2705 34.4841M29.8942 34.5804L30.2705 34.4841M30.2705 34.4841C31.2758 35.1355 31.9838 36.0732 32.5132 37.2042C32.527 37.2495 32.536 37.2963 32.54 37.3437M30.2705 34.4841L32.54 37.3437M32.54 37.3437C32.5211 37.4692 32.488 37.5426 32.4583 37.5857C32.4294 37.6276 32.3882 37.6641 32.311 37.6935L32.54 37.3437ZM29.5269 34.2411C29.2076 34.5847 29.1595 35.0215 29.4707 35.3487L29.5269 34.2411ZM29.5269 34.2411C29.8124 33.932 30.1814 33.8305 30.5424 34.0645L29.5269 34.2411Z" fill="#0B6755" stroke="#0B6755"/>
</svg>
