<svg width="35" height="30" viewBox="0 0 35 30" fill="none" xmlns="http://www.w3.org/2000/svg">
<path d="M17.518 29.9839C15.0596 29.9839 12.5857 29.9839 10.1273 29.9839C8.16684 29.9839 7.23328 29.3148 6.89098 27.3699C6.61091 25.814 6.57979 24.2113 7.10881 22.6865C7.82454 20.6483 9.22488 19.2946 11.2632 18.5789C12.2123 18.2521 13.1458 18.2832 14.0483 18.7656C16.3511 19.9792 18.6538 19.9948 20.9722 18.7811C21.8902 18.2988 22.8393 18.2521 23.8351 18.5944C26.4335 19.4657 28.2384 21.7996 28.2851 24.5536C28.3006 25.705 28.254 26.9031 27.9894 28.0078C27.616 29.4704 26.7447 29.9994 25.2354 29.9994C22.6526 29.9994 20.0853 29.9839 17.518 29.9839Z" fill="white"/>
<path d="M17.5184 1.79102C21.6571 1.79102 24.9868 5.0896 25.0024 9.22838C25.018 13.336 21.6416 16.728 17.5495 16.7124C13.4262 16.7124 10.081 13.3516 10.0654 9.24394C10.0654 5.12072 13.3796 1.79102 17.5184 1.79102Z" fill="white"/>
<path d="M10.3604 16.2297C10.0337 16.3698 9.69135 16.5098 9.38017 16.6654C6.81288 17.9568 5.17915 19.9951 4.51009 22.7802C4.40118 23.2314 4.21447 23.3404 3.79436 23.3559C2.11395 23.3715 1.27375 22.7491 1.0248 21.0843C0.729173 19.0771 0.869207 17.1477 2.30067 15.514C3.76324 13.8492 5.42809 13.4757 7.43525 14.3471C7.66864 14.456 7.91759 14.5805 8.16654 14.596C9.25569 14.6427 9.83139 15.374 10.3604 16.2297Z" fill="white"/>
<path d="M24.7217 16.1987C25.2507 15.3896 25.7953 14.6428 26.9 14.5961C27.1489 14.5805 27.3979 14.4561 27.6313 14.3471C29.5451 13.5069 31.0077 13.7715 32.5014 15.2185C34.104 16.79 34.6952 19.9796 33.7617 22.0335C33.2793 23.1071 31.9879 23.6983 30.8987 23.3249C30.7898 23.2782 30.6653 23.1382 30.6187 23.0137C29.0472 18.766 28.596 18.2681 24.7217 16.1987Z" fill="white"/>
<path d="M7.93278 12.0447C4.64976 11.1112 2.84488 7.36137 4.07407 4.10947C5.30325 0.795328 9.16197 -0.822844 12.3361 0.686412C8.35289 3.50265 6.85919 7.28357 7.93278 12.0447Z" fill="white"/>
<path d="M22.6836 0.654971C25.1264 -0.27859 27.2892 -0.0296405 29.203 1.57297C31.1323 3.2067 31.8014 5.33833 31.1946 7.79671C30.65 9.91278 29.2808 11.3131 27.118 12.1222C28.1916 7.28325 26.7135 3.51789 22.6836 0.654971Z" fill="white"/>
</svg>
