<svg width="150" height="148" viewBox="0 0 150 148" fill="none" xmlns="http://www.w3.org/2000/svg">
<g id="Group">
<g id="Group_2">
<g id="Group_3">
<path id="Vector" d="M27.1179 2.48624C27.4082 6.90588 27.3437 11.3578 26.9243 15.7452C26.8598 16.2936 26.8275 16.842 26.7307 17.3582C26.6984 17.6162 26.6663 17.8743 26.634 18.1324C26.6017 18.5195 26.7308 17.5195 26.634 18.1002C26.6017 18.2615 26.6017 18.455 26.5694 18.6163C26.4081 19.7132 26.2146 20.81 26.0211 21.9068C25.6017 24.1005 25.0533 26.2942 24.4081 28.4234C24.0855 29.4235 23.7628 30.4235 23.408 31.4236C23.2144 31.9075 23.053 32.3914 22.8272 32.8753C22.7949 32.9721 22.6659 33.1334 22.6659 33.2624C22.6659 32.9398 22.8595 32.8431 22.7305 33.0689C22.6014 33.327 22.5046 33.585 22.3756 33.8431C21.6013 35.5529 20.6658 37.1982 19.6335 38.7467C19.4077 39.1015 19.1496 39.4564 18.8916 39.8112C18.7625 40.0048 18.6011 40.1984 18.4721 40.3919C18.4076 40.4564 18.343 40.5532 18.3108 40.6177C18.6334 40.0371 18.4398 40.4564 18.3431 40.5855C17.7624 41.3275 17.1172 42.0695 16.472 42.7792C15.8268 43.4566 15.1816 44.1018 14.4718 44.747C14.1492 45.0374 13.7945 45.3277 13.4396 45.6181C13.2783 45.7471 13.117 45.8762 12.9557 46.0052C12.6976 46.1988 13.4396 45.6181 13.0524 45.9407C12.9234 46.0374 12.8266 46.102 12.6975 46.1988C11.8588 46.8117 10.9877 47.3924 10.0844 47.9086C9.18115 48.4247 8.24573 48.8118 7.31019 49.2957C7.34245 49.2635 7.85848 49.0699 7.50362 49.199C7.37458 49.2635 7.24564 49.2957 7.11659 49.3603C6.85851 49.457 6.60043 49.5538 6.31009 49.6506C5.82619 49.8119 5.34225 49.9732 4.82609 50.1022C3.82603 50.3926 2.7937 50.5861 1.76138 50.7152C1.21295 50.7797 0.567751 51.3604 0.309669 51.812C0.051588 52.2959 -0.0451609 52.8121 0.0193594 53.3605C0.18066 54.5219 1.18069 55.4574 2.40658 55.4574C4.76157 55.4251 7.11653 55.4252 9.47152 55.5865C10.0199 55.6187 10.5361 55.6832 11.0845 55.7478C11.1168 55.7478 11.6975 55.8445 11.3104 55.78C10.891 55.7155 11.4716 55.8123 11.5361 55.8123C11.8265 55.8446 12.1169 55.9091 12.4072 55.9736C13.5686 56.1994 14.6977 56.4897 15.7945 56.8446C15.9881 56.9091 16.2139 57.0059 16.4075 57.0704C16.5042 57.1027 16.6333 57.1672 16.7301 57.1995C16.9236 57.264 17.1172 57.4576 16.601 57.135C16.9882 57.393 17.4721 57.5221 17.8915 57.7479C18.698 58.1673 19.4722 58.6189 20.182 59.1351C20.3755 59.2641 20.569 59.3932 20.7626 59.5545C20.8271 59.619 20.9239 59.6835 20.9885 59.7158C21.3111 59.9416 20.8594 59.619 20.8272 59.5867C21.1498 59.9093 21.5691 60.1997 21.924 60.49C22.6337 61.1352 23.3111 61.7804 23.9563 62.4901C24.2466 62.8127 24.537 63.1353 24.7951 63.4579C24.9241 63.6192 25.0533 63.7805 25.2146 63.9741C25.4081 64.2322 24.8597 63.4902 25.15 63.8773C25.2468 64.0064 25.3112 64.1031 25.408 64.2322C25.9564 64.9742 26.4404 65.7484 26.9243 66.5227C27.4082 67.3292 27.8599 68.1679 28.2793 69.0067C28.4729 69.4261 28.6663 69.8454 28.8599 70.2648C28.8922 70.3616 28.9244 70.4584 28.9889 70.5229C28.7308 69.91 28.8921 70.2648 28.9566 70.4261C29.0534 70.6842 29.1503 70.91 29.2471 71.1681C29.9891 73.1037 30.5374 75.0716 30.9568 77.0717C31.0859 77.6524 31.1826 78.2008 31.2794 78.7815C31.3117 79.0073 31.3439 79.2654 31.4084 79.4912C31.4407 79.6848 31.473 79.8461 31.473 80.0397C31.473 79.9429 31.4407 79.8461 31.4407 79.7493C31.4407 79.8784 31.473 79.9751 31.473 80.1042C31.6021 81.2655 31.7311 82.3947 31.7956 83.556C32.1505 88.879 31.8279 94.2341 31.473 99.5248C31.4085 100.718 32.4408 101.751 33.5699 101.912C34.7635 102.073 35.8603 101.331 36.2152 100.17C38.7637 92.0727 39.0864 83.5237 40.9898 75.2974C41.4091 73.4586 41.893 71.6197 42.5382 69.8132C42.6672 69.4261 42.8286 69.0389 42.9577 68.6841C43.0222 68.4905 43.1512 68.297 43.2157 68.0712C43.2157 68.1034 42.9898 68.6196 43.1511 68.2647C43.1834 68.1679 43.248 68.0389 43.2803 67.9421C43.6351 67.1679 43.99 66.4259 44.3771 65.6839C45.1513 64.1999 46.0545 62.7805 47.0546 61.4578C47.1191 61.3933 47.1837 61.2965 47.2159 61.232C46.8933 61.7159 46.9901 61.5223 47.0869 61.3933C47.2159 61.232 47.345 61.0707 47.4741 60.9094C47.7322 60.5868 48.0224 60.2642 48.3127 59.9416C48.8611 59.3286 49.4419 58.748 50.0226 58.2318C50.3775 57.9092 50.7 57.6189 51.0871 57.3285C51.1516 57.264 51.2162 57.2317 51.313 57.1672C50.7323 57.6189 51.1516 57.2962 51.2484 57.1995C51.442 57.0704 51.6034 56.9414 51.7969 56.8124C52.5066 56.3285 53.2486 55.8768 54.0228 55.4897C54.2164 55.3929 54.4422 55.2961 54.6357 55.1993C54.7325 55.1671 54.7971 55.1348 54.8939 55.1026C55.3456 54.909 54.41 55.2961 54.8293 55.1348C55.2487 54.9735 55.6681 54.8122 56.1197 54.6832C56.5714 54.5542 56.9908 54.4251 57.4424 54.3283C57.636 54.296 57.8618 54.2316 58.0554 54.1993C58.2489 54.167 59.1521 54.038 58.3134 54.1347C58.9586 54.038 59.5716 53.9412 60.0233 53.425C60.3781 53.0379 60.604 52.5863 60.7007 52.0378C60.862 50.941 60.1522 49.6183 58.9586 49.3925C58.023 49.199 57.0876 48.9731 56.152 48.6828C55.7327 48.5537 55.3454 48.3925 54.9261 48.2634C54.7002 48.1666 54.4745 48.0698 54.2487 48.0053C54.9907 48.2957 54.1518 47.9408 53.9583 47.8763C52.2485 47.0698 50.6033 46.102 49.0871 44.9729C49.0226 44.9083 48.9257 44.8438 48.8612 44.8116C48.5386 44.5535 48.9902 44.9083 49.0225 44.9406C48.8612 44.7793 48.6355 44.6503 48.4419 44.489C48.0548 44.1664 47.6998 43.876 47.3449 43.5534C46.6352 42.9082 45.9255 42.2308 45.2803 41.4888C44.6351 40.7791 44.0222 40.0693 43.4093 39.3273C43.3448 39.2305 43.2802 39.1338 43.1834 39.037C43.2156 39.0693 43.5383 39.4886 43.2803 39.166C43.119 38.9725 42.9898 38.7789 42.8285 38.5854C42.5382 38.1982 42.2479 37.7788 41.9899 37.3917C40.9253 35.811 39.9896 34.1335 39.1509 32.4237C38.9573 32.0043 38.7638 31.6172 38.5703 31.1978C38.5057 31.101 38.4735 30.972 38.4412 30.8752C38.2799 30.5203 38.5057 31.0042 38.5057 31.0365C38.4089 30.7461 38.2798 30.4881 38.1831 30.23C37.8282 29.359 37.5056 28.4557 37.183 27.5524C35.828 23.5844 34.828 19.4874 34.0215 15.3581C33.5699 13.0676 33.1506 10.7448 32.7957 8.42212C32.6344 7.32527 32.4731 6.26069 32.3118 5.16385C32.2473 4.61543 32.1504 4.09926 32.0859 3.55084C32.0537 3.35728 31.9246 2.45399 32.0536 3.26049C32.0214 2.97015 31.9892 2.71208 31.9569 2.42174C31.8601 1.74427 31.731 1.19583 31.2471 0.711932C30.8277 0.29255 30.1503 -0.0300356 29.5374 0.00222451C28.9245 0.0344847 28.2469 0.22803 27.8275 0.711932C27.4081 1.22809 27.0211 1.8733 27.1179 2.48624C28.247 10.9707 29.5374 19.5518 32.1505 27.7137C34.6668 35.4884 38.7638 42.9082 45.1836 48.1021C48.829 51.0378 53.0228 53.296 57.636 54.167C57.8619 52.5863 58.0554 51.0055 58.2812 49.4248C56.2811 49.6829 54.4422 50.199 52.5711 51.0055C50.9259 51.7153 49.4096 52.683 47.9901 53.8121C45.2157 55.9736 42.9253 58.7802 41.1188 61.7804C39.2154 64.9097 37.8282 68.3615 36.8927 71.9101C35.7636 76.1039 35.1184 80.4268 34.4731 84.7174C33.7634 89.5564 33.0214 94.3954 31.5374 99.0732C33.1182 99.299 34.699 99.4925 36.2797 99.7184C36.8927 90.1694 37.4411 80.1687 34.2151 70.9746C31.5375 63.2967 26.279 56.1026 18.6334 52.8766C13.504 50.7152 7.89081 50.6507 2.40658 50.7152C2.6324 52.2959 2.82596 53.8767 3.05178 55.4574C11.1813 54.3283 18.1172 49.0699 22.8595 42.6179C28.1179 35.4561 30.4085 26.4556 31.5053 17.7453C32.1505 12.6805 32.2795 7.58334 31.9246 2.51849C31.8278 1.26035 30.86 0.034461 29.5051 0.0989814C28.2792 0.131242 27.0211 1.13131 27.1179 2.48624Z" fill="#FFAF01"/>
</g>
</g>
<g id="Group_4">
<g id="Group_5">
<path id="Vector_2" d="M97.1228 47.4569C97.3809 48.6506 97.6067 49.8442 97.8003 51.0378C97.8971 51.6185 97.9938 52.2314 98.0906 52.8444C98.1229 53.0379 98.2841 53.9412 98.155 53.2315C98.2195 53.5864 98.2519 53.9412 98.2842 54.2638C98.5745 56.7156 98.8004 59.1996 98.9294 61.6837C99.1875 66.684 99.1551 71.7166 98.8002 76.6846C98.7034 77.9105 98.6067 79.1364 98.5099 80.3946C98.4454 80.943 98.4131 81.5237 98.3486 82.0721C98.3164 82.3302 98.2842 82.5882 98.2519 82.8786C98.2519 83.0076 98.2196 83.1367 98.2196 83.2335C98.1873 83.427 98.2196 83.3302 98.2519 82.9431C98.2519 83.0399 98.2196 83.1367 98.2196 83.2335C97.9293 85.2981 97.4776 87.3305 96.9292 89.3306C96.6389 90.3307 96.3163 91.3308 95.9614 92.2986C95.7678 92.7825 95.6065 93.2664 95.4129 93.7503C95.3806 93.8793 95.3162 93.9761 95.2839 94.1051C95.4775 93.4922 95.3807 93.847 95.3162 94.0083C95.1871 94.2664 95.0903 94.5568 94.9613 94.8148C94.0903 96.7182 93.0902 98.5248 91.8966 100.267C91.574 100.751 91.2192 101.235 90.8644 101.686C90.7676 101.815 90.5739 101.977 90.9611 101.557C90.8643 101.686 90.7352 101.815 90.6385 101.944C90.4449 102.17 90.2835 102.396 90.09 102.622C89.348 103.493 88.5738 104.299 87.7351 105.106C87.3157 105.493 86.8963 105.88 86.4446 106.267C86.2188 106.461 85.9607 106.622 85.7672 106.816C86.1865 106.396 86.0253 106.622 85.864 106.751C85.735 106.848 85.6059 106.945 85.4446 107.041C84.509 107.719 83.509 108.364 82.4767 108.913C81.5734 109.396 81.0571 110.655 81.3797 111.655C81.5088 112.042 81.7025 112.429 81.9928 112.719C82.3477 113.106 83.1541 113.493 83.7025 113.429C85.864 113.171 88.0254 113.042 90.1869 113.106C91.2514 113.139 92.2837 113.203 93.3483 113.3C93.6064 113.332 93.8967 113.364 94.1548 113.397C94.3484 113.429 95.3162 113.558 94.4774 113.429C95.0258 113.526 95.5743 113.59 96.1227 113.687C98.2196 114.042 100.316 114.558 102.349 115.203C103.381 115.526 104.413 115.881 105.414 116.3C105.639 116.397 105.833 116.461 106.059 116.558C106.188 116.623 106.317 116.655 106.446 116.719C105.768 116.461 106.22 116.623 106.381 116.687C106.898 116.913 107.381 117.139 107.898 117.365C109.866 118.3 111.769 119.333 113.575 120.494C114.479 121.075 115.35 121.655 116.189 122.301C116.414 122.462 116.64 122.623 116.866 122.784C116.963 122.881 117.092 122.946 117.189 123.042C116.672 122.655 116.898 122.817 117.027 122.913C117.511 123.301 117.963 123.655 118.414 124.043C120.028 125.397 121.576 126.881 122.995 128.43C123.737 129.236 124.447 130.075 125.157 130.946C125.286 131.14 125.447 131.301 125.576 131.495C125.06 130.882 125.673 131.624 125.77 131.785C126.092 132.237 126.415 132.688 126.738 133.14C128.092 135.108 129.318 137.172 130.351 139.302C130.609 139.85 130.867 140.398 131.093 140.915C131.286 141.366 130.867 140.366 131.06 140.85C131.125 141.011 131.189 141.205 131.254 141.366C131.351 141.624 131.448 141.882 131.544 142.141C131.996 143.302 132.383 144.496 132.706 145.689C133.061 146.915 134.448 147.786 135.674 147.367C136.254 147.173 136.835 146.818 137.125 146.27C137.448 145.657 137.48 145.076 137.383 144.399C137.383 144.366 137.287 143.754 137.351 144.141C137.416 144.528 137.319 143.947 137.319 143.915C137.287 143.689 137.254 143.463 137.222 143.237C137.158 142.721 137.093 142.205 137.061 141.689C136.996 140.882 136.932 140.076 136.9 139.269C136.867 138.011 136.899 136.721 136.867 135.463C136.867 133.882 136.77 132.333 136.609 130.753C136.48 129.559 136.319 128.365 136.158 127.172C136.061 126.462 135.964 125.752 135.867 125.01C135.835 124.881 135.835 124.752 135.803 124.623C135.706 124.01 135.867 125.01 135.803 124.623C135.77 124.268 135.706 123.946 135.674 123.591C135.383 121.3 135.125 118.978 135.061 116.655C135.029 115.461 135.028 114.3 135.125 113.106C135.157 112.558 135.19 111.977 135.286 111.429C135.157 112.106 135.351 111.106 135.351 110.977C135.416 110.655 135.448 110.364 135.512 110.042C135.706 109.042 135.996 108.074 136.319 107.138C136.448 106.719 136.609 106.299 136.77 105.88C136.835 105.687 136.9 105.493 136.996 105.332C137.029 105.203 137.093 105.106 137.125 104.977C137.351 104.461 137.029 105.235 137.125 105.009C137.9 103.299 138.771 101.654 139.803 100.106C140.093 99.6861 140.513 99.2345 140.771 98.7829C140.738 98.8151 140.416 99.2345 140.674 98.9119C140.771 98.7829 140.868 98.6861 140.964 98.557C141.126 98.3635 141.287 98.1699 141.448 97.9763C142.126 97.2021 142.835 96.4601 143.61 95.7504C143.997 95.3955 144.416 95.0407 144.836 94.6858C145.158 94.4277 144.739 94.7826 144.707 94.7826C144.836 94.7181 144.932 94.589 145.061 94.5245C145.287 94.3632 145.513 94.2019 145.707 94.0406C146.578 93.4277 147.481 92.9115 148.449 92.4276C149.352 91.976 149.868 90.6533 149.546 89.6855C149.191 88.6209 148.32 87.9757 147.223 87.9112C146.094 87.8467 144.965 87.7499 143.835 87.6208C143.577 87.5886 143.319 87.5563 143.061 87.524C142.932 87.524 142.803 87.4595 142.674 87.4595C143.319 87.4273 142.9 87.4918 142.706 87.4595C142.126 87.3628 141.545 87.2982 140.997 87.2014C138.803 86.8143 136.641 86.3304 134.545 85.7175C133.48 85.3949 132.448 85.0723 131.415 84.6852C130.931 84.4916 130.447 84.3303 129.931 84.1367C129.867 84.1045 129.189 83.8464 129.189 83.8464C129.286 83.8786 129.383 83.9432 129.48 83.9754C129.383 83.9432 129.286 83.8786 129.189 83.8464C129.06 83.7819 128.899 83.7174 128.77 83.6528C126.738 82.7495 124.802 81.7172 122.931 80.5236C121.995 79.9107 121.06 79.2977 120.189 78.6203C120.092 78.5557 120.027 78.4912 119.931 78.4267C120.027 78.5235 120.479 78.8138 119.931 78.4267C119.737 78.2654 119.511 78.1041 119.318 77.9428C118.866 77.5879 118.447 77.2008 118.027 76.8137C117.221 76.0717 116.414 75.2974 115.672 74.4909C114.898 73.6522 114.221 72.7489 113.479 71.9101C113.93 72.4263 113.382 71.7811 113.285 71.6198C113.124 71.394 112.963 71.2004 112.801 70.9746C112.446 70.4907 112.124 70.0068 111.801 69.5229C111.156 68.5551 110.575 67.555 109.995 66.5549C108.865 64.5548 107.865 62.4902 106.93 60.361C106.898 60.2642 106.833 60.1674 106.801 60.0707C106.769 59.9739 106.704 59.8771 106.672 59.7803C106.801 60.1029 106.833 60.1352 106.736 59.9094C106.607 59.619 106.478 59.2964 106.349 59.0061C106.123 58.4254 105.898 57.8447 105.672 57.264C105.22 56.0704 104.768 54.8445 104.349 53.6509C103.478 51.1668 102.671 48.6828 101.865 46.1988C101.478 45.0052 100.155 44.1019 98.8971 44.5213C97.6067 44.8761 96.7034 46.1665 97.1228 47.4569C100.026 56.522 103.059 65.8775 108.704 73.6522C111.575 77.6202 115.027 81.0397 119.092 83.8464C122.931 86.4917 127.222 88.4919 131.641 89.9436C136.674 91.5888 141.932 92.4921 147.223 92.7825C146.803 91.2662 146.416 89.7823 145.997 88.266C138.674 91.9114 133.577 99.17 131.351 106.945C129.996 111.687 130.06 116.623 130.609 121.462C130.77 122.817 130.931 124.139 131.125 125.494C131.157 125.817 131.222 126.107 131.254 126.43C131.286 126.559 131.286 126.688 131.319 126.817C131.415 127.43 131.254 126.43 131.319 126.849C131.415 127.462 131.48 128.107 131.577 128.72C131.802 130.624 132.028 132.527 132.06 134.43C132.093 135.882 132.061 137.334 132.093 138.785C132.157 141.076 132.415 143.366 132.738 145.657C134.286 145.237 135.835 144.786 137.416 144.366C134.932 135.592 129.77 127.656 122.995 121.623C116.221 115.558 107.833 111.138 98.9294 109.3C93.9613 108.267 88.7997 107.945 83.7671 108.59C84.1865 110.106 84.5736 111.59 84.9929 113.106C92.9289 108.751 98.2841 100.912 101.091 92.4599C102.542 88.0725 103.188 83.5238 103.543 78.9106C103.962 73.8135 104.091 68.7164 103.897 63.6193C103.672 57.7802 103.059 51.9411 101.865 46.231C101.607 45.0052 100.091 44.1664 98.8971 44.5535C97.5099 44.9084 96.8647 46.1343 97.1228 47.4569Z" fill="#FFAF01"/>
</g>
</g>
</g>
</svg>
