<svg width="285" height="253" viewBox="0 0 285 253" fill="none" xmlns="http://www.w3.org/2000/svg">
<g id="Shape">
<path id="Vector 806" d="M197.559 21.1074C197.221 20.351 196.333 20.0118 195.577 20.3497C194.821 20.6876 194.482 21.5747 194.819 22.3311L197.559 21.1074ZM187.625 59.5952L186.806 58.3384L187.625 59.5952ZM152.94 64.3163L153.159 62.8324L152.94 64.3163ZM141.856 55.7361L140.785 54.6853L141.856 55.7361ZM175.103 58.9778L176.178 57.9319L175.103 58.9778ZM185.589 109.943L184.16 109.486L185.589 109.943ZM134.265 160.187L134.205 158.688L134.265 160.187ZM96.2305 122.447L97.6652 122.884L96.2305 122.447ZM131.445 116.295L132.248 115.028L131.445 116.295ZM146.79 188.285L148.042 189.112L146.79 188.285ZM92.4449 236.015C92.2668 236.824 92.7783 237.624 93.5873 237.802L106.772 240.704C107.581 240.882 108.381 240.371 108.559 239.562C108.737 238.753 108.226 237.953 107.417 237.775L95.6972 235.195L98.2769 223.475C98.455 222.666 97.9435 221.866 97.1345 221.688C96.3254 221.51 95.5252 222.021 95.3471 222.83L92.4449 236.015ZM194.819 22.3311C200.273 34.5387 198.832 50.5043 186.806 58.3384L188.444 60.852C202.15 51.923 203.369 34.1123 197.559 21.1074L194.819 22.3311ZM186.806 58.3384C177.446 64.4363 164.044 64.4391 153.159 62.8324L152.721 65.8002C163.742 67.4271 178.109 67.5848 188.444 60.852L186.806 58.3384ZM153.159 62.8324C152.292 62.7044 148.298 61.9891 145.247 60.6614C143.664 59.9727 142.662 59.2542 142.283 58.6326C142.131 58.3834 142.105 58.1941 142.144 57.9994C142.189 57.7667 142.363 57.3606 142.926 56.7868L140.785 54.6853C139.967 55.5187 139.395 56.4278 139.2 57.4203C138.997 58.4507 139.235 59.3967 139.722 60.1949C140.621 61.6681 142.396 62.6928 144.05 63.4122C147.47 64.9008 151.78 65.6613 152.721 65.8002L153.159 62.8324ZM142.926 56.7868C147.612 52.013 153.179 50.6424 158.662 51.5141C164.204 52.3951 169.709 55.5846 174.028 60.0237L176.178 57.9319C171.509 53.1319 165.443 49.5544 159.133 48.5513C152.765 47.5389 146.202 49.167 140.785 54.6853L142.926 56.7868ZM174.028 60.0237C186.928 73.2852 189.784 91.9093 184.16 109.486L187.018 110.4C192.916 91.9638 189.985 72.1253 176.178 57.9319L174.028 60.0237ZM184.16 109.486C180.642 120.485 174.307 132.592 165.735 142.05C157.161 151.509 146.467 158.197 134.205 158.688L134.325 161.686C147.66 161.151 159.056 153.886 167.958 144.064C176.862 134.241 183.39 121.739 187.018 110.4L184.16 109.486ZM134.205 158.688C128.42 158.92 123.642 158.102 119.357 156.253C115.065 154.4 111.179 151.476 107.23 147.371L105.068 149.451C109.205 153.751 113.409 156.953 118.169 159.007C122.936 161.065 128.174 161.932 134.325 161.686L134.205 158.688ZM107.23 147.371C100.79 140.678 94.8662 132.061 97.6652 122.884L94.7958 122.009C91.4538 132.965 98.6341 142.764 105.068 149.451L107.23 147.371ZM97.6652 122.884C98.8452 119.016 100.787 116.395 103.135 114.688C105.495 112.972 108.369 112.106 111.518 111.93C117.86 111.577 125.093 114.043 130.641 117.561L132.248 115.028C126.336 111.278 118.488 108.537 111.351 108.935C107.761 109.135 104.296 110.135 101.371 112.261C98.4337 114.396 96.1425 117.594 94.7958 122.009L97.6652 122.884ZM130.641 117.561C153.15 131.836 160.159 165.306 145.538 187.459L148.042 189.112C163.58 165.569 156.185 130.208 132.248 115.028L130.641 117.561ZM145.538 187.459C132.486 207.236 113.042 222.328 93.102 235.073L94.7176 237.601C114.772 224.783 134.641 209.417 148.042 189.112L145.538 187.459Z" fill="#FFAF01"/>
</g>
</svg>
