<svg width="1920" height="840" viewBox="0 0 1920 840" fill="none" xmlns="http://www.w3.org/2000/svg">
<mask id="mask0_104_200" style="mask-type:alpha" maskUnits="userSpaceOnUse" x="0" y="0" width="1920" height="840">
<rect width="1920" height="840" fill="#0B6755"/>
</mask>
<g mask="url(#mask0_104_200)">
<g opacity="0.05">
<path d="M809.088 672.712C786.306 640.914 726.396 626.444 680.381 626.444C666.22 626.444 653.069 627.687 641.3 630.135C598.008 639.132 561.092 647.22 528.507 654.359C441.259 673.469 388.602 685.004 344.832 685.004C308.395 685.004 277.165 677.16 233.421 656.999C187.765 635.954 154.263 615.934 127.337 599.849C85.1209 574.612 57.2249 557.95 19.0473 557.95C6.56054 557.95 -6.89594 559.809 -21.9863 563.602V566.717C-6.86937 562.872 6.60039 560.988 19.0473 560.988C56.3216 560.988 83.9121 577.47 125.676 602.438C152.656 618.561 186.25 638.632 232.053 659.742C276.248 680.108 307.863 688.042 344.806 688.042C388.934 688.042 441.724 676.481 529.185 657.319C561.757 650.18 598.672 642.106 641.938 633.108C653.481 630.712 666.406 629.494 680.354 629.494C725.586 629.494 784.34 643.567 806.484 674.468C816.247 688.093 817.842 703.576 811.226 720.494C798.022 754.266 736.292 784.091 681.829 810.417C648.912 826.323 617.814 841.357 601.834 855.289C555.101 896.06 566.313 951.288 585.282 1010.85H588.577C569.753 951.903 558.396 897.277 603.946 857.545C619.608 843.882 650.519 828.938 683.25 813.134C738.232 786.565 800.546 756.458 814.188 721.583C821.176 703.627 819.462 687.196 809.088 672.712Z" fill="white"/>
<path d="M-7.73282 326.079C-1.3566 192.488 86.9009 95.1186 157.823 16.8587L162.858 11.3089C171.08 2.95233 190.063 -19.4003 188.575 -46.3926C187.672 -62.8239 179.237 -77.7043 163.509 -90.5981C154.077 -98.3266 145.363 -105.555 137.061 -112.425C100.371 -142.814 71.3987 -166.82 26.4198 -196.914C9.98776 -207.911 -6.1919 -218.318 -21.9863 -228.098V-226.56C-6.44429 -216.921 9.48298 -206.668 25.6494 -195.85C70.5751 -165.782 99.5338 -141.802 136.184 -111.438C144.486 -104.568 153.2 -97.3398 162.632 -89.6112C178.068 -76.9609 186.343 -62.3881 187.233 -46.3286C188.695 -19.836 169.991 2.18333 161.861 10.4374L156.8 16.0128C85.7585 94.4009 -2.67169 191.976 -9.07448 326.015C-9.75196 340.293 -15.5171 349.021 -21.9863 351.982V353.533C-14.9858 350.764 -8.49 341.921 -7.73282 326.079Z" fill="white"/>
<path d="M23.6568 327.477C29.5282 204.474 113.787 111.513 181.482 36.8161L186.543 31.228C200.756 15.5273 212.273 1.62094 220.775 -10.1065C231.309 -24.6409 250.916 -51.7102 204.622 -94.8262C154.701 -141.326 100.769 -184.057 44.3264 -221.829C21.3055 -237.235 -0.851816 -251.115 -21.9863 -263.573V-262.061C-1.09093 -249.718 20.814 -235.979 43.5559 -220.765C99.9456 -183.032 153.825 -140.352 203.692 -93.8905C249.162 -51.5307 229.981 -25.0638 219.672 -10.8499C211.197 0.839111 199.72 14.7198 185.533 30.3692L180.472 35.9574C112.632 110.808 28.2131 203.948 22.3151 327.413C19.5787 384.666 9.04461 417.99 -10.8412 432.281C-14.7732 435.101 -18.506 436.639 -21.9863 437.011V438.318C-18.2004 437.959 -14.2817 436.37 -10.0442 433.319C10.187 418.785 20.907 385.153 23.6568 327.477Z" fill="white"/>
<path d="M-10.3501 131.314C1.75142 110.782 17.4263 92.1587 32.5964 74.1509C54.4748 48.1711 77.0971 21.3197 89.265 -11.6838C110.732 -69.8725 68.6486 -96.7622 24.108 -125.229C20.0033 -127.856 15.8721 -130.496 11.7143 -133.201C4.36833 -137.994 -2.56581 -142.519 -9.39368 -147.081C-12.7545 -149.324 -16.8857 -152.208 -22 -155.797V-154.195C-17.271 -150.875 -13.3523 -148.158 -10.1641 -146.03C-3.32299 -141.455 3.61115 -136.93 10.9969 -132.111C15.1149 -129.432 19.2462 -126.779 23.3509 -124.152C67.4398 -95.9805 109.098 -69.3598 87.9898 -12.1324C75.8883 20.6532 53.3457 47.4277 31.5337 73.3178C16.337 91.364 0.622297 110.025 -11.5324 130.648C-15.1588 136.838 -18.4798 144.875 -21.9867 153.385V156.897C-21.6148 156.012 -21.2561 155.128 -20.8974 154.256C-17.3507 145.631 -13.9899 137.492 -10.3501 131.314Z" fill="white"/>
<path d="M1398.17 882.526C1396.44 867.877 1386.89 855.162 1369.77 844.768C1338.83 825.965 1274.1 817.558 1223.67 817.558C1213.82 817.558 1204.8 817.878 1196.85 818.519C1147.62 822.454 1096.36 831.823 1040.13 847.165C1032.08 849.356 1024.08 851.728 1016.34 854.201C922.57 884.231 868.359 931.769 842.336 1010.81H844.714C870.644 932.871 924.363 885.949 1017.04 856.252C1024.75 853.791 1032.72 851.42 1040.74 849.241C1096.83 833.938 1147.96 824.594 1197.03 820.672C1204.9 820.044 1213.87 819.724 1223.66 819.724C1273.77 819.724 1337.99 828.029 1368.56 846.601C1385.07 856.636 1394.28 868.8 1395.92 882.77C1400.07 917.875 1357.61 959.069 1323.51 992.162C1316.63 998.84 1310.22 1005.06 1304.63 1010.81H1307.73C1312.97 1005.49 1318.83 999.801 1325.11 993.7C1359.57 960.261 1402.43 918.657 1398.17 882.526Z" fill="white"/>
<path d="M540.834 772.363C548.101 767.967 556.483 767.378 563.736 767.378C567.149 767.378 570.59 767.532 574.216 767.685C577.843 767.852 581.576 768.006 585.295 768.006C593.664 768.006 604.543 767.249 614.44 761.328C639.958 746.076 648.406 728.389 645.457 718.391C643.505 711.791 636.876 708.01 627.259 708.01C618.691 708.01 607.811 710.971 595.776 716.572C588.098 720.147 581.177 726.556 574.482 732.746C566.392 740.232 558.037 747.973 548.459 750.511C545.497 751.292 542.574 751.677 539.546 751.677C533.475 751.677 528.042 750.177 522.29 748.588C516.618 747.012 510.733 745.397 504.277 745.397C502.019 745.397 499.761 745.602 497.569 745.999C486.185 748.05 478.387 755.022 470.855 761.764C464.572 767.378 458.09 773.184 449.561 776.067C439.917 779.323 426.82 780.899 409.537 780.899C387.088 780.899 362.207 778.182 342.215 775.991C336.45 775.363 331.11 774.773 326.367 774.312C284.829 770.287 241.643 757.727 194.327 735.925C144.247 712.855 108.407 691.438 79.5812 674.199C63.8532 664.804 47.7665 660.036 31.7595 660.036C11.422 660.036 -6.64394 667.508 -22 678.98V680.594C-6.68379 668.944 11.3955 661.343 31.7595 661.343C47.5141 661.343 63.3616 666.047 78.9037 675.34C107.73 692.565 143.609 714.008 193.755 737.117C241.205 758.983 284.55 771.582 326.235 775.619C330.977 776.08 336.317 776.657 342.069 777.285C362.101 779.477 387.021 782.194 409.551 782.194C426.979 782.194 440.223 780.592 450.013 777.285C458.807 774.324 465.409 768.416 471.785 762.712C479.516 755.791 486.822 749.255 497.821 747.268C499.973 746.883 502.085 746.691 504.291 746.691C510.574 746.691 516.352 748.293 521.945 749.831C527.524 751.369 533.302 752.971 539.559 752.971C542.721 752.971 545.749 752.574 548.831 751.767C558.754 749.139 567.229 741.282 575.439 733.682C582.054 727.556 588.895 721.224 596.387 717.738C608.236 712.227 618.916 709.304 627.272 709.304C636.371 709.304 642.376 712.662 644.169 718.75C646.985 728.286 638.656 745.333 613.736 760.226C604.118 765.968 593.491 766.711 585.295 766.711C581.616 766.711 577.883 766.545 574.283 766.391C570.789 766.237 567.189 766.083 563.736 766.083C556.297 766.083 547.675 766.698 540.117 771.274C531.801 776.311 525.478 789.038 519.381 801.355C515.701 808.789 512.221 815.813 508.515 820.67C477.789 861.043 475.916 904.506 482.558 957.337C484.843 975.498 488.656 993.378 493.265 1010.81H494.66C490.037 993.327 486.185 975.396 483.9 957.183C477.298 904.647 479.144 861.466 509.604 821.426C513.377 816.466 516.884 809.391 520.603 801.906C526.621 789.769 532.851 777.208 540.834 772.363Z" fill="white"/>
<path d="M99.3209 35.9576C101.327 33.6505 103.372 31.3306 105.418 29.0108C134.31 -3.78763 164.186 -37.6883 130.232 -78.2409C103.97 -109.604 64.3181 -135.468 29.3419 -158.282C22.0889 -163.012 15.2478 -167.472 8.49959 -171.984C3.96981 -175.008 -2.15401 -179.328 -9.24756 -184.326C-13.153 -187.069 -17.4304 -190.094 -22 -193.272V-191.67C-17.7359 -188.684 -13.7109 -185.864 -10.0446 -183.275C-2.93776 -178.277 3.19935 -173.945 7.72913 -170.92C14.4773 -166.408 21.3317 -161.935 28.5847 -157.206C63.4812 -134.443 103.04 -108.63 129.183 -77.4206C162.445 -37.7011 132.929 -4.21054 104.395 28.1777C102.336 30.5104 100.304 32.8302 98.2847 35.1373C73.1917 63.9881 41.1379 102.631 15.7924 145.657C0.409758 171.778 -12.263 199.219 -21.9867 227.391V231.659C-12.1434 202.218 0.927824 173.534 16.9746 146.298C42.267 103.349 74.2676 64.77 99.3209 35.9576Z" fill="white"/>
<path d="M402.802 100.758C400.557 104.334 398.445 107.73 396.612 110.23C373.897 141.106 347.01 168.495 316.776 198.538C312.698 202.575 308.514 206.664 304.29 210.791C279.316 235.13 253.479 260.315 238.03 290.063C232.039 301.599 230.193 310.596 232.69 316.082C233.819 318.568 235.798 320.222 238.561 320.991C239.704 321.311 240.979 321.465 242.361 321.465C247.9 321.465 255.246 318.889 263.601 314.005C280.206 304.303 295.987 292.332 311.237 280.746C323.737 271.261 336.662 261.443 349.986 252.933C403.719 218.571 439.226 195.872 455.818 131.801C459.258 118.522 461.278 88.2616 450.65 75.1243C446.984 70.5999 442.189 68.4723 436.238 68.7287C422.396 69.4208 411.078 87.531 402.802 100.758ZM437.274 70.0104C442.268 70.0104 446.413 71.997 449.588 75.9318C459.936 88.7102 457.903 118.42 454.516 131.493C438.044 195.065 402.723 217.661 349.229 251.856C335.865 260.405 322.927 270.236 310.4 279.733C295.177 291.294 279.436 303.239 262.897 312.903C252.828 318.786 244.247 321.234 238.92 319.747C236.556 319.094 234.869 317.684 233.912 315.569C231.614 310.519 233.5 301.663 239.226 290.653C254.582 261.084 280.326 235.976 305.233 211.701C309.47 207.574 313.655 203.485 317.733 199.435C348.02 169.354 374.933 141.926 397.701 110.973C399.561 108.435 401.7 105.026 403.945 101.424C412.061 88.4538 423.166 70.6768 436.291 70.0359C436.623 70.0231 436.955 70.0104 437.274 70.0104Z" fill="white"/>
<path d="M55.498 328.886C60.8647 216.623 141.046 128.148 205.472 57.0656L210.546 51.4646C287.167 -33.1653 284.059 -62.7082 248.113 -96.9293C208.7 -134.457 146.572 -190.839 62.4853 -247.092C33.779 -266.305 5.39157 -283.851 -21.9863 -299.475V-296.963C4.99305 -281.531 32.9421 -264.228 61.1968 -245.323C145.137 -189.16 207.172 -132.868 246.532 -95.3913C281.442 -62.1572 284.285 -33.2679 208.859 50.0419L203.785 55.6429C139.12 126.982 58.6463 215.777 53.2531 328.784C48.1787 434.869 6.77308 466.014 -21.9863 474.755V477.024C7.43727 468.372 50.3174 437.073 55.498 328.886Z" fill="white"/>
<path d="M431.589 809.982C411.623 805.034 390.157 804.714 369.394 804.393C357.412 804.214 345.032 804.034 333.209 802.945C276.686 797.754 228.267 785.155 180.804 763.277C129.17 739.489 92.5067 717.572 63.0432 699.974C52.3498 693.591 41.829 690.349 31.7732 690.349C12.9899 690.349 -6.41772 702.204 -21.9863 722.019V724.185C-6.51071 703.858 12.9633 691.656 31.7732 691.656C41.5766 691.656 51.8716 694.822 62.3392 701.089C91.8292 718.712 128.519 740.642 180.233 764.469C227.842 786.411 276.408 799.049 333.089 804.252C344.978 805.342 357.386 805.534 369.394 805.713C390.077 806.021 411.451 806.342 431.27 811.25C462.128 818.902 461.012 840.639 456.642 866.145C451.421 896.572 447.091 926.731 451.382 960.977C453.52 977.998 456.908 994.609 460.946 1010.81H462.327C458.263 994.557 454.849 977.896 452.71 960.823C448.433 926.743 452.75 896.688 457.957 866.35C462.274 841.165 463.51 817.89 431.589 809.982Z" fill="white"/>
<path d="M429.862 28.6765C410.175 33.3675 392.946 59.6677 379.104 80.8028C374.269 88.1981 369.686 95.1833 365.674 100.182C343.398 127.943 318.251 152.923 293.929 177.083C287.592 183.376 279.635 190.49 271.2 198.039C246.147 220.43 214.983 248.307 205.512 273.825C197.541 295.281 202.244 315.736 206.787 335.513C210.52 351.752 214.372 368.542 211.317 385.973C209.431 396.79 202.629 407.441 195.443 418.72C186.835 432.229 177.935 446.187 177.39 461.195C177.204 466.296 178.028 471.346 179.821 476.178C185.772 492.225 191.949 499.697 199.308 499.697C206.707 499.697 214.518 492.391 226.261 474.486C237.473 457.389 241.883 437.586 246.147 418.425C250.424 399.187 254.861 379.308 266.166 362.108C287.699 329.348 325.677 305.214 359.192 283.925C362.008 282.13 364.811 280.349 367.587 278.58C423.207 243.013 467.149 214.919 486.743 139.273C491.924 119.253 490.569 68.2678 469.461 42.1855C459.192 29.5096 445.736 24.8955 429.862 28.6765ZM467.681 43.5056C486.597 66.8836 490.369 116.318 484.551 138.748C465.157 213.586 421.546 241.462 366.312 276.786C363.549 278.542 360.759 280.323 357.943 282.118C324.242 303.522 286.051 327.797 264.266 360.954C252.749 378.488 248.272 398.559 243.955 417.977C239.731 436.946 235.36 456.568 224.361 473.333C216.511 485.304 207.398 497.544 199.308 497.544C193.131 497.544 187.446 490.315 181.933 475.46C180.206 470.808 179.462 466.168 179.635 461.272C180.153 446.84 188.894 433.126 197.356 419.861C204.662 408.402 211.569 397.572 213.535 386.332C216.657 368.478 212.751 351.47 208.979 335.039C204.303 314.66 199.879 295.409 207.624 274.543C216.909 249.537 247.861 221.865 272.728 199.615C281.176 192.053 289.16 184.914 295.536 178.583C319.899 154.384 345.098 129.353 367.455 101.502C371.533 96.4137 376.129 89.39 381.004 81.9562C394.633 61.1544 411.583 35.2515 430.393 30.7784C433.794 29.971 437.128 29.5609 440.276 29.5609C450.97 29.5609 460.189 34.2518 467.681 43.5056Z" fill="white"/>
<path d="M450.504 -65.3601C439.811 -80.2148 430.512 -82.1374 420.682 -84.1624C413.881 -85.5595 406.854 -87.0077 398.844 -92.8522L398.179 -93.57C375.265 -118.281 298.511 -198.925 272.501 -198.925C269.433 -198.925 267.055 -197.874 265.408 -195.81C261.928 -191.44 262.114 -182.635 265.939 -168.908C268.224 -160.743 289.956 -149.49 312.977 -137.57C332.159 -127.637 351.978 -117.371 358.7 -109.668C364.731 -102.76 372.661 -93.1855 371.944 -89.866C371.745 -88.9688 370.735 -88.4433 368.968 -87.5973C364.957 -85.6748 358.899 -82.7654 362.127 -69.1026C364.359 -59.6565 370.416 -50.2745 376.288 -41.1874C381.747 -32.7282 386.902 -24.7434 389 -16.9763C394.752 4.31252 358.58 43.4297 334.643 69.307C326.752 77.843 319.925 85.2127 315.594 90.7752C298.152 113.102 276.42 133.763 255.405 153.745C214.531 192.618 172.249 232.812 157.384 288.322C135.174 371.26 130.737 444.496 144.22 506.004C151.406 538.815 176.181 584.584 200.198 584.584C215.155 584.584 226.048 567.243 232.584 533.035C257.717 401.277 326.288 357.443 392.6 315.045C451.354 277.479 506.841 242.002 530.712 149.874C539.705 115.115 525.863 61.6553 507.877 32.0739C499.854 18.8725 489.731 11.4515 479.954 4.26126C471.36 -2.04465 463.243 -8.00447 456.974 -17.5018C452.537 -24.2307 453.32 -32.0746 454.157 -40.3799C455.021 -48.9672 455.911 -57.8366 450.504 -65.3601ZM454.317 -15.874C460.892 -5.9153 469.221 0.198328 478.042 6.68367C487.579 13.6817 497.449 20.9232 505.154 33.612C522.835 62.6807 536.464 115.127 527.657 149.143C504.078 240.13 449.083 275.3 390.847 312.52C323.989 355.265 254.861 399.47 229.475 532.484C223.351 564.59 213.229 581.559 200.185 581.559C179.781 581.559 154.993 540.61 147.275 505.376C133.898 444.342 138.322 371.568 160.413 289.091C175.065 234.401 217.015 194.49 257.597 155.911C278.692 135.852 300.517 115.102 318.091 92.6081C322.356 87.1481 329.13 79.8168 336.981 71.3321C362.818 43.3912 398.219 5.12003 392.029 -17.7325C389.811 -25.9481 384.524 -34.1253 378.931 -42.7895C373.206 -51.6588 367.295 -60.8228 365.169 -69.769C362.486 -81.112 366.657 -83.1114 370.35 -84.8802C372.382 -85.8543 374.494 -86.8668 374.999 -89.2507C375.677 -92.4293 373.591 -97.2741 361.078 -111.616C353.971 -119.755 333.873 -130.175 314.438 -140.236C294.021 -150.81 270.881 -162.794 268.955 -169.689C264.571 -185.352 265.953 -191.529 267.879 -193.952C268.902 -195.246 270.416 -195.874 272.475 -195.874C292.095 -195.874 349.056 -141.967 395.802 -91.5321C396.386 -90.9041 396.705 -90.5965 396.731 -90.5837C405.486 -84.1753 413.203 -82.5859 420.005 -81.1761C429.622 -79.2023 437.925 -77.4848 447.914 -63.6169C452.67 -57.0162 451.859 -49.0698 451.022 -40.6619C450.172 -32.2284 449.295 -23.4872 454.317 -15.874Z" fill="white"/>
<path d="M-21.9863 -346.499C129.382 -263.855 292.507 -132.354 322.21 -67.0007C340.05 -27.7426 296.811 19.1544 242.069 78.5351C179.861 146.003 102.456 229.979 97.6342 330.771C91.7761 453.634 28.6648 504.081 -21.9863 519.346V522.512C29.8205 507.286 94.7915 456.172 100.782 330.9C105.551 231.184 182.544 147.657 244.42 80.5345C299.907 20.3464 343.73 -27.1915 325.093 -68.2311C295.164 -134.071 130.472 -266.701 -21.9863 -349.741V-346.499Z" fill="white"/>
<path d="M408.355 851.035C392.016 836.449 367.587 835.219 346.041 834.129C340.501 833.847 335.281 833.591 330.22 833.117C269.924 827.58 218.144 814.071 167.254 790.629C123.484 770.455 89.5571 752.063 60.532 732.722C52.575 727.429 44.4453 724.737 36.3555 724.737C17.9574 724.737 0.635382 738.669 -9.96508 761.996C-13.9768 770.801 -17.9221 779.465 -21.9736 788.027V791.142C-17.497 781.734 -13.1399 772.211 -8.72969 762.509C1.65823 739.669 18.5154 726.032 36.3555 726.032C44.1664 726.032 52.0437 728.634 59.7616 733.786C88.8531 753.165 122.833 771.596 166.67 791.808C217.693 815.327 269.632 828.862 330.087 834.424C335.161 834.886 340.408 835.155 345.961 835.437C367.281 836.513 391.458 837.731 407.438 851.996C425.969 868.53 423.352 899.931 421.054 927.616C419.925 941.24 418.849 954.095 420.177 964.618C422.143 980.242 426.036 995.712 430.14 1010.8H431.535C427.417 995.648 423.485 980.114 421.519 964.464C420.217 954.07 421.28 941.266 422.409 927.706C424.72 899.726 427.364 868.004 408.355 851.035Z" fill="white"/>
<path d="M19.9506 -36.5098C17.7322 -50.4674 7.75608 -62.951 -10.5756 -74.6656C-14.3349 -77.0624 -18.1075 -79.4848 -21.9863 -82.0098V-80.4589C-18.3997 -78.1262 -14.8396 -75.832 -11.3194 -73.5891C6.6801 -62.0923 16.4703 -49.9034 18.6222 -36.3175C22.1823 -13.8623 4.50155 9.31062 -17.2174 35.0854C-18.6919 36.8285 -20.2993 38.9688 -21.9863 41.2759V43.5317C-19.9008 40.635 -17.9348 37.9947 -16.168 35.9056C5.75023 9.88731 23.6036 -13.5291 19.9506 -36.5098Z" fill="white"/>
<path d="M392.68 913.926C394.819 901.199 397.037 888.023 388.323 878.013C377.922 866.068 360.945 865.222 345.961 864.478L344.42 864.402C339.093 864.132 333.063 863.825 327.258 863.299C263.19 857.416 208.049 843.01 153.731 817.979C136.622 810.096 119.818 801.112 103.572 792.422C94.6452 787.654 85.4129 782.719 76.2338 778.016L75.6095 777.695C64.8363 772.184 53.7045 766.48 42.2406 766.48C36.1965 766.48 30.7501 768.057 25.5694 771.312C7.29095 782.784 -1.47635 805.047 -9.95141 826.579C-13.8037 836.358 -17.5232 845.599 -21.96 853.687V856.391C-16.9387 847.752 -12.9004 837.704 -8.68945 827.027C-0.280813 805.687 8.40679 783.629 26.3133 772.389C31.2682 769.275 36.4754 767.762 42.2539 767.762C53.3724 767.762 64.3581 773.389 74.9852 778.836L75.6095 779.156C84.7886 783.847 94.0075 788.782 102.934 793.55C119.207 802.24 136.024 811.237 153.174 819.145C207.637 844.253 262.924 858.685 327.151 864.581C332.983 865.119 339.027 865.414 344.367 865.683L345.921 865.76C360.627 866.491 377.298 867.311 387.327 878.833C395.643 888.382 393.477 901.25 391.392 913.695C390.714 917.694 390.09 921.475 389.771 925.218C388.562 939.713 387.327 954.709 389.027 968.244C390.887 982.996 394.142 997.095 397.728 1010.78H399.123C395.51 997.043 392.229 982.881 390.369 968.09C388.682 954.684 389.931 939.752 391.126 925.269C391.379 921.667 392.003 917.912 392.68 913.926Z" fill="white"/>
<path d="M59.6691 -21.8463C71.3323 -53.4784 59.6027 -66.1927 6.7598 -99.9524C2.56212 -102.631 -1.64884 -105.323 -5.96607 -108.142C-11.5054 -111.757 -16.7791 -115.217 -21.9863 -118.665V-117.089C-17.0182 -113.807 -11.9703 -110.501 -6.67012 -107.04C-2.39273 -104.259 1.81823 -101.554 6.01591 -98.8758C58.1548 -65.5647 69.7515 -53.081 58.3939 -22.2949C48.1122 5.58186 28.2264 29.2034 7.1716 54.2091C-2.61856 65.8341 -12.6213 77.7153 -21.9863 90.4168V92.6598C-12.329 79.4328 -1.95437 67.0901 8.22102 55.0166C29.3422 29.934 49.3078 6.2355 59.6691 -21.8463Z" fill="white"/>
<path d="M333.009 896.893C318.822 890.92 303.346 889.498 288.375 888.114C279.847 887.332 271.04 886.511 262.605 884.858C220.323 876.591 179.13 863.3 140.155 845.344C122.209 837.077 104.993 827.874 88.3083 818.954C85.9438 817.685 83.194 815.993 80.2849 814.198C70.6674 808.277 58.6854 800.895 47.9787 800.895C43.9803 800.895 40.3804 801.946 37.3118 804.022C29.129 809.546 25.2767 820.671 21.8761 830.489C21.0259 832.937 20.2289 835.244 19.392 837.359C17.9308 841.05 15.0216 846.151 11.9398 851.547C4.47429 864.607 -4.81109 880.872 -1.46357 890.651C1.91051 900.52 15.2474 905.929 25.9675 910.274C28.3984 911.261 30.6965 912.184 32.6492 913.094C50.9543 921.489 66.8018 930.089 81.1085 939.381C116.589 962.451 159.323 986.739 206.614 1010.8H209.496C161.356 986.393 117.865 961.721 81.8657 938.317C67.5059 928.974 51.5919 920.348 33.2337 911.927C31.2411 911.017 28.9297 910.082 26.4855 909.095C16.0179 904.852 2.99978 899.572 -0.188327 890.267C-3.34987 881.026 5.7761 865.03 13.122 852.188C16.3633 846.523 19.1662 841.614 20.6539 837.833C21.4908 835.692 22.3011 833.373 23.1513 830.912C26.4855 821.286 30.2714 810.379 38.0823 805.099C40.925 803.176 44.2592 802.202 47.9787 802.202C58.3002 802.202 70.0829 809.469 79.5676 815.301C82.5033 817.108 85.2663 818.813 87.6972 820.12C104.368 829.028 121.597 838.243 139.584 846.535C178.651 864.53 219.951 877.86 262.339 886.152C270.828 887.806 279.688 888.626 288.243 889.421C303.107 890.792 318.477 892.215 332.464 898.098C357.185 908.505 357.079 928.846 356.96 950.391C356.92 957.504 356.88 964.861 357.77 971.923C359.484 985.612 362.22 998.441 365.302 1010.81H366.683C363.575 998.39 360.825 985.509 359.112 971.769C358.235 964.784 358.275 957.478 358.315 950.404C358.434 928.41 358.54 907.646 333.009 896.893Z" fill="white"/>
<path d="M413.722 141.415H413.43C407.053 141.415 400.584 149.221 395.882 154.937C394.859 156.167 393.942 157.27 393.159 158.141C388.708 163.037 384.418 168.202 380.273 173.201C377.59 176.431 374.92 179.661 372.183 182.826L371.851 183.211C362.898 193.464 359.232 200.142 360.666 203.628C361.065 204.59 362.035 205.781 364.466 206.051C364.824 206.089 365.183 206.115 365.542 206.115H365.754C383.727 205.743 398.273 190.042 405.34 180.724C412.075 171.842 416.897 162.255 418.57 154.411C418.969 152.579 420.045 146.375 417.494 143.235C416.578 142.107 415.276 141.479 413.722 141.415ZM416.379 153.963C414.758 161.512 410.082 170.791 403.533 179.443C396.705 188.44 382.717 203.59 365.701 203.949L365.528 205.038V203.961C365.249 203.961 364.984 203.949 364.705 203.91C363.097 203.731 362.818 203.051 362.725 202.834C362.234 201.642 362.3 197.463 373.538 184.608L373.884 184.211C376.633 181.019 379.317 177.777 382 174.547C386.131 169.574 390.395 164.421 394.819 159.564C395.629 158.679 396.559 157.539 397.609 156.283C401.793 151.22 408.103 143.581 413.616 143.581C414.532 143.62 415.196 143.927 415.701 144.568C417.282 146.478 417.043 150.823 416.379 153.963Z" fill="white"/>
<path d="M887.302 580.162C946.854 573.625 1010.74 507.067 1011.56 450.685C1012.83 364.235 961.306 295.178 911.479 228.389C903.017 217.046 894.276 205.332 886.014 193.797L881.046 186.888C857.6 154.308 831.019 117.369 822.398 77.4833C815.078 43.6468 803.893 -35.0105 816.075 -62.2207C824.988 -82.1254 850.4 -93.5195 874.975 -104.542C891.952 -112.155 907.985 -119.346 919.237 -129.189L919.755 -129.65C958.278 -163.32 958.278 -163.32 984.54 -164.192C992.483 -164.448 1002.37 -164.781 1016.31 -166.05C1035.02 -167.755 1046.07 -170.382 1054.15 -172.292C1059.27 -173.51 1062.99 -174.394 1066.29 -174.394C1074.39 -174.394 1081.15 -168.87 1103.55 -150.568C1169.77 -96.4674 1168.52 -2.39148 1167.31 88.5828C1165.8 203.076 1164.23 321.466 1298.5 358.942C1317.82 364.325 1336.61 367.068 1354.39 367.068C1404.88 367.068 1447.86 345.305 1478.7 304.137C1523.94 243.731 1535.96 149.463 1508.61 69.5625C1445.47 -114.872 1294.54 -220.33 1132.22 -320.801C984.672 -412.122 844.157 -437.294 724.031 -453.712C715.344 -454.904 707.068 -455.507 699.443 -455.507C650.731 -455.507 627.564 -431.603 598.247 -401.33C587.022 -389.731 575.399 -377.747 560.986 -365.519C544.487 -351.523 523.486 -341.936 503.175 -332.67C470.045 -317.559 438.762 -303.281 425.837 -271.546C398.406 -204.206 465.794 -151.734 525.252 -105.426C552.777 -83.9966 578.773 -63.7459 593.996 -43.5208C654.384 36.7 636.318 171.969 581.563 247.961C564.466 271.685 531.708 301.023 497.011 332.091C439.559 383.551 374.428 441.867 362.938 490.866C357.531 513.911 358.939 529.996 367.255 540.045C374.202 548.427 385.906 552.503 403.055 552.503C431.27 552.503 471.692 541.275 514.479 529.407C566.778 514.885 626.05 498.428 676.621 498.428C700.731 498.428 720.684 502.043 737.621 509.489C757.095 518.051 773.606 530.419 789.56 542.403C815.889 562.154 840.756 580.815 875.945 580.815C879.677 580.79 883.49 580.572 887.302 580.162ZM738.577 507.503C721.335 499.928 701.077 496.25 676.648 496.25C625.771 496.25 566.326 512.745 513.895 527.305C471.254 539.135 430.977 550.324 403.081 550.324C386.663 550.324 375.531 546.517 369.035 538.673C361.171 529.176 359.896 513.68 365.143 491.328C376.487 442.97 441.339 384.896 498.565 333.654C533.342 302.509 566.193 273.082 583.436 249.166C638.643 172.559 656.802 36.1489 595.843 -44.8282C580.447 -65.284 554.331 -85.6115 526.687 -107.144C467.827 -152.977 401.115 -204.924 427.949 -270.79C440.555 -301.73 471.453 -315.816 504.158 -330.747C524.615 -340.078 545.763 -349.729 562.487 -363.917C576.98 -376.222 588.629 -388.244 599.907 -399.882C628.853 -429.758 651.714 -453.366 699.469 -453.366C706.988 -453.366 715.158 -452.764 723.752 -451.598C843.652 -435.205 983.889 -410.084 1131.05 -319.007C1293.02 -218.753 1443.61 -113.54 1506.53 70.2162C1533.67 149.501 1521.76 242.988 1476.93 302.843C1446.54 343.421 1404.17 364.876 1354.44 364.876C1336.88 364.876 1318.29 362.172 1299.18 356.84C1239.68 340.229 1202.05 306.124 1184.12 252.575C1168.07 204.627 1168.85 145.631 1169.61 88.5828C1170.82 -2.89133 1172.07 -97.4928 1105.05 -152.247C1073.02 -178.419 1072.17 -178.816 1053.67 -174.42C1045.66 -172.523 1034.7 -169.908 1016.17 -168.229C1002.29 -166.96 992.444 -166.64 984.526 -166.384C957.454 -165.486 957.454 -165.486 918.32 -131.278L917.789 -130.817C906.776 -121.191 890.902 -114.065 874.085 -106.529C849.125 -95.3396 823.328 -83.7659 814.069 -63.1051C801.675 -35.4334 812.887 43.839 820.246 77.8935C828.973 118.215 855.687 155.346 879.252 188.093L884.22 195.001C892.496 206.537 901.25 218.277 909.712 229.62C959.327 296.127 1010.63 364.889 1009.37 450.621C1008.56 506.08 945.698 571.549 887.103 577.983C883.384 578.393 879.651 578.598 876.038 578.598C841.619 578.598 817.044 560.167 791.021 540.647C774.908 528.625 758.303 516.167 738.577 507.503Z" fill="white"/>
<path d="M1936.88 -86.7522C1934.61 -88.3543 1931.09 -91.315 1926.63 -95.0576C1909.54 -109.425 1880.96 -133.47 1860.82 -133.47C1852.94 -133.47 1847.04 -129.791 1843.32 -122.511C1838.65 -113.398 1848.93 -92.2763 1855.74 -78.293C1857.4 -74.8709 1858.85 -71.923 1859.74 -69.7954C1861.57 -65.4377 1863.26 -61.426 1864.68 -57.8373C1874.22 -33.7672 1884.08 -8.88965 1891.38 18.1155C1892.14 20.9352 1892.88 24.1138 1893.67 27.4975C1897.02 41.9037 1901.17 59.8217 1911.51 68.6013C1915.52 72.0105 1919.43 74.2792 1923.12 75.343C1924.81 75.83 1926.49 76.0735 1928.13 76.0735C1940.33 76.0735 1948.73 62.6927 1956.85 49.7348C1958.69 46.787 1960.61 43.7365 1962.52 40.9296L1964.33 38.2637C1995.25 -7.18496 2013.93 -34.6131 1957.07 -72.7049C1951.55 -76.4346 1944.37 -81.4716 1936.88 -86.7522ZM1962.47 37.0589L1960.66 39.7249C1958.72 42.5574 1956.81 45.6334 1954.95 48.5941C1947.15 61.0265 1939.09 73.8818 1928.14 73.8818C1926.72 73.8818 1925.26 73.6639 1923.77 73.241C1920.4 72.2669 1916.78 70.1521 1913.01 66.9479C1903.23 58.6426 1899.15 41.0963 1895.87 26.9977C1895.09 23.6012 1894.35 20.3841 1893.58 17.5516C1886.23 -9.55613 1876.35 -34.4978 1866.8 -58.632C1865.37 -62.2207 1863.67 -66.2452 1861.83 -70.6286C1860.91 -72.8074 1859.45 -75.7937 1857.78 -79.2415C1851.55 -92.0199 1841.13 -113.399 1845.33 -121.576C1848.69 -128.138 1853.76 -131.316 1860.82 -131.316C1880.12 -131.316 1908.31 -107.605 1925.15 -93.4298C1929.65 -89.6488 1933.2 -86.6496 1935.55 -84.9963C1943.04 -79.7157 1950.23 -74.6531 1955.8 -70.9362C2010.87 -34.0492 1992.65 -7.2875 1962.47 37.0589Z" fill="white"/>
<path d="M1973.68 -135.379C1963.78 -142.352 1953.9 -150.144 1943.43 -158.385C1911.44 -183.583 1875.18 -212.152 1842.59 -212.152C1836.18 -212.152 1830.08 -211.063 1823.94 -208.833C1766.38 -187.839 1774.65 -129.125 1784.69 -95.9929C1790.83 -75.755 1798.76 -55.7222 1806.42 -36.3687C1815.36 -13.7982 1824.61 9.54138 1831.04 33.3167C1834.91 47.6588 1836.87 62.7699 1838.75 77.3812C1844.55 122.189 1850.01 164.523 1911.96 164.523C1916.88 164.523 1922.16 164.254 1927.69 163.729C1934.73 163.062 1940.55 161.985 1945.46 160.46C1961.95 155.346 1966.88 145.708 1974.33 131.11C1976.59 126.701 1979.14 121.702 1982.31 116.319C1987.17 108.065 1992.46 100.221 1997.99 92.6589V90.4031C1992.05 98.4521 1986.36 106.822 1981.14 115.665C1977.95 121.074 1975.39 126.098 1973.13 130.533C1965.83 144.824 1961 154.27 1945.06 159.217C1940.24 160.717 1934.52 161.768 1927.57 162.421C1922.1 162.947 1916.85 163.203 1911.97 163.203C1851.21 163.203 1846.07 123.342 1840.11 77.2017C1838.21 62.552 1836.26 47.4024 1832.35 32.9706C1825.9 9.11839 1816.64 -14.2468 1807.68 -36.8558C1800.02 -56.1964 1792.1 -76.1908 1785.98 -96.3902C1776.07 -129.099 1767.87 -187.031 1824.42 -207.654C1830.4 -209.832 1836.35 -210.896 1842.61 -210.896C1874.71 -210.896 1910.77 -182.481 1942.59 -157.411C1953.07 -149.157 1962.97 -141.352 1972.89 -134.367C1980.39 -129.086 1986.97 -124.459 1991.92 -121.152C1993.92 -119.819 1995.95 -118.474 1997.99 -117.128V-118.704C1996.22 -119.871 1994.43 -121.05 1992.69 -122.216C1987.74 -125.472 1981.16 -130.099 1973.68 -135.379Z" fill="white"/>
<path d="M1938.21 832.155C1918.46 861.801 1895.13 890.267 1877.01 911.761C1876.02 912.94 1874.93 914.17 1873.8 915.452C1865.72 924.59 1855.68 935.959 1862.77 947.392C1869.64 958.453 1889.26 960.683 1903.59 962.311C1906.17 962.605 1908.6 962.887 1910.66 963.182C1941.49 967.694 1970.7 976.05 1997.97 987.97V986.547C1970.74 974.704 1941.61 966.386 1910.87 961.888C1908.8 961.58 1906.34 961.311 1903.77 961.016C1889.71 959.427 1870.48 957.235 1863.95 946.725C1857.35 936.087 1867.05 925.103 1874.83 916.285C1875.96 915.003 1877.07 913.76 1878.06 912.581C1896.21 891.061 1919.56 862.557 1939.35 832.847C1956.91 806.496 1969.32 779.221 1982.45 750.332C1986.88 740.578 1992.16 731.824 1997.97 724.173V722.007C1991.65 730.056 1985.95 739.374 1981.21 749.807C1968.1 778.657 1955.71 805.893 1938.21 832.155Z" fill="white"/>
<path d="M1949.34 867.593C1934.81 884.435 1918.34 903.519 1919.12 921.796C1919.72 935.882 1933.84 938.253 1946.31 940.355C1949.31 940.855 1952.14 941.329 1954.81 941.944C1967.58 944.905 1982.71 949.993 1997.97 956.068V954.671C1982.82 948.673 1967.81 943.623 1955.13 940.688C1952.42 940.06 1949.57 939.586 1946.55 939.073C1934 936.958 1921.02 934.78 1920.48 921.745C1919.72 903.968 1936.02 885.088 1950.39 868.427C1956.32 861.57 1961.91 855.084 1965.79 849.252C1978.59 830.04 1988.61 810.84 1997.97 791.166V788.039C1988.26 808.585 1977.95 828.566 1964.64 848.548C1960.81 854.315 1955.24 860.762 1949.34 867.593Z" fill="white"/>
<path d="M1974.75 -97.2611C1969.55 -100.747 1962.51 -105.695 1955.15 -110.885C1944.57 -118.332 1934.38 -126.355 1923.54 -134.904C1921.1 -136.827 1918.44 -139.006 1915.6 -141.326C1897.51 -156.129 1872.75 -176.393 1849.95 -176.393C1843.67 -176.393 1837.84 -174.816 1832.62 -171.702C1793.22 -148.195 1816.92 -92.0703 1831.06 -58.5285C1832.79 -54.4399 1834.41 -50.582 1835.76 -47.1855C1845.01 -23.8588 1854.56 0.24971 1861.43 25.6656C1862.72 30.4335 1864.02 36.0473 1865.39 41.9943C1871.67 69.2045 1880.27 106.476 1901.86 119.908C1905.43 122.126 1909.17 123.51 1913 124.022C1914.14 124.176 1915.32 124.253 1916.49 124.253C1942.89 124.253 1969.21 85.5589 1988.42 57.3105C1991.9 52.1965 1995.08 47.5697 1997.97 43.5323V41.2766C1994.77 45.6343 1991.22 50.8123 1987.29 56.5928C1968.24 84.5977 1942.15 122.959 1916.48 122.959C1915.36 122.959 1914.26 122.882 1913.17 122.741C1909.53 122.254 1905.97 120.934 1902.58 118.819C1881.46 105.681 1872.93 68.7047 1866.7 41.7124C1865.33 35.7653 1864.03 30.1387 1862.73 25.3452C1855.84 -0.134796 1846.27 -24.2946 1837.01 -47.647C1835.66 -51.0563 1834.04 -54.927 1832.31 -59.0156C1818.32 -92.1729 1794.9 -147.67 1833.33 -170.599C1838.34 -173.586 1843.93 -175.098 1849.97 -175.098C1872.27 -175.098 1896.82 -155.001 1914.75 -140.339C1917.59 -138.006 1920.26 -135.827 1922.77 -133.853C1933.57 -125.343 1943.78 -117.307 1954.38 -109.847C1961.75 -104.656 1968.79 -99.7091 1974.01 -96.2101C1981.01 -91.532 1988.1 -86.9051 1995.65 -81.9706C1996.45 -81.4451 1997.2 -80.9709 1998 -80.4582V-82.0091C1997.44 -82.368 1996.91 -82.714 1996.35 -83.0728C1988.83 -87.9689 1981.75 -92.583 1974.75 -97.2611Z" fill="white"/>
<path d="M1741.42 210.099C1743.97 213.316 1748.74 217.687 1760.74 218.635C1805.6 222.173 1873.4 227.53 1930.66 277.849L1931.32 278.413C1950.88 295.665 1966.78 317.492 1978.55 343.292C1981.81 350.419 1987.09 354.494 1993.06 354.494C1994.68 354.494 1996.34 354.174 1997.97 353.52V351.969C1996.35 352.713 1994.71 353.187 1993.06 353.187C1987.65 353.187 1982.82 349.38 1979.79 342.754C1967.93 316.787 1951.93 294.819 1932.22 277.439L1931.55 276.862C1873.96 226.249 1805.89 220.878 1760.84 217.315C1749.38 216.405 1744.88 212.304 1742.49 209.292C1736.77 202.076 1736.04 190.964 1736.71 187.542C1742.95 161.036 1750.71 128.046 1747.79 91.9405C1742.87 30.8167 1717.55 -21.6941 1693.06 -72.4874C1673.4 -113.245 1651.12 -159.45 1658.85 -180.508C1672.63 -217.985 1728.91 -271.726 1752.46 -293.092C1767.43 -306.665 1785.22 -313.547 1805.32 -313.547C1816.82 -313.547 1826.75 -311.215 1833.04 -309.254C1874.33 -296.411 1932.79 -266.984 1997.95 -226.572V-228.097C1932.98 -268.329 1874.69 -297.654 1833.45 -310.471C1827.06 -312.458 1817 -314.829 1805.32 -314.829C1784.86 -314.829 1766.76 -307.831 1751.53 -294.014C1727.9 -272.585 1671.44 -218.664 1657.58 -180.918C1649.66 -159.36 1672.06 -112.899 1691.84 -71.9106C1716.28 -21.2327 1741.54 31.1756 1746.45 92.0686C1749.34 127.982 1741.61 160.857 1735.38 187.337C1734.69 190.912 1735.45 202.563 1741.42 210.099Z" fill="white"/>
<path d="M1825.93 170.841C1836.15 176.237 1850.18 178.544 1863.75 180.775C1873.8 182.428 1884.17 184.132 1892.63 187.068C1897.97 188.926 1903.87 191.733 1910.11 194.706C1922.99 200.82 1937.59 207.767 1950.87 207.767C1953.43 207.767 1955.9 207.51 1958.21 206.998C1958.84 206.857 1959.44 206.703 1960.05 206.536C1979.07 201.064 1989.23 178.044 1997.97 156.897V153.385C1997.92 153.513 1997.87 153.641 1997.81 153.769C1988.93 175.327 1978.86 199.769 1959.65 205.293C1959.08 205.46 1958.49 205.601 1957.91 205.729C1955.69 206.216 1953.33 206.472 1950.87 206.472C1937.89 206.472 1923.45 199.602 1910.7 193.54C1904.42 190.554 1898.49 187.734 1893.08 185.85C1884.52 182.864 1874.08 181.146 1863.98 179.493C1850.52 177.288 1836.6 175.007 1826.59 169.701C1804.42 157.973 1806.73 136.492 1809.17 113.755C1810.13 104.86 1811.12 95.6447 1810.45 87.2369C1804.64 15.1803 1776.9 -42.3675 1750.07 -98.0185C1737.89 -123.293 1737 -150.978 1747.56 -175.984C1759 -203.04 1782.96 -224.918 1813.3 -235.979C1822.76 -239.427 1832.62 -241.17 1842.59 -241.17C1885.9 -241.17 1926.56 -209.128 1962.44 -180.854C1972.6 -172.843 1982.19 -165.294 1991.4 -158.809C1993.78 -157.13 1995.93 -155.618 1997.97 -154.195V-155.797C1996.17 -157.066 1994.25 -158.412 1992.19 -159.86C1983.02 -166.32 1973.44 -173.869 1963.29 -181.867C1927.24 -210.269 1886.38 -242.478 1842.59 -242.478C1832.44 -242.478 1822.43 -240.696 1812.82 -237.197C1782.13 -226.008 1757.88 -203.873 1746.31 -176.483C1735.61 -151.132 1736.51 -123.075 1748.85 -97.4802C1775.63 -41.9318 1803.33 15.5007 1809.1 87.3265C1809.77 95.619 1808.79 104.757 1807.83 113.601C1805.44 135.787 1802.97 158.704 1825.93 170.841Z" fill="white"/>
<path d="M1796.86 194.181C1806.04 196.411 1815.02 198.411 1823.69 200.346C1870.62 210.843 1911.15 219.917 1951.68 255.318L1952.49 256.022C1961.8 264.161 1969.16 268.109 1974.98 268.109C1975.88 268.109 1976.77 268.006 1977.62 267.827C1986.43 265.866 1990.81 254.01 1995.64 238.72C1996.38 236.349 1997.19 234.003 1997.99 231.645V227.377C1996.72 231.017 1995.5 234.67 1994.35 238.348C1989.66 253.228 1985.42 264.764 1977.32 266.571C1971.49 267.891 1963.79 264.136 1953.41 255.061L1952.6 254.356C1911.8 218.725 1871.11 209.625 1824.01 199.09C1815.35 197.155 1806.38 195.142 1797.2 192.925C1764.28 184.953 1769.85 155.09 1775.23 126.213C1777.58 113.588 1780.01 100.541 1779.14 89.6208C1773.78 23.0371 1747.26 -31.9986 1721.58 -85.2399C1718.51 -91.5971 1715.23 -97.8261 1712.04 -103.837C1695.54 -135.046 1681.3 -162.013 1701.67 -195.183C1716.99 -220.138 1739.94 -240.568 1762.13 -260.332C1766.13 -263.895 1770.12 -267.445 1774.04 -270.982C1782.6 -278.737 1794.27 -282.671 1808.71 -282.671C1863.99 -282.671 1949.06 -225.88 1998 -191.671V-193.274C1948.82 -227.623 1864.13 -283.966 1808.71 -283.966C1793.92 -283.966 1781.94 -279.916 1773.12 -271.918C1769.21 -268.368 1765.23 -264.83 1761.23 -261.267C1738.97 -241.452 1715.95 -220.958 1700.52 -195.837C1679.77 -162.039 1694.88 -133.47 1710.86 -103.235C1714.03 -97.2366 1717.31 -91.0204 1720.38 -84.6633C1745.99 -31.5372 1772.48 23.3959 1777.81 89.7361C1778.67 100.502 1776.25 113.46 1773.92 125.995C1768.39 155.436 1762.72 185.914 1796.86 194.181Z" fill="white"/>
<path d="M852.22 817.902C840.876 834.423 826.742 854.994 831.63 869.195C833.623 874.988 838.631 879.321 846.521 882.063C848.009 882.576 849.656 882.832 851.397 882.832C868.745 882.832 896.203 856.993 920.432 834.192C935.842 819.683 950.414 805.982 959.168 802.15C1001.03 783.835 1058.72 775.119 1109.62 767.429C1129.72 764.391 1148.7 761.533 1166.22 758.214C1206.17 750.665 1244.74 746.832 1280.86 746.832C1399.09 746.832 1498.34 787.885 1575.91 868.823C1584.61 877.898 1597.25 882.499 1613.5 882.499C1664.14 882.499 1750.97 834.948 1812.15 746.807C1848.73 694.091 1901.87 586.314 1846.62 456.85C1824.47 404.955 1791.57 380.795 1743.06 380.795C1706.14 380.795 1664.05 393.881 1615.29 409.043C1555.3 427.705 1487.32 448.84 1414.16 448.84C1357.22 448.84 1304.91 436.164 1254.25 410.107C1098.06 329.732 1093.51 183.12 1106.99 64.3717C1112.24 18.1924 1103.72 -18.3614 1082.38 -41.3292C1067.3 -57.5554 1046.76 -66.1299 1022.97 -66.1299C977.898 -66.1299 921.668 -32.3702 901.383 32.1372C882.281 92.8764 927.553 148.066 979.957 211.984C1039.06 284.053 1106.03 365.748 1093.04 474.768C1086.6 528.804 1066.14 580.661 1038.33 613.498C1017.23 638.389 998.594 640.606 978.855 642.951C963.791 644.746 948.209 646.592 929.917 657.781C915.982 666.317 911.599 680.851 906.963 696.244C903.761 706.856 900.467 717.828 893.745 726.812C890.066 731.747 883.663 732.811 876.901 733.951C867.961 735.451 857.839 737.143 852.459 748.294C848.727 756.061 853.655 765.186 858.424 774.017C862.396 781.374 866.513 788.987 865.278 795.319C864.269 800.356 858.676 808.494 852.22 817.902ZM860.695 772.838C856.006 764.161 851.583 755.971 854.784 749.319C859.579 739.36 868.599 737.848 877.313 736.387C884.3 735.22 891.527 734.003 895.818 728.248C902.792 718.917 906.166 707.728 909.42 696.923C913.91 681.992 918.161 667.906 931.272 659.87C949.072 648.988 964.349 647.168 979.133 645.412C999.405 643.003 1018.55 640.734 1040.29 615.062C1068.4 581.879 1089.07 529.535 1095.58 475.05C1108.7 365.017 1041.37 282.887 981.963 210.433C930.01 147.066 885.137 92.3381 903.841 32.8549C923.753 -30.499 978.841 -63.6434 1022.96 -63.6434C1045.99 -63.6434 1065.86 -55.3509 1080.44 -39.6758C1101.26 -17.2463 1109.55 18.6282 1104.4 64.0896C1090.82 183.62 1095.46 331.219 1253.02 412.299C1304.06 438.561 1356.77 451.326 1414.15 451.326C1487.7 451.326 1555.9 430.114 1616.08 411.414C1664.62 396.316 1706.53 383.281 1743.04 383.281C1791.01 383.281 1822.22 406.262 1844.21 457.799C1899.01 586.198 1846.29 693.117 1809.98 745.423C1751.51 829.668 1664.15 880.013 1613.49 880.013C1597.99 880.013 1585.98 875.681 1577.79 867.132C1499.73 785.642 1399.82 744.333 1280.85 744.333C1244.56 744.333 1205.82 748.178 1165.7 755.753C1148.24 759.06 1129.28 761.918 1109.21 764.956C1058.15 772.671 1000.25 781.412 958.079 799.856C948.913 803.868 934.872 817.082 918.613 832.385C894.742 854.853 867.682 880.32 851.397 880.32C849.949 880.32 848.607 880.115 847.398 879.692C840.198 877.193 835.841 873.502 834.101 868.401C829.624 855.353 843.36 835.346 854.399 819.273C861.014 809.635 866.739 801.304 867.815 795.742C869.184 788.564 864.866 780.566 860.695 772.838Z" fill="white"/>
<path d="M573.526 825.053C593.771 807.392 625.824 791.909 662.926 773.978C688.843 761.456 723.646 730.708 721.561 705.549C720.431 691.809 708.968 681.53 687.501 674.993C679.066 672.43 669.82 671.174 659.26 671.174C631.762 671.174 600.824 679.979 573.526 687.746C561.053 691.296 549.27 694.642 538.523 697C448.193 716.789 393.664 728.734 344.806 728.734C301.54 728.734 263.602 719.378 213.867 696.461C165.993 674.404 131.335 653.692 103.453 637.03C62.4454 612.524 43.2902 601.681 19.0473 601.681C7.7428 601.681 -5.7801 604.129 -21.9863 609.102V611.37C-5.74025 606.333 7.79593 603.847 19.0473 603.847C42.6925 603.847 61.6484 614.587 102.31 638.888C130.206 655.563 164.93 676.301 212.911 698.423C262.978 721.493 301.195 730.913 344.819 730.913C393.929 730.913 448.552 718.942 539.028 699.127C549.841 696.756 561.664 693.398 574.177 689.835C601.329 682.107 632.108 673.353 659.273 673.353C669.608 673.353 678.627 674.57 686.837 677.07C707.347 683.299 718.28 692.95 719.329 705.728C721.322 729.939 687.275 759.802 661.93 772.043C624.682 790.038 592.495 805.597 572.025 823.451C510.269 877.333 520.218 947.672 538.962 1010.81H541.3C522.636 948.108 512.553 878.243 573.526 825.053Z" fill="white"/>
<path d="M1937.12 522.32C1942.88 525.883 1952.25 527.832 1963.49 527.832C1973.5 527.832 1985.35 526.217 1997.96 522.513V519.347C1985.34 523.153 1973.48 524.807 1963.49 524.807C1952.99 524.807 1944 522.974 1938.81 519.77C1912.44 503.518 1900.78 474.821 1888.43 444.458C1877.78 418.247 1866.77 391.139 1845.4 372.029L1845.33 371.132L1844.4 371.158C1819.82 350.241 1786.69 340.064 1743.16 340.064C1700.72 340.064 1656.05 349.895 1620.16 357.803C1595.63 363.199 1574.46 367.864 1560.83 367.864C1552.82 367.864 1547.96 366.275 1545.95 363.006C1543.28 358.649 1545.3 350.51 1551.94 338.782C1582.96 284.131 1645.61 153.86 1641.26 99.9398C1637.85 57.4005 1616.65 13.4643 1596.16 -29.0237C1566.5 -90.5447 1535.82 -154.168 1558.15 -214.945C1583.64 -284.285 1695.9 -408.224 1775.79 -418.734C1780.45 -419.349 1785.47 -419.657 1790.73 -419.657C1842.7 -419.657 1918.71 -389.781 1997.96 -346.511V-349.753C1918.69 -392.921 1842.74 -422.694 1790.73 -422.694C1785.33 -422.694 1780.16 -422.374 1775.36 -421.746C1694.46 -411.095 1580.91 -285.964 1555.18 -215.971C1532.42 -154.027 1563.38 -89.8398 1593.31 -27.7549C1613.69 14.4896 1634.74 58.1696 1638.13 100.17C1641.99 148.234 1587.34 270.097 1549.18 337.321C1541.75 350.407 1539.87 359.059 1543.24 364.544C1545.86 368.812 1551.61 370.889 1560.83 370.889C1574.82 370.889 1596.15 366.198 1620.86 360.751C1656.59 352.881 1701.08 343.089 1743.16 343.089C1786.18 343.089 1818.76 353.137 1842.78 373.811C1863.93 392.472 1874.9 419.439 1885.49 445.534C1898.05 476.397 1909.89 505.53 1937.12 522.32Z" fill="white"/>
<path d="M1910.92 720.046C1899.06 746.141 1887.86 770.775 1873.65 792.102C1790.91 916.246 1698.66 937.176 1601.01 959.324C1593.57 961.016 1585.76 962.618 1578.21 964.169C1545.67 970.859 1512.04 977.768 1484.63 994.929C1476.05 1000.3 1469.5 1005.61 1464.93 1010.81H1467.87C1472.21 1006.22 1478.21 1001.53 1485.86 996.737C1512.93 979.793 1546.35 972.923 1578.68 966.284C1586.26 964.733 1594.08 963.118 1601.53 961.426C1699.63 939.176 1792.29 918.156 1875.54 793.268C1889.84 771.813 1901.08 747.089 1913 720.866C1931.9 679.301 1953.33 632.186 1982.95 616.447C1988.21 614.524 1993.19 612.845 1997.97 611.371V609.103C1992.91 610.653 1987.61 612.435 1982.02 614.499C1951.59 630.648 1929.99 678.109 1910.92 720.046Z" fill="white"/>
<path d="M1444.27 963.822C1497.19 941.059 1545.06 930.203 1591.36 919.693C1684.34 898.597 1764.66 880.384 1838.17 770.082C1850.56 751.497 1861.12 728.273 1872.3 703.69C1895.65 652.346 1919.8 599.233 1964.62 577.303C1976.69 572.791 1987.72 569.305 1997.99 566.691V563.576C1987.31 566.255 1975.83 569.882 1963.17 574.624C1917.37 597.028 1892.99 650.628 1869.41 702.473C1858.28 726.94 1847.77 750.049 1835.53 768.441C1762.69 877.718 1682.96 895.803 1590.63 916.745C1544.19 927.281 1496.18 938.175 1442.98 961.053C1408.37 975.934 1385.25 993.185 1375.65 1010.81H1379.16C1388.82 994.313 1411.16 978.061 1444.27 963.822Z" fill="white"/>
<path d="M1454.64 860.225C1446.31 834.834 1409.9 815.878 1346.39 803.882C1304.57 795.986 1261.82 791.975 1219.36 791.975C1156.94 791.975 1093.72 800.588 1031.47 817.57C1023.04 819.864 1014.57 822.376 1006.31 825.017C898.898 859.417 836.903 916.747 809.073 1010.81H812.368C840.064 918.285 901.369 861.827 1007.29 827.888C1015.52 825.26 1023.93 822.761 1032.32 820.479C1094.28 803.574 1157.21 794.999 1219.34 794.999C1261.61 794.999 1304.16 798.985 1345.78 806.855C1408.07 818.621 1443.68 836.885 1451.64 861.134C1457.72 879.706 1447.64 902.379 1421.66 928.526C1394.78 955.557 1367.62 982.869 1343.21 1010.81H1347.35C1371.26 983.613 1397.72 956.979 1423.93 930.628C1450.76 903.623 1461.09 879.937 1454.64 860.225Z" fill="white"/>
<path d="M1205.62 619.291C1207.47 620.278 1209.45 620.778 1211.48 620.778C1219.46 620.778 1227.3 613.267 1234.22 606.628C1238.23 602.783 1242.02 599.156 1245.11 597.72C1249.17 595.849 1252.94 594.952 1256.66 594.952C1263.78 594.952 1269.84 598.233 1276.85 602.039C1279.36 603.398 1281.95 604.808 1284.74 606.141C1291.43 609.332 1297.98 610.883 1304.76 610.883C1311.57 610.883 1317.88 609.384 1324.56 607.794C1331.51 606.141 1338.69 604.436 1347.09 604.27L1348.17 604.257C1365.24 604.257 1380.86 612.78 1395.97 621.021C1411 629.224 1426.53 637.709 1443.44 637.709C1451.57 637.709 1459.37 635.812 1467.27 631.928C1473.6 628.814 1478.43 624.982 1482.71 621.598C1489.67 616.074 1495.69 611.293 1505.82 611.293C1508.78 611.293 1511.96 611.691 1515.51 612.498C1544.35 619.06 1557.02 644.643 1569.28 669.367C1575.03 680.966 1580.97 692.937 1588.46 702.498C1603.5 721.685 1622.89 732.246 1643.08 732.246L1644.13 732.233C1664.39 731.875 1683.82 721.108 1698.88 701.921C1719.29 675.89 1756.41 591.043 1741.04 548.824C1736.49 536.353 1727.77 528.471 1715.08 525.382C1710.6 524.292 1706.46 523.754 1702.4 523.754C1689.27 523.754 1679.47 529.419 1668.11 535.956C1665.56 537.43 1662.92 538.955 1660.13 540.467C1637.11 553.041 1614.28 555.642 1590.12 558.398C1580.64 559.475 1570.83 560.59 1560.91 562.358C1549.84 564.319 1539.91 568.036 1530.29 571.638C1517.63 576.367 1505.68 580.84 1492.54 580.84C1483.64 580.84 1474.96 578.777 1466.01 574.522C1447.52 565.755 1427.35 557.629 1405.08 557.629C1397.69 557.629 1390.47 558.475 1382.96 560.205C1379.55 561 1376.2 561.82 1372.9 562.627C1360.02 565.793 1347.85 568.78 1335.51 568.78C1325.48 568.78 1316.08 566.767 1306.75 562.64L1302.78 560.872C1285.82 553.31 1268.28 545.479 1250.33 545.479C1240.44 545.479 1231.29 547.798 1222.36 552.579C1211.12 558.59 1196.08 583.904 1196.11 601.54C1196.12 609.845 1199.42 615.984 1205.62 619.291ZM1223.46 554.45C1232.04 549.862 1240.84 547.619 1250.35 547.619C1267.79 547.619 1285.11 555.335 1301.85 562.807L1305.82 564.576C1315.44 568.844 1325.16 570.907 1335.51 570.907C1348.13 570.907 1360.43 567.883 1373.45 564.691C1376.73 563.884 1380.06 563.063 1383.48 562.282C1390.8 560.59 1397.86 559.769 1405.06 559.769C1426.88 559.769 1446.76 567.78 1465 576.444C1474.27 580.84 1483.28 582.981 1492.52 582.981C1506.09 582.981 1518.23 578.444 1531.09 573.637C1540.6 570.074 1550.44 566.396 1561.3 564.473C1571.17 562.717 1580.93 561.615 1590.37 560.538C1614.76 557.757 1637.81 555.142 1661.23 542.351C1664.03 540.826 1666.69 539.288 1669.25 537.814C1680.33 531.431 1689.88 525.907 1702.38 525.907C1706.25 525.907 1710.22 526.42 1714.51 527.458C1726.43 530.367 1734.64 537.788 1738.9 549.529C1754.02 591.068 1717.26 674.852 1697.07 700.601C1682.44 719.237 1663.62 729.696 1644.07 730.042L1643.06 730.054C1623.58 730.054 1604.81 719.801 1590.21 701.165C1582.87 691.783 1577.24 680.428 1571.27 668.405C1558.78 643.22 1545.87 617.163 1515.98 610.358C1512.26 609.512 1508.93 609.102 1505.78 609.102C1494.84 609.102 1488.53 614.1 1481.23 619.893C1476.85 623.367 1472.32 626.968 1466.21 629.967C1458.62 633.697 1451.16 635.517 1443.4 635.517C1427.08 635.517 1412.48 627.558 1397.03 619.124C1381.67 610.742 1365.78 602.078 1348.13 602.078L1347.01 602.091C1338.37 602.27 1331.06 604 1324.01 605.68C1317.46 607.23 1311.28 608.704 1304.73 608.704C1298.22 608.704 1292.18 607.269 1285.7 604.18C1282.97 602.885 1280.4 601.488 1277.91 600.143C1270.92 596.349 1264.34 592.773 1256.62 592.773C1252.55 592.773 1248.46 593.747 1244.12 595.759C1240.68 597.349 1236.76 601.104 1232.6 605.077C1226 611.409 1218.49 618.586 1211.44 618.586C1209.77 618.586 1208.2 618.189 1206.66 617.381C1201.13 614.446 1198.33 609.102 1198.32 601.501C1198.33 583.609 1213.99 559.513 1223.46 554.45Z" fill="white"/>
<path d="M916.074 772.402C918.944 773.12 924.111 773.504 930.647 773.504C944.302 773.504 994.98 771.543 1074.01 746.358C1140.09 725.3 1217.36 713.701 1291.59 713.701C1413.78 713.701 1494.94 731.362 1599.5 827.925C1606.92 834.782 1616.86 838.255 1629.06 838.255C1674.5 838.255 1743.22 790.538 1785.5 729.606C1818.54 682.017 1866.54 584.814 1816.95 468.616C1795.61 418.592 1768.81 411.697 1743.03 411.697C1711.16 411.697 1671.31 424.09 1625.1 438.458C1562.86 457.812 1492.34 479.741 1414.14 479.741C1351.8 479.741 1294.56 465.886 1239.15 437.369C1064.04 347.266 1061.66 179.416 1075.12 60.988C1079.28 24.3061 1073.38 -4.71137 1058.5 -20.7197C1049.55 -30.358 1037.59 -35.2412 1022.96 -35.2412C989.693 -35.2412 947.783 -9.0178 932.028 41.0834C917.801 86.3526 958.237 135.659 1005.06 192.784C1064.89 265.751 1139.35 356.558 1124.84 478.267C1120.68 513.129 1111.04 546.261 1096.18 576.765C1072.53 625.29 1041.26 666.483 1003.24 699.192C978.163 720.776 952.99 735.861 934.605 746.871C917.868 756.894 907.759 762.956 908.489 767.557C908.835 769.659 911.239 771.197 916.074 772.402ZM935.336 747.999C953.76 736.963 978.986 721.839 1004.16 700.192C1042.32 667.368 1073.7 626.033 1097.42 577.342C1112.36 546.71 1122.04 513.437 1126.21 478.447C1140.78 356.212 1066.13 265.161 1006.13 192.002C959.539 135.185 919.302 86.1091 933.33 41.5063C948.885 -7.9925 990.211 -33.8954 1022.97 -33.8954C1037.2 -33.8954 1048.82 -29.1531 1057.51 -19.8096C1072.12 -4.08331 1077.91 24.5752 1073.79 60.8854C1060.31 179.685 1062.71 348.073 1238.54 438.561C1294.14 467.168 1351.6 481.087 1414.16 481.087C1492.58 481.087 1563.22 459.119 1625.6 439.714C1671.64 425.398 1711.39 413.042 1743.06 413.042C1768.38 413.042 1794.69 419.835 1815.75 469.142C1865.09 584.776 1817.3 681.53 1784.41 728.914C1743.04 788.5 1673.37 836.986 1629.08 836.986C1617.25 836.986 1607.62 833.628 1600.46 827.015C1549.79 780.22 1502.63 750.472 1452.08 733.4C1408.56 718.712 1360.56 712.432 1291.62 712.432C1217.26 712.432 1139.83 724.057 1073.62 745.153C994.781 770.274 944.276 772.235 930.673 772.235C924.257 772.235 919.209 771.864 916.446 771.172C912.315 770.146 910.097 768.877 909.857 767.416C909.233 763.622 920.179 757.073 935.336 747.999Z" fill="white"/>
<path d="M1022.96 -5.32715C998.873 -5.32715 972.438 18.1662 963.777 39.2372C958.039 53.2076 962.409 77.1111 975.48 103.155C987.794 127.725 1004.21 146.579 1016.31 150.09C1018.16 150.629 1020.02 150.898 1021.84 150.898C1023.86 150.898 1025.88 150.565 1027.83 149.911C1043.47 144.656 1043.11 135.402 1042.34 115.126C1041.86 102.668 1041.21 85.5959 1043.87 62.141C1047.45 30.6627 1042.34 6.66945 1035.44 -0.76434C1033.22 -3.12265 1030.18 -5.32715 1022.96 -5.32715ZM1041.65 61.9103C1038.96 85.5318 1039.63 102.681 1040.11 115.216C1040.89 135.543 1041.18 143.144 1027.11 147.873C1023.85 148.975 1020.43 149.027 1016.99 148.027C1005.45 144.682 989.588 126.277 977.526 102.219C964.734 76.7009 960.377 53.4511 965.889 40.0447C974.285 19.6145 999.803 -3.16109 1022.98 -3.16109C1029.33 -3.16109 1031.94 -1.30263 1033.8 0.696804C1040.33 7.77173 1045.15 31.06 1041.65 61.9103Z" fill="white"/>
<path d="M1566.33 622.304C1571.24 624.214 1574.1 625.764 1577.73 627.712C1579.16 628.482 1580.7 629.327 1582.54 630.276C1601.03 639.837 1616.53 649.565 1627.37 658.422C1633.51 663.42 1638.53 665.856 1642.74 665.856C1648.9 665.856 1652.49 660.806 1655.37 656.076C1666.24 638.222 1670.06 624.444 1674.51 600.297C1675.06 597.349 1675.16 593.209 1672.6 590.262C1669.36 586.532 1662.94 585.878 1653.51 588.39C1625.06 595.991 1605.88 599.503 1581.58 603.937C1577.33 604.706 1572.96 605.514 1568.36 606.36C1563.67 607.231 1560.14 610.41 1559.77 614.101C1559.61 615.754 1559.93 619.817 1566.33 622.304ZM1568.87 608.833C1573.46 607.987 1577.83 607.18 1582.08 606.411C1606.43 601.963 1625.65 598.452 1654.23 590.825C1657.76 589.877 1660.84 589.403 1663.39 589.403C1666.77 589.403 1669.21 590.236 1670.63 591.889C1672.56 594.107 1672.43 597.465 1671.99 599.887C1667.59 623.726 1663.83 637.312 1653.15 654.833C1650.03 659.96 1647.07 663.382 1642.75 663.382C1639.18 663.382 1634.7 661.139 1629.06 656.538C1618.07 647.579 1602.41 637.748 1583.77 628.097C1581.95 627.161 1580.42 626.328 1579 625.559C1575.3 623.56 1572.37 621.971 1567.31 620.01C1563.94 618.702 1562.14 616.651 1562.37 614.383C1562.61 611.807 1565.35 609.487 1568.87 608.833Z" fill="white"/>
<path d="M1154.09 667.932C1158.22 667.932 1163.31 667.598 1169.64 666.906C1172.37 666.612 1237.53 659.575 1307.4 659.575C1334.63 659.575 1358.92 660.664 1379.56 662.805C1482.77 673.507 1572.08 720.994 1614.82 763.302C1622.68 771.082 1632.07 775.03 1642.72 775.03C1666.64 775.03 1696.1 754.946 1723.56 719.93C1771.66 658.601 1786.2 541.211 1762.37 494.981C1756.05 482.715 1747.21 476.229 1736.8 476.229C1735.92 476.229 1735.06 476.268 1734.17 476.358C1715.29 478.216 1689.11 485.624 1655.96 495.019C1593.87 512.591 1508.85 536.648 1416.65 538.071C1337.87 539.327 1247.82 509.233 1217.2 494.827C1207.2 490.123 1200.73 488.021 1196.23 488.021C1187.09 488.021 1186.71 496.403 1186.04 510.284C1185.52 521.319 1184.81 536.418 1179.23 553.682C1169.09 585.045 1157.6 608.82 1149.22 626.187C1139.91 645.451 1134.29 657.089 1138.27 663.125C1140.49 666.458 1145.37 667.932 1154.09 667.932ZM1150.45 626.738C1158.86 609.346 1170.37 585.519 1180.53 554.079C1186.16 536.648 1186.88 521.447 1187.4 510.348C1188.03 496.801 1188.38 489.328 1196.23 489.328C1200.45 489.328 1206.94 491.443 1216.62 496.006C1246.75 510.169 1334.16 539.417 1412.06 539.417C1413.61 539.417 1415.15 539.404 1416.67 539.378C1509.05 537.943 1594.19 513.86 1656.34 496.262C1689.43 486.893 1715.57 479.498 1734.32 477.652C1745.45 476.563 1754.49 482.599 1761.18 495.557C1784.85 541.467 1770.34 658.152 1722.49 719.148C1695.29 753.843 1666.21 773.735 1642.72 773.735C1632.44 773.735 1623.37 769.916 1615.77 762.405C1572.88 719.93 1483.25 672.251 1379.69 661.51C1359 659.37 1334.67 658.28 1307.39 658.28C1237.44 658.28 1172.21 665.317 1169.48 665.625C1163.19 666.317 1158.17 666.65 1154.08 666.65C1145.96 666.65 1141.3 665.304 1139.4 662.433C1135.84 656.986 1141.34 645.605 1150.45 626.738Z" fill="white"/>
<path d="M1053.64 717.547C1057.81 717.547 1063.17 716.522 1068.73 714.663C1131.59 693.631 1204.49 683.403 1291.59 683.403C1400.08 683.403 1507.59 692.99 1629.73 808.88C1633.24 812.2 1637.85 813.891 1643.44 813.891C1677.61 813.891 1740.73 750.743 1759.44 712.677C1761.14 709.203 1763 705.538 1764.95 701.654C1788.77 654.514 1828.63 575.613 1787.9 480.178C1771.63 442.035 1756.43 442.035 1743.03 442.035C1716.1 442.035 1678.4 453.763 1634.74 467.336C1570.31 487.381 1497.29 510.093 1414.14 510.093C1342.99 510.093 1285.42 497.481 1227.46 469.194C1218.48 464.811 1209.85 460.03 1202.22 455.813C1186.96 447.367 1174.91 440.689 1167.15 440.689C1161.11 440.689 1158.11 444.765 1158 453.147C1157.99 454.48 1158.2 456.634 1158.5 459.607C1166.81 541.815 1133.81 618.562 1060.46 687.696C1047.64 699.77 1042.23 708.447 1044.34 713.484C1045.49 716.137 1048.7 717.547 1053.64 717.547ZM1061.4 688.606C1108.58 644.132 1139.51 595.876 1153.3 545.173C1164.39 504.402 1161.21 472.911 1159.85 459.453C1159.55 456.518 1159.34 454.391 1159.35 453.135C1159.49 443.112 1163.87 441.958 1167.15 441.958C1174.55 441.958 1187.06 448.892 1201.56 456.916C1209.19 461.145 1217.86 465.939 1226.86 470.335C1285.02 498.724 1342.78 511.374 1414.14 511.374C1497.51 511.374 1570.63 488.625 1635.15 468.553C1678.7 455.019 1716.3 443.33 1743.02 443.33C1756 443.33 1770.71 443.33 1786.64 480.665C1827.13 575.561 1787.44 654.142 1763.73 701.09C1761.77 704.974 1759.91 708.639 1758.2 712.113C1739.63 749.91 1677.14 812.584 1643.42 812.584C1638.19 812.584 1633.9 811.02 1630.66 807.944C1573.9 754.101 1515.17 718.854 1451.09 700.154C1393.97 683.492 1340.97 682.095 1291.57 682.095C1204.31 682.095 1131.27 692.349 1068.27 713.433C1062.83 715.253 1057.64 716.253 1053.61 716.253C1050.57 716.253 1046.72 715.689 1045.58 712.984C1044.54 710.446 1045.17 703.91 1061.4 688.606Z" fill="white"/>
<path d="M772.132 273.864C769.13 271.237 766.447 269.968 763.936 269.968C757.653 269.968 753.243 277.671 746.587 289.334C739.693 301.408 730.248 317.954 713.909 334.719L709.114 339.628C690.384 358.789 681.829 367.53 683.928 372.221C684.884 374.361 687.78 375.31 693.306 375.31C698.009 375.31 704.943 374.643 716.46 373.092C721.215 372.452 726.064 372.118 730.873 372.118C769.808 372.118 802.247 393.177 825.945 408.557C839.813 417.554 850.772 424.668 858.623 424.668C861.917 424.668 864.614 423.399 866.633 420.899C891.474 390.113 804.545 302.228 772.132 273.864ZM864.853 419.566C863.259 421.54 861.213 422.502 858.61 422.502C851.45 422.502 840.743 415.555 827.193 406.75C803.269 391.215 770.485 369.939 730.873 369.939C725.971 369.939 721.016 370.273 716.154 370.926C704.743 372.464 697.902 373.131 693.306 373.131C688.976 373.131 686.518 372.529 685.987 371.349C684.472 367.966 694.927 357.276 710.748 341.101L715.543 336.193C732.082 319.236 741.606 302.561 748.553 290.372C754.823 279.388 758.968 272.121 763.936 272.121C765.876 272.121 768.067 273.21 770.631 275.466C810.881 310.7 886.891 392.266 864.853 419.566Z" fill="white"/>
<path d="M772.756 309.982C757.041 309.982 736.81 333.873 736.704 345.229C736.664 349.869 739.652 352.599 744.9 352.675C768.053 353.073 792.509 367.236 810.375 377.566C820.963 383.692 828.614 388.114 833.144 388.114C834.592 388.114 835.734 387.678 836.571 386.82C837.607 385.743 838.032 384.09 837.846 381.795C836.186 360.981 795.205 319.275 778.574 311.251C776.807 310.405 774.855 309.982 772.756 309.982ZM834.711 382.026C834.857 383.859 834.499 384.525 834.273 384.769C834.193 384.846 833.967 385.089 833.157 385.089C829.491 385.089 821.388 380.398 812.009 374.964C793.837 364.454 768.97 350.061 744.979 349.651C741.419 349.587 739.839 348.228 739.865 345.255C739.958 335.129 758.768 313.007 772.769 313.007C774.376 313.007 775.851 313.328 777.166 313.968C795.072 322.607 833.197 363.16 834.711 382.026Z" fill="white"/>
<path d="M891.526 534.93C922.212 531.559 951.144 511.206 965.225 483.073C978.084 457.388 985.031 413.823 945.166 352.136C928.044 325.656 909.38 298.907 891.327 273.043C839.706 199.102 790.955 129.25 770.817 59.1801C748.048 -20.0795 766.34 -85.4584 828.362 -146.582C882.068 -199.503 953.07 -229.866 1023.14 -229.866C1075.8 -229.866 1122.77 -212 1155.42 -179.534C1191.3 -143.865 1209.22 -91.7003 1207.27 -28.6668C1206.82 -14.0299 1206.1 1.09399 1205.33 17.0895C1202.62 73.9965 1199.54 138.491 1209.06 192.155C1220.02 253.856 1246 291.973 1288.49 308.686C1311.23 317.633 1332.79 322.157 1352.57 322.157C1388.53 322.157 1419.13 307.02 1441.08 278.375C1478.39 229.658 1487.33 146.232 1463.33 70.7794C1411.83 -91.1107 1288.05 -187.763 1105.04 -291.234C966.022 -369.827 848.607 -394.089 742.429 -408.611C734.512 -409.687 726.98 -410.238 720.019 -410.238C675.678 -410.238 654.57 -388.45 627.856 -360.868C617.588 -350.281 606.988 -339.322 593.81 -328.146C578.64 -315.278 565.436 -307.434 553.773 -300.526C535.069 -289.426 518.916 -279.852 501.142 -254.218C465.861 -203.323 513.071 -172.101 563.045 -139.046C589.453 -121.576 616.764 -103.517 631.39 -82.1517C723.327 52.2334 686.225 195.603 620.856 284.95C602.166 310.494 574.881 334.602 545.988 360.146C510.654 391.368 474.123 423.654 453.228 459.695C444.235 475.203 441.684 485.739 445.417 491.891C448.153 496.39 454.197 498.569 463.881 498.569H463.895C481.137 498.569 508.528 491.673 540.25 483.688C584.737 472.499 640.104 458.567 689.002 458.567C714.918 458.567 737.142 462.553 755.035 470.41C772.862 478.241 787.953 489.558 802.538 500.504C826.529 518.512 849.191 535.507 881.218 535.507C884.592 535.507 888.059 535.315 891.526 534.93ZM755.607 469.218C737.288 461.169 715.503 457.26 689.015 457.26C639.931 457.26 584.485 471.217 539.918 482.419C508.289 490.379 480.964 497.248 463.895 497.261H463.881C454.702 497.261 449.043 495.287 446.573 491.212C443.092 485.495 445.656 475.383 454.397 460.31C475.186 424.449 511.637 392.24 546.892 361.082C575.837 335.499 603.175 311.34 621.958 285.693C660.282 233.31 682.891 173.596 687.355 112.985C692.456 43.6845 674.004 -22.2071 632.506 -82.8694C617.748 -104.453 590.316 -122.589 563.802 -140.122C514.386 -172.805 467.707 -203.669 502.258 -253.501C519.872 -278.904 535.906 -288.414 554.477 -299.424C566.18 -306.37 579.437 -314.227 594.7 -327.172C607.931 -338.4 618.558 -349.371 628.839 -359.983C655.341 -387.335 676.263 -408.931 720.019 -408.931C726.9 -408.931 734.379 -408.393 742.23 -407.316C848.274 -392.82 965.544 -368.583 1104.35 -290.106C1287.08 -186.789 1410.64 -90.316 1462.03 71.1639C1485.91 146.245 1477.06 229.209 1439.99 277.618C1418.31 305.918 1388.09 320.875 1352.57 320.875C1332.96 320.875 1311.57 316.377 1288.99 307.495C1246.97 290.974 1221.27 253.177 1210.39 191.95C1200.88 138.414 1203.96 73.9964 1206.67 17.1535C1207.43 1.14526 1208.16 -13.9786 1208.61 -28.6283C1210.58 -92.0207 1192.52 -144.506 1156.38 -180.432C1123.47 -213.14 1076.16 -231.148 1023.14 -231.148C952.712 -231.148 881.364 -200.644 827.406 -147.479C794.448 -115.014 774.111 -81.5108 765.198 -45.0468C757.241 -12.4919 758.662 21.7164 769.528 59.539C789.719 129.814 838.537 199.743 890.211 273.786C908.264 299.638 926.915 326.374 944.024 352.841C983.57 414.028 976.715 457.132 964.016 482.522C950.135 510.258 921.614 530.329 891.38 533.648C887.966 534.02 884.552 534.212 881.232 534.212C849.669 534.212 827.193 517.345 803.375 499.479C788.736 488.482 773.58 477.113 755.607 469.218Z" fill="white"/>
<path d="M920.964 481.228C932.733 472.974 939.627 461.413 941.447 446.866C946.801 404.276 907.653 342.152 872.504 301.907C828.641 251.678 785.11 198.039 763.803 146.169C762.754 143.606 761.146 136.39 759.114 127.252C752.259 96.427 740.795 44.8262 724.204 44.8262C722.663 44.8262 721.096 45.2747 719.568 46.1591C712.674 50.1195 710.628 57.8737 713.338 69.8832C715.556 79.7137 720.631 91.0439 725.107 101.054C729.85 111.641 733.941 120.779 733.875 125.97C733.702 139.338 727.233 145.234 720.963 150.95C716.088 155.397 711.04 160.012 709.22 168.009C706.882 178.327 711.292 186.068 715.556 193.553C719.488 200.474 723.566 207.626 722.265 216.842C719.887 233.773 664.334 294.807 615.317 348.676C574.761 393.24 539.732 431.73 540.33 439.099C540.37 439.663 540.595 440.099 540.981 440.407C544.328 443.098 550.425 444.405 559.618 444.405C574.11 444.405 594.289 441.278 617.641 437.664C645.963 433.28 678.069 428.307 705.926 428.307C727.684 428.307 743.97 431.294 755.713 437.446C762.103 440.791 769.21 444.777 776.728 448.994C810.203 467.771 851.875 491.123 887.13 491.123C900.241 491.11 911.625 487.791 920.964 481.228ZM756.391 436.292C744.449 430.038 727.95 427 705.965 427C678.003 427 645.843 431.973 617.469 436.369C594.169 439.971 574.031 443.085 559.658 443.085C550.797 443.085 544.979 441.881 541.884 439.394C541.857 439.368 541.751 439.279 541.725 438.984C541.167 432.165 577.71 392.01 616.38 349.509C665.516 295.512 721.215 234.311 723.646 217.008C725.001 207.357 720.817 200.013 716.778 192.912C712.448 185.299 708.356 178.109 710.575 168.266C712.302 160.665 716.978 156.397 721.919 151.873C728.388 145.977 735.07 139.876 735.243 125.97C735.309 120.51 731.165 111.243 726.369 100.528C721.919 90.5825 716.858 79.3036 714.68 69.6012C712.116 58.207 713.949 50.9013 720.285 47.2742C721.614 46.518 722.942 46.1335 724.231 46.1335C739.746 46.1335 751.502 99.0801 757.825 127.521C759.951 137.082 761.478 143.99 762.581 146.656C783.955 198.693 827.565 252.434 871.508 302.753C906.484 342.806 945.446 404.532 940.145 446.712C938.365 460.875 931.657 472.141 920.206 480.177C911.094 486.573 899.988 489.816 887.196 489.816C852.3 489.816 810.801 466.553 777.472 447.853C769.9 443.636 762.793 439.65 756.391 436.292Z" fill="white"/>
<path d="M905.607 426.872C909.606 391.203 870.007 335.219 850.201 313.699C816.035 276.582 792.217 244.949 776.462 224.007C760.827 203.243 752.219 191.798 746.64 191.798C742.815 191.798 740.716 196.579 739.414 208.293C729.61 296.473 670.498 344.229 635.189 372.759C619.727 385.256 609.498 393.51 609.073 400.316C608.954 402.264 609.671 404.071 611.212 405.648C614.427 408.954 619.541 410.505 627.285 410.505C636 410.505 646.999 408.557 659.724 406.301C676.25 403.379 694.993 400.059 714.175 400.059C740.277 400.059 761.345 406.34 778.588 419.259C802.857 437.446 838.803 456.877 866.912 456.877C877.047 456.877 885.735 454.39 892.735 449.481C900.188 444.265 904.505 436.665 905.607 426.872ZM866.938 455.582C839.162 455.582 803.522 436.293 779.438 418.234C761.943 405.135 740.609 398.765 714.201 398.765C694.887 398.765 676.09 402.097 659.499 405.032C646.826 407.275 635.893 409.211 627.299 409.211C619.953 409.211 615.157 407.801 612.208 404.776C610.907 403.443 610.322 402.008 610.428 400.406C610.814 394.164 621.401 385.602 636.053 373.772C671.52 345.114 730.886 297.153 740.756 208.447C741.938 197.847 743.744 193.118 746.64 193.118C751.529 193.118 760.509 205.038 775.373 224.789C791.154 245.744 814.985 277.415 849.191 314.571C868.878 335.949 908.224 391.498 904.279 426.731C903.216 436.139 899.085 443.445 891.978 448.43C885.204 453.173 876.782 455.582 866.938 455.582Z" fill="white"/>
<path d="M1289.15 70.5118C1284.53 138.249 1304.69 184.877 1325.11 205.922C1334.45 215.548 1344.7 220.854 1353.96 220.867C1367.03 220.867 1376.86 210.946 1381.62 192.952C1412.29 76.9972 1307.88 -45.2375 1295.06 -55.4397C1291.35 -58.3876 1288.8 -58.7593 1287.16 -57.0162C1284.17 -53.8633 1285.1 -43.5201 1286.8 -24.7433C1288.8 -2.5573 1291.85 31.0101 1289.15 70.5118ZM1288.82 -55.5679C1289.04 -55.8114 1289.28 -55.9139 1289.61 -55.9139C1290.24 -55.9139 1291.43 -55.5423 1293.64 -53.7864C1306.34 -43.661 1409.85 77.4842 1379.45 192.4C1374.96 209.357 1365.92 218.688 1353.97 218.688C1345.34 218.688 1335.67 213.625 1326.76 204.435C1306.66 183.723 1286.83 137.698 1291.39 70.6528C1294.1 30.9846 1291.06 -2.67262 1289.04 -24.9484C1287.56 -41.3027 1286.49 -53.1199 1288.82 -55.5679Z" fill="white"/>
<path d="M1254.4 66.5893C1249.19 132.301 1262.64 185.479 1292.27 216.342C1307.77 232.478 1326.81 241.373 1345.88 241.373C1373.08 241.373 1394.84 223.148 1401.3 194.925C1420.21 112.474 1390.96 38.3025 1363.09 -9.40198C1330.33 -65.463 1288.43 -105.118 1268.25 -118.102C1260.88 -122.844 1255.69 -125.779 1252.53 -125.779C1251.37 -125.779 1250.45 -125.395 1249.76 -124.651C1247.17 -121.819 1248.22 -113.796 1250.33 -97.8257C1254.08 -69.5644 1261.03 -16.964 1254.4 66.5893ZM1250.79 -123.793C1251.21 -124.254 1251.77 -124.472 1252.54 -124.472C1255.34 -124.472 1260.56 -121.486 1267.52 -117.013C1313.07 -87.7132 1434.12 45.8901 1400 194.656C1393.67 222.25 1372.44 240.079 1345.9 240.079C1327.21 240.079 1308.52 231.338 1293.27 215.47C1263.9 184.876 1250.57 132.045 1255.75 66.7047C1262.38 -16.9896 1255.44 -69.6798 1251.69 -97.9923C1249.76 -112.591 1248.59 -121.396 1250.79 -123.793Z" fill="white"/>
<path d="M1228.58 70.8575C1223.41 152.642 1239.63 217.252 1274.26 252.768C1292.18 271.147 1313.91 280.849 1337.13 280.849C1381.55 280.849 1419.2 246.167 1430.8 194.54C1447.91 118.382 1433.2 43.4165 1387.09 -28.2684C1340.39 -100.902 1275.73 -147.863 1241.36 -169.395C1223.85 -180.366 1216.34 -184.929 1213.47 -181.597C1211.11 -178.841 1212.65 -170.959 1215.73 -155.271C1222.39 -121.28 1236.25 -50.5569 1228.58 70.8575ZM1214.51 -180.764C1214.88 -181.187 1215.39 -181.392 1216.1 -181.392C1219.73 -181.392 1227.59 -176.47 1240.61 -168.306C1355.16 -96.5695 1464.93 36.3544 1429.47 194.271C1418.02 245.282 1380.9 279.555 1337.12 279.555C1314.28 279.555 1292.88 269.981 1275.23 251.883C1240.85 216.624 1224.76 152.36 1229.9 70.9344C1237.6 -50.6466 1223.71 -121.473 1217.03 -155.502C1214.24 -169.831 1212.56 -178.482 1214.51 -180.764Z" fill="white"/>
<path d="M1341.69 168.97C1344.07 168.97 1346.14 167.381 1347.86 164.254C1356.6 148.438 1356.45 93.7097 1333.25 60.3986C1330.24 56.0793 1325.87 56.6432 1322.59 62.0903C1313.87 76.5734 1310.22 122.573 1333.94 162.69C1336.41 166.856 1339.02 168.97 1341.69 168.97ZM1325.31 63.6028C1326.46 61.6803 1327.71 60.5267 1328.63 60.5267C1329.44 60.5267 1330.24 61.5008 1330.64 62.0776C1352.83 93.9532 1353.31 147.951 1345.09 162.818C1343.99 164.831 1342.76 165.933 1341.69 165.933C1340.29 165.933 1338.46 164.19 1336.67 161.165C1313.87 122.612 1317.15 77.1503 1325.31 63.6028Z" fill="white"/>
<path d="M1633.67 301.855C1636.87 306.302 1644.69 308.212 1659.82 308.212C1669.28 308.212 1680.57 307.481 1693.64 306.648C1709.82 305.61 1728.15 304.431 1747.12 304.431C1807.15 304.431 1847.61 316.735 1874.61 343.253C1899.7 361.876 1913.54 392.24 1925.75 419.027C1940.59 451.582 1953.41 479.702 1981.71 479.702C1984.72 479.702 1987.89 479.369 1991.15 478.728C1993.31 478.292 1995.61 477.728 1997.97 477.036V474.768C1995.44 475.536 1992.99 476.152 1990.68 476.613C1987.57 477.228 1984.54 477.549 1981.7 477.549C1954.87 477.549 1942.31 450.031 1927.79 418.168C1915.47 391.137 1901.51 360.505 1876.08 341.651C1848.76 314.787 1807.78 302.278 1747.11 302.278C1728.07 302.278 1709.69 303.457 1693.48 304.508C1680.45 305.341 1669.2 306.072 1659.82 306.072C1645.9 306.072 1638.17 304.341 1635.51 300.65C1634.05 298.625 1634.04 295.882 1635.43 292.268C1663.99 218.609 1687.9 125.366 1685.59 96.6565C1681.54 46.3759 1658.64 -1.13635 1636.48 -47.0721C1609.38 -103.248 1583.8 -156.323 1600.06 -200.567C1622.67 -262.075 1725.91 -368.84 1781.82 -376.21C1784.49 -376.556 1787.5 -376.735 1790.76 -376.735C1834.3 -376.735 1911.03 -346.654 1997.99 -296.924V-299.437C1911.14 -348.974 1834.46 -378.914 1790.76 -378.914C1787.41 -378.914 1784.3 -378.735 1781.51 -378.363C1724.98 -370.929 1620.73 -263.293 1597.95 -201.31C1581.38 -156.221 1607.15 -102.761 1634.45 -46.1749C1656.53 -0.405762 1679.33 46.9142 1683.36 96.8103C1685.38 121.97 1663.97 212.483 1633.33 291.499C1631.65 295.805 1631.75 299.202 1633.67 301.855Z" fill="white"/>
<path d="M1846.51 987.368C1843.95 987.368 1839.6 987.637 1834.12 987.983C1824.87 988.56 1812.21 989.342 1799.63 989.342C1768.44 989.342 1752.1 984.394 1751.07 974.628C1749.51 959.952 1785.67 938.138 1809.6 923.693C1819.11 917.952 1827.32 913.004 1831.14 909.774C1860.94 884.576 1888.45 853.188 1912.93 816.467C1929.14 792.141 1941.07 765.918 1953.69 738.156C1963.18 717.265 1978.3 695.566 1997.99 680.583V678.968C1977.7 694.117 1962.16 716.278 1952.45 737.631C1939.84 765.341 1927.94 791.513 1911.8 815.762C1887.4 852.38 1859.96 883.679 1830.27 908.8C1826.52 911.966 1818.35 916.901 1808.89 922.604C1783.24 938.087 1748.09 959.286 1749.74 974.769C1750.88 985.445 1767.21 990.636 1799.65 990.636C1812.27 990.636 1824.95 989.854 1834.21 989.265C1839.68 988.931 1844 988.662 1846.53 988.662C1893.76 988.662 1935.74 995.968 1973.73 1010.8H1977.37C1938.38 995.071 1895.21 987.368 1846.51 987.368Z" fill="white"/>
<path d="M1701.45 245.449C1709.81 257.036 1727.44 258.33 1751.84 260.137C1754.48 260.33 1757.22 260.535 1760.01 260.753C1767.72 261.368 1775.8 261.624 1784.36 261.906C1824.03 263.214 1869.03 264.7 1909.64 300.395L1910.13 300.818C1932.66 319.851 1946.06 353.368 1957.88 382.949C1969.8 412.735 1980.08 438.472 1996.43 438.472C1996.94 438.472 1997.45 438.369 1997.97 438.318V437.011C1997.45 437.062 1996.94 437.164 1996.43 437.164C1981.01 437.164 1970.87 411.813 1959.13 382.475C1947.26 352.752 1933.79 319.082 1911.02 299.844L1910.54 299.421C1869.57 263.406 1824.33 261.919 1784.41 260.599C1775.87 260.317 1767.8 260.048 1760.13 259.445C1757.32 259.228 1754.59 259.022 1751.94 258.83C1727.91 257.049 1710.54 255.767 1702.55 244.693C1695 234.196 1696.06 214.561 1706.03 181.019C1715.25 149.976 1718.67 121.613 1716.48 94.2998C1712 38.636 1687.89 -11.3498 1664.58 -59.7207C1640.23 -110.206 1617.23 -157.885 1629.27 -190.632C1649.3 -245.143 1745.99 -341.372 1786.03 -346.64C1786.92 -346.755 1788.46 -346.896 1790.77 -346.896C1824.22 -346.896 1899.89 -320.045 1998 -262.061V-263.586C1899.98 -321.403 1824.31 -348.19 1790.77 -348.19C1788.38 -348.19 1786.77 -348.049 1785.84 -347.921C1745.5 -342.615 1648.14 -245.86 1628.01 -191.055C1615.8 -157.808 1638.9 -109.899 1663.38 -59.1311C1686.64 -10.8884 1710.7 38.9821 1715.15 94.4152C1717.34 121.574 1713.94 149.784 1704.76 180.673C1694.5 215.086 1693.52 234.452 1701.45 245.449Z" fill="white"/>
<path d="M882.971 637.094C949.789 629.75 1029.37 553.118 1050.72 494.57C1087.77 392.906 1021.91 311.045 958.224 231.888C896.747 155.487 838.683 83.3146 866.924 -4.54519C891.526 -81.1005 970.976 -122.396 1033.24 -122.396C1066.79 -122.396 1095.83 -110.912 1114.97 -90.0466C1137.71 -65.2716 1146.65 -27.654 1140.82 18.7687C1120.76 178.288 1114.79 352.79 1299.1 404.211C1320.26 410.12 1341.13 413.106 1361.16 413.106C1438.75 413.106 1488.29 370.208 1516.17 334.231C1569.64 265.238 1588.19 162.049 1562.37 77.4445C1540.45 5.69554 1497.35 -63.8745 1430.56 -135.252C1331.3 -241.35 1196.11 -332.581 1017.28 -414.147L1009.55 -417.685C934.326 -452.021 856.523 -487.524 774.629 -507.095C769.767 -508.262 764.4 -509.633 758.661 -511.107C733.356 -517.592 701.86 -525.667 674.854 -525.667C664.041 -525.667 654.663 -524.321 647.011 -521.681C635.348 -517.656 628.786 -509.953 622.436 -502.494C617.694 -496.944 612.805 -491.19 605.792 -487.075C601.235 -484.409 592.388 -481.103 583.023 -477.616C567.88 -471.964 552.205 -466.133 547.237 -460.519C537.672 -449.701 540.302 -443.19 542.853 -436.884C544.686 -432.36 546.413 -428.079 544.168 -421.735L542.401 -416.711C528.799 -378.106 528.799 -378.106 497.462 -369.365C491.405 -367.673 483.873 -365.571 474.946 -362.828C449.123 -354.882 438.522 -342.68 428.294 -330.876C420.416 -321.789 412.977 -313.214 398.963 -306.267C398.591 -306.306 398.166 -306.306 397.714 -306.306C381.535 -306.306 258.992 -298.526 249.587 -269.445C247.05 -261.613 252.562 -253.103 265.966 -244.157C282.756 -232.955 295.482 -231.66 303.585 -231.66C307.544 -231.66 311.117 -231.994 314.571 -232.314C317.533 -232.596 320.323 -232.852 322.98 -232.852C332.836 -232.852 342.812 -230.161 356.495 -197.632C359.855 -189.621 362.459 -183.072 364.611 -177.624C375.198 -150.876 375.557 -150.517 402.47 -139.417C409.138 -136.662 417.441 -133.252 428.015 -128.549C462.659 -113.13 469.766 -95.622 478.745 -73.4488C483.501 -61.7342 488.881 -48.4558 499.07 -33.537C509.976 -17.5543 522.781 -4.69896 535.175 7.74624C557.12 29.7913 577.856 50.6187 584.458 85.391C595.895 145.618 561.995 203.14 523.671 256.33C505.087 282.117 466.896 312.147 426.46 343.933C357.796 397.905 279.967 459.08 279.688 515.744C279.528 548.093 288.136 572.92 305.286 589.53C323.963 607.628 352.337 616.433 392.042 616.433C449.614 616.433 520.377 597.695 582.824 581.174C631.974 568.165 674.429 556.924 701.568 556.924C707.705 556.924 712.899 557.527 717.03 558.706C743.199 566.216 763.948 582.238 784.02 597.733C810.654 618.291 835.814 637.709 871.786 637.709C875.413 637.722 879.185 637.517 882.971 637.094ZM717.867 555.822C713.39 554.54 708.05 553.912 701.515 553.912C673.951 553.912 631.31 565.191 581.934 578.264C519.686 594.734 449.136 613.408 391.989 613.421C353.16 613.421 325.504 604.911 307.451 587.416C290.926 571.395 282.623 547.286 282.77 515.782C283.035 460.554 360.254 399.853 428.387 346.292C468.995 314.377 507.359 284.219 526.195 258.086C564.904 204.357 599.123 146.194 587.487 84.8654C580.712 49.196 559.67 28.0482 537.38 5.66991C525.093 -6.67276 512.393 -19.4256 501.633 -35.1775C491.617 -49.84 486.304 -62.9517 481.615 -74.5254C472.369 -97.3266 465.063 -115.347 429.277 -131.279C418.663 -135.995 410.347 -139.43 403.652 -142.186C377.709 -152.875 377.709 -152.875 367.494 -178.688C365.342 -184.135 362.738 -190.71 359.364 -198.747C346.319 -229.789 336.131 -235.864 322.94 -235.864C320.137 -235.864 317.268 -235.595 314.239 -235.313C310.852 -235.006 307.358 -234.672 303.559 -234.672C295.23 -234.672 283.62 -236.031 267.732 -246.631C255.591 -254.731 250.49 -262.1 252.562 -268.522C260.732 -293.797 374.972 -303.256 397.688 -303.256C398.232 -303.256 398.604 -303.243 398.79 -303.23L399.149 -304.627L399.84 -303.307C414.771 -310.587 422.86 -319.905 430.685 -328.928C441.099 -340.937 450.929 -352.267 475.889 -359.945C484.776 -362.675 492.282 -364.777 498.326 -366.456C530.937 -375.556 531.376 -376.017 545.377 -415.737L547.144 -420.748C549.761 -428.143 547.648 -433.36 545.789 -437.974C543.384 -443.947 541.299 -449.099 549.641 -458.532C554.091 -463.556 570.071 -469.516 584.166 -474.771C593.677 -478.309 602.657 -481.667 607.439 -484.473C614.891 -488.857 619.965 -494.804 624.867 -500.546C631.23 -508.005 637.234 -515.055 648.087 -518.797C655.407 -521.322 664.413 -522.617 674.867 -522.617C701.475 -522.617 732.745 -514.593 757.864 -508.159C763.616 -506.685 769.01 -505.301 773.885 -504.135C855.487 -484.64 933.131 -449.189 1008.22 -414.916L1015.96 -411.379C1194.4 -329.992 1329.25 -238.992 1428.23 -133.188C1494.69 -62.1571 1537.58 7.0285 1559.36 78.3288C1584.93 162.062 1566.57 264.187 1513.66 332.449C1486.2 367.875 1437.46 410.107 1361.16 410.107C1341.43 410.107 1320.84 407.159 1299.98 401.34C1118.03 350.572 1124.03 177.455 1143.93 19.166C1149.88 -28.1411 1140.68 -66.5918 1117.32 -92.0333C1097.57 -113.553 1067.7 -125.396 1033.22 -125.396C969.834 -125.396 888.949 -83.3434 863.909 -5.4039C835.189 83.9554 896.468 160.126 955.727 233.785C1018.9 312.301 1084.22 393.496 1047.74 493.596C1026.69 551.336 948.327 626.892 882.599 634.12C878.933 634.518 875.28 634.723 871.733 634.723C836.863 634.723 812.115 615.626 785.933 595.413C765.636 579.713 744.634 563.499 717.867 555.822Z" fill="white"/>
</g>
</g>
</svg>
