<svg width="72" height="72" viewBox="0 0 72 72" fill="none" xmlns="http://www.w3.org/2000/svg">
<g id="Icon">
<g id="bg">
<g id="Ellipse 117">
<circle cx="36" cy="36" r="36" fill="white"/>
<circle cx="36" cy="36" r="35.5" stroke="#0B6755" stroke-opacity="0.2"/>
</g>
<circle id="Ellipse 118" opacity="0.1" cx="36" cy="36" r="31.5" fill="#0B6755"/>
<g id="icon">
<g id="Group">
<path id="Vector" d="M47.6765 27.7671H24.9725C22.9957 27.7671 21.3877 29.3751 21.3877 31.3519V34.3393C21.3877 36.3161 22.9957 37.9241 24.9725 37.9241V36.7292C23.6545 36.7292 22.5826 35.6574 22.5826 34.3393V31.3519C22.5826 30.0339 23.6545 28.962 24.9725 28.962H47.6765C48.9946 28.962 50.0664 30.0339 50.0664 31.3519V34.3393C50.0664 35.6574 48.9946 36.7292 47.6765 36.7292V37.9241C49.6533 37.9241 51.2614 36.3161 51.2614 34.3393V31.3519C51.2614 29.3751 49.6533 27.7671 47.6765 27.7671Z" fill="#0E5952"/>
<path id="Vector_2" d="M50.663 20H21.9843C20.0075 20 18.3994 21.608 18.3994 23.5848V42.704C18.3994 44.6808 20.0075 46.2889 21.9843 46.2889H25.4275C25.2565 45.9124 25.1307 45.5123 25.0557 45.0939H21.9843C20.6662 45.0939 19.5944 44.0221 19.5944 42.704V24.7798H53.0529V42.704C53.0529 44.0221 51.9811 45.0939 50.663 45.0939H47.5915C47.5166 45.5123 47.3908 45.9124 47.2197 46.2889H50.663C52.6398 46.2889 54.2479 44.6808 54.2479 42.704V23.5848C54.2479 21.608 52.6398 20 50.663 20ZM21.3868 23.5848C20.6019 23.5696 20.602 22.405 21.3868 22.3899C22.1716 22.4051 22.1715 23.5697 21.3868 23.5848ZM23.7767 23.5848C22.9918 23.5696 22.9919 22.405 23.7767 22.3899C24.5615 22.4051 24.5614 23.5697 23.7767 23.5848ZM26.1666 23.5848C25.3817 23.5696 25.3818 22.405 26.1666 22.3899C26.9514 22.4051 26.9513 23.5697 26.1666 23.5848Z" fill="#0E5952"/>
<path id="Vector_3" d="M42.5975 32.5474H30.0506C27.9092 32.5474 26.167 34.2896 26.167 36.4309V44.1981C26.167 46.3394 27.9092 48.0817 30.0506 48.0817H42.5975C44.7389 48.0817 46.4811 46.3394 46.4811 44.1981V36.4309C46.4811 34.2896 44.7389 32.5474 42.5975 32.5474ZM38.9532 37.2075C38.3297 36.7378 39.0435 35.785 39.6697 36.2518C39.6697 36.2518 42.0596 38.0442 42.0596 38.0442C42.3748 38.2676 42.3752 38.7766 42.0596 39C42.0596 39 39.6697 40.7924 39.6697 40.7924C39.5623 40.8729 39.4369 40.912 39.312 40.912C38.7615 40.9325 38.4904 40.1579 38.9532 39.8367C38.9532 39.8367 40.7053 38.5221 40.7053 38.5221L38.9532 37.2075ZM38.0739 35.7564L35.684 41.7312C35.3776 42.4567 34.2951 42.0199 34.5742 41.2877C34.5742 41.2878 36.9641 35.313 36.9641 35.313C37.2676 34.5899 38.3534 35.0215 38.0739 35.7564ZM33.6949 39.8367C34.319 40.3072 33.6033 41.2594 32.9784 40.7924C32.9784 40.7924 30.5885 39 30.5885 39C30.2733 38.7767 30.2729 38.2675 30.5885 38.0442C30.5885 38.0442 32.9784 36.2518 32.9784 36.2518C33.6037 35.786 34.3194 36.7359 33.6949 37.2076C33.6949 37.2075 31.9428 38.5221 31.9428 38.5221L33.6949 39.8367Z" fill="#0E5952"/>
</g>
<path id="Vector_4" d="M45.1806 49.6227L43.9133 48.3549L45.0033 47.2649C45.9749 46.3569 45.512 44.5865 44.219 44.2717C44.2191 44.2717 36.6474 42.1514 36.6474 42.1514C35.7862 41.8824 34.9041 42.7612 35.1747 43.6241C35.1747 43.6241 37.295 51.1958 37.295 51.1958C37.6103 52.4877 39.3799 52.9527 40.2883 51.9799C40.2882 51.98 41.3782 50.89 41.3782 50.89L42.6461 52.1573C42.8789 52.3901 43.1852 52.5068 43.4909 52.5068C44.1356 52.5752 44.7596 51.6903 45.1807 51.3125C45.6468 50.8469 45.6468 50.0883 45.1806 49.6227Z" fill="#F2BE22"/>
</g>
</g>
</g>
</svg>
