<svg width="144" height="150" viewBox="0 0 144 150" fill="none" xmlns="http://www.w3.org/2000/svg">
<g id="Shape">
<path id="Vector" opacity="0.2" d="M72 149.676C71.7053 149.672 71.423 149.553 71.2094 149.342L0.317947 75.738C0.113934 75.5173 0 75.2231 0 74.9172C0 74.6112 0.113934 74.3171 0.317947 74.0963L71.2094 0.492524C71.4205 0.289532 71.6976 0.176758 71.9854 0.176758C72.2731 0.176758 72.5502 0.289532 72.7613 0.492524L143.682 74.0963C143.886 74.3171 144 74.6112 144 74.9172C144 75.2231 143.886 75.5173 143.682 75.738L84.8255 136.816C84.7245 136.924 84.6039 137.009 84.4706 137.068C84.3373 137.126 84.1941 137.156 84.0495 137.156C83.9048 137.156 83.7617 137.126 83.6284 137.068C83.4951 137.009 83.3745 136.924 83.2735 136.816L24.4462 75.738C24.3417 75.6306 24.2588 75.5028 24.2022 75.3619C24.1456 75.221 24.1165 75.0698 24.1165 74.9172C24.1165 74.7645 24.1456 74.6134 24.2022 74.4725C24.2588 74.3316 24.3417 74.2037 24.4462 74.0963L71.2972 25.4528C71.5083 25.2498 71.7855 25.137 72.0732 25.137C72.3609 25.137 72.6381 25.2498 72.8492 25.4528L119.7 74.0963C119.898 74.3205 120.007 74.6133 120.007 74.9172C120.007 75.221 119.898 75.5139 119.7 75.738L84.5619 112.221C84.3508 112.424 84.0737 112.536 83.786 112.536C83.4982 112.536 83.2211 112.424 83.01 112.221L71.2972 100.06L47.9889 75.738C47.8844 75.6306 47.8015 75.5028 47.7449 75.3619C47.6883 75.221 47.6591 75.0698 47.6591 74.9172C47.6591 74.7645 47.6883 74.6134 47.7449 74.4725C47.8015 74.3316 47.8844 74.2037 47.9889 74.0963L71.2094 49.9874C71.4205 49.7844 71.6976 49.6716 71.9854 49.6716C72.2731 49.6716 72.5502 49.7844 72.7613 49.9874L96.0112 74.0963C96.2087 74.3205 96.3182 74.6133 96.3182 74.9172C96.3182 75.221 96.2087 75.5139 96.0112 75.738L73.5519 99.0566L83.7713 109.637L117.211 74.9172L72 27.9761L26.7595 74.9172L84.0641 134.384L141.34 74.9172L72 2.9247L2.57264 74.9172L72.8492 147.883C72.9528 147.987 73.0351 148.113 73.0913 148.251C73.1475 148.389 73.1765 148.538 73.1765 148.688C73.1765 148.838 73.1475 148.987 73.0913 149.125C73.0351 149.264 72.9528 149.389 72.8492 149.494C72.7266 149.582 72.5883 149.643 72.4424 149.674C72.2965 149.706 72.1461 149.706 72 149.676ZM50.3021 74.9172L72 97.4452L93.6686 74.9172L72 52.3891L50.3021 74.9172Z" fill="#0B6755"/>
</g>
</svg>
