<svg width="188" height="188" viewBox="0 0 188 188" fill="none" xmlns="http://www.w3.org/2000/svg">
<circle cx="94" cy="94" r="94" fill="#FFAF01"/>
<path d="M43.7516 140.853L39.5983 147.062L38.9616 146.214L42.264 141.37L36.6613 143.152L36.1868 142.52L39.5191 137.616L33.8745 139.442L33.2679 138.635L40.4002 136.391L40.9227 137.087L37.6884 141.905L43.2291 140.157L43.7516 140.853Z" fill="#04091E"/>
<path d="M31.9269 122.105L25.3785 124.717L24.9933 123.751L31.5416 121.139L31.9269 122.105Z" fill="#04091E"/>
<path d="M27.8346 110.708L20.8548 111.701L20.7436 110.918L25.4519 106.168L20.1749 106.919L20.0398 105.968L27.0196 104.976L27.128 105.738L22.4028 110.511L27.6995 109.758L27.8346 110.708Z" fill="#04091E"/>
<path d="M26.0944 90.2421L19.1331 89.1272L19.258 88.3471L25.1598 85.2009L19.8969 84.358L20.0487 83.4101L27.01 84.525L26.8882 85.2853L20.9635 88.4481L26.2462 89.2942L26.0944 90.2421Z" fill="#04091E"/>
<path d="M30.5728 70.2241L24.198 67.2135L26.1452 63.0902L26.9048 63.4489L25.3846 66.668L27.3829 67.6117L28.8135 64.5825L29.573 64.9412L28.1425 67.9704L30.2403 68.9612L31.7605 65.7421L32.5201 66.1008L30.5728 70.2241Z" fill="#04091E"/>
<path d="M39.2157 54.3104L33.8507 49.7366L35.7451 47.5145C36.2381 46.9361 36.7582 46.6086 37.3054 46.532C37.8475 46.451 38.3672 46.6224 38.8644 47.0463C39.2652 47.388 39.5041 47.7756 39.5812 48.2093C39.6532 48.6386 39.5658 49.0854 39.319 49.5495C39.6078 49.3752 39.9783 49.3363 40.4305 49.4327L42.9266 49.9575L42.187 50.825L39.6833 50.2937C39.3946 50.2316 39.1567 50.2434 38.9697 50.3292C38.7819 50.4057 38.595 50.553 38.409 50.7711L37.6759 51.631L39.8904 53.5189L39.2157 54.3104ZM37.0823 51.125L38.1917 49.8237C38.8578 49.0424 38.8686 48.3771 38.2243 47.8278C37.5851 47.2829 36.9325 47.4011 36.2664 48.1823L35.157 49.4836L37.0823 51.125Z" fill="#04091E"/>
<path d="M60.5948 35.3507L60.0396 34.2981L61.0922 33.7429L61.6474 34.7955L60.5948 35.3507Z" fill="#04091E"/>
<path d="M85.3908 26.9849C84.6809 27.0541 84.0595 26.9672 83.5268 26.7244C82.9941 26.4815 82.5656 26.1046 82.2412 25.5937C81.9228 25.0754 81.7277 24.448 81.656 23.7115C81.5843 22.975 81.655 22.3251 81.868 21.7618C82.0877 21.1978 82.4355 20.7453 82.9114 20.4043C83.3872 20.0632 83.9801 19.8581 84.6901 19.789C85.1678 19.7425 85.6198 19.7755 86.0461 19.888C86.4783 19.9933 86.8474 20.1717 87.1532 20.4232L86.8753 21.2842C86.5436 21.0419 86.2094 20.8769 85.8726 20.7891C85.5418 20.694 85.1873 20.6649 84.8091 20.7017C84.0527 20.7754 83.4981 21.0639 83.1452 21.5671C82.7923 22.0703 82.6575 22.7499 82.7409 23.6059C82.8242 24.4618 83.0879 25.106 83.5319 25.5383C83.9752 25.964 84.5751 26.14 85.3315 26.0664C85.7098 26.0295 86.0523 25.9359 86.3592 25.7854C86.672 25.6277 86.9678 25.398 87.2465 25.0962L87.6853 25.8874C87.4331 26.1866 87.1054 26.4328 86.7022 26.6262C86.3057 26.8188 85.8686 26.9384 85.3908 26.9849Z" fill="#04091E"/>
<path d="M101.533 26.4635L102.771 19.5231L105.646 20.0358C106.394 20.1692 106.939 20.4527 107.282 20.8862C107.625 21.3132 107.74 21.8483 107.625 22.4915C107.533 23.01 107.319 23.412 106.983 23.6975C106.649 23.9765 106.22 24.1268 105.694 24.1482C105.991 24.3094 106.211 24.6095 106.356 25.0485L107.164 27.4679L106.042 27.2677L105.236 24.8384C105.144 24.5579 105.013 24.3586 104.845 24.2405C104.684 24.117 104.463 24.0301 104.18 23.9798L103.068 23.7813L102.557 26.6461L101.533 26.4635ZM103.205 23.0135L104.888 23.3137C105.899 23.494 106.479 23.1673 106.627 22.3338C106.775 21.5069 106.343 21.0033 105.332 20.823L103.649 20.5228L103.205 23.0135Z" fill="#04091E"/>
<path d="M119.157 30.6427L122.168 24.2679L126.291 26.2153L125.933 26.9749L122.714 25.4545L121.77 27.4529L124.799 28.8835L124.44 29.6431L121.411 28.2124L120.42 30.3102L123.639 31.8305L123.281 32.5901L119.157 30.6427Z" fill="#04091E"/>
<path d="M134.567 38.7829L141.56 35.5169L142.209 36.0806L139.967 43.4696L139.166 42.7748L139.735 40.9908L137.039 38.6507L135.36 39.4712L134.567 38.7829ZM141.123 36.6607L137.869 38.2589L140.021 40.127L141.138 36.6738L141.123 36.6607Z" fill="#04091E"/>
<path d="M149.863 54.1811L155.024 50.7819L153.649 48.694L154.376 48.2155L157.692 53.2514L156.966 53.7299L155.591 51.6421L150.429 55.0413L149.863 54.1811Z" fill="#04091E"/>
<path d="M157.86 68.4583L164.454 65.963L164.822 66.9357L158.228 69.431L157.86 68.4583Z" fill="#04091E"/>
<path d="M161.994 82.1421L168.572 78.129L168.719 79.2293L163.355 82.4351L169.371 84.1261L169.511 85.1769L162.112 83.0243L161.994 82.1421Z" fill="#04091E"/>
<path d="M163.114 99.1919L170.094 100.184L169.452 104.699L168.62 104.581L169.122 101.056L166.934 100.745L166.462 104.062L165.63 103.943L166.102 100.627L163.805 100.3L163.304 103.825L162.472 103.706L163.114 99.1919Z" fill="#04091E"/>
<path d="M164.302 120.283L165.419 120.695L165.007 121.811L163.891 121.4L164.302 120.283Z" fill="#04091E"/>
<path d="M155.656 126.367L159.873 132.83L159.406 133.553L151.775 132.372L152.351 131.482L154.197 131.794L156.134 128.795L155.086 127.249L155.656 126.367ZM158.679 132.559L156.639 129.562L155.093 131.956L158.668 132.576L158.679 132.559Z" fill="#04091E"/>
<path d="M141.335 144.67C141.914 144.168 142.496 143.852 143.082 143.723C143.672 143.6 144.247 143.652 144.807 143.881C145.363 144.114 145.885 144.512 146.374 145.076C146.859 145.635 147.176 146.208 147.323 146.795C147.475 147.387 147.451 147.964 147.25 148.527C147.05 149.089 146.675 149.608 146.126 150.085C145.749 150.412 145.351 150.661 144.932 150.83C144.514 150.998 144.107 151.074 143.711 151.055L143.46 150.201C143.876 150.192 144.248 150.122 144.574 149.989C144.904 149.861 145.223 149.664 145.53 149.397C146.119 148.886 146.412 148.319 146.409 147.694C146.41 147.075 146.127 146.439 145.559 145.784C144.978 145.114 144.38 144.741 143.767 144.665C143.148 144.593 142.524 144.83 141.894 145.376C141.512 145.708 141.186 146.101 140.918 146.554L142.157 147.982L143.456 146.855L143.967 147.444L142.011 149.141L139.835 146.634C139.965 146.326 140.168 145.991 140.445 145.628C140.716 145.269 141.013 144.95 141.335 144.67Z" fill="#04091E"/>
<path d="M128.351 153.356L131.34 159.685L127.411 161.541L126.967 160.6L129.955 159.189L129.234 157.661L126.828 158.797L126.384 157.856L128.79 156.72L127.854 154.74L124.866 156.151L124.422 155.211L128.351 153.356Z" fill="#04091E"/>
<path d="M111.808 161.254L112.923 168.216L112.143 168.341L107.311 163.717L108.153 168.979L107.206 169.131L106.091 162.17L106.851 162.048L111.706 166.689L110.86 161.406L111.808 161.254Z" fill="#04091E"/>
<path d="M88.2666 162.793C88.9737 162.887 89.559 163.113 90.0225 163.471C90.486 163.829 90.8176 164.293 91.0172 164.865C91.2093 165.442 91.2565 166.097 91.1588 166.83C91.0611 167.564 90.8444 168.181 90.5088 168.681C90.1665 169.18 89.7249 169.541 89.1839 169.765C88.643 169.989 88.0189 170.054 87.3118 169.96C86.836 169.896 86.4034 169.761 86.014 169.555C85.617 169.354 85.2982 169.096 85.0577 168.782L85.5241 168.007C85.792 168.318 86.0799 168.555 86.3879 168.717C86.6884 168.885 87.0269 168.994 87.4036 169.044C88.1569 169.144 88.7627 168.99 89.2208 168.58C89.6789 168.17 89.9648 167.539 90.0784 166.686C90.1919 165.834 90.0817 165.147 89.7477 164.625C89.4129 164.109 88.8688 163.801 88.1154 163.701C87.7387 163.651 87.3839 163.664 87.0508 163.741C86.7103 163.823 86.37 163.98 86.0299 164.21L85.7827 163.34C86.0963 163.106 86.4714 162.941 86.908 162.844C87.338 162.747 87.7909 162.73 88.2666 162.793Z" fill="#04091E"/>
<path d="M70.8747 158.959L69.5753 161.982L70.5707 166.503L69.4683 166.029L68.7198 162.605L65.72 164.417L64.6635 163.963L68.633 161.566L69.9284 158.553L70.8747 158.959Z" fill="#04091E"/>
<path d="M51.6164 154.458L50.7748 155.3L49.9335 154.458L50.775 153.617L51.6164 154.458Z" fill="#04091E"/>
<path d="M74.4963 105.507L112.022 83.8423" stroke="#04091E" stroke-width="2"/>
<path d="M97.4111 79.1714L112.02 83.841L108.76 98.8275" stroke="#04091E" stroke-width="2"/>
</svg>
