<svg width="42" height="34" viewBox="0 0 42 34" fill="none" xmlns="http://www.w3.org/2000/svg">
<path d="M32.5661 12.8986C32.2187 13.0672 31.9482 13.1986 31.6777 13.3299C23.7161 17.1954 15.7545 21.0609 7.79292 24.9264C6.40465 25.6004 5.43394 25.5372 5.08258 24.7541C4.74072 23.9871 5.27688 23.2286 6.63768 22.5679C14.5993 18.7024 22.5609 14.837 30.5224 10.9715C30.7943 10.8395 31.0662 10.7075 31.3711 10.5595C31.2416 10.2962 30.9476 10.3199 30.7251 10.274C27.7806 9.67193 24.8291 9.0798 21.8837 8.47949C21.5526 8.41252 21.217 8.33994 20.9241 8.21556C20.2781 7.94043 20.0894 7.32809 20.409 6.68635C20.7304 6.04117 21.5197 5.56994 22.2875 5.58542C22.5461 5.59052 22.7937 5.64245 23.0364 5.69154C27.4044 6.57294 31.771 7.455 36.1373 8.33983C37.613 8.63918 37.886 9.21189 37.2033 10.5669C35.1982 14.5452 33.1925 18.5224 31.1798 22.4992C31.0375 22.7792 30.8763 23.0658 30.6628 23.3182C30.1811 23.8847 29.5409 24.0725 28.8692 23.982C28.1828 23.8895 27.8483 23.5046 27.838 22.8962C27.8317 22.5408 28.0131 22.1978 28.1874 21.8544C29.5637 19.1287 30.94 16.4029 32.3107 13.6761C32.4172 13.4587 32.586 13.2435 32.5661 12.8986Z" fill="#04091E"/>
</svg>
