<svg width="25" height="30" viewBox="0 0 25 30" fill="none" xmlns="http://www.w3.org/2000/svg">
<path d="M0.483577 5.37501C0.216522 5.37501 0 5.15872 0 4.89144C0 2.22515 2.16925 0.0556641 4.83577 0.0556641C5.10283 0.0556641 5.31935 0.271954 5.31935 0.539241C5.31935 0.806529 5.10283 1.02282 4.83577 1.02282C2.70265 1.02282 0.967154 2.75831 0.967154 4.89144C0.967154 5.15872 0.750633 5.37501 0.483577 5.37501Z" fill="#0E5952"/>
<path d="M2.41815 5.37527C2.15109 5.37527 1.93457 5.15899 1.93457 4.8917C1.93457 3.29174 3.23607 1.99023 4.83603 1.99023C5.10309 1.99023 5.31961 2.20652 5.31961 2.47381C5.31961 2.7411 5.10309 2.95739 4.83603 2.95739C3.76947 2.95739 2.90172 3.8249 2.90172 4.8917C2.90172 5.15899 2.6852 5.37527 2.41815 5.37527Z" fill="#0E5952"/>
<path d="M20.959 2.8916C10.2934 -6.10916 -3.65822 7.81459 5.19029 18.5233C3.06449 26.0825 3.27204 26.2828 3.51241 26.5132C3.6411 26.6374 3.84794 26.6823 4.01819 26.6289C9.62985 24.8037 16.113 28.95 16.178 28.9925C16.4828 29.2043 16.9374 28.9589 16.9251 28.5868C16.9251 28.5868 16.9251 25.2018 16.9251 25.2018H18.3758C19.4424 25.2018 20.3101 24.3343 20.3101 23.2675V21.8168H22.728C23.7946 21.8168 24.6623 20.9492 24.6623 19.8824V11.1781C24.6623 8.02016 23.3124 5.00017 20.959 2.8916ZM23.6952 19.8824C23.6952 20.4156 23.2614 20.8496 22.728 20.8496H19.8265C19.5595 20.8496 19.343 21.0659 19.343 21.3332V23.2675C19.343 23.8006 18.9092 24.2346 18.3758 24.2346H16.6676C15.3393 24.1708 14.0644 23.3116 13.4942 22.0949C13.3814 21.8541 13.0933 21.7492 12.8513 21.8626C12.6095 21.9759 12.5053 22.264 12.6187 22.5058C13.2411 23.8337 14.5331 24.8213 15.9579 25.114V27.7368C14.0188 26.5144 8.30718 24.3382 4.39102 25.5163C4.63824 24.2616 5.42311 21.2609 6.19357 18.529C6.23938 18.367 6.19759 18.1932 6.0833 18.0695C4.06517 15.8863 3.10793 12.9268 3.45716 9.9488C5.40751 -2.58048 23.2871 -1.56134 23.6951 11.1781C23.6952 11.1781 23.6952 19.8824 23.6952 19.8824Z" fill="#0E5952"/>
<path d="M12.0895 1.50635C10.4647 1.5216 10.0931 3.77755 11.6059 4.31867V6.34212C11.6059 6.60941 11.8224 6.8257 12.0895 6.8257C12.3565 6.8257 12.5731 6.60941 12.5731 6.34212V4.3187C14.0868 3.77697 13.7132 1.52123 12.0895 1.50635Z" fill="#0E5952"/>
<path d="M15.4742 1.50635C13.8494 1.5216 13.4778 3.77755 14.9907 4.31867V6.34212C14.9907 6.60941 15.2072 6.8257 15.4742 6.8257C15.7413 6.8257 15.9578 6.60941 15.9578 6.34212V4.3187C17.4715 3.77697 17.098 1.52123 15.4742 1.50635Z" fill="#0E5952"/>
<path d="M15.9578 17.07V15.0466C15.9578 14.7793 15.7413 14.563 15.4742 14.563C15.2072 14.563 14.9906 14.7793 14.9906 15.0466V17.07C13.4774 17.6115 13.8501 19.8674 15.4743 19.8823C17.0985 19.8673 17.471 17.6112 15.9578 17.07Z" fill="#0E5952"/>
<path d="M12.573 17.07V15.0466C12.573 14.7793 12.3565 14.563 12.0895 14.563C11.8224 14.563 11.6059 14.7793 11.6059 15.0466V17.07C10.0926 17.6115 10.4653 19.8674 12.0895 19.8823C13.7138 19.8673 14.0862 17.6112 12.573 17.07Z" fill="#0E5952"/>
<path d="M18.3761 9.72734H19.916C20.4575 11.2406 22.7134 10.8679 22.7283 9.24373C22.7132 7.61945 20.4572 7.247 19.9159 8.76019H18.3761C17.7405 8.77075 17.7405 9.71683 18.3761 9.72734Z" fill="#0E5952"/>
<path d="M21.2776 11.1782C20.648 11.1782 20.1163 11.5837 19.916 12.1454H18.3762C18.1091 12.1454 17.8926 12.3617 17.8926 12.629C17.8926 12.8962 18.1091 13.1125 18.3762 13.1125H19.916C20.4578 14.626 22.7134 14.2529 22.7283 12.6289C22.7283 11.829 22.0776 11.1782 21.2776 11.1782Z" fill="#0E5952"/>
<path d="M8.70473 8.76018H7.16489C6.62336 7.24689 4.36748 7.61959 4.35254 9.24379C4.36761 10.8681 6.62364 11.2405 7.16489 9.72733H8.70473C9.34032 9.71677 9.34032 8.77069 8.70473 8.76018Z" fill="#0E5952"/>
<path d="M8.70473 12.1449H7.16489C6.62336 10.6317 4.36748 11.0044 4.35254 12.6286C4.36761 14.2528 6.62364 14.6253 7.16489 13.1121H8.70473C9.34032 13.1015 9.34032 12.1555 8.70473 12.1449Z" fill="#0E5952"/>
<path d="M16.9251 5.8584H10.155C9.08672 5.8584 8.2207 6.72442 8.2207 7.79271V13.5956C8.2207 14.6639 9.08672 15.5299 10.155 15.5299H16.9251C17.9934 15.5299 18.8594 14.6639 18.8594 13.5956V7.79271C18.8594 6.72442 17.9934 5.8584 16.9251 5.8584Z" fill="#04091E"/>
<path d="M14.9909 8.27637H12.0894C11.2882 8.27637 10.6387 8.92588 10.6387 9.7271V11.6614C10.6387 12.4626 11.2882 13.1121 12.0894 13.1121H14.9909C15.7921 13.1121 16.4416 12.4626 16.4416 11.6614V9.7271C16.4416 8.92588 15.7921 8.27637 14.9909 8.27637Z" fill="#0E5952"/>
</svg>
