<svg width="31" height="29" viewBox="0 0 31 29" fill="none" xmlns="http://www.w3.org/2000/svg">
<path d="M30.547 4.10229L26.8762 0.45301C26.2689 -0.15075 25.281 -0.151256 24.6737 0.45301L22.4711 2.64227C22.2703 2.83431 22.2698 3.18002 22.4711 3.37203C22.4711 3.37203 27.6103 8.48081 27.6103 8.48081C27.7117 8.5816 27.8445 8.632 27.9774 8.632C28.1102 8.632 28.243 8.5816 28.3444 8.48081L30.547 6.29154C31.1512 5.71552 31.1513 4.67774 30.547 4.10229Z" fill="#04091E"/>
<path d="M7.24863 18.0614C6.96194 18.0614 6.72949 17.8306 6.72949 17.5453V17.0293C6.72949 16.744 6.96194 16.5132 7.24863 16.5132C7.53533 16.5132 7.76778 16.744 7.76778 17.0293V17.5453C7.76778 17.8306 7.53533 18.0614 7.24863 18.0614Z" fill="#0E5952"/>
<path d="M7.24863 15.4813C6.96194 15.4813 6.72949 15.2505 6.72949 14.9652V14.4492C6.72949 14.1639 6.96194 13.9331 7.24863 13.9331C7.53533 13.9331 7.76778 14.1639 7.76778 14.4492V14.9652C7.76778 15.2505 7.53533 15.4813 7.24863 15.4813Z" fill="#0E5952"/>
<path d="M6.21058 16.5131H5.69144C5.00919 16.5018 5.00901 15.4922 5.69146 15.481H6.21058C6.89283 15.4923 6.893 16.5018 6.21058 16.5131Z" fill="#0E5952"/>
<path d="M8.80531 16.5131H8.28616C7.60392 16.5018 7.60374 15.4922 8.28618 15.481H8.80531C9.48755 15.4923 9.48773 16.5018 8.80531 16.5131Z" fill="#0E5952"/>
<path d="M18.6715 23.7381C18.3848 23.7381 18.1523 23.5073 18.1523 23.2221V22.706C18.1523 22.4208 18.3848 22.1899 18.6715 22.1899C18.9582 22.1899 19.1906 22.4208 19.1906 22.706V23.2221C19.1906 23.5073 18.9582 23.7381 18.6715 23.7381Z" fill="#0E5952"/>
<path d="M18.6715 21.1576C18.3848 21.1576 18.1523 20.9268 18.1523 20.6415V20.1254C18.1523 19.8402 18.3848 19.6094 18.6715 19.6094C18.9582 19.6094 19.1906 19.8402 19.1906 20.1254V20.6415C19.1906 20.9268 18.9582 21.1576 18.6715 21.1576Z" fill="#0E5952"/>
<path d="M17.6315 22.1899H17.1123C16.4301 22.1785 16.4299 21.169 17.1124 21.1577H17.6315C18.3137 21.169 18.3139 22.1786 17.6315 22.1899Z" fill="#0E5952"/>
<path d="M20.2272 22.1899H19.708C19.0258 22.1785 19.0256 21.169 19.7081 21.1577H20.2272C20.9094 21.169 20.9096 22.1786 20.2272 22.1899Z" fill="#0E5952"/>
<path d="M26.8751 12.8599C26.737 12.9972 26.5835 13.1122 26.4223 13.2137C28.6089 16.1007 27.27 20.5551 23.8309 21.8075C23.5459 21.9092 23.4109 22.269 23.559 22.5317C24.4891 24.185 23.1763 26.3634 21.2654 26.3185C20.4406 26.3186 19.6829 25.9391 19.1864 25.2773C19.0135 25.0354 18.6353 25.0007 18.4201 25.2048C15.5792 27.8875 10.5483 28.0557 7.48029 25.618C7.2884 25.4714 7.01869 25.4754 6.83162 25.6296C5.78256 26.5032 4.54544 27.0321 3.25998 27.4822C3.83135 26.382 4.03692 25.0359 3.81537 23.6419C3.77862 23.4101 3.589 23.2322 3.35403 23.209C2.02271 23.0775 1.0189 21.9738 1.0189 20.6418C1.0189 19.4287 1.85033 18.3941 3.04097 18.127C3.22373 18.0856 3.36999 17.9501 3.42373 17.7722C3.47772 17.5937 3.43083 17.4002 3.30104 17.2662C1.85135 15.8494 2.73298 13.1939 4.75918 12.9371C4.99155 12.9002 5.16975 12.7123 5.19358 12.4794C5.41287 9.73063 8.51355 7.9625 11.0193 9.13409C11.2453 9.23433 11.5105 9.16226 11.654 8.96218C12.6534 7.53976 14.5578 6.88069 16.2172 7.3993L17.0265 6.59489C15.0047 5.70833 12.4579 6.3362 11.0608 8.03891C8.10506 6.93961 4.68989 8.92538 4.21258 11.9996C1.93264 12.5412 0.791865 15.4047 2.07492 17.369C-1.04785 18.777 -0.52616 23.4784 2.8369 24.1716C2.98975 25.7455 2.5028 27.195 1.50178 28.1026C1.32155 28.2659 1.27997 28.532 1.4019 28.7417C1.52337 28.9531 1.78059 29.0492 2.00825 28.976C3.76959 28.422 5.65323 27.8293 7.17509 26.6759C10.4882 29.0631 15.5948 28.9172 18.7179 26.311C21.4474 28.9608 25.9239 26.1558 24.6994 22.5579C28.458 20.8445 29.7377 15.762 27.2048 12.5331L26.8751 12.8599Z" fill="#0E5952"/>
<path d="M28.3446 7.75057L23.2054 2.64178C22.598 2.03802 21.6105 2.03802 21.0031 2.64178C20.6008 3.00089 20.1735 3.48077 20.1868 4.03568C19.0968 4.08051 17.9161 5.5043 18.5011 6.58872L11.5949 13.454C11.4425 13.532 11.3417 13.676 11.321 13.8452C11.3143 13.8648 10.3825 19.1142 10.3825 19.1142C10.3145 19.4972 10.439 19.8908 10.7158 20.166C10.9924 20.4419 11.3925 20.5655 11.7744 20.4976L17.0553 19.5713C17.1698 19.5521 17.2731 19.493 17.3518 19.4086C17.3621 19.3983 24.3735 12.4282 24.3735 12.4282C25.4847 13.0334 26.9189 11.7762 26.9568 10.751C27.5292 10.7528 27.9814 10.3359 28.3446 9.94031C28.952 9.33658 28.952 8.35433 28.3446 7.75057ZM16.1224 14.7523C16.0055 14.6373 15.8794 14.5329 15.7515 14.4309L18.4332 11.7647C18.636 11.5631 18.9645 11.5631 19.1673 11.7647C19.3701 11.9663 19.3701 12.2929 19.1673 12.4945L16.4872 15.1589C16.373 15.0174 16.2527 14.8803 16.1224 14.7523ZM11.6685 17.8095L12.2785 14.3731C14.6457 14.1191 16.7984 16.2613 16.542 18.6136L13.1229 19.2134C12.7203 18.6673 12.2296 18.1936 11.6685 17.8095ZM25.7753 11.035L25.4077 11.3998C25.212 11.5954 24.8701 11.5954 24.6739 11.3998L19.5346 6.29106C19.3324 6.08997 19.3324 5.76239 19.5346 5.5613L19.9019 5.19643C20.0949 4.9961 20.4427 4.99606 20.6358 5.19643C20.6358 5.19643 25.775 10.3052 25.775 10.3052C25.9773 10.5063 25.9773 10.8339 25.7753 11.035ZM27.6105 9.21057L27.2432 9.57545C27.0475 9.77099 26.7056 9.77099 26.5094 9.57545L21.3702 4.46667C21.1676 4.26558 21.1676 3.9375 21.3699 3.73641L21.7372 3.37153C21.9395 3.17095 22.269 3.17095 22.4713 3.37153L27.6105 8.48032C27.813 8.6819 27.813 9.00898 27.6105 9.21057Z" fill="#0E5952"/>
</svg>
