<svg width="31" height="28" viewBox="0 0 31 28" fill="none" xmlns="http://www.w3.org/2000/svg">
<path d="M24.592 6.52441H5.52099C3.8605 6.52441 2.50977 7.87515 2.50977 9.53563V12.045C2.50977 13.7055 3.8605 15.0562 5.52099 15.0562V14.0525C4.41384 14.0525 3.51351 13.1521 3.51351 12.045V9.53563C3.51351 8.42848 4.41384 7.52815 5.52099 7.52815H24.592C25.6992 7.52815 26.5995 8.42848 26.5995 9.53563V12.045C26.5995 13.1521 25.6992 14.0525 24.592 14.0525V15.0562C26.2525 15.0562 27.6033 13.7055 27.6033 12.045V9.53563C27.6033 7.87515 26.2525 6.52441 24.592 6.52441Z" fill="#0E5952"/>
<path d="M27.101 0H3.01122C1.35074 0 0 1.35074 0 3.01122V19.0711C0 20.7315 1.35074 22.0823 3.01122 22.0823H5.90353C5.75987 21.7661 5.65418 21.43 5.59121 21.0785H3.01122C1.90407 21.0785 1.00374 20.1782 1.00374 19.0711V4.01496H29.1085V19.0711C29.1085 20.1782 28.2081 21.0785 27.101 21.0785H24.521C24.458 21.43 24.3523 21.7661 24.2087 22.0823H27.101C28.7615 22.0823 30.1122 20.7315 30.1122 19.0711V3.01122C30.1122 1.35074 28.7615 0 27.101 0ZM2.50935 3.01122C1.85009 2.99844 1.85018 2.02016 2.50937 2.00748C3.16861 2.02026 3.16852 2.99854 2.50935 3.01122ZM4.51683 3.01122C3.85757 2.99844 3.85766 2.02016 4.51685 2.00748C5.17609 2.02026 5.176 2.99854 4.51683 3.01122ZM6.52431 3.01122C5.86505 2.99844 5.86514 2.02016 6.52433 2.00748C7.18357 2.02026 7.18348 2.99854 6.52431 3.01122Z" fill="#0E5952"/>
<path d="M20.3249 10.5391H9.78559C7.9869 10.5391 6.52344 12.0025 6.52344 13.8012V20.3255C6.52344 22.1242 7.9869 23.5877 9.78559 23.5877H20.3249C22.1236 23.5877 23.587 22.1242 23.587 20.3255V13.8012C23.587 12.0025 22.1236 10.5391 20.3249 10.5391ZM17.2636 14.4535C16.7399 14.059 17.3395 13.2586 17.8655 13.6508C17.8655 13.6508 19.873 15.1564 19.873 15.1564C20.1377 15.344 20.1381 15.7716 19.873 15.9592C19.873 15.9592 17.8655 17.4648 17.8655 17.4648C17.7753 17.5324 17.6699 17.5652 17.5651 17.5652C17.1027 17.5825 16.875 16.9318 17.2637 16.662C17.2637 16.662 18.7354 15.5578 18.7354 15.5578L17.2636 14.4535ZM16.5251 13.2347L14.5176 18.2534C14.2602 18.8627 13.3509 18.4959 13.5854 17.8808C13.5854 17.8809 15.5929 12.8622 15.5929 12.8622C15.8478 12.2548 16.7598 12.6173 16.5251 13.2347ZM12.8468 16.662C13.371 17.0573 12.7699 17.8571 12.2449 17.4647C12.2449 17.4648 10.2375 15.9592 10.2375 15.9592C9.9727 15.7716 9.97237 15.3439 10.2375 15.1564C10.2375 15.1564 12.245 13.6508 12.245 13.6508C12.7702 13.2594 13.3713 14.0574 12.8468 14.4536C12.8468 14.4535 11.375 15.5578 11.375 15.5578L12.8468 16.662Z" fill="#0E5952"/>
<path d="M22.4945 24.8827L21.4299 23.8177L22.3455 22.9022C23.1616 22.1395 22.7728 20.6523 21.6867 20.3879C21.6868 20.3879 15.3266 18.6069 15.3266 18.6069C14.6033 18.3809 13.8623 19.1191 14.0896 19.8439C14.0896 19.8439 15.8707 26.204 15.8707 26.204C16.1355 27.2892 17.6219 27.6798 18.3849 26.8627C18.3849 26.8627 19.3004 25.9472 19.3004 25.9472L20.3654 27.0117C20.561 27.2073 20.8183 27.3053 21.0751 27.3053C21.6167 27.3627 22.1408 26.6195 22.4945 26.302C22.8861 25.911 22.8861 25.2738 22.4945 24.8827Z" fill="#04091E"/>
</svg>
