<svg width="31" height="31" viewBox="0 0 31 31" fill="none" xmlns="http://www.w3.org/2000/svg">
<path d="M30.9129 2.1461C30.8419 1.03503 29.9475 0.144466 28.8321 0.074327C26.7429 -0.0568947 24.8278 -0.0134985 23.0843 0.197633C19.522 0.616326 16.6064 1.80499 14.5401 3.68978C8.79699 2.49948 4.23006 7.77961 6.1341 13.3239C6.27931 13.7424 6.66335 14.0317 7.10963 14.0575C7.53986 14.0932 7.94219 13.8586 8.13191 13.4685C8.62554 12.4387 9.71373 11.9012 10.81 12.1225C10.784 12.87 10.8264 13.4365 10.8566 13.7232L9.7566 14.8184C8.94728 15.6242 8.94728 16.9356 9.7566 17.7414L13.1687 21.1387C13.9784 21.9441 15.2947 21.9439 16.1044 21.1387L17.2041 20.0433C17.4825 20.0802 18.3159 20.1157 18.8147 20.0891C19.0261 21.1823 18.4948 22.2685 17.4572 22.7585C17.068 22.9496 16.8397 23.3371 16.8656 23.7763C16.8968 24.2207 17.1874 24.603 17.6077 24.7477C18.4328 25.0319 19.2994 25.1662 20.1557 25.1662C24.8696 25.2698 28.2746 20.8983 27.2836 16.3732C30.4689 13.0354 31.293 7.1599 30.9129 2.1461ZM25.907 16.2938C22.5932 19.3374 18.2106 19.1002 17.3156 19.0149L11.8891 13.612C11.3826 7.93545 14.7365 2.21399 22.882 1.26509L29.717 8.07088C29.2258 11.6561 27.9546 14.4132 25.907 16.2938Z" fill="#0E5952"/>
<path d="M0.519366 23.2493C0.806197 23.2493 1.0383 23.0182 1.0383 22.7326C1.02204 21.7182 2.42081 21.3107 2.95037 22.1821C3.09834 22.4152 3.40392 22.4914 3.64514 22.3552C3.80883 22.2628 3.97911 22.2159 4.15192 22.2159C4.72406 22.2159 5.18979 22.6796 5.18979 23.2493C5.18979 23.5348 5.42189 23.7659 5.70872 23.7659C6.37499 23.7463 6.26723 22.9319 6.08389 22.5081C7.64323 22.3732 9.16701 21.6473 10.215 20.4963C10.4075 20.2844 10.3913 19.9579 10.179 19.7662C9.96663 19.575 9.63773 19.5901 9.44567 19.802C8.39987 20.9522 6.78827 21.5927 5.2294 21.4914C4.75202 21.1898 4.09989 21.092 3.5453 21.2764C2.30071 19.9686 -0.0372452 20.925 0.000450346 22.7326C0.00041921 23.0182 0.232534 23.2493 0.519366 23.2493Z" fill="#0E5952"/>
<path d="M4.67085 24.2828C4.00697 24.2828 3.38567 24.5316 2.9093 24.9766C1.58452 24.359 -0.0309408 25.4081 0.000454867 26.8662C-0.0311172 28.3252 1.58709 29.3748 2.91184 28.7548C2.9762 28.8139 3.0436 28.8699 3.11404 28.9223C3.11404 30.0728 4.04499 30.9997 5.18979 30.9997C6.71811 31.0365 7.77494 29.2841 7.01721 27.9626C7.84469 26.3087 6.52841 24.2426 4.67085 24.2828Z" fill="#0E5952"/>
<path d="M10.2803 20.8087C9.27374 21.7653 8.64623 23.2704 8.57518 24.8267C7.74138 24.574 7.43795 25.7358 8.30337 25.8327C8.87551 25.8327 9.34124 26.2964 9.34124 26.866C9.34124 27.0381 9.29411 27.2076 9.20137 27.3706C9.06454 27.6103 9.14106 27.915 9.37519 28.0624C10.2502 28.5888 9.84102 29.9832 8.82226 29.9661C8.53547 29.9661 8.30337 30.1972 8.30337 30.4828C8.30337 30.7684 8.53547 30.9995 8.8223 30.9995C10.6378 31.0367 11.5983 28.7089 10.2848 27.47C10.5525 26.6789 10.2346 25.7563 9.60375 25.2682C9.56457 23.8544 10.1087 22.4001 10.9969 21.5564C11.4856 21.0876 10.7731 20.3441 10.2803 20.8087Z" fill="#0E5952"/>
<path d="M25.9481 7.7483C25.8422 11.1631 20.8642 11.1623 20.7588 7.74824C20.8647 4.33351 25.8428 4.33431 25.9481 7.7483Z" fill="#0E5952"/>
<path d="M23.425 7.53019C21.4537 5.56741 18.2468 5.56741 16.2755 7.53019C13.0891 10.6588 15.4263 16.1715 19.8504 16.1205C24.2742 16.1714 26.6117 10.6581 23.425 7.53019Z" fill="#04091E"/>
</svg>
