<svg width="1898" height="868" viewBox="0 0 1898 868" fill="none" xmlns="http://www.w3.org/2000/svg">
<path d="M1897.6 519.153C1897.6 488.09 1872.42 462.909 1841.36 462.909C1810.29 462.909 1785.11 488.09 1785.11 519.153C1785.11 550.216 1810.29 575.397 1841.36 575.397C1872.42 575.397 1897.6 550.216 1897.6 519.153Z" fill="#004B94" fill-opacity="0.16"/>
<path d="M161.343 58.6717C161.343 29.582 137.762 6 108.672 6C79.5819 6 56 29.582 56 58.6718C56 87.7615 79.5819 111.343 108.672 111.343C137.762 111.343 161.343 87.7615 161.343 58.6717Z" stroke="url(#paint0_linear_1958_2077)" stroke-opacity="0.13" stroke-width="12" stroke-miterlimit="10"/>
<path d="M333 648.382L333 764.97L428.118 706.676L333 648.382Z" fill="#94DCFE" fill-opacity="0.07"/>
<path opacity="0.12" d="M360.012 646L360.012 762.588L455.13 704.294L360.012 646Z" stroke="white" stroke-miterlimit="10"/>
<path d="M1678.43 191.725C1678.15 191.723 1677.87 191.804 1677.64 191.959C1677.4 192.114 1677.22 192.334 1677.11 192.594C1677 192.853 1676.97 193.139 1677.03 193.415C1677.08 193.691 1677.21 193.945 1677.41 194.145C1677.61 194.345 1677.86 194.481 1678.14 194.537C1678.41 194.592 1678.7 194.565 1678.96 194.458C1679.22 194.351 1679.44 194.169 1679.6 193.935C1679.76 193.701 1679.84 193.426 1679.84 193.145C1679.84 192.77 1679.69 192.411 1679.43 192.145C1679.16 191.879 1678.81 191.728 1678.43 191.725Z" fill="#203F79"/>
<path d="M1678.43 168.55C1678.15 168.55 1677.88 168.632 1677.65 168.787C1677.42 168.942 1677.24 169.162 1677.13 169.419C1677.02 169.676 1677 169.96 1677.05 170.233C1677.1 170.506 1677.24 170.757 1677.44 170.954C1677.63 171.151 1677.88 171.285 1678.16 171.339C1678.43 171.394 1678.71 171.366 1678.97 171.259C1679.23 171.153 1679.45 170.972 1679.6 170.74C1679.76 170.509 1679.84 170.237 1679.84 169.958C1679.84 169.584 1679.69 169.226 1679.43 168.962C1679.16 168.698 1678.8 168.55 1678.43 168.55Z" fill="#203F79"/>
<path d="M1678.43 145.363C1678.15 145.36 1677.87 145.442 1677.64 145.597C1677.4 145.752 1677.22 145.974 1677.11 146.234C1677 146.494 1676.97 146.78 1677.03 147.057C1677.08 147.333 1677.22 147.587 1677.42 147.786C1677.62 147.986 1677.87 148.121 1678.15 148.175C1678.42 148.23 1678.71 148.201 1678.97 148.092C1679.23 147.983 1679.45 147.799 1679.61 147.564C1679.76 147.329 1679.84 147.053 1679.84 146.771C1679.84 146.397 1679.69 146.039 1679.43 145.775C1679.16 145.511 1678.8 145.363 1678.43 145.363Z" fill="#203F79"/>
<path d="M1678.43 122.187C1678.15 122.187 1677.88 122.27 1677.65 122.424C1677.42 122.579 1677.24 122.799 1677.13 123.056C1677.02 123.314 1677 123.597 1677.05 123.87C1677.1 124.143 1677.24 124.394 1677.44 124.591C1677.63 124.788 1677.88 124.922 1678.16 124.977C1678.43 125.031 1678.71 125.003 1678.97 124.897C1679.23 124.79 1679.45 124.609 1679.6 124.378C1679.76 124.146 1679.84 123.874 1679.84 123.595C1679.84 123.222 1679.69 122.864 1679.43 122.6C1679.16 122.335 1678.8 122.187 1678.43 122.187Z" fill="#203F79"/>
<path d="M1678.43 99C1678.15 99 1677.88 99.0826 1677.65 99.2374C1677.42 99.3921 1677.24 99.6121 1677.13 99.8694C1677.02 100.127 1677 100.41 1677.05 100.683C1677.1 100.956 1677.24 101.207 1677.44 101.404C1677.63 101.601 1677.88 101.735 1678.16 101.79C1678.43 101.844 1678.71 101.816 1678.97 101.71C1679.23 101.603 1679.45 101.422 1679.6 101.191C1679.76 100.959 1679.84 100.687 1679.84 100.408C1679.84 100.035 1679.69 99.6766 1679.43 99.4125C1679.16 99.1484 1678.8 99 1678.43 99Z" fill="#203F79"/>
<path d="M1699.84 191.725C1699.65 191.707 1699.45 191.731 1699.26 191.794C1699.08 191.857 1698.9 191.958 1698.76 192.091C1698.61 192.224 1698.5 192.386 1698.42 192.567C1698.34 192.747 1698.3 192.942 1698.3 193.139C1698.3 193.336 1698.34 193.532 1698.42 193.712C1698.5 193.892 1698.61 194.054 1698.76 194.187C1698.9 194.32 1699.08 194.422 1699.26 194.485C1699.45 194.548 1699.65 194.571 1699.84 194.553C1700.2 194.522 1700.53 194.359 1700.76 194.097C1701 193.835 1701.14 193.494 1701.14 193.139C1701.14 192.785 1701 192.443 1700.76 192.181C1700.53 191.92 1700.2 191.757 1699.84 191.725Z" fill="#203F79"/>
<path d="M1699.84 168.55C1699.56 168.55 1699.29 168.632 1699.06 168.787C1698.83 168.942 1698.65 169.162 1698.54 169.419C1698.44 169.676 1698.41 169.96 1698.46 170.233C1698.52 170.506 1698.65 170.757 1698.85 170.954C1699.04 171.151 1699.3 171.285 1699.57 171.339C1699.84 171.394 1700.13 171.366 1700.38 171.259C1700.64 171.153 1700.86 170.972 1701.01 170.74C1701.17 170.509 1701.25 170.237 1701.25 169.958C1701.25 169.585 1701.1 169.229 1700.84 168.965C1700.57 168.702 1700.22 168.553 1699.84 168.55Z" fill="#203F79"/>
<path d="M1699.84 145.363C1699.56 145.36 1699.29 145.442 1699.05 145.597C1698.82 145.752 1698.63 145.974 1698.52 146.234C1698.41 146.494 1698.38 146.78 1698.44 147.057C1698.49 147.333 1698.63 147.587 1698.83 147.786C1699.03 147.986 1699.28 148.121 1699.56 148.175C1699.83 148.23 1700.12 148.201 1700.38 148.092C1700.64 147.983 1700.86 147.799 1701.02 147.564C1701.17 147.329 1701.25 147.053 1701.25 146.771C1701.25 146.398 1701.1 146.042 1700.84 145.778C1700.57 145.515 1700.22 145.366 1699.84 145.363Z" fill="#203F79"/>
<path d="M1699.84 122.187C1699.56 122.187 1699.29 122.27 1699.06 122.424C1698.83 122.579 1698.65 122.799 1698.54 123.056C1698.44 123.314 1698.41 123.597 1698.46 123.87C1698.52 124.143 1698.65 124.394 1698.85 124.591C1699.04 124.788 1699.3 124.922 1699.57 124.977C1699.84 125.031 1700.13 125.003 1700.38 124.897C1700.64 124.79 1700.86 124.609 1701.01 124.378C1701.17 124.146 1701.25 123.874 1701.25 123.595C1701.25 123.223 1701.1 122.866 1700.84 122.603C1700.57 122.339 1700.22 122.19 1699.84 122.187Z" fill="#203F79"/>
<path d="M1699.84 99C1699.56 99 1699.29 99.0826 1699.06 99.2374C1698.83 99.3921 1698.65 99.6121 1698.54 99.8694C1698.44 100.127 1698.41 100.41 1698.46 100.683C1698.52 100.956 1698.65 101.207 1698.85 101.404C1699.04 101.601 1699.3 101.735 1699.57 101.79C1699.84 101.844 1700.13 101.816 1700.38 101.71C1700.64 101.603 1700.86 101.422 1701.01 101.191C1701.17 100.959 1701.25 100.687 1701.25 100.408C1701.25 100.036 1701.1 99.6793 1700.84 99.4158C1700.57 99.1523 1700.22 99.003 1699.84 99Z" fill="#203F79"/>
<path d="M1721.2 191.725C1720.92 191.723 1720.64 191.804 1720.41 191.959C1720.17 192.114 1719.99 192.334 1719.88 192.594C1719.77 192.853 1719.74 193.139 1719.79 193.415C1719.85 193.691 1719.98 193.945 1720.18 194.145C1720.38 194.345 1720.63 194.481 1720.91 194.537C1721.18 194.592 1721.47 194.565 1721.73 194.458C1721.99 194.351 1722.21 194.169 1722.37 193.935C1722.52 193.701 1722.61 193.426 1722.61 193.145C1722.61 192.77 1722.46 192.411 1722.2 192.145C1721.93 191.879 1721.57 191.728 1721.2 191.725Z" fill="#203F79"/>
<path d="M1721.2 168.55C1720.92 168.55 1720.65 168.632 1720.42 168.787C1720.18 168.942 1720 169.162 1719.9 169.419C1719.79 169.676 1719.76 169.96 1719.82 170.233C1719.87 170.506 1720.01 170.757 1720.2 170.954C1720.4 171.151 1720.65 171.285 1720.92 171.339C1721.2 171.394 1721.48 171.366 1721.74 171.259C1721.99 171.153 1722.21 170.972 1722.37 170.74C1722.52 170.509 1722.61 170.237 1722.61 169.958C1722.61 169.584 1722.46 169.226 1722.19 168.962C1721.93 168.698 1721.57 168.55 1721.2 168.55Z" fill="#203F79"/>
<path d="M1721.2 145.363C1720.92 145.36 1720.64 145.442 1720.41 145.597C1720.17 145.752 1719.99 145.974 1719.88 146.234C1719.77 146.494 1719.74 146.78 1719.79 147.057C1719.85 147.333 1719.98 147.587 1720.18 147.786C1720.38 147.986 1720.64 148.121 1720.91 148.175C1721.19 148.23 1721.48 148.201 1721.74 148.092C1722 147.983 1722.22 147.799 1722.37 147.564C1722.53 147.329 1722.61 147.053 1722.61 146.771C1722.61 146.397 1722.46 146.039 1722.19 145.775C1721.93 145.511 1721.57 145.363 1721.2 145.363Z" fill="#203F79"/>
<path d="M1721.2 122.187C1720.92 122.187 1720.65 122.27 1720.42 122.424C1720.18 122.579 1720 122.799 1719.9 123.056C1719.79 123.314 1719.76 123.597 1719.82 123.87C1719.87 124.143 1720.01 124.394 1720.2 124.591C1720.4 124.788 1720.65 124.922 1720.92 124.977C1721.2 125.031 1721.48 125.003 1721.74 124.897C1721.99 124.79 1722.21 124.609 1722.37 124.378C1722.52 124.146 1722.61 123.874 1722.61 123.595C1722.61 123.222 1722.46 122.864 1722.19 122.6C1721.93 122.335 1721.57 122.187 1721.2 122.187Z" fill="#203F79"/>
<path d="M1721.2 99C1720.92 99 1720.65 99.0826 1720.42 99.2374C1720.18 99.3921 1720 99.6121 1719.9 99.8694C1719.79 100.127 1719.76 100.41 1719.82 100.683C1719.87 100.956 1720.01 101.207 1720.2 101.404C1720.4 101.601 1720.65 101.735 1720.92 101.79C1721.2 101.844 1721.48 101.816 1721.74 101.71C1721.99 101.603 1722.21 101.422 1722.37 101.191C1722.52 100.959 1722.61 100.687 1722.61 100.408C1722.61 100.035 1722.46 99.6766 1722.19 99.4125C1721.93 99.1484 1721.57 99 1721.2 99Z" fill="#203F79"/>
<path d="M1742.59 191.725C1742.31 191.723 1742.03 191.804 1741.8 191.959C1741.56 192.114 1741.38 192.334 1741.27 192.594C1741.16 192.853 1741.13 193.139 1741.18 193.415C1741.24 193.691 1741.37 193.945 1741.57 194.145C1741.77 194.345 1742.02 194.481 1742.3 194.537C1742.57 194.592 1742.86 194.565 1743.12 194.458C1743.38 194.351 1743.6 194.169 1743.76 193.935C1743.91 193.701 1744 193.426 1744 193.145C1744 192.77 1743.85 192.411 1743.58 192.145C1743.32 191.879 1742.96 191.728 1742.59 191.725Z" fill="#203F79"/>
<path d="M1742.59 168.55C1742.31 168.55 1742.04 168.632 1741.81 168.787C1741.57 168.942 1741.39 169.162 1741.29 169.419C1741.18 169.676 1741.15 169.96 1741.21 170.233C1741.26 170.506 1741.39 170.757 1741.59 170.954C1741.79 171.151 1742.04 171.285 1742.31 171.339C1742.59 171.394 1742.87 171.366 1743.13 171.259C1743.38 171.153 1743.6 170.972 1743.76 170.74C1743.91 170.509 1744 170.237 1744 169.958C1744 169.584 1743.85 169.226 1743.58 168.962C1743.32 168.698 1742.96 168.55 1742.59 168.55Z" fill="#203F79"/>
<path d="M1742.59 145.363C1742.31 145.36 1742.03 145.442 1741.79 145.597C1741.56 145.752 1741.38 145.974 1741.27 146.234C1741.16 146.494 1741.13 146.78 1741.18 147.057C1741.24 147.333 1741.37 147.587 1741.57 147.786C1741.77 147.986 1742.03 148.121 1742.3 148.175C1742.58 148.23 1742.87 148.201 1743.12 148.092C1743.38 147.983 1743.61 147.799 1743.76 147.564C1743.92 147.329 1744 147.053 1744 146.771C1744 146.397 1743.85 146.039 1743.58 145.775C1743.32 145.511 1742.96 145.363 1742.59 145.363Z" fill="#203F79"/>
<path d="M1742.59 122.187C1742.31 122.187 1742.04 122.27 1741.81 122.424C1741.57 122.579 1741.39 122.799 1741.29 123.056C1741.18 123.314 1741.15 123.597 1741.21 123.87C1741.26 124.143 1741.39 124.394 1741.59 124.591C1741.79 124.788 1742.04 124.922 1742.31 124.977C1742.59 125.031 1742.87 125.003 1743.13 124.897C1743.38 124.79 1743.6 124.609 1743.76 124.378C1743.91 124.146 1744 123.874 1744 123.595C1744 123.222 1743.85 122.864 1743.58 122.6C1743.32 122.335 1742.96 122.187 1742.59 122.187Z" fill="#203F79"/>
<path d="M1742.59 99C1742.31 99 1742.04 99.0826 1741.81 99.2374C1741.57 99.3921 1741.39 99.6121 1741.29 99.8694C1741.18 100.127 1741.15 100.41 1741.21 100.683C1741.26 100.956 1741.39 101.207 1741.59 101.404C1741.79 101.601 1742.04 101.735 1742.31 101.79C1742.59 101.844 1742.87 101.816 1743.13 101.71C1743.38 101.603 1743.6 101.422 1743.76 101.191C1743.91 100.959 1744 100.687 1744 100.408C1744 100.035 1743.85 99.6766 1743.58 99.4125C1743.32 99.1484 1742.96 99 1742.59 99Z" fill="#203F79"/>
<path d="M1763.97 191.725C1763.68 191.725 1763.41 191.808 1763.18 191.964C1762.94 192.12 1762.76 192.342 1762.65 192.602C1762.55 192.861 1762.52 193.147 1762.57 193.422C1762.63 193.697 1762.76 193.95 1762.96 194.149C1763.16 194.348 1763.41 194.483 1763.69 194.538C1763.96 194.592 1764.25 194.564 1764.51 194.457C1764.77 194.349 1764.99 194.167 1765.15 193.934C1765.3 193.7 1765.39 193.426 1765.39 193.145C1765.39 192.768 1765.24 192.407 1764.97 192.141C1764.7 191.875 1764.34 191.725 1763.97 191.725Z" fill="#203F79"/>
<path d="M1763.97 168.55C1763.69 168.552 1763.42 168.636 1763.19 168.793C1762.96 168.949 1762.78 169.169 1762.67 169.427C1762.57 169.684 1762.54 169.967 1762.6 170.24C1762.65 170.512 1762.79 170.762 1762.99 170.958C1763.18 171.154 1763.43 171.287 1763.71 171.34C1763.98 171.394 1764.26 171.365 1764.52 171.258C1764.78 171.151 1764.99 170.971 1765.15 170.739C1765.3 170.508 1765.39 170.236 1765.39 169.958C1765.39 169.772 1765.35 169.588 1765.28 169.416C1765.21 169.245 1765.1 169.089 1764.97 168.958C1764.84 168.827 1764.68 168.724 1764.51 168.654C1764.34 168.583 1764.15 168.548 1763.97 168.55Z" fill="#203F79"/>
<path d="M1763.97 145.363C1763.61 145.394 1763.28 145.557 1763.05 145.819C1762.81 146.08 1762.67 146.422 1762.67 146.777C1762.67 147.131 1762.81 147.473 1763.05 147.735C1763.28 147.996 1763.61 148.159 1763.97 148.191C1764.16 148.209 1764.36 148.185 1764.55 148.122C1764.73 148.059 1764.91 147.958 1765.05 147.825C1765.2 147.692 1765.31 147.53 1765.39 147.349C1765.47 147.169 1765.51 146.974 1765.51 146.777C1765.51 146.58 1765.47 146.384 1765.39 146.204C1765.31 146.024 1765.2 145.862 1765.05 145.729C1764.91 145.596 1764.73 145.494 1764.55 145.431C1764.36 145.368 1764.16 145.345 1763.97 145.363Z" fill="#203F79"/>
<path d="M1763.97 122.187C1763.69 122.189 1763.42 122.274 1763.19 122.43C1762.96 122.586 1762.78 122.807 1762.67 123.064C1762.57 123.322 1762.54 123.605 1762.6 123.877C1762.65 124.15 1762.79 124.4 1762.99 124.595C1763.18 124.791 1763.43 124.924 1763.71 124.978C1763.98 125.031 1764.26 125.002 1764.52 124.896C1764.78 124.789 1764.99 124.608 1765.15 124.377C1765.3 124.145 1765.39 123.874 1765.39 123.595C1765.39 123.41 1765.35 123.225 1765.28 123.054C1765.21 122.882 1765.1 122.726 1764.97 122.596C1764.84 122.465 1764.68 122.361 1764.51 122.291C1764.34 122.221 1764.15 122.186 1763.97 122.187Z" fill="#203F79"/>
<path d="M1763.97 99.0001C1763.69 99.0023 1763.42 99.0868 1763.19 99.243C1762.96 99.3991 1762.78 99.6198 1762.67 99.8774C1762.57 100.135 1762.54 100.418 1762.6 100.69C1762.65 100.963 1762.79 101.212 1762.99 101.408C1763.18 101.604 1763.43 101.737 1763.71 101.791C1763.98 101.844 1764.26 101.815 1764.52 101.709C1764.78 101.602 1764.99 101.421 1765.15 101.19C1765.3 100.958 1765.39 100.687 1765.39 100.408C1765.39 100.223 1765.35 100.038 1765.28 99.8668C1765.21 99.6952 1765.1 99.5394 1764.97 99.4085C1764.84 99.2776 1764.68 99.1741 1764.51 99.104C1764.34 99.0339 1764.15 98.9985 1763.97 99.0001Z" fill="#203F79"/>
<g opacity="0.1">
<path d="M48.9616 461.477H44.6562L70.1562 406.802L74.4616 406.802L48.9616 461.477Z" fill="white"/>
<path d="M62.9542 461.477H58.6489L84.1374 406.802L88.4427 406.802L62.9542 461.477Z" fill="white"/>
<path d="M76.9351 461.477H72.6297L98.1297 406.802L102.435 406.802L76.9351 461.477Z" fill="white"/>
<path d="M90.9159 461.477H86.6106L112.111 406.802L116.416 406.802L90.9159 461.477Z" fill="white"/>
<path d="M104.908 461.477H100.603L126.091 406.802L130.397 406.802L104.908 461.477Z" fill="white"/>
<path d="M118.889 461.477H114.584L140.084 406.802L144.389 406.802L118.889 461.477Z" fill="white"/>
<path d="M132.87 461.477H128.576L154.065 406.802L158.37 406.802L132.87 461.477Z" fill="white"/>
<path d="M146.862 461.477H142.557L168.057 406.802L172.351 406.802L146.862 461.477Z" fill="white"/>
</g>
<path d="M764.805 784.382C758.256 784.382 758.256 776 751.706 776C745.156 776 745.156 784.382 738.607 784.382C732.057 784.382 732.057 776 725.519 776C718.981 776 718.969 784.382 712.42 784.382C705.87 784.382 705.87 776 699.309 776C692.748 776 692.76 784.382 686.21 784.382C679.66 784.382 679.66 776 673.111 776C666.561 776 666.55 784.382 660 784.382" stroke="white" stroke-miterlimit="10"/>
<path opacity="0.43" d="M1656.33 588.085C1649.78 588.085 1649.78 579.703 1643.23 579.703C1636.68 579.703 1636.68 588.085 1630.13 588.085C1623.58 588.085 1623.58 579.703 1617.04 579.703C1610.51 579.703 1610.49 588.085 1603.95 588.085C1597.4 588.085 1597.4 579.703 1590.83 579.703C1584.27 579.703 1584.28 588.085 1577.74 588.085C1571.19 588.085 1571.19 579.703 1564.64 579.703C1558.09 579.703 1558.08 588.085 1551.53 588.085" stroke="white" stroke-miterlimit="10"/>
<path d="M202.829 867.962C204.233 858.971 204.962 849.756 204.962 840.371C204.962 742.412 125.55 663 27.591 663C18.2059 663 8.99107 663.729 -8.86592e-06 665.133L-8.72636e-06 668.326C8.98649 666.896 18.202 666.153 27.591 666.153C123.809 666.153 201.808 744.153 201.809 840.371C201.809 849.76 201.066 858.975 199.636 867.962L202.829 867.962Z" fill="url(#paint1_linear_1958_2077)" fill-opacity="0.22"/>
<path d="M173.802 867.962C175.479 859.021 176.355 849.799 176.355 840.371C176.355 758.211 109.751 691.607 27.5912 691.607C18.1636 691.607 8.94083 692.484 -7.5971e-06 694.161L-7.45678e-06 697.371C8.93378 695.657 18.1577 694.76 27.5912 694.76C108.01 694.76 173.202 759.952 173.202 840.371C173.202 849.804 172.305 859.028 170.592 867.962L173.802 867.962Z" fill="url(#paint2_linear_1958_2077)" fill-opacity="0.22"/>
<path d="M144.591 867.962C146.672 859.102 147.773 849.865 147.773 840.371C147.773 773.996 93.9657 720.189 27.5912 720.189C18.0967 720.189 8.85944 721.29 -6.32026e-06 723.371L-6.17854e-06 726.613C8.84731 724.475 18.0869 723.342 27.5912 723.342C92.2242 723.342 144.62 775.738 144.62 840.371C144.62 849.875 143.487 859.115 141.349 867.962L144.591 867.962Z" fill="url(#paint3_linear_1958_2077)" fill-opacity="0.22"/>
<path d="M114.962 867.962C117.709 859.255 119.19 849.986 119.19 840.371C119.19 789.782 78.18 748.772 27.5911 748.772C17.9761 748.772 8.70716 750.253 -5.02514e-06 753L-4.88031e-06 756.313C8.68199 753.465 17.9566 751.925 27.5911 751.925C76.4385 751.925 116.037 791.524 116.037 840.371C116.037 850.005 114.497 859.28 111.649 867.962L114.962 867.962Z" fill="url(#paint4_linear_1958_2077)" fill-opacity="0.22"/>
<path d="M84.2654 867.962C96.2293 843.394 91.1431 812.919 69.8625 793.664C50.2214 775.892 22.4455 772.799 -3.68267e-06 783.712L-3.52839e-06 787.242C21.5543 776.06 48.6838 778.753 67.7469 796.002C88.3629 814.656 92.9796 844.394 80.7349 867.962L84.2654 867.962Z" fill="url(#paint5_linear_1958_2077)" fill-opacity="0.22"/>
<defs>
<linearGradient id="paint0_linear_1958_2077" x1="180.5" y1="58.9999" x2="56" y2="33.4999" gradientUnits="userSpaceOnUse">
<stop stop-color="#EEF6FA"/>
<stop offset="1" stop-color="#EEF6FA" stop-opacity="0"/>
</linearGradient>
<linearGradient id="paint1_linear_1958_2077" x1="159.5" y1="716" x2="2" y2="871.5" gradientUnits="userSpaceOnUse">
<stop stop-color="#FDFDFD" stop-opacity="0.42"/>
<stop offset="1" stop-color="#FDFDFD" stop-opacity="0"/>
</linearGradient>
<linearGradient id="paint2_linear_1958_2077" x1="159.5" y1="716" x2="2" y2="871.5" gradientUnits="userSpaceOnUse">
<stop stop-color="#FDFDFD" stop-opacity="0.42"/>
<stop offset="1" stop-color="#FDFDFD" stop-opacity="0"/>
</linearGradient>
<linearGradient id="paint3_linear_1958_2077" x1="159.5" y1="716" x2="2" y2="871.5" gradientUnits="userSpaceOnUse">
<stop stop-color="#FDFDFD" stop-opacity="0.42"/>
<stop offset="1" stop-color="#FDFDFD" stop-opacity="0"/>
</linearGradient>
<linearGradient id="paint4_linear_1958_2077" x1="159.5" y1="716" x2="2" y2="871.5" gradientUnits="userSpaceOnUse">
<stop stop-color="#FDFDFD" stop-opacity="0.42"/>
<stop offset="1" stop-color="#FDFDFD" stop-opacity="0"/>
</linearGradient>
<linearGradient id="paint5_linear_1958_2077" x1="159.5" y1="716" x2="2" y2="871.5" gradientUnits="userSpaceOnUse">
<stop stop-color="#FDFDFD" stop-opacity="0.42"/>
<stop offset="1" stop-color="#FDFDFD" stop-opacity="0"/>
</linearGradient>
</defs>
</svg>
