<svg width="124" height="124" viewBox="0 0 124 124" fill="none" xmlns="http://www.w3.org/2000/svg">
<g id="Icon">
<circle id="Ellipse 117" cx="62" cy="62" r="61.5" fill="white" stroke="#E0DEF7"/>
<circle id="Ellipse 118" opacity="0.1" cx="62.25" cy="62.25" r="54.25" fill="#0B6755"/>
<g id="icon">
<path id="Vector" d="M52.287 84.4077C52.6716 83.6059 53.0563 82.8031 53.4389 81.996C52.9303 81.6892 52.4215 81.3875 51.9345 81.0469C51.4941 81.9777 51.0517 82.9034 50.6087 83.8262C50.4113 84.359 49.6804 85.2609 50.1133 85.8336C50.2762 86.0852 50.5553 86.2368 50.8543 86.2368C53.7662 86.1657 56.6389 85.7604 59.452 85.0363C58.5285 84.6633 57.6156 84.2679 56.7249 83.8299C55.256 84.1095 53.7758 84.3108 52.287 84.4077Z" fill="#0E5952"/>
<path id="Vector_2" d="M87.8921 51.375L83.3397 43.6116C83.3015 43.5654 83.2697 43.5163 83.2346 43.4677C82.9968 43.2032 77.2416 37 62.2876 37C46.921 37 41.5406 43.2273 41.3192 43.4918C41.2938 43.5321 41.2684 43.5704 41.2382 43.6072L36.6194 51.3776C36.0611 52.3365 35.8716 53.4324 36.0861 54.4619C39.4872 72.0415 55.6813 86.0176 73.6379 86.2366C74.2886 86.2562 74.7429 85.5471 74.4553 84.9738C72.7345 81.402 70.7939 77.3193 69.2731 73.7762C70.9467 71.7599 72.5033 70.1388 74.1762 68.0814C74.573 67.5636 74.4671 66.4069 73.5447 66.3522C63.8532 65.9085 54.3171 60.7269 48.2296 53.1731C55.8125 50.1131 69.7028 50.6953 75.8663 53.7466C72.7247 57.4558 68.8393 60.5077 64.4681 62.6999C65.2469 62.9847 66.0309 63.2349 66.8182 63.4571C73.8039 59.5462 79.5512 53.4179 82.7323 46.0635L86.3697 52.2658C86.704 52.8396 86.8186 53.4884 86.6911 54.0923C84.8349 63.0411 79.7587 71.2099 72.5276 76.7468C72.7701 77.278 73.0235 77.8342 73.2798 78.3791C81.025 72.6033 86.4471 63.9363 88.4185 54.4533C88.6348 53.4203 88.4487 52.3279 87.8921 51.375ZM52.7537 70.3464C53.7573 70.9267 52.9129 72.437 51.8938 71.8868C47.7205 69.5606 44.4509 65.6294 42.9251 61.1019C42.5735 60.0006 44.2079 59.4424 44.5965 60.5385C45.9845 64.655 48.9577 68.2304 52.7537 70.3464ZM47.0976 51.704C45.4171 49.4184 44.0396 46.9175 43.0347 44.266C50.7212 36.9169 73.7594 37.0378 81.5423 44.2903C80.4373 47.1705 78.8974 49.8746 77.0186 52.3253C70.3353 48.876 55.3816 48.1966 47.0976 51.704Z" fill="#0E5952"/>
<path id="Vector_3" d="M71.9844 49.4745C69.6339 49.0187 68.4145 46.0704 69.753 44.0872C69.9727 43.7383 69.9227 43.2834 69.6306 42.9922C69.3377 42.7001 68.8854 42.651 68.5356 42.8699C67.5405 43.4979 66.349 43.5987 65.2634 43.1499C64.1779 42.7001 63.4068 41.7852 63.1483 40.6384C63.057 40.237 62.7003 39.9509 62.2876 39.9509C61.8749 39.9509 61.5182 40.237 61.4269 40.6384C61.1685 41.7852 60.3974 42.7001 59.3118 43.1499C58.2263 43.6005 57.0321 43.4988 56.0396 42.8699C55.6907 42.6502 55.2367 42.6993 54.9446 42.9922C54.6525 43.2834 54.6026 43.7383 54.8223 44.0872C55.4495 45.0806 55.552 46.273 55.1023 47.3586C54.6525 48.4441 53.7376 49.2152 52.5908 49.4745C52.1885 49.5659 51.9033 49.9234 51.9033 50.3352C51.9033 50.7479 52.1894 51.1046 52.5908 51.1959C53.7376 51.4544 54.6525 52.2255 55.1023 53.3119C55.552 54.3966 55.4503 55.589 54.8223 56.5823C54.6026 56.9313 54.6525 57.3853 54.9446 57.6774C55.2358 57.9703 55.6916 58.0194 56.0396 57.7997C57.0339 57.1708 58.228 57.0717 59.3127 57.5206C60.3974 57.9703 61.1685 58.8853 61.4269 60.0311C61.5182 60.4326 61.8749 60.7187 62.2876 60.7187C62.7003 60.7187 63.057 60.4326 63.1483 60.0311C63.4068 58.8853 64.1779 57.9703 65.2626 57.5206C66.3481 57.0708 67.5422 57.1725 68.5356 57.7997C68.8837 58.0177 69.3386 57.9694 69.6306 57.6774C69.9227 57.3853 69.9727 56.9313 69.753 56.5823C68.4121 54.5989 69.6364 51.6507 71.9844 51.196C72.8819 51.0069 72.8907 49.6648 71.9844 49.4745Z" fill="#F2BE22"/>
<path id="Vector_4" d="M62.2873 45.0645C59.3812 45.0645 57.0166 47.4291 57.0166 50.3352C57.2644 57.311 67.3113 57.3092 67.558 50.3351C67.558 47.4291 65.1934 45.0645 62.2873 45.0645Z" fill="#0E5952"/>
</g>
</g>
</svg>
