<svg width="124" height="124" viewBox="0 0 124 124" fill="none" xmlns="http://www.w3.org/2000/svg">
<g id="Icon">
<circle id="Ellipse 117" cx="62" cy="62" r="61.5" fill="white" stroke="#E0DEF7"/>
<circle id="Ellipse 118" opacity="0.1" cx="62.25" cy="62.25" r="54.25" fill="#0B6755"/>
<g id="icon">
<g id="Group">
<path id="Vector" d="M88.6147 38.7384C88.4916 36.803 86.9403 35.2517 85.0058 35.1295C81.3825 34.9009 78.0609 34.9765 75.037 35.3443C68.8586 36.0736 63.8019 38.1442 60.2181 41.4274C50.2574 39.354 42.3366 48.5517 45.639 58.2095C45.8908 58.9384 46.5569 59.4424 47.3309 59.4874C48.0771 59.5495 48.7749 59.1409 49.1039 58.4614C49.9601 56.6675 51.8474 55.7313 53.7488 56.1167C53.7037 57.4187 53.7772 58.4057 53.8295 58.9051L51.9217 60.8129C50.5181 62.2165 50.5181 64.5009 51.9217 65.9045L57.8396 71.8224C59.2439 73.2254 61.5269 73.225 62.9313 71.8224L64.8386 69.9144C65.3213 69.9786 66.7668 70.0404 67.6319 69.994C67.9986 71.8984 67.0771 73.7904 65.2775 74.644C64.6025 74.977 64.2065 75.652 64.2515 76.417C64.3055 77.1911 64.8095 77.8571 65.5385 78.1091C66.9696 78.6041 68.4726 78.8381 69.9577 78.8381C78.1334 79.0185 84.039 71.4036 82.3202 63.5213C87.8447 57.707 89.274 47.4721 88.6147 38.7384ZM79.9326 63.3829C74.1852 68.6846 66.5842 68.2715 65.032 68.123L55.6203 58.7113C54.7419 48.8231 60.5588 38.8567 74.6861 37.2037L86.5406 49.059C85.6887 55.3044 83.484 60.1069 79.9326 63.3829Z" fill="#0B6755"/>
<path id="Vector_2" d="M35.9008 75.499C36.3982 75.499 36.8008 75.0964 36.8008 74.599C36.7726 72.8319 39.1986 72.1222 40.117 73.6401C40.3737 74.0461 40.9037 74.1788 41.3221 73.9415C41.606 73.7807 41.9013 73.6989 42.201 73.6989C43.1933 73.6989 44.001 74.5067 44.001 75.499C44.001 75.9965 44.4036 76.399 44.9011 76.399C46.0566 76.3648 45.8697 74.9462 45.5518 74.2079C48.2562 73.9729 50.899 72.7085 52.7166 70.7035C53.0506 70.3344 53.0224 69.7657 52.6542 69.4317C52.2859 69.0986 51.7155 69.1249 51.3823 69.4941C49.5685 71.4976 46.7734 72.6134 44.0698 72.4368C43.2418 71.9115 42.1108 71.7411 41.1489 72.0623C38.9903 69.7843 34.9354 71.4503 35.0008 74.5991C35.0007 75.0964 35.4033 75.499 35.9008 75.499Z" fill="#0B6755"/>
<path id="Vector_3" d="M43.101 77.2991C41.9496 77.2991 40.872 77.7324 40.0458 78.5076C37.7481 77.4318 34.9463 79.2594 35.0008 81.7993C34.946 84.3408 37.7526 86.1691 40.0502 85.0891C40.1619 85.1919 40.2788 85.2895 40.4009 85.3809C40.4009 87.3849 42.0155 88.9995 44.001 88.9995C46.6517 89.0636 48.4847 86.011 47.1705 83.7092C48.6057 80.8281 46.3227 77.229 43.101 77.2991Z" fill="#0B6755"/>
<path id="Vector_4" d="M52.8302 71.2476C51.0844 72.9139 49.9961 75.5358 49.8729 78.2468C48.4268 77.8066 47.9005 79.8305 49.4014 79.9992C50.3938 79.9991 51.2015 80.8069 51.2015 81.7992C51.2015 82.0989 51.1198 82.3942 50.9589 82.6781C50.7216 83.0956 50.8543 83.6265 51.2604 83.8832C52.778 84.8002 52.0683 87.2292 50.3014 87.1994C49.804 87.1994 49.4014 87.6019 49.4014 88.0994C49.4014 88.5969 49.804 88.9994 50.3015 88.9994C53.4503 89.0643 55.1162 85.0094 52.8381 82.8513C53.3022 81.4732 52.751 79.8661 51.6568 79.0158C51.5888 76.5532 52.5326 74.0198 54.073 72.5502C54.9207 71.7334 53.6848 70.4383 52.8302 71.2476Z" fill="#0B6755"/>
<path id="Vector_5" d="M80.0023 48.4981C79.8186 54.4465 71.1847 54.4451 71.002 48.498C71.1856 42.5498 79.8195 42.5511 80.0023 48.4981Z" fill="#0B6755"/>
</g>
<path id="Vector_6" d="M75.6267 48.1175C72.2076 44.6985 66.6457 44.6985 63.2266 48.1175C57.7003 53.5673 61.7538 63.1702 69.4268 63.0813C77.0993 63.17 81.1536 53.5662 75.6267 48.1175Z" fill="#F2BE22"/>
</g>
</g>
</svg>
