<svg width="1743" height="793" viewBox="0 0 1743 793" fill="none" xmlns="http://www.w3.org/2000/svg">
<g opacity="0.23">
<path d="M1641.54 626.882C1640.84 626.324 1640.13 625.796 1639.41 625.296L1624.85 614.887L1616.87 617.309L1621.7 618.949C1602.24 616.935 1578.9 627.761 1562.15 648.588C1541.87 673.809 1537.94 705.248 1551.34 723.843L1548.92 724.164L1557.58 730.511L1557.9 730.778C1578.65 747.478 1614.19 737.756 1637.29 709.065C1660.39 680.374 1662.29 643.582 1641.54 626.882ZM1621.71 696.531C1608.2 713.322 1587.39 719.012 1575.25 709.237C1563.11 699.462 1564.22 677.925 1577.73 661.133C1591.25 644.342 1612.05 638.648 1624.2 648.423C1636.34 658.198 1635.23 679.751 1621.71 696.531Z" fill="url(#paint0_linear_130_856)"/>
<path d="M1628.03 617.169C1607.28 600.469 1571.74 610.191 1548.64 638.882C1525.55 667.573 1523.65 704.369 1544.4 721.069C1565.15 737.768 1600.69 728.05 1623.78 699.356C1646.87 670.661 1648.78 633.868 1628.03 617.169ZM1608.2 686.818C1594.68 703.613 1573.88 709.303 1561.74 699.528C1549.59 689.752 1550.71 668.215 1564.22 651.42C1577.74 634.625 1598.54 628.927 1610.68 638.71C1622.81 648.493 1621.72 670.023 1608.2 686.818Z" fill="url(#paint1_linear_130_856)"/>
<path d="M1564.22 651.42C1577.74 634.606 1598.54 628.935 1610.69 638.71C1612.99 640.574 1614.88 642.9 1616.23 645.539C1614.86 642.661 1612.87 640.126 1610.39 638.122C1598.25 628.346 1577.45 634.036 1563.93 650.832C1553.01 664.398 1550.17 681.055 1555.91 692.103C1550.59 681.059 1553.5 664.745 1564.22 651.42Z" fill="url(#paint2_linear_130_856)"/>
<path d="M1637.65 629.148C1646.82 648.034 1641.86 675.961 1623.49 698.767C1600.39 727.458 1564.85 737.179 1544.1 720.48C1540.08 717.221 1536.79 713.136 1534.48 708.5C1536.81 713.378 1540.21 717.672 1544.41 721.068C1565.16 737.768 1600.7 728.05 1623.8 699.355C1642.33 676.312 1647.2 648.034 1637.65 629.148Z" fill="url(#paint3_linear_130_856)"/>
<path d="M128.728 89L161.209 115.703L123.768 138.92L90 112.335L128.728 89Z" fill="#BBC0FF"/>
<path d="M123.768 138.92L127.362 178.16L164.808 154.944L161.208 115.703L123.768 138.92Z" fill="#8E96FF"/>
<path d="M90 112.335L93.5992 151.575L127.362 178.16L123.768 138.919L90 112.335Z" fill="#A5ABFF"/>
<path d="M1742.45 754.021L1738.19 781.039L1712.82 767.703L1716.59 740L1742.45 754.021Z" fill="#FDC5F5"/>
<path d="M1702.82 0L1682 14.961L1707.37 28.2973L1728.19 13.3363L1702.82 0Z" fill="#C989EB"/>
<path d="M1716.59 740L1695.77 754.961L1692 782.664L1712.82 767.703L1716.59 740Z" fill="#F9BEF9"/>
<path d="M1508.69 210.97C1507.45 197.491 1495.52 187.568 1482.04 188.807C1468.56 190.045 1458.64 201.976 1459.87 215.456C1461.11 228.935 1473.04 238.858 1486.52 237.619C1500 236.381 1509.93 224.449 1508.69 210.97Z" fill="#8E96FF"/>
<path d="M1505.75 227.949C1514.41 217.542 1512.99 202.089 1502.58 193.433C1492.18 184.778 1476.72 186.198 1468.07 196.605C1459.41 207.012 1460.83 222.466 1471.24 231.121C1481.65 239.776 1497.1 238.356 1505.75 227.949Z" fill="url(#paint4_linear_130_856)"/>
<path d="M1513.04 218.211C1516.86 205.222 1509.41 191.604 1496.43 187.794C1483.44 183.983 1469.82 191.424 1466.01 204.412C1462.2 217.401 1469.64 231.019 1482.63 234.83C1495.62 238.64 1509.23 231.2 1513.04 218.211Z" fill="url(#paint5_linear_130_856)"/>
<path d="M1516.58 208.164C1515.34 194.684 1503.41 184.761 1489.93 186C1476.45 187.239 1466.52 199.17 1467.76 212.649C1469 226.128 1480.93 236.051 1494.41 234.813C1507.89 233.574 1517.81 221.643 1516.58 208.164Z" fill="url(#paint6_linear_130_856)"/>
<path d="M1513.64 225.144C1522.3 214.737 1520.88 199.283 1510.47 190.628C1500.07 181.972 1484.61 183.392 1475.96 193.8C1467.3 204.207 1468.72 219.66 1479.13 228.315C1489.54 236.971 1504.99 235.551 1513.64 225.144Z" fill="url(#paint7_linear_130_856)"/>
<path d="M1521.84 206.296C1520.6 192.817 1508.67 182.894 1495.19 184.133C1481.71 185.371 1471.79 197.303 1473.02 210.782C1474.26 224.261 1486.19 234.184 1499.67 232.945C1513.15 231.707 1523.08 219.776 1521.84 206.296Z" fill="url(#paint8_linear_130_856)"/>
<path d="M1524.47 205.36C1523.23 191.881 1511.3 181.958 1497.82 183.196C1484.34 184.435 1474.42 196.366 1475.66 209.845C1476.89 223.325 1488.83 233.248 1502.3 232.009C1515.78 230.77 1525.71 218.839 1524.47 205.36Z" fill="url(#paint9_linear_130_856)"/>
<path d="M1521.54 222.34C1530.19 211.933 1528.77 196.48 1518.36 187.824C1507.96 179.169 1492.5 180.589 1483.85 190.996C1475.19 201.403 1476.61 216.856 1487.02 225.512C1497.43 234.167 1512.88 232.747 1521.54 222.34Z" fill="url(#paint10_linear_130_856)"/>
<path d="M1529.73 203.492C1528.49 190.012 1516.56 180.089 1503.08 181.328C1489.6 182.567 1479.68 194.498 1480.92 207.977C1482.16 221.456 1494.09 231.379 1507.57 230.141C1521.05 228.902 1530.97 216.971 1529.73 203.492Z" fill="url(#paint11_linear_130_856)"/>
<path d="M1532.36 202.556C1531.12 189.077 1519.19 179.154 1505.71 180.393C1492.23 181.631 1482.31 193.562 1483.55 207.042C1484.78 220.521 1496.72 230.444 1510.2 229.205C1523.67 227.967 1533.6 216.035 1532.36 202.556Z" fill="url(#paint12_linear_130_856)"/>
<path d="M1534.99 201.621C1533.75 188.141 1521.82 178.218 1508.34 179.457C1494.86 180.696 1484.94 192.627 1486.18 206.106C1487.42 219.585 1499.35 229.508 1512.83 228.27C1526.31 227.031 1536.23 215.1 1534.99 201.621Z" fill="url(#paint13_linear_130_856)"/>
<path d="M1532.06 218.602C1540.71 208.195 1539.29 192.741 1528.89 184.086C1518.48 175.43 1503.03 176.85 1494.37 187.258C1485.72 197.665 1487.14 213.118 1497.54 221.773C1507.95 230.429 1523.4 229.009 1532.06 218.602Z" fill="url(#paint14_linear_130_856)"/>
<path d="M1539.35 208.861C1543.16 195.873 1535.72 182.254 1522.73 178.444C1509.74 174.634 1496.12 182.074 1492.31 195.063C1488.5 208.051 1495.94 221.67 1508.93 225.48C1521.92 229.291 1535.54 221.85 1539.35 208.861Z" fill="url(#paint15_linear_130_856)"/>
<path d="M1537.32 216.733C1545.97 206.326 1544.55 190.873 1534.15 182.218C1523.74 173.562 1508.29 174.982 1499.63 185.389C1490.98 195.797 1492.4 211.25 1502.8 219.905C1513.21 228.561 1528.66 227.141 1537.32 216.733Z" fill="url(#paint16_linear_130_856)"/>
<path d="M1539.95 215.797C1548.6 205.39 1547.18 189.937 1536.78 181.281C1526.37 172.626 1510.92 174.046 1502.26 184.453C1493.61 194.86 1495.03 210.313 1505.43 218.969C1515.84 227.624 1531.29 226.204 1539.95 215.797Z" fill="url(#paint17_linear_130_856)"/>
<path d="M1548.35 196.998C1547.11 183.518 1535.18 173.595 1521.7 174.834C1508.22 176.073 1498.3 188.004 1499.54 201.483C1500.78 214.962 1512.71 224.885 1526.19 223.647C1539.67 222.408 1549.59 210.477 1548.35 196.998Z" fill="url(#paint18_linear_130_856)"/>
<path d="M1545.66 214.338C1554.32 203.931 1552.9 188.478 1542.49 179.822C1532.08 171.167 1516.63 172.587 1507.97 182.994C1499.32 193.401 1500.74 208.854 1511.14 217.51C1521.55 226.165 1537 224.745 1545.66 214.338Z" fill="url(#paint19_linear_130_856)"/>
<path d="M1554.07 196.161C1552.83 182.681 1540.9 172.758 1527.42 173.997C1513.94 175.236 1504.02 187.167 1505.26 200.646C1506.5 214.125 1518.43 224.048 1531.91 222.81C1545.39 221.571 1555.31 209.64 1554.07 196.161Z" fill="url(#paint20_linear_130_856)"/>
<path d="M1556.88 196.198C1555.64 182.719 1543.71 172.796 1530.23 174.034C1516.75 175.273 1506.83 187.204 1508.06 200.683C1509.3 214.163 1521.23 224.085 1534.71 222.847C1548.19 221.608 1558.12 209.677 1556.88 196.198Z" fill="url(#paint21_linear_130_856)"/>
<path d="M1558.72 205.627C1562.53 192.638 1555.09 179.02 1542.1 175.21C1529.12 171.399 1515.5 178.84 1511.69 191.828C1507.88 204.817 1515.32 218.435 1528.31 222.246C1541.29 226.056 1554.91 218.616 1558.72 205.627Z" fill="url(#paint22_linear_130_856)"/>
<path d="M1562.3 197.11C1561.06 183.631 1549.13 173.708 1535.65 174.946C1522.17 176.185 1512.25 188.116 1513.49 201.595C1514.72 215.075 1526.66 224.998 1540.13 223.759C1553.61 222.52 1563.54 210.589 1562.3 197.11Z" fill="url(#paint23_linear_130_856)"/>
<path d="M1564.88 197.963C1563.65 184.484 1551.71 174.561 1538.24 175.8C1524.76 177.038 1514.83 188.97 1516.07 202.449C1517.31 215.928 1529.24 225.851 1542.72 224.612C1556.2 223.374 1566.12 211.443 1564.88 197.963Z" fill="url(#paint24_linear_130_856)"/>
<path d="M1561.8 216.975C1570.46 206.568 1569.04 191.114 1558.63 182.459C1548.22 173.803 1532.77 175.223 1524.11 185.631C1515.46 196.038 1516.88 211.491 1527.29 220.146C1537.69 228.802 1553.15 227.382 1561.8 216.975Z" fill="url(#paint25_linear_130_856)"/>
<path d="M1569.71 200.387C1568.48 186.908 1556.54 176.985 1543.07 178.224C1529.59 179.462 1519.66 191.393 1520.9 204.873C1522.14 218.352 1534.07 228.275 1547.55 227.036C1561.03 225.798 1570.95 213.866 1569.71 200.387Z" fill="url(#paint26_linear_130_856)"/>
<path d="M1566.36 219.848C1575.02 209.441 1573.6 193.987 1563.19 185.332C1552.78 176.677 1537.33 178.097 1528.67 188.504C1520.02 198.911 1521.44 214.364 1531.84 223.019C1542.25 231.675 1557.7 230.255 1566.36 219.848Z" fill="url(#paint27_linear_130_856)"/>
<path d="M1573.97 203.688C1572.73 190.209 1560.8 180.286 1547.32 181.524C1533.84 182.763 1523.92 194.694 1525.16 208.173C1526.4 221.653 1538.33 231.576 1551.81 230.337C1565.29 229.098 1575.21 217.167 1573.97 203.688Z" fill="url(#paint28_linear_130_856)"/>
<path d="M1575.84 205.633C1574.6 192.154 1562.67 182.231 1549.19 183.47C1535.72 184.708 1525.79 196.64 1527.03 210.119C1528.27 223.598 1540.2 233.521 1553.68 232.282C1567.16 231.044 1577.08 219.113 1575.84 205.633Z" fill="url(#paint29_linear_130_856)"/>
<path d="M1577.53 207.756C1576.29 194.277 1564.36 184.354 1550.88 185.593C1537.4 186.831 1527.47 198.763 1528.71 212.242C1529.95 225.721 1541.88 235.644 1555.36 234.405C1568.84 233.167 1578.76 221.236 1577.53 207.756Z" fill="url(#paint30_linear_130_856)"/>
<path d="M1573.43 227.961C1582.09 217.554 1580.67 202.101 1570.26 193.445C1559.85 184.79 1544.4 186.21 1535.74 196.617C1527.09 207.024 1528.51 222.477 1538.92 231.133C1549.32 239.788 1564.78 238.368 1573.43 227.961Z" fill="url(#paint31_linear_130_856)"/>
<path d="M1574.67 230.403C1583.33 219.996 1581.91 204.543 1571.5 195.888C1561.1 187.232 1545.64 188.652 1536.99 199.059C1528.33 209.466 1529.75 224.92 1540.16 233.575C1550.57 242.231 1566.02 240.811 1574.67 230.403Z" fill="url(#paint32_linear_130_856)"/>
<path d="M1581.23 215.072C1580 201.593 1568.06 191.67 1554.58 192.908C1541.11 194.147 1531.18 206.078 1532.42 219.557C1533.66 233.037 1545.59 242.96 1559.07 241.721C1572.55 240.482 1582.47 228.551 1581.23 215.072Z" fill="url(#paint33_linear_130_856)"/>
<path d="M1581.97 217.782C1580.73 204.302 1568.8 194.38 1555.32 195.618C1541.84 196.857 1531.92 208.788 1533.16 222.267C1534.39 235.746 1546.33 245.669 1559.8 244.431C1573.28 243.192 1583.21 231.261 1581.97 217.782Z" fill="url(#paint34_linear_130_856)"/>
<path d="M1582.42 220.603C1581.18 207.124 1569.25 197.201 1555.77 198.439C1542.3 199.678 1532.37 211.609 1533.61 225.089C1534.85 238.568 1546.78 248.491 1560.26 247.252C1573.74 246.014 1583.66 234.082 1582.42 220.603Z" fill="url(#paint35_linear_130_856)"/>
<path d="M1582.58 223.523C1581.35 210.044 1569.41 200.121 1555.93 201.359C1542.46 202.598 1532.53 214.529 1533.77 228.008C1535.01 241.488 1546.94 251.411 1560.42 250.172C1573.9 248.933 1583.82 237.002 1582.58 223.523Z" fill="url(#paint36_linear_130_856)"/>
<path d="M1582.44 226.498C1581.2 213.018 1569.27 203.095 1555.79 204.334C1542.31 205.573 1532.39 217.504 1533.62 230.983C1534.86 244.462 1546.79 254.385 1560.27 253.147C1573.75 251.908 1583.68 239.977 1582.44 226.498Z" fill="url(#paint37_linear_130_856)"/>
<path d="M1576.62 247.191C1585.28 236.783 1583.86 221.33 1573.45 212.675C1563.04 204.019 1547.59 205.439 1538.94 215.846C1530.28 226.254 1531.7 241.707 1542.11 250.362C1552.51 259.018 1567.97 257.598 1576.62 247.191Z" fill="url(#paint38_linear_130_856)"/>
<path d="M1581.93 232.057C1580.69 218.578 1568.76 208.655 1555.28 209.894C1541.8 211.132 1531.88 223.063 1533.12 236.543C1534.36 250.022 1546.29 259.945 1559.77 258.706C1573.25 257.468 1583.17 245.536 1581.93 232.057Z" fill="url(#paint39_linear_130_856)"/>
<path d="M1581.68 234.838C1580.44 221.359 1568.51 211.436 1555.03 212.675C1541.55 213.913 1531.63 225.845 1532.87 239.324C1534.11 252.803 1546.04 262.726 1559.52 261.487C1573 260.249 1582.92 248.318 1581.68 234.838Z" fill="url(#paint40_linear_130_856)"/>
<path d="M1581.43 237.618C1580.19 224.138 1568.26 214.215 1554.78 215.454C1541.3 216.693 1531.38 228.624 1532.61 242.103C1533.85 255.582 1545.78 265.505 1559.26 264.267C1572.74 263.028 1582.67 251.097 1581.43 237.618Z" fill="url(#paint41_linear_130_856)"/>
<path d="M1577.27 256.021C1584.69 244.696 1581.52 229.505 1570.19 222.091C1558.87 214.677 1543.68 217.848 1536.26 229.173C1528.85 240.499 1532.02 255.689 1543.34 263.103C1554.67 270.517 1569.86 267.346 1577.27 256.021Z" fill="url(#paint42_linear_130_856)"/>
<path d="M1580.92 243.178C1579.68 229.699 1567.75 219.776 1554.27 221.015C1540.79 222.253 1530.87 234.184 1532.11 247.664C1533.35 261.143 1545.28 271.066 1558.76 269.827C1572.24 268.589 1582.16 256.657 1580.92 243.178Z" fill="url(#paint43_linear_130_856)"/>
<path d="M1580.67 245.959C1579.43 232.479 1567.5 222.556 1554.02 223.795C1540.54 225.034 1530.62 236.965 1531.86 250.444C1533.1 263.923 1545.03 273.846 1558.51 272.608C1571.99 271.369 1581.91 259.438 1580.67 245.959Z" fill="url(#paint44_linear_130_856)"/>
<path d="M1574.86 266.653C1583.51 256.246 1582.09 240.793 1571.69 232.138C1561.28 223.482 1545.83 224.902 1537.17 235.309C1528.51 245.716 1529.93 261.17 1540.34 269.825C1550.75 278.481 1566.2 277.061 1574.86 266.653Z" fill="url(#paint45_linear_130_856)"/>
<path d="M1580.17 251.517C1578.93 238.038 1567 228.115 1553.52 229.353C1540.04 230.592 1530.12 242.523 1531.35 256.003C1532.59 269.482 1544.52 279.405 1558 278.166C1571.48 276.928 1581.41 264.996 1580.17 251.517Z" fill="url(#paint46_linear_130_856)"/>
<path d="M1574.35 272.213C1583.01 261.806 1581.59 246.353 1571.18 237.697C1560.77 229.042 1545.32 230.462 1536.66 240.869C1528.01 251.276 1529.43 266.729 1539.83 275.385C1550.24 284.04 1565.69 282.62 1574.35 272.213Z" fill="url(#paint47_linear_130_856)"/>
<path d="M1574.1 274.992C1582.76 264.585 1581.34 249.132 1570.93 240.476C1560.52 231.821 1545.07 233.241 1536.41 243.648C1527.76 254.055 1529.18 269.509 1539.58 278.164C1549.99 286.819 1565.44 285.399 1574.1 274.992Z" fill="url(#paint48_linear_130_856)"/>
<path d="M1573.85 277.774C1582.5 267.366 1581.08 251.913 1570.67 243.258C1560.27 234.602 1544.81 236.022 1536.16 246.429C1527.5 256.837 1528.92 272.29 1539.33 280.945C1549.74 289.601 1565.19 288.181 1573.85 277.774Z" fill="url(#paint49_linear_130_856)"/>
<path d="M1579.16 262.637C1577.92 249.158 1565.99 239.235 1552.51 240.474C1539.03 241.712 1529.11 253.643 1530.35 267.123C1531.58 280.602 1543.51 290.525 1556.99 289.286C1570.47 288.048 1580.4 276.116 1579.16 262.637Z" fill="url(#paint50_linear_130_856)"/>
<path d="M1578.9 265.418C1577.67 251.939 1565.73 242.016 1552.25 243.255C1538.78 244.493 1528.85 256.425 1530.09 269.904C1531.33 283.383 1543.26 293.306 1556.74 292.068C1570.22 290.829 1580.14 278.898 1578.9 265.418Z" fill="url(#paint51_linear_130_856)"/>
<path d="M1578.65 268.2C1577.41 254.72 1565.48 244.797 1552 246.036C1538.52 247.275 1528.6 259.206 1529.84 272.685C1531.08 286.164 1543.01 296.087 1556.49 294.849C1569.97 293.61 1579.89 281.679 1578.65 268.2Z" fill="url(#paint52_linear_130_856)"/>
<path d="M1577.5 280.081C1581.31 267.092 1573.87 253.474 1560.89 249.664C1547.9 245.853 1534.28 253.294 1530.47 266.282C1526.66 279.271 1534.1 292.889 1547.09 296.7C1560.08 300.51 1573.69 293.07 1577.5 280.081Z" fill="url(#paint53_linear_130_856)"/>
<path d="M1578.15 273.76C1576.91 260.281 1564.98 250.358 1551.5 251.597C1538.02 252.835 1528.1 264.766 1529.34 278.246C1530.57 291.725 1542.51 301.648 1555.98 300.409C1569.46 299.171 1579.39 287.24 1578.15 273.76Z" fill="url(#paint54_linear_130_856)"/>
<path d="M1578.15 273.76C1576.91 260.281 1564.98 250.358 1551.5 251.597C1538.02 252.835 1528.1 264.766 1529.34 278.246C1530.57 291.725 1542.51 301.648 1555.98 300.409C1569.46 299.171 1579.39 287.24 1578.15 273.76Z" fill="url(#paint55_linear_130_856)"/>
<path d="M60.7385 247.762L57.4675 268.513L37.9883 258.269L40.8811 237L60.7385 247.762Z" fill="#FDC5F5"/>
<path d="M37.9875 258.269L22 269.759L41.4827 280L57.4668 268.512L37.9875 258.269Z" fill="#C989EB"/>
<path d="M40.8804 237L24.8963 248.487L22 269.76L37.9875 258.269L40.8804 237Z" fill="#F9BEF9"/>
<path d="M1702.43 283.662C1702.43 284.598 1702.16 285.512 1701.64 286.29C1701.12 287.068 1700.38 287.674 1699.51 288.032C1698.65 288.39 1697.7 288.483 1696.78 288.301C1695.86 288.118 1695.02 287.668 1694.36 287.007C1693.7 286.345 1693.25 285.502 1693.07 284.585C1692.88 283.668 1692.98 282.717 1693.33 281.852C1693.69 280.988 1694.3 280.249 1695.08 279.73C1695.85 279.21 1696.77 278.933 1697.7 278.933C1698.96 278.933 1700.16 279.431 1701.05 280.318C1701.94 281.205 1702.43 282.408 1702.43 283.662Z" fill="#79EEE9"/>
<path d="M1702.43 310.056C1702.43 310.991 1702.15 311.905 1701.63 312.682C1701.11 313.459 1700.37 314.064 1699.51 314.421C1698.65 314.778 1697.69 314.871 1696.78 314.688C1695.86 314.505 1695.02 314.054 1694.36 313.392C1693.7 312.73 1693.25 311.888 1693.07 310.97C1692.88 310.053 1692.98 309.102 1693.34 308.239C1693.69 307.375 1694.3 306.636 1695.08 306.117C1695.85 305.598 1696.77 305.32 1697.7 305.32C1698.33 305.32 1698.94 305.443 1699.52 305.681C1700.09 305.919 1700.61 306.268 1701.05 306.708C1701.49 307.148 1701.84 307.67 1702.08 308.244C1702.31 308.819 1702.43 309.434 1702.43 310.056Z" fill="#79EEE9"/>
<path d="M1702.43 336.442C1702.43 337.378 1702.16 338.292 1701.64 339.07C1701.12 339.848 1700.38 340.454 1699.51 340.812C1698.65 341.17 1697.7 341.264 1696.78 341.081C1695.86 340.899 1695.02 340.448 1694.36 339.787C1693.7 339.125 1693.25 338.283 1693.07 337.365C1692.88 336.448 1692.98 335.497 1693.33 334.633C1693.69 333.768 1694.3 333.03 1695.08 332.51C1695.85 331.99 1696.77 331.713 1697.7 331.713C1698.96 331.713 1700.16 332.211 1701.05 333.098C1701.94 333.985 1702.43 335.188 1702.43 336.442Z" fill="#79EEE9"/>
<path d="M1702.43 362.83C1702.43 363.766 1702.16 364.68 1701.64 365.458C1701.12 366.236 1700.38 366.842 1699.51 367.2C1698.65 367.558 1697.7 367.651 1696.78 367.469C1695.86 367.286 1695.02 366.836 1694.36 366.175C1693.7 365.513 1693.25 364.67 1693.07 363.753C1692.88 362.835 1692.98 361.885 1693.33 361.02C1693.69 360.156 1694.3 359.417 1695.08 358.898C1695.85 358.378 1696.77 358.101 1697.7 358.101C1698.96 358.101 1700.16 358.599 1701.05 359.486C1701.94 360.373 1702.43 361.576 1702.43 362.83Z" fill="#79EEE9"/>
<path d="M1702.29 390.279C1702.89 387.736 1701.32 385.189 1698.78 384.589C1696.23 383.989 1693.69 385.564 1693.09 388.106C1692.49 390.648 1694.06 393.195 1696.6 393.795C1699.15 394.395 1701.69 392.821 1702.29 390.279Z" fill="#79EEE9"/>
<path d="M1728 336.442C1728 337.38 1727.73 338.296 1727.21 339.076C1726.69 339.856 1725.95 340.463 1725.08 340.823C1724.21 341.182 1723.26 341.276 1722.34 341.094C1721.42 340.911 1720.58 340.46 1719.92 339.797C1719.25 339.135 1718.8 338.29 1718.62 337.371C1718.44 336.452 1718.53 335.499 1718.89 334.634C1719.25 333.768 1719.86 333.028 1720.64 332.508C1721.42 331.989 1722.33 331.712 1723.27 331.713C1724.53 331.713 1725.73 332.211 1726.62 333.098C1727.5 333.985 1728 335.188 1728 336.442Z" fill="#79EEE9"/>
<path d="M1728 362.83C1728 363.767 1727.73 364.684 1727.21 365.464C1726.69 366.243 1725.95 366.851 1725.08 367.21C1724.21 367.57 1723.26 367.664 1722.34 367.481C1721.42 367.299 1720.58 366.848 1719.92 366.185C1719.25 365.522 1718.8 364.678 1718.62 363.759C1718.44 362.839 1718.53 361.887 1718.89 361.021C1719.25 360.156 1719.86 359.416 1720.64 358.896C1721.42 358.376 1722.33 358.099 1723.27 358.101C1724.53 358.101 1725.73 358.599 1726.62 359.486C1727.5 360.373 1728 361.576 1728 362.83Z" fill="#79EEE9"/>
<path d="M1723.26 393.953C1725.88 393.953 1727.99 391.836 1727.99 389.224C1727.99 386.612 1725.88 384.494 1723.26 384.494C1720.65 384.494 1718.54 386.612 1718.54 389.224C1718.54 391.836 1720.65 393.953 1723.26 393.953Z" fill="#79EEE9"/>
<path d="M1723.26 420.34C1725.88 420.34 1727.99 418.223 1727.99 415.611C1727.99 412.998 1725.88 410.881 1723.26 410.881C1720.65 410.881 1718.54 412.998 1718.54 415.611C1718.54 418.223 1720.65 420.34 1723.26 420.34Z" fill="#79EEE9"/>
<path d="M1723.26 446.728C1725.88 446.728 1727.99 444.61 1727.99 441.998C1727.99 439.386 1725.88 437.269 1723.26 437.269C1720.65 437.269 1718.54 439.386 1718.54 441.998C1718.54 444.61 1720.65 446.728 1723.26 446.728Z" fill="#79EEE9"/>
<path d="M32.4339 463.73C32.4339 464.665 32.1565 465.579 31.6368 466.357C31.1171 467.135 30.3784 467.741 29.5142 468.099C28.6499 468.457 27.699 468.551 26.7815 468.368C25.864 468.186 25.0213 467.735 24.3599 467.074C23.6984 466.413 23.248 465.57 23.0655 464.652C22.883 463.735 22.9767 462.784 23.3346 461.92C23.6926 461.055 24.2988 460.317 25.0766 459.797C25.8544 459.277 26.7688 459 27.7042 459C28.9586 459 30.1616 459.498 31.0486 460.385C31.9355 461.272 32.4339 462.475 32.4339 463.73Z" fill="url(#paint56_linear_130_856)"/>
<path d="M32.4339 490.122C32.4327 491.058 32.1543 491.971 31.6338 492.748C31.1134 493.525 30.3743 494.131 29.51 494.488C28.6456 494.845 27.6948 494.938 26.7778 494.754C25.8607 494.571 25.0186 494.12 24.3577 493.459C23.6969 492.797 23.247 491.954 23.065 491.037C22.883 490.12 22.9771 489.169 23.3352 488.305C23.6934 487.441 24.2996 486.703 25.0772 486.183C25.8549 485.664 26.769 485.387 27.7042 485.387C28.3258 485.387 28.9414 485.509 29.5156 485.747C30.0898 485.985 30.6115 486.334 31.0507 486.774C31.49 487.214 31.8382 487.736 32.0756 488.311C32.3129 488.885 32.4347 489.501 32.4339 490.122Z" fill="url(#paint57_linear_130_856)"/>
<path d="M32.4339 516.511C32.4339 517.446 32.1565 518.361 31.6368 519.139C31.1171 519.916 30.3784 520.523 29.5142 520.88C28.6499 521.238 27.699 521.332 26.7815 521.15C25.864 520.967 25.0213 520.517 24.3599 519.855C23.6984 519.194 23.248 518.351 23.0655 517.434C22.883 516.516 22.9767 515.565 23.3346 514.701C23.6926 513.837 24.2988 513.098 25.0766 512.578C25.8544 512.059 26.7688 511.781 27.7042 511.781C28.9586 511.781 30.1616 512.28 31.0486 513.167C31.9355 514.053 32.4339 515.256 32.4339 516.511Z" fill="url(#paint58_linear_130_856)"/>
<path d="M32.4339 542.898C32.4339 543.833 32.1565 544.747 31.6368 545.525C31.1171 546.303 30.3784 546.909 29.5142 547.267C28.6499 547.625 27.699 547.719 26.7815 547.536C25.864 547.354 25.0213 546.903 24.3599 546.242C23.6984 545.581 23.248 544.738 23.0655 543.82C22.883 542.903 22.9767 541.952 23.3346 541.088C23.6926 540.223 24.2988 539.485 25.0766 538.965C25.8544 538.445 26.7688 538.168 27.7042 538.168C28.9586 538.168 30.1616 538.666 31.0486 539.553C31.9355 540.44 32.4339 541.643 32.4339 542.898Z" fill="url(#paint59_linear_130_856)"/>
<path d="M32.2928 570.347C32.8928 567.805 31.3183 565.257 28.7761 564.657C26.2338 564.057 23.6865 565.632 23.0864 568.174C22.4864 570.716 24.0609 573.264 26.6032 573.864C29.1454 574.464 31.6928 572.889 32.2928 570.347Z" fill="url(#paint60_linear_130_856)"/>
<path d="M58.0007 516.511C58.0019 517.448 57.7251 518.364 57.2052 519.144C56.6853 519.924 55.9457 520.532 55.0801 520.891C54.2145 521.25 53.2618 521.344 52.3426 521.162C51.4234 520.979 50.579 520.528 49.9164 519.866C49.2537 519.203 48.8025 518.359 48.62 517.439C48.4375 516.52 48.5318 515.567 48.8909 514.702C49.2501 513.836 49.8581 513.097 50.6378 512.577C51.4175 512.057 52.3339 511.78 53.2711 511.781C54.5255 511.781 55.7285 512.28 56.6154 513.167C57.5024 514.053 58.0007 515.256 58.0007 516.511Z" fill="url(#paint61_linear_130_856)"/>
<path d="M58.0007 542.898C58.0019 543.835 57.7251 544.751 57.2052 545.531C56.6853 546.311 55.9457 546.919 55.0801 547.278C54.2145 547.637 53.2618 547.731 52.3426 547.549C51.4234 547.366 50.579 546.915 49.9164 546.252C49.2537 545.59 48.8025 544.745 48.62 543.826C48.4375 542.907 48.5318 541.954 48.8909 541.089C49.2501 540.223 49.8581 539.483 50.6378 538.964C51.4175 538.444 52.3339 538.167 53.2711 538.168C54.5255 538.168 55.7285 538.666 56.6154 539.553C57.5024 540.44 58.0007 541.643 58.0007 542.898Z" fill="url(#paint62_linear_130_856)"/>
<path d="M53.2648 574.022C55.8769 574.022 57.9944 571.904 57.9944 569.292C57.9944 566.68 55.8769 564.562 53.2648 564.562C50.6527 564.562 48.5352 566.68 48.5352 569.292C48.5352 571.904 50.6527 574.022 53.2648 574.022Z" fill="url(#paint63_linear_130_856)"/>
<path d="M53.2648 600.409C55.8769 600.409 57.9944 598.291 57.9944 595.679C57.9944 593.067 55.8769 590.949 53.2648 590.949C50.6527 590.949 48.5352 593.067 48.5352 595.679C48.5352 598.291 50.6527 600.409 53.2648 600.409Z" fill="url(#paint64_linear_130_856)"/>
<path d="M53.2648 626.795C55.8769 626.795 57.9944 624.678 57.9944 622.066C57.9944 619.453 55.8769 617.336 53.2648 617.336C50.6527 617.336 48.5352 619.453 48.5352 622.066C48.5352 624.678 50.6527 626.795 53.2648 626.795Z" fill="url(#paint65_linear_130_856)"/>
<path d="M13.7671 729.281L51.0278 729.666L38.0794 766.498L1.67562e-07 766.91L13.7671 729.281Z" fill="#EDEDEC"/>
<path d="M38.0801 766.498L62.3661 791.594L75.3146 754.762L51.0285 729.666L38.0801 766.498Z" fill="#CFD2CD"/>
<path d="M1.83246e-09 766.91L24.286 792.001L62.3654 791.594L38.0794 766.498L1.83246e-09 766.91Z" fill="#B8B5B5"/>
<path d="M148.946 596L177.729 619.659L144.549 640.23L114.633 616.678L148.946 596Z" fill="#BBC0FF"/>
<path d="M144.549 640.229L147.735 675L180.914 654.428L177.728 619.658L144.549 640.229Z" fill="#8E96FF"/>
<path d="M114.633 616.678L117.819 651.448L147.736 675L144.549 640.23L114.633 616.678Z" fill="#A5ABFF"/>
</g>
<defs>
<linearGradient id="paint0_linear_130_856" x1="1562.04" y1="736.147" x2="1615.73" y2="654.484" gradientUnits="userSpaceOnUse">
<stop stop-color="#8E96FF"/>
<stop offset="0.11" stop-color="#8D99FE"/>
<stop offset="0.19" stop-color="#8BA3FC"/>
<stop offset="0.26" stop-color="#87B3F8"/>
<stop offset="0.28" stop-color="#86B9F6"/>
<stop offset="0.3" stop-color="#86B8F6"/>
<stop offset="0.59" stop-color="#8AA8FB"/>
<stop offset="0.84" stop-color="#8E96FF"/>
</linearGradient>
<linearGradient id="paint1_linear_130_856" x1="1530" y1="669.121" x2="1642.43" y2="669.121" gradientUnits="userSpaceOnUse">
<stop stop-color="#8E96FF"/>
<stop offset="0.15" stop-color="#8C9DFD"/>
<stop offset="0.66" stop-color="#88B2F8"/>
<stop offset="1" stop-color="#86B9F6"/>
</linearGradient>
<linearGradient id="paint2_linear_130_856" x1="1523.26" y1="699.367" x2="1629.18" y2="616.802" gradientUnits="userSpaceOnUse">
<stop offset="0.01" stop-color="#8E96FF"/>
<stop offset="0.02" stop-color="#8D9AFE"/>
<stop offset="0.07" stop-color="#8BA5FC"/>
<stop offset="0.13" stop-color="#8AA8FB"/>
<stop offset="0.22" stop-color="#82CBF2"/>
<stop offset="0.3" stop-color="#87B5F8"/>
<stop offset="0.37" stop-color="#8AA8FB"/>
<stop offset="0.44" stop-color="#8BA2FC"/>
<stop offset="0.52" stop-color="#8E96FF"/>
<stop offset="0.53" stop-color="#8BA5FB"/>
<stop offset="0.55" stop-color="#87B6F7"/>
<stop offset="0.57" stop-color="#84C2F4"/>
<stop offset="0.59" stop-color="#82C9F2"/>
<stop offset="0.66" stop-color="#82CBF2"/>
<stop offset="0.69" stop-color="#83C8F3"/>
<stop offset="0.72" stop-color="#85C0F5"/>
<stop offset="0.74" stop-color="#88B1F8"/>
<stop offset="0.75" stop-color="#8D9CFD"/>
<stop offset="0.76" stop-color="#8E96FF"/>
<stop offset="0.87" stop-color="#8AA8FB"/>
<stop offset="0.92" stop-color="#88B1F9"/>
<stop offset="0.99" stop-color="#83C8F3"/>
<stop offset="1" stop-color="#82CBF2"/>
</linearGradient>
<linearGradient id="paint3_linear_130_856" x1="1547.34" y1="730.255" x2="1653.26" y2="647.686" gradientUnits="userSpaceOnUse">
<stop offset="0.01" stop-color="#8E96FF"/>
<stop offset="0.02" stop-color="#8D9AFE"/>
<stop offset="0.07" stop-color="#8BA5FC"/>
<stop offset="0.13" stop-color="#8AA8FB"/>
<stop offset="0.22" stop-color="#82CBF2"/>
<stop offset="0.3" stop-color="#87B5F8"/>
<stop offset="0.37" stop-color="#8AA8FB"/>
<stop offset="0.44" stop-color="#8BA2FC"/>
<stop offset="0.52" stop-color="#8E96FF"/>
<stop offset="0.53" stop-color="#8BA5FB"/>
<stop offset="0.55" stop-color="#87B6F7"/>
<stop offset="0.57" stop-color="#84C2F4"/>
<stop offset="0.59" stop-color="#82C9F2"/>
<stop offset="0.66" stop-color="#82CBF2"/>
<stop offset="0.69" stop-color="#83C8F3"/>
<stop offset="0.72" stop-color="#85C0F5"/>
<stop offset="0.74" stop-color="#88B1F8"/>
<stop offset="0.75" stop-color="#8D9CFD"/>
<stop offset="0.76" stop-color="#8E96FF"/>
<stop offset="0.87" stop-color="#8AA8FB"/>
<stop offset="0.92" stop-color="#88B1F9"/>
<stop offset="0.99" stop-color="#83C8F3"/>
<stop offset="1" stop-color="#82CBF2"/>
</linearGradient>
<linearGradient id="paint4_linear_130_856" x1="1510.33" y1="204.688" x2="1463.04" y2="220.07" gradientUnits="userSpaceOnUse">
<stop stop-color="#8E97FF"/>
<stop offset="0.51" stop-color="#8E96FF"/>
<stop offset="1" stop-color="#8E97FF"/>
</linearGradient>
<linearGradient id="paint5_linear_130_856" x1="1512.96" y1="203.685" x2="1465.68" y2="219.068" gradientUnits="userSpaceOnUse">
<stop stop-color="#8D99FE"/>
<stop offset="0.51" stop-color="#8E96FF"/>
<stop offset="1" stop-color="#8D99FE"/>
</linearGradient>
<linearGradient id="paint6_linear_130_856" x1="1515.59" y1="202.816" x2="1468.3" y2="218.199" gradientUnits="userSpaceOnUse">
<stop stop-color="#8D9AFE"/>
<stop offset="0.51" stop-color="#8E96FF"/>
<stop offset="1" stop-color="#8D9AFE"/>
</linearGradient>
<linearGradient id="paint7_linear_130_856" x1="1518.22" y1="201.882" x2="1470.94" y2="217.263" gradientUnits="userSpaceOnUse">
<stop stop-color="#8D9BFE"/>
<stop offset="0.51" stop-color="#8E96FF"/>
<stop offset="1" stop-color="#8D9BFE"/>
</linearGradient>
<linearGradient id="paint8_linear_130_856" x1="1520.85" y1="200.948" x2="1473.57" y2="216.332" gradientUnits="userSpaceOnUse">
<stop stop-color="#8C9DFD"/>
<stop offset="0.51" stop-color="#8E96FF"/>
<stop offset="0.92" stop-color="#8C9BFD"/>
<stop offset="1" stop-color="#8C9DFD"/>
</linearGradient>
<linearGradient id="paint9_linear_130_856" x1="1523.48" y1="200.013" x2="1476.2" y2="215.398" gradientUnits="userSpaceOnUse">
<stop stop-color="#8C9EFD"/>
<stop offset="0.51" stop-color="#8E96FF"/>
<stop offset="0.89" stop-color="#8D9BFE"/>
<stop offset="1" stop-color="#8C9EFD"/>
</linearGradient>
<linearGradient id="paint10_linear_130_856" x1="1526.11" y1="199.078" x2="1478.83" y2="214.462" gradientUnits="userSpaceOnUse">
<stop stop-color="#8CA0FD"/>
<stop offset="0.51" stop-color="#8E96FF"/>
<stop offset="0.84" stop-color="#8D9BFE"/>
<stop offset="1" stop-color="#8CA0FD"/>
</linearGradient>
<linearGradient id="paint11_linear_130_856" x1="1528.74" y1="198.144" x2="1481.46" y2="213.529" gradientUnits="userSpaceOnUse">
<stop stop-color="#8BA1FC"/>
<stop offset="0.51" stop-color="#8E96FF"/>
<stop offset="0.82" stop-color="#8D9BFE"/>
<stop offset="1" stop-color="#8BA1FC"/>
</linearGradient>
<linearGradient id="paint12_linear_130_856" x1="1531.37" y1="197.205" x2="1484.09" y2="212.589" gradientUnits="userSpaceOnUse">
<stop stop-color="#8BA2FC"/>
<stop offset="0.51" stop-color="#8E96FF"/>
<stop offset="0.81" stop-color="#8D9BFE"/>
<stop offset="1" stop-color="#8BA2FC"/>
</linearGradient>
<linearGradient id="paint13_linear_130_856" x1="1534" y1="196.272" x2="1486.72" y2="211.656" gradientUnits="userSpaceOnUse">
<stop stop-color="#8BA4FC"/>
<stop offset="0.04" stop-color="#8BA3FC"/>
<stop offset="0.51" stop-color="#8E96FF"/>
<stop offset="0.78" stop-color="#8D9BFE"/>
<stop offset="1" stop-color="#8BA4FC"/>
</linearGradient>
<linearGradient id="paint14_linear_130_856" x1="1536.63" y1="195.337" x2="1489.35" y2="210.722" gradientUnits="userSpaceOnUse">
<stop stop-color="#8AA5FB"/>
<stop offset="0.07" stop-color="#8BA3FC"/>
<stop offset="0.51" stop-color="#8E96FF"/>
<stop offset="0.77" stop-color="#8D9BFE"/>
<stop offset="1" stop-color="#8AA5FB"/>
</linearGradient>
<linearGradient id="paint15_linear_130_856" x1="1539.26" y1="194.333" x2="1491.98" y2="209.717" gradientUnits="userSpaceOnUse">
<stop stop-color="#8AA6FB"/>
<stop offset="0.09" stop-color="#8BA3FC"/>
<stop offset="0.51" stop-color="#8E96FF"/>
<stop offset="0.76" stop-color="#8D9BFE"/>
<stop offset="1" stop-color="#8AA6FB"/>
</linearGradient>
<linearGradient id="paint16_linear_130_856" x1="1541.89" y1="193.467" x2="1494.61" y2="208.851" gradientUnits="userSpaceOnUse">
<stop stop-color="#8AA8FB"/>
<stop offset="0.13" stop-color="#8BA3FC"/>
<stop offset="0.51" stop-color="#8E96FF"/>
<stop offset="0.74" stop-color="#8D9BFE"/>
<stop offset="1" stop-color="#8AA8FB"/>
</linearGradient>
<linearGradient id="paint17_linear_130_856" x1="1544.52" y1="192.532" x2="1497.24" y2="207.917" gradientUnits="userSpaceOnUse">
<stop stop-color="#89A9FA"/>
<stop offset="0.14" stop-color="#8BA3FC"/>
<stop offset="0.51" stop-color="#8E96FF"/>
<stop offset="0.74" stop-color="#8D9BFE"/>
<stop offset="1" stop-color="#89A9FA"/>
</linearGradient>
<linearGradient id="paint18_linear_130_856" x1="1547.36" y1="191.647" x2="1500.08" y2="207.029" gradientUnits="userSpaceOnUse">
<stop stop-color="#89ABFA"/>
<stop offset="0.17" stop-color="#8BA3FC"/>
<stop offset="0.51" stop-color="#8E96FF"/>
<stop offset="0.72" stop-color="#8D9BFE"/>
<stop offset="0.99" stop-color="#89AAFA"/>
<stop offset="1" stop-color="#89ABFA"/>
</linearGradient>
<linearGradient id="paint19_linear_130_856" x1="1550.23" y1="191.076" x2="1502.95" y2="206.457" gradientUnits="userSpaceOnUse">
<stop stop-color="#89ACFA"/>
<stop offset="0.18" stop-color="#8BA3FC"/>
<stop offset="0.51" stop-color="#8E96FF"/>
<stop offset="0.72" stop-color="#8D9BFE"/>
<stop offset="0.98" stop-color="#89AAFA"/>
<stop offset="1" stop-color="#89ACFA"/>
</linearGradient>
<linearGradient id="paint20_linear_130_856" x1="1553.08" y1="190.811" x2="1505.8" y2="206.194" gradientUnits="userSpaceOnUse">
<stop stop-color="#88ADF9"/>
<stop offset="0.2" stop-color="#8BA3FC"/>
<stop offset="0.51" stop-color="#8E96FF"/>
<stop offset="0.71" stop-color="#8D9BFE"/>
<stop offset="0.97" stop-color="#89AAFA"/>
<stop offset="1" stop-color="#88ADF9"/>
</linearGradient>
<linearGradient id="paint21_linear_130_856" x1="1555.88" y1="190.849" x2="1508.6" y2="206.233" gradientUnits="userSpaceOnUse">
<stop stop-color="#88AFF9"/>
<stop offset="0.22" stop-color="#8BA3FC"/>
<stop offset="0.51" stop-color="#8E96FF"/>
<stop offset="0.7" stop-color="#8D9BFE"/>
<stop offset="0.94" stop-color="#89AAFA"/>
<stop offset="1" stop-color="#88AFF9"/>
</linearGradient>
<linearGradient id="paint22_linear_130_856" x1="1558.64" y1="191.1" x2="1511.36" y2="206.482" gradientUnits="userSpaceOnUse">
<stop stop-color="#88B0F9"/>
<stop offset="0.22" stop-color="#8BA3FC"/>
<stop offset="0.51" stop-color="#8E96FF"/>
<stop offset="0.7" stop-color="#8D9BFE"/>
<stop offset="0.93" stop-color="#89AAFA"/>
<stop offset="1" stop-color="#88B0F9"/>
</linearGradient>
<linearGradient id="paint23_linear_130_856" x1="1561.31" y1="191.76" x2="1514.03" y2="207.145" gradientUnits="userSpaceOnUse">
<stop stop-color="#87B1F8"/>
<stop offset="0.23" stop-color="#8BA3FC"/>
<stop offset="0.51" stop-color="#8E96FF"/>
<stop offset="0.69" stop-color="#8D9BFE"/>
<stop offset="0.92" stop-color="#89AAFA"/>
<stop offset="1" stop-color="#87B1F8"/>
</linearGradient>
<linearGradient id="paint24_linear_130_856" x1="1563.9" y1="192.614" x2="1516.61" y2="207.996" gradientUnits="userSpaceOnUse">
<stop stop-color="#87B3F8"/>
<stop offset="0.25" stop-color="#8BA3FC"/>
<stop offset="0.51" stop-color="#8E96FF"/>
<stop offset="0.69" stop-color="#8D9BFE"/>
<stop offset="0.91" stop-color="#89AAFA"/>
<stop offset="1" stop-color="#87B3F8"/>
</linearGradient>
<linearGradient id="paint25_linear_130_856" x1="1566.37" y1="193.708" x2="1519.09" y2="209.089" gradientUnits="userSpaceOnUse">
<stop stop-color="#87B4F8"/>
<stop offset="0.26" stop-color="#8BA3FC"/>
<stop offset="0.51" stop-color="#8E96FF"/>
<stop offset="0.68" stop-color="#8D9BFE"/>
<stop offset="0.9" stop-color="#89AAFA"/>
<stop offset="1" stop-color="#87B4F8"/>
</linearGradient>
<linearGradient id="paint26_linear_130_856" x1="1568.72" y1="195.039" x2="1521.44" y2="210.421" gradientUnits="userSpaceOnUse">
<stop stop-color="#86B6F7"/>
<stop offset="0.27" stop-color="#8BA3FC"/>
<stop offset="0.51" stop-color="#8E96FF"/>
<stop offset="0.68" stop-color="#8D9BFE"/>
<stop offset="0.88" stop-color="#89AAFA"/>
<stop offset="1" stop-color="#86B6F7"/>
</linearGradient>
<linearGradient id="paint27_linear_130_856" x1="1570.93" y1="196.585" x2="1523.65" y2="211.967" gradientUnits="userSpaceOnUse">
<stop stop-color="#86B7F7"/>
<stop offset="0.27" stop-color="#8BA3FC"/>
<stop offset="0.51" stop-color="#8E96FF"/>
<stop offset="0.67" stop-color="#8D9BFE"/>
<stop offset="0.88" stop-color="#89AAFA"/>
<stop offset="1" stop-color="#86B7F7"/>
</linearGradient>
<linearGradient id="paint28_linear_130_856" x1="1572.98" y1="198.34" x2="1525.7" y2="213.721" gradientUnits="userSpaceOnUse">
<stop stop-color="#86B8F7"/>
<stop offset="0.28" stop-color="#8BA3FC"/>
<stop offset="0.51" stop-color="#8E96FF"/>
<stop offset="0.67" stop-color="#8D9BFE"/>
<stop offset="0.87" stop-color="#89AAFA"/>
<stop offset="1" stop-color="#86B8F7"/>
</linearGradient>
<linearGradient id="paint29_linear_130_856" x1="1574.85" y1="200.281" x2="1527.57" y2="215.665" gradientUnits="userSpaceOnUse">
<stop stop-color="#85BAF6"/>
<stop offset="0.29" stop-color="#8BA3FC"/>
<stop offset="0.51" stop-color="#8E96FF"/>
<stop offset="0.66" stop-color="#8D9BFE"/>
<stop offset="0.86" stop-color="#89AAFA"/>
<stop offset="1" stop-color="#85BAF6"/>
</linearGradient>
<linearGradient id="paint30_linear_130_856" x1="1576.53" y1="202.407" x2="1529.25" y2="217.788" gradientUnits="userSpaceOnUse">
<stop stop-color="#85BBF6"/>
<stop offset="0.29" stop-color="#8BA3FC"/>
<stop offset="0.51" stop-color="#8E96FF"/>
<stop offset="0.66" stop-color="#8D9BFE"/>
<stop offset="0.85" stop-color="#89AAFA"/>
<stop offset="1" stop-color="#85BBF6"/>
</linearGradient>
<linearGradient id="paint31_linear_130_856" x1="1578.01" y1="204.695" x2="1530.72" y2="220.08" gradientUnits="userSpaceOnUse">
<stop stop-color="#85BCF6"/>
<stop offset="0.3" stop-color="#8BA3FC"/>
<stop offset="0.51" stop-color="#8E96FF"/>
<stop offset="0.66" stop-color="#8D9BFE"/>
<stop offset="0.85" stop-color="#89AAFA"/>
<stop offset="1" stop-color="#85BCF6"/>
</linearGradient>
<linearGradient id="paint32_linear_130_856" x1="1579.25" y1="207.139" x2="1531.97" y2="222.52" gradientUnits="userSpaceOnUse">
<stop stop-color="#84BEF5"/>
<stop offset="0.31" stop-color="#8BA3FC"/>
<stop offset="0.51" stop-color="#8E96FF"/>
<stop offset="0.65" stop-color="#8D9BFE"/>
<stop offset="0.84" stop-color="#89AAFA"/>
<stop offset="1" stop-color="#84BEF5"/>
</linearGradient>
<linearGradient id="paint33_linear_130_856" x1="1580.24" y1="209.722" x2="1532.96" y2="225.105" gradientUnits="userSpaceOnUse">
<stop stop-color="#84BFF5"/>
<stop offset="0.31" stop-color="#8BA3FC"/>
<stop offset="0.51" stop-color="#8E96FF"/>
<stop offset="0.65" stop-color="#8D9BFE"/>
<stop offset="0.83" stop-color="#89AAFA"/>
<stop offset="1" stop-color="#84BFF5"/>
</linearGradient>
<linearGradient id="paint34_linear_130_856" x1="1580.98" y1="212.431" x2="1533.7" y2="227.812" gradientUnits="userSpaceOnUse">
<stop stop-color="#84C1F5"/>
<stop offset="0.32" stop-color="#8BA3FC"/>
<stop offset="0.51" stop-color="#8E96FF"/>
<stop offset="0.65" stop-color="#8D9BFE"/>
<stop offset="0.82" stop-color="#89AAFA"/>
<stop offset="1" stop-color="#84C1F5"/>
</linearGradient>
<linearGradient id="paint35_linear_130_856" x1="1581.43" y1="215.251" x2="1534.15" y2="230.635" gradientUnits="userSpaceOnUse">
<stop stop-color="#83C2F4"/>
<stop offset="0.32" stop-color="#8BA3FC"/>
<stop offset="0.51" stop-color="#8E96FF"/>
<stop offset="0.65" stop-color="#8D9BFE"/>
<stop offset="0.82" stop-color="#89AAFA"/>
<stop offset="1" stop-color="#83C2F4"/>
</linearGradient>
<linearGradient id="paint36_linear_130_856" x1="1581.59" y1="218.172" x2="1534.31" y2="233.556" gradientUnits="userSpaceOnUse">
<stop stop-color="#83C3F4"/>
<stop offset="0.32" stop-color="#8BA3FC"/>
<stop offset="0.51" stop-color="#8E96FF"/>
<stop offset="0.64" stop-color="#8D9BFE"/>
<stop offset="0.81" stop-color="#89AAFA"/>
<stop offset="1" stop-color="#83C3F4"/>
</linearGradient>
<linearGradient id="paint37_linear_130_856" x1="1581.45" y1="221.145" x2="1534.17" y2="236.53" gradientUnits="userSpaceOnUse">
<stop stop-color="#83C5F4"/>
<stop offset="0.01" stop-color="#83C4F4"/>
<stop offset="0.33" stop-color="#8BA3FC"/>
<stop offset="0.51" stop-color="#8E96FF"/>
<stop offset="0.64" stop-color="#8D9BFE"/>
<stop offset="0.81" stop-color="#89AAFA"/>
<stop offset="0.99" stop-color="#83C3F4"/>
<stop offset="1" stop-color="#83C5F4"/>
</linearGradient>
<linearGradient id="paint38_linear_130_856" x1="1581.2" y1="223.926" x2="1533.92" y2="239.308" gradientUnits="userSpaceOnUse">
<stop stop-color="#82C6F3"/>
<stop offset="0.02" stop-color="#83C4F4"/>
<stop offset="0.33" stop-color="#8BA3FC"/>
<stop offset="0.51" stop-color="#8E96FF"/>
<stop offset="0.64" stop-color="#8D9BFE"/>
<stop offset="0.8" stop-color="#89AAFA"/>
<stop offset="0.98" stop-color="#83C3F4"/>
<stop offset="1" stop-color="#82C6F3"/>
</linearGradient>
<linearGradient id="paint39_linear_130_856" x1="1580.94" y1="226.705" x2="1533.66" y2="242.086" gradientUnits="userSpaceOnUse">
<stop stop-color="#82C7F3"/>
<stop offset="0.03" stop-color="#83C4F4"/>
<stop offset="0.34" stop-color="#8BA3FC"/>
<stop offset="0.51" stop-color="#8E96FF"/>
<stop offset="0.64" stop-color="#8D9BFE"/>
<stop offset="0.8" stop-color="#89AAFA"/>
<stop offset="0.98" stop-color="#83C3F4"/>
<stop offset="1" stop-color="#82C7F3"/>
</linearGradient>
<linearGradient id="paint40_linear_130_856" x1="1580.69" y1="229.489" x2="1533.41" y2="244.873" gradientUnits="userSpaceOnUse">
<stop stop-color="#82C9F3"/>
<stop offset="0.04" stop-color="#83C4F4"/>
<stop offset="0.34" stop-color="#8BA3FC"/>
<stop offset="0.51" stop-color="#8E96FF"/>
<stop offset="0.63" stop-color="#8D9BFE"/>
<stop offset="0.79" stop-color="#89AAFA"/>
<stop offset="0.97" stop-color="#83C3F4"/>
<stop offset="1" stop-color="#82C9F3"/>
</linearGradient>
<linearGradient id="paint41_linear_130_856" x1="1580.44" y1="232.265" x2="1533.16" y2="247.65" gradientUnits="userSpaceOnUse">
<stop stop-color="#81CAF2"/>
<stop offset="0.05" stop-color="#83C4F4"/>
<stop offset="0.34" stop-color="#8BA3FC"/>
<stop offset="0.51" stop-color="#8E96FF"/>
<stop offset="0.63" stop-color="#8D9BFE"/>
<stop offset="0.79" stop-color="#89AAFA"/>
<stop offset="0.96" stop-color="#83C3F4"/>
<stop offset="1" stop-color="#81CAF2"/>
</linearGradient>
<linearGradient id="paint42_linear_130_856" x1="1580.2" y1="234.972" x2="1532.92" y2="250.353" gradientUnits="userSpaceOnUse">
<stop stop-color="#81CCF2"/>
<stop offset="0.06" stop-color="#83C4F4"/>
<stop offset="0.35" stop-color="#8BA3FC"/>
<stop offset="0.51" stop-color="#8E96FF"/>
<stop offset="0.63" stop-color="#8D9BFE"/>
<stop offset="0.78" stop-color="#89AAFA"/>
<stop offset="0.95" stop-color="#83C3F4"/>
<stop offset="1" stop-color="#81CCF2"/>
</linearGradient>
<linearGradient id="paint43_linear_130_856" x1="1579.93" y1="237.826" x2="1532.65" y2="253.207" gradientUnits="userSpaceOnUse">
<stop stop-color="#81CDF2"/>
<stop offset="0.07" stop-color="#83C4F4"/>
<stop offset="0.35" stop-color="#8BA3FC"/>
<stop offset="0.51" stop-color="#8E96FF"/>
<stop offset="0.63" stop-color="#8D9BFE"/>
<stop offset="0.78" stop-color="#89AAFA"/>
<stop offset="0.95" stop-color="#83C3F4"/>
<stop offset="1" stop-color="#81CDF2"/>
</linearGradient>
<linearGradient id="paint44_linear_130_856" x1="1579.68" y1="240.608" x2="1532.4" y2="255.993" gradientUnits="userSpaceOnUse">
<stop stop-color="#80CEF1"/>
<stop offset="0.08" stop-color="#83C4F4"/>
<stop offset="0.35" stop-color="#8BA3FC"/>
<stop offset="0.51" stop-color="#8E96FF"/>
<stop offset="0.63" stop-color="#8D9BFE"/>
<stop offset="0.78" stop-color="#89AAFA"/>
<stop offset="0.94" stop-color="#83C3F4"/>
<stop offset="1" stop-color="#80CEF1"/>
</linearGradient>
<linearGradient id="paint45_linear_130_856" x1="1579.43" y1="243.384" x2="1532.15" y2="258.769" gradientUnits="userSpaceOnUse">
<stop stop-color="#80D0F1"/>
<stop offset="0.09" stop-color="#83C4F4"/>
<stop offset="0.36" stop-color="#8BA3FC"/>
<stop offset="0.51" stop-color="#8E96FF"/>
<stop offset="0.63" stop-color="#8D9BFE"/>
<stop offset="0.77" stop-color="#89AAFA"/>
<stop offset="0.93" stop-color="#83C3F4"/>
<stop offset="1" stop-color="#80D0F1"/>
</linearGradient>
<linearGradient id="paint46_linear_130_856" x1="1579.18" y1="246.166" x2="1531.9" y2="261.548" gradientUnits="userSpaceOnUse">
<stop stop-color="#80D1F1"/>
<stop offset="0.09" stop-color="#83C4F4"/>
<stop offset="0.36" stop-color="#8BA3FC"/>
<stop offset="0.51" stop-color="#8E96FF"/>
<stop offset="0.62" stop-color="#8D9BFE"/>
<stop offset="0.77" stop-color="#89AAFA"/>
<stop offset="0.93" stop-color="#83C3F4"/>
<stop offset="1" stop-color="#80D1F1"/>
</linearGradient>
<linearGradient id="paint47_linear_130_856" x1="1578.93" y1="248.946" x2="1531.65" y2="264.328" gradientUnits="userSpaceOnUse">
<stop stop-color="#7FD2F0"/>
<stop offset="0.1" stop-color="#83C4F4"/>
<stop offset="0.36" stop-color="#8BA3FC"/>
<stop offset="0.51" stop-color="#8E96FF"/>
<stop offset="0.62" stop-color="#8D9BFE"/>
<stop offset="0.77" stop-color="#89AAFA"/>
<stop offset="0.92" stop-color="#83C3F4"/>
<stop offset="1" stop-color="#7FD2F0"/>
</linearGradient>
<linearGradient id="paint48_linear_130_856" x1="1578.68" y1="251.726" x2="1531.39" y2="267.11" gradientUnits="userSpaceOnUse">
<stop stop-color="#7FD4F0"/>
<stop offset="0.11" stop-color="#83C4F4"/>
<stop offset="0.37" stop-color="#8BA3FC"/>
<stop offset="0.51" stop-color="#8E96FF"/>
<stop offset="0.62" stop-color="#8D9BFE"/>
<stop offset="0.76" stop-color="#89AAFA"/>
<stop offset="0.92" stop-color="#83C3F4"/>
<stop offset="1" stop-color="#7FD4F0"/>
</linearGradient>
<linearGradient id="paint49_linear_130_856" x1="1578.42" y1="254.507" x2="1531.14" y2="269.889" gradientUnits="userSpaceOnUse">
<stop stop-color="#7FD5F0"/>
<stop offset="0.12" stop-color="#83C4F4"/>
<stop offset="0.37" stop-color="#8BA3FC"/>
<stop offset="0.51" stop-color="#8E96FF"/>
<stop offset="0.62" stop-color="#8D9BFE"/>
<stop offset="0.76" stop-color="#89AAFA"/>
<stop offset="0.91" stop-color="#83C3F4"/>
<stop offset="1" stop-color="#7FD5F0"/>
</linearGradient>
<linearGradient id="paint50_linear_130_856" x1="1578.17" y1="257.287" x2="1530.89" y2="272.668" gradientUnits="userSpaceOnUse">
<stop stop-color="#7ED7EF"/>
<stop offset="0.13" stop-color="#83C4F4"/>
<stop offset="0.37" stop-color="#8BA3FC"/>
<stop offset="0.51" stop-color="#8E96FF"/>
<stop offset="0.62" stop-color="#8D9BFE"/>
<stop offset="0.75" stop-color="#89AAFA"/>
<stop offset="0.9" stop-color="#83C3F4"/>
<stop offset="1" stop-color="#7ED7EF"/>
</linearGradient>
<linearGradient id="paint51_linear_130_856" x1="1577.92" y1="260.068" x2="1530.63" y2="275.452" gradientUnits="userSpaceOnUse">
<stop stop-color="#7ED8EF"/>
<stop offset="0.13" stop-color="#83C4F4"/>
<stop offset="0.37" stop-color="#8BA3FC"/>
<stop offset="0.51" stop-color="#8E96FF"/>
<stop offset="0.62" stop-color="#8D9BFE"/>
<stop offset="0.75" stop-color="#89AAFA"/>
<stop offset="0.9" stop-color="#83C3F4"/>
<stop offset="1" stop-color="#7ED8EF"/>
</linearGradient>
<linearGradient id="paint52_linear_130_856" x1="1577.67" y1="262.845" x2="1530.39" y2="278.23" gradientUnits="userSpaceOnUse">
<stop stop-color="#7ED9EF"/>
<stop offset="0.13" stop-color="#83C4F4"/>
<stop offset="0.37" stop-color="#8BA3FC"/>
<stop offset="0.51" stop-color="#8E96FF"/>
<stop offset="0.62" stop-color="#8D9BFE"/>
<stop offset="0.75" stop-color="#89AAFA"/>
<stop offset="0.9" stop-color="#83C3F4"/>
<stop offset="1" stop-color="#7ED9EF"/>
</linearGradient>
<linearGradient id="paint53_linear_130_856" x1="1577.42" y1="265.557" x2="1530.14" y2="280.94" gradientUnits="userSpaceOnUse">
<stop stop-color="#7DDBEE"/>
<stop offset="0.14" stop-color="#83C4F4"/>
<stop offset="0.38" stop-color="#8BA3FC"/>
<stop offset="0.51" stop-color="#8E96FF"/>
<stop offset="0.61" stop-color="#8D9BFE"/>
<stop offset="0.75" stop-color="#89AAFA"/>
<stop offset="0.89" stop-color="#83C3F4"/>
<stop offset="1" stop-color="#7DDBEE"/>
</linearGradient>
<linearGradient id="paint54_linear_130_856" x1="1577.16" y1="268.409" x2="1529.88" y2="283.79" gradientUnits="userSpaceOnUse">
<stop stop-color="#7DDCEE"/>
<stop offset="0.15" stop-color="#83C4F4"/>
<stop offset="0.38" stop-color="#8BA3FC"/>
<stop offset="0.51" stop-color="#8E96FF"/>
<stop offset="0.61" stop-color="#8D9BFE"/>
<stop offset="0.74" stop-color="#89AAFA"/>
<stop offset="0.89" stop-color="#83C3F4"/>
<stop offset="1" stop-color="#7DDCEE"/>
</linearGradient>
<linearGradient id="paint55_linear_130_856" x1="1561.96" y1="299.65" x2="1545.28" y2="251.757" gradientUnits="userSpaceOnUse">
<stop stop-color="#7DDCEE"/>
<stop offset="0.1" stop-color="#7FD6F0"/>
<stop offset="0.68" stop-color="#87B5F8"/>
<stop offset="1" stop-color="#8AA8FB"/>
</linearGradient>
<linearGradient id="paint56_linear_130_856" x1="19.1515" y1="459" x2="33.0725" y2="460.338" gradientUnits="userSpaceOnUse">
<stop stop-color="#FCAD02"/>
<stop offset="1" stop-color="#FF0041"/>
</linearGradient>
<linearGradient id="paint57_linear_130_856" x1="19.1515" y1="485.387" x2="33.0725" y2="486.725" gradientUnits="userSpaceOnUse">
<stop stop-color="#FCAD02"/>
<stop offset="1" stop-color="#FF0041"/>
</linearGradient>
<linearGradient id="paint58_linear_130_856" x1="19.1515" y1="511.781" x2="33.0725" y2="513.12" gradientUnits="userSpaceOnUse">
<stop stop-color="#FCAD02"/>
<stop offset="1" stop-color="#FF0041"/>
</linearGradient>
<linearGradient id="paint59_linear_130_856" x1="19.1515" y1="538.168" x2="33.0725" y2="539.506" gradientUnits="userSpaceOnUse">
<stop stop-color="#FCAD02"/>
<stop offset="1" stop-color="#FF0041"/>
</linearGradient>
<linearGradient id="paint60_linear_130_856" x1="21.1218" y1="576.498" x2="25.6222" y2="563.257" gradientUnits="userSpaceOnUse">
<stop stop-color="#FCAD02"/>
<stop offset="1" stop-color="#FF0041"/>
</linearGradient>
<linearGradient id="paint61_linear_130_856" x1="44.7013" y1="511.781" x2="58.6402" y2="513.121" gradientUnits="userSpaceOnUse">
<stop stop-color="#FCAD02"/>
<stop offset="1" stop-color="#FF0041"/>
</linearGradient>
<linearGradient id="paint62_linear_130_856" x1="44.7013" y1="538.168" x2="58.6402" y2="539.508" gradientUnits="userSpaceOnUse">
<stop stop-color="#FCAD02"/>
<stop offset="1" stop-color="#FF0041"/>
</linearGradient>
<linearGradient id="paint63_linear_130_856" x1="44.712" y1="564.563" x2="58.6331" y2="565.901" gradientUnits="userSpaceOnUse">
<stop stop-color="#FCAD02"/>
<stop offset="1" stop-color="#FF0041"/>
</linearGradient>
<linearGradient id="paint64_linear_130_856" x1="44.712" y1="590.949" x2="58.6331" y2="592.288" gradientUnits="userSpaceOnUse">
<stop stop-color="#FCAD02"/>
<stop offset="1" stop-color="#FF0041"/>
</linearGradient>
<linearGradient id="paint65_linear_130_856" x1="44.712" y1="617.336" x2="58.6331" y2="618.674" gradientUnits="userSpaceOnUse">
<stop stop-color="#FCAD02"/>
<stop offset="1" stop-color="#FF0041"/>
</linearGradient>
</defs>
</svg>
