<svg width="200" height="169" viewBox="0 0 200 169" fill="none" xmlns="http://www.w3.org/2000/svg">
<path d="M38.9991 158.908C39.1727 159.718 39.9701 160.234 40.7801 160.061C41.5901 159.887 42.106 159.09 41.9324 158.28L38.9991 158.908ZM53.4461 130.393L53.9863 131.793L53.4461 130.393ZM81.3551 132.455L80.8329 133.861L81.3551 132.455ZM88.6002 141.004L89.4293 142.254L88.6002 141.004ZM63.1368 132.953L61.868 133.754L63.1368 132.953ZM63.3901 91.3561L64.6929 92.0997L63.3901 91.3561ZM111.863 60.5762L111.611 62.0548L111.863 60.5762ZM135.348 96.4004L134.035 95.6745L135.348 96.4004ZM106.788 95.3705L105.739 96.4429L106.788 95.3705ZM106.729 36.5238L105.676 35.4558L106.729 36.5238ZM157.421 8.33573C157.763 7.58123 157.429 6.69227 156.675 6.35018L144.379 0.775491C143.625 0.433403 142.736 0.767725 142.394 1.52223C142.052 2.27672 142.386 3.16568 143.14 3.50777L154.07 8.46305L149.114 19.3921C148.772 20.1466 149.107 21.0356 149.861 21.3777C150.616 21.7198 151.505 21.3855 151.847 20.631L157.421 8.33573ZM41.9324 158.28C39.7105 147.914 43.4696 135.852 53.9863 131.793L52.906 128.994C40.5178 133.776 36.5941 147.688 38.9991 158.908L41.9324 158.28ZM53.9863 131.793C62.2097 128.619 72.5998 130.804 80.8329 133.861L81.8773 131.049C73.5147 127.943 62.2144 125.401 52.906 128.994L53.9863 131.793ZM80.8329 133.861C81.4824 134.102 84.4579 135.313 86.5907 136.834C87.7078 137.631 88.3025 138.313 88.4627 138.768C88.5188 138.927 88.5027 139.001 88.4739 139.068C88.43 139.171 88.2762 139.419 87.771 139.754L89.4293 142.254C90.2377 141.717 90.8855 141.06 91.2333 140.245C91.5963 139.394 91.562 138.536 91.2922 137.771C90.8005 136.375 89.5124 135.233 88.3326 134.392C85.8716 132.637 82.5973 131.316 81.8773 131.049L80.8329 133.861ZM87.771 139.754C83.4015 142.652 78.9237 142.796 74.8642 141.237C70.7493 139.657 67.0194 136.299 64.4057 132.153L61.868 133.754C64.7503 138.325 68.948 142.178 73.7887 144.037C78.6847 145.918 84.1905 145.729 89.4293 142.254L87.771 139.754ZM64.4057 132.153C56.5863 119.753 57.4244 104.834 64.6929 92.0997L62.0874 90.6126C54.3715 104.131 53.3552 120.253 61.868 133.754L64.4057 132.153ZM64.6929 92.0997C69.2516 84.1126 76.1869 75.7295 84.4193 69.7843C92.6541 63.8374 102.046 60.4233 111.611 62.0548L112.115 59.0975C101.491 57.2853 91.2938 61.1192 82.6629 67.3522C74.0295 73.587 66.8229 82.3157 62.0874 90.6126L64.6929 92.0997ZM111.611 62.0548C116.138 62.8269 119.694 64.2448 122.695 66.3713C125.703 68.5024 128.232 71.4004 130.625 75.2424L133.171 73.6562C130.635 69.5846 127.853 66.349 124.43 63.9234C120.999 61.4932 117.003 59.9313 112.115 59.0975L111.611 62.0548ZM130.625 75.2424C134.552 81.5462 137.656 89.1258 134.035 95.6745L136.661 97.1262C141.182 88.949 137.093 79.9522 133.171 73.6562L130.625 75.2424ZM134.035 95.6745C132.498 98.454 130.592 100.133 128.539 101.048C126.472 101.97 124.142 102.17 121.693 101.792C116.754 101.028 111.561 97.9397 107.837 94.298L105.739 96.4429C109.772 100.386 115.509 103.872 121.235 104.756C124.12 105.202 127.056 104.994 129.761 103.788C132.479 102.576 134.847 100.406 136.661 97.1262L134.035 95.6745ZM107.837 94.298C92.7226 79.5192 92.7917 52.3747 107.782 37.5918L105.676 35.4558C89.4998 51.4077 89.4158 80.4816 105.739 96.4429L107.837 94.298ZM107.782 37.5918C121.225 24.3347 138.888 15.7752 156.583 9.12032L155.527 6.31233C137.704 13.0153 119.57 21.7542 105.676 35.4558L107.782 37.5918Z" fill="#FFAF01"/>
</svg>
