<svg width="72" height="72" viewBox="0 0 72 72" fill="none" xmlns="http://www.w3.org/2000/svg">
<g id="Icon">
<g id="bg">
<circle id="Ellipse 117" cx="36" cy="36" r="35.5" fill="white" stroke="#E0DEF7"/>
<circle id="Ellipse 118" opacity="0.1" cx="36" cy="36" r="31.5" fill="#0B6755"/>
</g>
<g id="icon">
<path id="Vector" d="M37.5402 15C29.9832 14.9965 26.4472 24.442 32.0447 29.3882C32.0722 28.6529 32.6727 28.0641 33.4147 28.0641H41.6657C42.4077 28.0641 43.0083 28.653 43.0357 29.3883C48.6354 24.4396 45.0934 14.9952 37.5402 15Z" fill="#F2BE22"/>
<g id="Group">
<path id="Vector_2" d="M35.4601 45.9033C38.0048 45.1661 40.2487 43.3334 41.3241 40.9018C41.7595 39.8495 42.2603 38.3872 43.5845 38.2952C43.5705 38.0902 43.4432 37.9034 43.2349 37.8102C42.6447 37.5463 41.9759 37.2475 41.2319 37.1602C38.898 36.9189 38.1054 38.6113 37.9962 40.5424C37.7484 42.3198 36.9097 43.9917 35.6332 45.2514C35.4546 45.428 35.4044 45.6761 35.4601 45.9033Z" fill="#0E5952"/>
<path id="Vector_3" d="M28.055 56.2923C27.7824 56.2923 27.5101 56.2258 27.2586 56.0929C24.5321 54.6526 22.4697 51.864 21.7422 48.6328C21.8629 46.8461 23.4732 45.1917 25.1686 44.5053C27.3092 43.7505 29.0901 41.8093 30.4766 39.9393C31.6234 38.3577 33.4055 36.1885 35.184 37.2751C37.8053 39.0156 36.5378 43.4591 34.3967 45.4555C37.104 44.9834 39.5757 43.1537 40.6944 40.6236C40.9587 40.0254 41.1496 39.4378 41.5337 38.8664C42.9149 36.725 45.629 37.5417 46.0009 39.8253C46.1769 40.8694 45.8304 41.8853 45.4685 42.7407C43.0308 48.7566 37.2871 53.3018 30.9027 52.8376C30.3407 53.3137 29.9482 54.0059 29.8129 54.7721C29.6754 55.6179 28.9085 56.3012 28.055 56.2923ZM23.1214 48.4912C23.7855 51.2281 25.6055 53.6642 27.9012 54.8775C28.0003 54.9285 28.1027 54.9306 28.2064 54.8802C28.3373 54.8164 28.4317 54.6861 28.4585 54.533C28.6711 53.3311 29.3402 52.2514 30.2943 51.5699C30.4296 51.4738 30.5948 51.4302 30.7607 51.4456C36.6385 52.0049 41.9576 47.7578 44.202 42.2049C44.7283 41.1526 45.0892 39.2439 43.6125 38.9818C42.6688 39.0749 42.3078 40.3918 41.952 41.1802C40.3217 44.8679 36.2251 47.2718 32.206 46.9132C31.9082 46.8857 31.6624 46.6695 31.5973 46.3781C31.5322 46.086 31.6631 45.7858 31.9213 45.6348C34.4309 44.1663 35.7346 41.5449 35.0916 39.2599C34.755 38.3117 34.0087 37.8127 32.6841 39.3834C30.7505 41.8237 28.6616 44.7544 25.6662 45.7871C24.4798 46.2465 23.4548 47.3436 23.1214 48.4912Z" fill="#0E5952"/>
<path id="Vector_4" d="M41.6656 31.502H33.4147C30.697 31.4316 30.6932 27.4478 33.4147 27.3765H41.6656C44.3832 27.4468 44.3871 31.4306 41.6656 31.502ZM33.4147 28.7516C32.5136 28.7668 32.5091 30.1107 33.4147 30.1268H41.6656C42.045 30.1268 42.3532 29.8186 42.3532 29.4392C42.3532 29.0598 42.045 28.7516 41.6656 28.7516H33.4147Z" fill="#0E5952"/>
<path id="Vector_5" d="M41.6656 34.2524H33.4147C30.697 34.1821 30.6932 30.1983 33.4147 30.127H41.6656C44.3832 30.1973 44.3871 34.1811 41.6656 34.2524ZM33.4147 31.5021C32.5136 31.5173 32.5091 32.8612 33.4147 32.8773H41.6656C42.045 32.8773 42.3532 32.5691 42.3532 32.1897C42.3532 31.8103 42.045 31.5021 41.6656 31.5021H33.4147Z" fill="#0E5952"/>
<path id="Vector_6" d="M35.4775 34.2525V33.5649H39.603V34.2525C39.5342 36.9733 35.5459 36.9722 35.4775 34.2525Z" fill="#0E5952"/>
<path id="Vector_7" d="M37.5394 37.0029C36.0229 37.0029 34.7891 35.7694 34.7891 34.2526V33.565C34.7891 33.185 35.0969 32.8774 35.4766 32.8774H39.6021C39.9822 32.8774 40.2897 33.185 40.2897 33.565V34.2526C40.2897 35.7694 39.0562 37.0029 37.5394 37.0029ZM36.1642 34.2526C36.2122 36.0663 38.8671 36.0651 38.9146 34.2526H36.1642Z" fill="#0E5952"/>
<path id="Vector_8" d="M21.7261 31.5024C21.0516 31.5266 20.7696 30.5378 21.3871 30.2166C21.387 30.2166 37.2014 21.278 37.2014 21.278C37.4217 21.1524 37.6923 21.1598 37.9072 21.2948L50.6214 29.3255L55.0759 26.78C55.4049 26.59 55.8253 26.7061 56.014 27.0358C56.2026 27.3655 56.0878 27.7852 55.7581 27.9739L50.945 30.7242C50.7241 30.8504 50.4529 30.8451 50.2366 30.7088L37.5204 22.6773L22.0639 31.4131C21.9568 31.4736 21.8406 31.5024 21.7261 31.5024Z" fill="#0E5952"/>
<path id="Vector_9" d="M35.4775 21.8766C35.5465 19.1561 39.5345 19.1566 39.603 21.8767C39.5341 24.5971 35.5461 24.5966 35.4775 21.8766Z" fill="#0E5952"/>
<path id="Vector_10" d="M37.5402 24.6262C33.9054 24.5108 33.9063 19.2403 37.5403 19.1255C41.175 19.2406 41.1741 24.5116 37.5402 24.6262ZM37.5402 20.5007C35.727 20.5484 35.7273 23.2035 37.5402 23.251C39.3534 23.2032 39.3531 20.5482 37.5402 20.5007Z" fill="#0E5952"/>
<path id="Vector_11" d="M19.6631 30.8146C19.7321 28.0941 23.72 28.0946 23.7886 30.8147C23.7196 33.5351 19.7317 33.5346 19.6631 30.8146Z" fill="#0E5952"/>
<path id="Vector_12" d="M21.7257 33.5651C18.091 33.4498 18.0918 28.1793 21.7258 28.0645C25.3605 28.1798 25.3596 33.4503 21.7257 33.5651ZM21.7257 29.4396C19.9124 29.4872 19.9128 32.1426 21.7258 32.1899C23.539 32.1424 23.5387 29.4869 21.7257 29.4396Z" fill="#0E5952"/>
<path id="Vector_13" d="M48.542 30.1276C48.611 27.4071 52.5989 27.4076 52.6675 30.1277C52.5985 32.8481 48.6106 32.8476 48.542 30.1276Z" fill="#0E5952"/>
<path id="Vector_14" d="M50.6047 32.8771C46.9699 32.762 46.9707 27.491 50.6047 27.3765C54.2395 27.4916 54.2386 32.7626 50.6047 32.8771ZM50.6047 28.7516C48.7914 28.7994 48.7918 31.4544 50.6047 31.502C52.4179 31.4542 52.4176 28.7991 50.6047 28.7516Z" fill="#0E5952"/>
</g>
</g>
</g>
</svg>
