<svg width="72" height="72" viewBox="0 0 72 72" fill="none" xmlns="http://www.w3.org/2000/svg">
<g id="Icon">
<g id="bg">
<g id="Ellipse 117">
<circle cx="36" cy="36" r="36" fill="white"/>
<circle cx="36" cy="36" r="35.5" stroke="#0B6755" stroke-opacity="0.2"/>
</g>
<circle id="Ellipse 118" opacity="0.1" cx="36.2998" cy="36.2993" r="31.5" fill="#0B6755"/>
<g id="icon">
<path id="Vector" d="M25.3858 31.2988C23.7547 31.2988 22.4277 32.6261 22.4277 34.2569C22.5668 38.1719 28.2054 38.1709 28.3439 34.2569C28.3439 32.6261 27.0169 31.2988 25.3858 31.2988Z" fill="#F2BE22"/>
<g id="Group">
<g id="Group_2">
<path id="Vector_2" d="M46.3614 32.3741H30.7642C30.7635 32.0381 30.7792 31.5743 30.7083 31.2507L46.6895 26.9689C47.5446 26.7376 48.061 25.8556 47.8297 24.995L47.1305 22.3973C46.7228 20.7149 44.8407 19.6275 43.1828 20.1169C43.1828 20.1169 22.4008 25.6835 22.4008 25.6835C20.8138 26.1038 19.9073 27.5954 20.0075 29.1471C20.0075 29.1471 20.0075 36.6768 20.0075 36.6768C20.0075 38.0794 20.9072 39.2716 22.1588 39.7158V49.047C22.1588 50.8265 23.6064 52.274 25.3858 52.274H42.5965C44.376 52.274 45.8235 50.8265 45.8235 49.047V39.7158C47.0752 39.2716 47.9749 38.0794 47.9749 36.6768V33.9876C47.9749 33.1002 47.2488 32.3741 46.3614 32.3741ZM41.7575 33.4498L36.3738 38.8282H34.8571L40.2354 33.4498H41.7575ZM27.5372 29.685C28.7234 29.685 29.6885 30.6498 29.6885 31.8363V38.8282H23.2345C22.0482 38.8282 21.0831 37.8633 21.0831 36.6768V29.685H27.5372ZM34.3085 33.4498H35.8252L30.7642 38.5108V36.9941L34.3085 33.4498ZM43.7421 21.1065C44.1347 21.0581 44.5274 21.1119 44.8877 21.2786L41.4294 27.2647L39.9612 27.6573L43.7421 21.1065ZM38.0572 22.6017L39.5309 22.2091L35.723 28.7921L34.2547 29.1901L38.0572 22.6017ZM33.803 23.7419L30.1895 30.0028C29.9757 29.6944 29.7091 29.4262 29.4035 29.2086L32.3347 24.1345L33.803 23.7419ZM28.1019 25.2693L26.1748 28.6093H24.9271L26.6282 25.6619L28.1019 25.2693ZM44.7479 49.047H23.2345V39.9038H44.7479V49.047ZM46.8992 34.2189L42.29 38.8282H40.7733L46.1516 33.4498C46.5232 33.4056 46.8916 33.5714 46.8992 33.9877C46.8992 33.9876 46.8992 34.2189 46.8992 34.2189Z" fill="#0E5952"/>
<path id="Vector_3" d="M29.6888 42.0549C29.6768 41.3479 28.6249 41.348 28.6131 42.0549V43.6684H26.9996C26.2973 43.6788 26.2889 44.7319 26.9996 44.7441H40.9833C41.2803 44.7441 41.5211 44.5035 41.5211 44.2063C41.5211 43.909 41.2803 43.6684 40.9833 43.6684H39.3698V42.0549C39.3698 41.7576 39.129 41.5171 38.832 41.5171C38.5349 41.5171 38.2941 41.7576 38.2941 42.0549V43.6684H29.6888V42.0549Z" fill="#0E5952"/>
<path id="Vector_4" d="M40.9833 46.3584H26.9996C26.2973 46.3688 26.2889 47.4219 26.9996 47.4341H40.9833C41.6857 47.4236 41.694 46.3706 40.9833 46.3584Z" fill="#0E5952"/>
</g>
<path id="Vector_5" d="M51.5965 30.2231H49.4452C48.7389 30.2115 48.7378 29.1593 49.4452 29.1475H51.5965C52.3028 29.1591 52.3039 30.2113 51.5965 30.2231Z" fill="#0E5952"/>
<path id="Vector_6" d="M50.375 33.4498C50.2839 33.4498 50.1912 33.4267 50.1066 33.3778L48.2437 32.3022C47.9863 32.1535 47.8983 31.8247 48.0467 31.5674C48.1951 31.3095 48.5236 31.2212 48.7815 31.3704L50.6445 32.4461C51.1206 32.6993 50.9035 33.4703 50.375 33.4498Z" fill="#0E5952"/>
<path id="Vector_7" d="M48.5135 28.0719C47.9856 28.092 47.7673 27.3217 48.2441 27.0681L50.107 25.9925C50.3636 25.8433 50.6929 25.9315 50.8418 26.1894C50.9902 26.4468 50.9022 26.7756 50.6449 26.9242C50.4836 26.986 48.6592 28.153 48.5135 28.0719Z" fill="#0E5952"/>
</g>
</g>
</g>
</g>
</svg>
