<svg width="72" height="72" viewBox="0 0 72 72" fill="none" xmlns="http://www.w3.org/2000/svg">
<g id="Icon">
<g id="bg">
<g id="Ellipse 117">
<circle cx="36" cy="36" r="36" fill="white"/>
<circle cx="36" cy="36" r="35.5" stroke="#0B6755" stroke-opacity="0.2"/>
</g>
<circle id="Ellipse 118" opacity="0.1" cx="36" cy="36" r="31.5" fill="#0B6755"/>
<g id="icon">
<g id="Group">
<path id="Vector" d="M47.5748 37.2152C47.2444 37.3455 46.871 37.1835 46.7407 36.8528L43.9103 29.6739C43.7799 29.3432 43.9423 28.97 44.2726 28.8397C49.9041 26.8631 53.0382 34.819 47.5748 37.2152Z" fill="#F2BE22"/>
<path id="Vector_2" d="M53.9362 30.5597L52.1415 31.2673C51.3504 31.5642 50.8883 30.394 51.6698 30.0708C51.6698 30.0708 53.4645 29.3632 53.4645 29.3632C54.2555 29.0664 54.7178 30.2365 53.9362 30.5597Z" fill="#F2BE22"/>
<path id="Vector_3" d="M50.3759 28.539C49.7975 28.793 49.2169 28.0317 49.636 27.5406C49.636 27.5407 50.8365 26.0305 50.8365 26.0305C51.0574 25.7517 51.4615 25.7058 51.7403 25.9273C52.0182 26.1485 52.0645 26.5528 51.8434 26.831C51.6708 26.9987 50.613 28.5116 50.3759 28.539Z" fill="#F2BE22"/>
<path id="Vector_4" d="M50.3759 28.539C49.7975 28.793 49.2169 28.0317 49.636 27.5406C49.636 27.5407 50.8365 26.0305 50.8365 26.0305C51.0574 25.7517 51.4615 25.7058 51.7403 25.9273C52.0182 26.1485 52.0645 26.5528 51.8434 26.831C51.6708 26.9987 50.613 28.5116 50.3759 28.539Z" fill="#F2BE22"/>
<path id="Vector_5" d="M54.6201 34.7521C54.437 34.8945 52.6133 34.5088 52.3819 34.5052C51.549 34.3666 51.7319 33.1231 52.5715 33.2329C52.5715 33.2329 54.4796 33.5175 54.4796 33.5175C55.1239 33.6013 55.2201 34.5317 54.6201 34.7521Z" fill="#F2BE22"/>
</g>
<path id="Vector_6" d="M27.4241 47.4694C16.1799 48.3548 12.9361 33.2829 23.6937 29.7912C23.9656 29.716 24.1565 29.473 24.1653 29.191C24.3386 21.8851 33.1421 17.79 38.7734 22.4407C39.6233 22.2596 40.5733 22.561 41.1551 23.1918C41.1978 23.1815 41.2416 23.1771 41.2847 23.1687C35.5513 15.762 23.6766 19.3566 22.9043 28.6861C12.1771 32.4424 14.1818 47.7001 25.4471 48.7555L27.9312 48.7555L27.4241 47.4694Z" fill="#0E5952"/>
<path id="Vector_7" d="M52.1911 35.7774C51.8213 35.7224 51.4951 35.5608 51.2296 35.334C51.2081 35.3836 51.1801 35.4288 51.1573 35.4775C56.4371 38.5486 54.8823 46.5985 48.7703 47.4173C48.7038 47.4254 48.658 47.4411 48.597 47.4694H38.6286C38.3933 47.7417 38.137 47.9966 37.8389 48.2073C37.8539 48.3916 37.8441 48.5733 37.8393 48.7555H48.597C48.7409 48.7555 48.8809 48.731 49.0159 48.6821C55.0031 47.9256 57.7864 40.4994 53.7888 36.0156L52.1911 35.7774Z" fill="#0E5952"/>
<path id="Vector_8" d="M41.1897 24.5254L40.5914 24.7613C40.3434 23.7414 39.1377 23.2919 38.367 24.0641C38.3671 24.0641 29.5095 33.1557 29.5095 33.1557C29.2584 33.4126 29.138 33.7594 29.1522 34.1072L28.4818 34.3715C27.7044 34.678 27.2437 35.4419 27.2698 36.2347L23.5703 37.6933C18.8857 39.7349 21.5853 46.5771 26.4007 44.8722C26.4007 44.8722 27.5972 44.4005 27.5972 44.4005L30.4266 51.577C30.8181 52.5701 31.9418 53.0534 32.929 52.6642L34.1255 52.1925C35.992 51.4566 36.9634 49.4146 36.4115 47.5239C37.7491 46.9965 38.5176 45.6979 38.4466 44.3547L46.5173 44.7371C47.6061 44.7771 48.1835 43.6234 47.6674 42.7088L48.2657 42.4729C49.2554 42.0827 49.743 40.9602 49.3528 39.9705L43.692 25.6126C43.3019 24.6229 42.1794 24.1352 41.1897 24.5254ZM28.5912 36.4021C28.4614 36.0731 28.6245 35.6977 28.9536 35.568L29.5518 35.3321L32.3822 42.5111L31.784 42.747C31.4549 42.8767 31.0819 42.7196 30.9498 42.3846L28.5912 36.4021ZM33.6537 50.996L32.4572 51.4677C32.1282 51.5974 31.7552 51.4403 31.6231 51.1053L28.7937 43.9288L30.0989 43.4142C30.6118 44.0233 31.493 44.2414 32.2557 43.9435C32.2557 43.9435 32.9235 43.6802 32.9235 43.6802C33.1213 43.9125 33.3974 44.0625 33.7039 44.1103L35.1032 47.6595C35.6142 48.9758 34.9864 50.4734 33.6537 50.996ZM46.578 43.4522L38.0887 43.0501C37.2579 41.3952 35.0607 40.7854 33.4961 41.83L30.5124 34.2622L30.4302 34.0537L39.2881 24.9619L46.578 43.4522Z" fill="#0E5952"/>
</g>
</g>
</g>
</svg>
